M72
M48
T1F00S00C0.032
T2F00S00C0.152
T3F00S00C0.028
T4F00S00C0.040
T5F00S00C0.044
T6F00S00C0.080
T7F00S00C0.068
T8F00S00C0.036
%
T01
X0214Y032
X03
X0292Y0346
Y0356
X0386Y032
X03975Y04465
X0358
X045Y0436
X049
X0504Y0446
Y0468
X0544
X0552
X055Y0434
X054
X053
X052
Y0404
X053
X054
X055
Y0388
X054
X053
X052
Y0358
X053
X054
X055
X0558Y032
X0472
X0504Y0406
X0568Y0428
X0608
X0604Y0394
X0592Y0468
X0644Y0464
X0646Y0454
Y0414
X0658Y041
X0668
Y038
X0658
X0644Y0394
X0646Y0364
X0628Y0374
Y0334
X0642Y032
X0728
X073Y0348
Y0388
X072Y041
Y045
X0684Y0464
X0686Y0364
X0814Y032
X09
X0894Y0402
X0884
X0874
X0864
X0854
X0844
X0834
Y0432
X0844
X0854
X0864
X0874
X0884
X0894
X089Y0452
Y0468
X088
X09
X091
X085Y0452
X082Y0432
X0946Y0468
X0986Y032
X0946Y0508
X0956Y052
X0916
X091Y0498
X09
X089
X088
X0878Y0526
X0858Y0512
X083
X0838Y0526
X0836Y054
Y058
X083Y0472
X082
X0858
X0746Y0574
Y0584
X0706
Y0574
X0692Y0584
Y0544
X066Y0504
Y0492
X062
Y0504
X0598Y0508
X0588
X0578
X0568
X0558
X0548
X0538
X0528
Y0538
X0538
X0548
X0558
X0568
X0578
X0588
X0598
X04Y0585
X036
X0324Y0586
Y0546
X0328Y0492
Y04725
X0358Y0486
X03975
X0284Y0472
X0254Y0476
X0214
X024Y0506
Y0516
X027
Y0506
X0284Y0512
X027Y0532
X031
X029Y0574
Y0584
T02
X023Y035
X097
Y057
X0361Y0528
X023Y057
T03
X0348Y0356
X0358
X0368
X0428
X0438
X0448
X0458
Y0416
X0448
X0438
X0428
X0368
X0358
X0348
X0568Y0412
X0588
Y0384
X057
Y0364
X0588
X0605Y0445
X0553Y045
X0546
X0539
X07Y0442
Y0462
X074Y0464
Y0444
X0736Y0431
X076Y0436
Y0446
Y0462
X078
X0712Y0396
X0697Y0382
X069
X0683
X0712Y0364
X0782Y0436
Y0446
X0814Y0449
X0834Y0444
Y0464
X0827Y0412
X0879Y0441
X0904Y0452
X0924
X091Y0432
Y04
X0946Y04364
X09558Y04462
X0946Y0456
X0932Y0476
Y0496
X09Y051
X088
X0882Y0488
X0845Y0484
X0814Y0478
X0804
X0794
X0784
Y0508
X0794
X0804
X0814
X0804Y0492
X0784Y0522
Y0542
X0895Y0528
X0902
X0909
X0926Y056
Y058
X0766Y0542
X0748
X073
X0714
Y0522
Y0508
X0724
X0734
X0744
X0754
X0764
X0774
X0766Y0522
X0748
X073
X0739Y0502
Y0492
X073Y049
X072Y0489
X0724Y0478
X0734
X0744
X0754
X0764
X0774
X0764Y0491
X0714Y0478
X0704
X0694
X0684
Y0508
X0694
X0704
X071Y056
X073
X06Y049
X058
X0564
X0544
X0528
X0508
X051Y0516
Y0536
X0508Y0556
X0528
X0469Y059
X0452Y0546
Y05381
X0426Y0486
Y0476
T04
X0218Y046
X0227
X0236
X0798Y0562
X0808
X0818
Y0572
X0808
X0798
X085Y058
X0866
Y054
X085
X0882Y0546
X0892
X0902
X0912
X0568Y0552
X0558
X0548
T05
X0286Y0394
Y0438
X0284Y0458
X0328
X0502Y0384
Y034
X0424Y0518
Y0528
Y0538
T06
X0478Y035
X0856Y0352
T07
X0268Y0378
Y03936
Y04092
Y04248
Y04405
T08
X0308Y0376
Y0446
M30
