%FSLAX23Y23*%
%MOIN*%
G70*
G01*
G75*
%ADD10C,0.021*%
%ADD11C,0.012*%
%ADD12C,0.035*%
%ADD13C,0.025*%
%ADD14C,0.045*%
%ADD15C,0.055*%
%ADD16C,0.009*%
%ADD17C,0.008*%
%ADD18C,0.010*%
%ADD19C,0.006*%
%ADD20C,0.005*%
%ADD21C,0.060*%
%ADD22C,0.200*%
%ADD23C,0.062*%
%ADD24R,0.062X0.062*%
%ADD25R,0.052X0.052*%
%ADD26C,0.052*%
%ADD27C,0.080*%
%ADD28C,0.055*%
%ADD29R,0.050X0.050*%
%ADD30C,0.050*%
%ADD31C,0.120*%
%ADD32R,0.060X0.060*%
%ADD33R,0.100X0.100*%
%ADD34C,0.100*%
%ADD35R,0.080X0.080*%
%ADD36P,0.065X8X0*%
%ADD37C,0.065*%
%ADD38R,0.065X0.065*%
%ADD39C,0.068*%
%ADD40C,0.208*%
%ADD41C,0.070*%
%ADD42R,0.070X0.070*%
%ADD43C,0.088*%
%ADD44C,0.063*%
%ADD45R,0.058X0.058*%
%ADD46C,0.058*%
%ADD47C,0.128*%
%ADD48R,0.068X0.068*%
%ADD49R,0.108X0.108*%
%ADD50C,0.108*%
%ADD51R,0.088X0.088*%
%ADD52P,0.073X8X0*%
%ADD53C,0.073*%
%ADD54R,0.073X0.073*%
%ADD55C,0.007*%
D13*
X10453Y5923D02*
X10452Y5932D01*
X10449Y5942D01*
X10445Y5950D01*
X10439Y5957D01*
X10431Y5964D01*
X10423Y5968D01*
X10414Y5971D01*
X10404Y5972D01*
X9303D02*
X9293Y5971D01*
X9284Y5968D01*
X9275Y5963D01*
X9268Y5957D01*
X9262Y5950D01*
X9257Y5941D01*
X9254Y5932D01*
X9253Y5922D01*
X10403Y6022D02*
X10413Y6023D01*
X10422Y6026D01*
X10431Y6030D01*
X10438Y6036D01*
X10445Y6044D01*
X10449Y6053D01*
X10452Y6062D01*
X10453Y6072D01*
X9253D02*
X9254Y6062D01*
X9257Y6053D01*
X9262Y6044D01*
X9268Y6036D01*
X9275Y6030D01*
X9284Y6026D01*
X9293Y6023D01*
X9303Y6022D01*
X10453Y6648D02*
X10452Y6658D01*
X10449Y6667D01*
X10445Y6676D01*
X10438Y6683D01*
X10430Y6689D01*
X10422Y6694D01*
X10412Y6696D01*
X10402Y6697D01*
X10403Y5747D02*
X10413Y5748D01*
X10422Y5751D01*
X10431Y5755D01*
X10438Y5761D01*
X10445Y5769D01*
X10449Y5778D01*
X10452Y5787D01*
X10453Y5797D01*
X10453Y5648D02*
X10452Y5657D01*
X10449Y5667D01*
X10444Y5675D01*
X10438Y5682D01*
X10431Y5689D01*
X10422Y5693D01*
X10413Y5696D01*
X10403Y5697D01*
Y5497D02*
X10413Y5498D01*
X10422Y5501D01*
X10431Y5505D01*
X10438Y5511D01*
X10445Y5519D01*
X10449Y5528D01*
X10452Y5537D01*
X10453Y5547D01*
X9153Y5747D02*
X9163Y5748D01*
X9172Y5751D01*
X9181Y5755D01*
X9188Y5761D01*
X9195Y5769D01*
X9199Y5778D01*
X9202Y5787D01*
X9203Y5797D01*
X9253Y5796D02*
X9254Y5786D01*
X9257Y5777D01*
X9262Y5768D01*
X9268Y5761D01*
X9275Y5755D01*
X9284Y5750D01*
X9293Y5748D01*
X9303Y5747D01*
X9203Y5923D02*
X9202Y5932D01*
X9199Y5942D01*
X9195Y5950D01*
X9189Y5957D01*
X9181Y5964D01*
X9173Y5968D01*
X9164Y5971D01*
X9154Y5972D01*
X6153Y5547D02*
X6154Y5537D01*
X6157Y5528D01*
X6161Y5519D01*
X6167Y5512D01*
X6175Y5506D01*
X6183Y5501D01*
X6193Y5498D01*
X6202Y5497D01*
X9154Y6022D02*
X9164Y6023D01*
X9173Y6026D01*
X9181Y6031D01*
X9189Y6037D01*
X9195Y6044D01*
X9199Y6053D01*
X9202Y6062D01*
X9203Y6072D01*
X6203Y5697D02*
X6193Y5696D01*
X6184Y5693D01*
X6175Y5688D01*
X6168Y5682D01*
X6162Y5675D01*
X6157Y5666D01*
X6154Y5657D01*
X6153Y5647D01*
X9203Y6397D02*
X9202Y6407D01*
X9199Y6416D01*
X9195Y6425D01*
X9188Y6432D01*
X9181Y6438D01*
X9172Y6443D01*
X9163Y6446D01*
X9153Y6447D01*
Y6497D02*
X9163Y6498D01*
X9172Y6501D01*
X9181Y6505D01*
X9188Y6511D01*
X9195Y6519D01*
X9199Y6528D01*
X9202Y6537D01*
X9203Y6547D01*
X9303Y6697D02*
X9293Y6696D01*
X9284Y6693D01*
X9275Y6688D01*
X9268Y6682D01*
X9262Y6675D01*
X9257Y6666D01*
X9254Y6657D01*
X9253Y6647D01*
X9203D02*
X9202Y6657D01*
X9199Y6666D01*
X9195Y6675D01*
X9188Y6682D01*
X9181Y6688D01*
X9172Y6693D01*
X9163Y6696D01*
X9153Y6697D01*
X6203D02*
X6193Y6696D01*
X6184Y6693D01*
X6175Y6688D01*
X6168Y6682D01*
X6162Y6675D01*
X6157Y6666D01*
X6154Y6657D01*
X6153Y6647D01*
Y6547D02*
X6154Y6537D01*
X6157Y6528D01*
X6162Y6519D01*
X6168Y6511D01*
X6175Y6505D01*
X6184Y6501D01*
X6193Y6498D01*
X6203Y6497D01*
Y6447D02*
X6193Y6446D01*
X6184Y6443D01*
X6175Y6438D01*
X6168Y6432D01*
X6162Y6425D01*
X6157Y6416D01*
X6154Y6407D01*
X6153Y6397D01*
Y6172D02*
X6154Y6162D01*
X6157Y6153D01*
X6162Y6144D01*
X6168Y6136D01*
X6175Y6130D01*
X6184Y6126D01*
X6193Y6123D01*
X6203Y6122D01*
Y6072D02*
X6193Y6071D01*
X6184Y6068D01*
X6175Y6063D01*
X6168Y6057D01*
X6162Y6050D01*
X6157Y6041D01*
X6154Y6032D01*
X6153Y6022D01*
Y5797D02*
X6154Y5787D01*
X6157Y5778D01*
X6161Y5769D01*
X6167Y5762D01*
X6175Y5756D01*
X6183Y5751D01*
X6193Y5748D01*
X6202Y5747D01*
X7103Y6447D02*
X7093Y6446D01*
X7084Y6443D01*
X7075Y6438D01*
X7068Y6432D01*
X7062Y6425D01*
X7057Y6416D01*
X7054Y6407D01*
X7053Y6397D01*
X7103Y5972D02*
X7093Y5971D01*
X7084Y5968D01*
X7075Y5963D01*
X7068Y5957D01*
X7062Y5950D01*
X7057Y5941D01*
X7054Y5932D01*
X7053Y5922D01*
X8851Y5972D02*
X8841Y5971D01*
X8832Y5968D01*
X8824Y5963D01*
X8816Y5957D01*
X8810Y5949D01*
X8806Y5940D01*
X8804Y5931D01*
X8803Y5921D01*
X8803Y5798D02*
X8804Y5788D01*
X8807Y5778D01*
X8812Y5770D01*
X8818Y5762D01*
X8825Y5756D01*
X8834Y5751D01*
X8843Y5748D01*
X8853Y5747D01*
X8704Y5747D02*
X8714Y5748D01*
X8723Y5751D01*
X8732Y5755D01*
X8739Y5761D01*
X8745Y5769D01*
X8750Y5778D01*
X8752Y5787D01*
X8753Y5797D01*
X8753Y5923D02*
X8752Y5932D01*
X8749Y5942D01*
X8745Y5950D01*
X8739Y5957D01*
X8731Y5964D01*
X8723Y5968D01*
X8714Y5971D01*
X8704Y5972D01*
X6954Y5747D02*
X6964Y5748D01*
X6973Y5751D01*
X6981Y5755D01*
X6989Y5761D01*
X6995Y5769D01*
X6999Y5777D01*
X7002Y5786D01*
X7003Y5796D01*
X7053D02*
X7054Y5786D01*
X7057Y5777D01*
X7061Y5769D01*
X7067Y5761D01*
X7075Y5755D01*
X7083Y5751D01*
X7093Y5748D01*
X7102Y5747D01*
X7053Y6071D02*
X7054Y6061D01*
X7057Y6052D01*
X7061Y6044D01*
X7067Y6036D01*
X7075Y6030D01*
X7083Y6026D01*
X7093Y6023D01*
X7102Y6022D01*
X7003Y6023D02*
X7002Y6033D01*
X6999Y6042D01*
X6995Y6051D01*
X6988Y6058D01*
X6980Y6064D01*
X6972Y6069D01*
X6962Y6071D01*
X6952Y6072D01*
X6955Y6122D02*
X6964Y6123D01*
X6973Y6125D01*
X6982Y6130D01*
X6989Y6136D01*
X6995Y6143D01*
X6999Y6151D01*
X7002Y6160D01*
X7003Y6170D01*
Y6398D02*
X7002Y6407D01*
X6999Y6417D01*
X6995Y6425D01*
X6989Y6432D01*
X6981Y6439D01*
X6973Y6443D01*
X6964Y6446D01*
X6954Y6447D01*
X9853Y5697D02*
X9843Y5696D01*
X9834Y5693D01*
X9825Y5688D01*
X9818Y5682D01*
X9812Y5675D01*
X9807Y5666D01*
X9804Y5657D01*
X9803Y5647D01*
Y5546D02*
X9804Y5536D01*
X9807Y5527D01*
X9812Y5518D01*
X9818Y5511D01*
X9825Y5505D01*
X9834Y5500D01*
X9843Y5498D01*
X9853Y5497D01*
X9704Y5497D02*
X9714Y5498D01*
X9723Y5500D01*
X9732Y5505D01*
X9739Y5511D01*
X9745Y5519D01*
X9750Y5527D01*
X9752Y5537D01*
X9753Y5546D01*
X9753Y5647D02*
X9752Y5657D01*
X9749Y5666D01*
X9745Y5675D01*
X9738Y5682D01*
X9731Y5688D01*
X9722Y5693D01*
X9713Y5696D01*
X9703Y5697D01*
X7978Y5547D02*
X7979Y5537D01*
X7982Y5528D01*
X7986Y5519D01*
X7992Y5512D01*
X8000Y5506D01*
X8008Y5501D01*
X8018Y5498D01*
X8027Y5497D01*
X8028Y5697D02*
X8018Y5696D01*
X8009Y5693D01*
X8000Y5688D01*
X7993Y5682D01*
X7987Y5675D01*
X7982Y5666D01*
X7979Y5657D01*
X7978Y5647D01*
X7879Y5497D02*
X7889Y5498D01*
X7898Y5500D01*
X7907Y5505D01*
X7914Y5511D01*
X7920Y5519D01*
X7925Y5527D01*
X7927Y5537D01*
X7928Y5546D01*
X7928Y5647D02*
X7927Y5657D01*
X7924Y5666D01*
X7920Y5675D01*
X7913Y5682D01*
X7906Y5688D01*
X7897Y5693D01*
X7888Y5696D01*
X7878Y5697D01*
X8028Y5497D02*
X9703D01*
X6203D02*
X7878D01*
X6203Y5697D02*
X7878D01*
X8028D02*
X9703D01*
X9853Y5497D02*
X10403D01*
X9853Y5697D02*
X10403D01*
X6203Y6697D02*
X9153D01*
X6203Y5747D02*
X6953D01*
X6203Y6072D02*
X6953D01*
X6203Y6122D02*
X6953D01*
X6203Y6447D02*
X6953D01*
X6203Y6497D02*
X9153D01*
X7103Y6447D02*
X9153D01*
X7103Y5972D02*
X8703D01*
X7103Y5747D02*
X8703D01*
X8853D02*
X9153D01*
X8853Y5972D02*
X9153D01*
X9303Y5747D02*
X10403D01*
X9303Y6697D02*
X10403D01*
X7103Y6022D02*
X9153D01*
X9303D02*
X10403D01*
X9303Y5972D02*
X10403D01*
X7928Y5547D02*
Y5647D01*
X7978Y5547D02*
Y5647D01*
X9753Y5547D02*
Y5647D01*
X9803Y5547D02*
Y5647D01*
X6153Y5797D02*
Y6022D01*
X7003Y5797D02*
Y6022D01*
X6153Y6172D02*
Y6397D01*
X7003Y6172D02*
Y6397D01*
X6153Y6547D02*
Y6647D01*
X9203Y6547D02*
Y6647D01*
Y6072D02*
Y6397D01*
X7053Y6072D02*
Y6397D01*
X8753Y5797D02*
Y5922D01*
X7053Y5797D02*
Y5922D01*
X8803Y5797D02*
Y5922D01*
X9203Y5797D02*
Y5922D01*
X10453Y5547D02*
Y5647D01*
Y5797D02*
Y5897D01*
X6153Y5547D02*
Y5647D01*
X9253Y6072D02*
Y6647D01*
X10453Y6072D02*
Y6647D01*
X9253Y5797D02*
Y5922D01*
D16*
X5130Y11499D02*
X5125Y11507D01*
X5112Y11512D01*
X5104D01*
X5091Y11507D01*
X5082Y11495D01*
X5078Y11473D01*
Y11452D01*
X5082Y11435D01*
X5091Y11426D01*
X5104Y11422D01*
X5108D01*
X5121Y11426D01*
X5130Y11435D01*
X5134Y11448D01*
Y11452D01*
X5130Y11465D01*
X5121Y11473D01*
X5108Y11478D01*
X5104D01*
X5091Y11473D01*
X5082Y11465D01*
X5078Y11452D01*
X5158Y11430D02*
X5154Y11426D01*
X5158Y11422D01*
X5162Y11426D01*
X5158Y11430D01*
X5208Y11512D02*
X5195Y11507D01*
X5186Y11495D01*
X5182Y11473D01*
Y11460D01*
X5186Y11439D01*
X5195Y11426D01*
X5208Y11422D01*
X5216D01*
X5229Y11426D01*
X5238Y11439D01*
X5242Y11460D01*
Y11473D01*
X5238Y11495D01*
X5229Y11507D01*
X5216Y11512D01*
X5208D01*
X5121Y9512D02*
X5078Y9452D01*
X5142D01*
X5121Y9512D02*
Y9422D01*
X5163Y9430D02*
X5158Y9426D01*
X5163Y9422D01*
X5167Y9426D01*
X5163Y9430D01*
X5212Y9512D02*
X5199Y9507D01*
X5191Y9495D01*
X5187Y9473D01*
Y9460D01*
X5191Y9439D01*
X5199Y9426D01*
X5212Y9422D01*
X5221D01*
X5234Y9426D01*
X5242Y9439D01*
X5247Y9460D01*
Y9473D01*
X5242Y9495D01*
X5234Y9507D01*
X5221Y9512D01*
X5212D01*
X5082Y7490D02*
Y7495D01*
X5087Y7503D01*
X5091Y7508D01*
X5100Y7512D01*
X5117D01*
X5125Y7508D01*
X5130Y7503D01*
X5134Y7495D01*
Y7486D01*
X5130Y7478D01*
X5121Y7465D01*
X5078Y7422D01*
X5138D01*
X5163Y7430D02*
X5158Y7426D01*
X5163Y7422D01*
X5167Y7426D01*
X5163Y7430D01*
X5212Y7512D02*
X5199Y7508D01*
X5191Y7495D01*
X5187Y7473D01*
Y7460D01*
X5191Y7439D01*
X5199Y7426D01*
X5212Y7422D01*
X5221D01*
X5234Y7426D01*
X5242Y7439D01*
X5247Y7460D01*
Y7473D01*
X5242Y7495D01*
X5234Y7508D01*
X5221Y7512D01*
X5212D01*
X5216Y5512D02*
X5203Y5508D01*
X5195Y5495D01*
X5191Y5473D01*
Y5460D01*
X5195Y5439D01*
X5203Y5426D01*
X5216Y5422D01*
X5225D01*
X5238Y5426D01*
X5246Y5439D01*
X5251Y5460D01*
Y5473D01*
X5246Y5495D01*
X5238Y5508D01*
X5225Y5512D01*
X5216D01*
X5103Y6495D02*
X5112Y6499D01*
X5125Y6512D01*
Y6422D01*
X5173Y6430D02*
X5169Y6426D01*
X5173Y6422D01*
X5178Y6426D01*
X5173Y6430D01*
X5223Y6512D02*
X5210Y6508D01*
X5202Y6495D01*
X5197Y6473D01*
Y6460D01*
X5202Y6439D01*
X5210Y6426D01*
X5223Y6422D01*
X5232D01*
X5245Y6426D01*
X5253Y6439D01*
X5257Y6460D01*
Y6473D01*
X5253Y6495D01*
X5245Y6508D01*
X5232Y6512D01*
X5223D01*
X5087Y8512D02*
X5134D01*
X5108Y8478D01*
X5121D01*
X5130Y8473D01*
X5134Y8469D01*
X5138Y8456D01*
Y8448D01*
X5134Y8435D01*
X5125Y8426D01*
X5112Y8422D01*
X5100D01*
X5087Y8426D01*
X5082Y8430D01*
X5078Y8439D01*
X5163Y8430D02*
X5158Y8426D01*
X5163Y8422D01*
X5167Y8426D01*
X5163Y8430D01*
X5212Y8512D02*
X5199Y8507D01*
X5191Y8495D01*
X5187Y8473D01*
Y8460D01*
X5191Y8439D01*
X5199Y8426D01*
X5212Y8422D01*
X5221D01*
X5234Y8426D01*
X5242Y8439D01*
X5247Y8460D01*
Y8473D01*
X5242Y8495D01*
X5234Y8507D01*
X5221Y8512D01*
X5212D01*
X5130Y10512D02*
X5087D01*
X5082Y10473D01*
X5087Y10478D01*
X5100Y10482D01*
X5112D01*
X5125Y10478D01*
X5134Y10469D01*
X5138Y10456D01*
Y10448D01*
X5134Y10435D01*
X5125Y10426D01*
X5112Y10422D01*
X5100D01*
X5087Y10426D01*
X5082Y10430D01*
X5078Y10439D01*
X5163Y10430D02*
X5158Y10426D01*
X5163Y10422D01*
X5167Y10426D01*
X5163Y10430D01*
X5212Y10512D02*
X5199Y10507D01*
X5191Y10495D01*
X5187Y10473D01*
Y10460D01*
X5191Y10439D01*
X5199Y10426D01*
X5212Y10422D01*
X5221D01*
X5234Y10426D01*
X5242Y10439D01*
X5247Y10460D01*
Y10473D01*
X5242Y10495D01*
X5234Y10507D01*
X5221Y10512D01*
X5212D01*
X12843Y4862D02*
X12753Y4905D01*
X12843Y4922D02*
Y4862D01*
X12762Y4837D02*
X12757Y4842D01*
X12753Y4837D01*
X12757Y4833D01*
X12762Y4837D01*
X12843Y4788D02*
X12839Y4801D01*
X12826Y4809D01*
X12805Y4813D01*
X12792D01*
X12770Y4809D01*
X12757Y4801D01*
X12753Y4788D01*
Y4779D01*
X12757Y4766D01*
X12770Y4758D01*
X12792Y4753D01*
X12805D01*
X12826Y4758D01*
X12839Y4766D01*
X12843Y4779D01*
Y4788D01*
X10843Y4870D02*
Y4913D01*
X10805Y4918D01*
X10809Y4913D01*
X10813Y4900D01*
Y4888D01*
X10809Y4875D01*
X10800Y4866D01*
X10787Y4862D01*
X10779D01*
X10766Y4866D01*
X10757Y4875D01*
X10753Y4888D01*
Y4900D01*
X10757Y4913D01*
X10762Y4918D01*
X10770Y4922D01*
X10762Y4837D02*
X10757Y4842D01*
X10753Y4837D01*
X10757Y4833D01*
X10762Y4837D01*
X10843Y4788D02*
X10839Y4801D01*
X10826Y4809D01*
X10805Y4813D01*
X10792D01*
X10770Y4809D01*
X10757Y4801D01*
X10753Y4788D01*
Y4779D01*
X10757Y4766D01*
X10770Y4758D01*
X10792Y4753D01*
X10805D01*
X10826Y4758D01*
X10839Y4766D01*
X10843Y4779D01*
Y4788D01*
X8843Y4913D02*
Y4866D01*
X8809Y4892D01*
Y4879D01*
X8805Y4870D01*
X8800Y4866D01*
X8787Y4862D01*
X8779D01*
X8766Y4866D01*
X8757Y4875D01*
X8753Y4888D01*
Y4900D01*
X8757Y4913D01*
X8762Y4918D01*
X8770Y4922D01*
X8762Y4837D02*
X8757Y4842D01*
X8753Y4837D01*
X8757Y4833D01*
X8762Y4837D01*
X8843Y4788D02*
X8839Y4801D01*
X8826Y4809D01*
X8805Y4813D01*
X8792D01*
X8770Y4809D01*
X8757Y4801D01*
X8753Y4788D01*
Y4779D01*
X8757Y4766D01*
X8770Y4758D01*
X8792Y4753D01*
X8805D01*
X8826Y4758D01*
X8839Y4766D01*
X8843Y4779D01*
Y4788D01*
X6826Y4922D02*
X6830Y4913D01*
X6843Y4900D01*
X6753D01*
X6762Y4852D02*
X6757Y4856D01*
X6753Y4852D01*
X6757Y4847D01*
X6762Y4852D01*
X6843Y4802D02*
X6839Y4815D01*
X6826Y4823D01*
X6805Y4828D01*
X6792D01*
X6770Y4823D01*
X6757Y4815D01*
X6753Y4802D01*
Y4793D01*
X6757Y4780D01*
X6770Y4772D01*
X6792Y4768D01*
X6805D01*
X6826Y4772D01*
X6839Y4780D01*
X6843Y4793D01*
Y4802D01*
X5843Y4896D02*
X5839Y4909D01*
X5826Y4918D01*
X5805Y4922D01*
X5792D01*
X5770Y4918D01*
X5757Y4909D01*
X5753Y4896D01*
Y4888D01*
X5757Y4875D01*
X5770Y4866D01*
X5792Y4862D01*
X5805D01*
X5826Y4866D01*
X5839Y4875D01*
X5843Y4888D01*
Y4896D01*
X7822Y4918D02*
X7826D01*
X7835Y4913D01*
X7839Y4909D01*
X7843Y4900D01*
Y4883D01*
X7839Y4875D01*
X7835Y4870D01*
X7826Y4866D01*
X7817D01*
X7809Y4870D01*
X7796Y4879D01*
X7753Y4922D01*
Y4862D01*
X7762Y4837D02*
X7757Y4842D01*
X7753Y4837D01*
X7757Y4833D01*
X7762Y4837D01*
X7843Y4788D02*
X7839Y4801D01*
X7826Y4809D01*
X7805Y4813D01*
X7792D01*
X7770Y4809D01*
X7757Y4801D01*
X7753Y4788D01*
Y4779D01*
X7757Y4766D01*
X7770Y4758D01*
X7792Y4753D01*
X7805D01*
X7826Y4758D01*
X7839Y4766D01*
X7843Y4779D01*
Y4788D01*
X9843Y4879D02*
X9783Y4922D01*
Y4858D01*
X9843Y4879D02*
X9753D01*
X9762Y4837D02*
X9757Y4842D01*
X9753Y4837D01*
X9757Y4833D01*
X9762Y4837D01*
X9843Y4788D02*
X9839Y4801D01*
X9826Y4809D01*
X9805Y4813D01*
X9792D01*
X9770Y4809D01*
X9757Y4801D01*
X9753Y4788D01*
Y4779D01*
X9757Y4766D01*
X9770Y4758D01*
X9792Y4753D01*
X9805D01*
X9826Y4758D01*
X9839Y4766D01*
X9843Y4779D01*
Y4788D01*
X11830Y4870D02*
X11839Y4875D01*
X11843Y4888D01*
Y4896D01*
X11839Y4909D01*
X11826Y4918D01*
X11805Y4922D01*
X11783D01*
X11766Y4918D01*
X11757Y4909D01*
X11753Y4896D01*
Y4892D01*
X11757Y4879D01*
X11766Y4870D01*
X11779Y4866D01*
X11783D01*
X11796Y4870D01*
X11805Y4879D01*
X11809Y4892D01*
Y4896D01*
X11805Y4909D01*
X11796Y4918D01*
X11783Y4922D01*
X11762Y4842D02*
X11757Y4846D01*
X11753Y4842D01*
X11757Y4838D01*
X11762Y4842D01*
X11843Y4792D02*
X11839Y4805D01*
X11826Y4814D01*
X11805Y4818D01*
X11792D01*
X11770Y4814D01*
X11757Y4805D01*
X11753Y4792D01*
Y4784D01*
X11757Y4771D01*
X11770Y4762D01*
X11792Y4758D01*
X11805D01*
X11826Y4762D01*
X11839Y4771D01*
X11843Y4784D01*
Y4792D01*
X5616Y5212D02*
X5676Y5122D01*
Y5212D02*
X5616Y5122D01*
X5543Y5334D02*
X5500Y5300D01*
X5453D01*
X5543Y5266D02*
X5500Y5300D01*
X9528Y5882D02*
X9537Y5886D01*
X9550Y5899D01*
Y5809D01*
X9620Y5899D02*
X9607Y5895D01*
X9598Y5882D01*
X9594Y5861D01*
Y5848D01*
X9598Y5826D01*
X9607Y5814D01*
X9620Y5809D01*
X9628D01*
X9641Y5814D01*
X9650Y5826D01*
X9654Y5848D01*
Y5861D01*
X9650Y5882D01*
X9641Y5895D01*
X9628Y5899D01*
X9620D01*
X9674Y5848D02*
X9751D01*
X9821Y5899D02*
Y5831D01*
X9816Y5818D01*
X9812Y5814D01*
X9804Y5809D01*
X9795D01*
X9786Y5814D01*
X9782Y5818D01*
X9778Y5831D01*
Y5839D01*
X9844Y5869D02*
Y5826D01*
X9848Y5814D01*
X9857Y5809D01*
X9870D01*
X9878Y5814D01*
X9891Y5826D01*
Y5869D02*
Y5809D01*
X9915Y5869D02*
Y5809D01*
Y5852D02*
X9927Y5865D01*
X9936Y5869D01*
X9949D01*
X9957Y5865D01*
X9962Y5852D01*
Y5809D01*
X9985Y5848D02*
X10062D01*
X10093Y5878D02*
Y5882D01*
X10098Y5891D01*
X10102Y5895D01*
X10110Y5899D01*
X10128D01*
X10136Y5895D01*
X10140Y5891D01*
X10145Y5882D01*
Y5874D01*
X10140Y5865D01*
X10132Y5852D01*
X10089Y5809D01*
X10149D01*
X10195Y5899D02*
X10182Y5895D01*
X10173Y5882D01*
X10169Y5861D01*
Y5848D01*
X10173Y5826D01*
X10182Y5814D01*
X10195Y5809D01*
X10203D01*
X10216Y5814D01*
X10225Y5826D01*
X10229Y5848D01*
Y5861D01*
X10225Y5882D01*
X10216Y5895D01*
X10203Y5899D01*
X10195D01*
X10275D02*
X10262Y5895D01*
X10254Y5882D01*
X10249Y5861D01*
Y5848D01*
X10254Y5826D01*
X10262Y5814D01*
X10275Y5809D01*
X10284D01*
X10296Y5814D01*
X10305Y5826D01*
X10309Y5848D01*
Y5861D01*
X10305Y5882D01*
X10296Y5895D01*
X10284Y5899D01*
X10275D01*
X10385Y5869D02*
X10381Y5856D01*
X10372Y5848D01*
X10359Y5844D01*
X10355D01*
X10342Y5848D01*
X10334Y5856D01*
X10329Y5869D01*
Y5874D01*
X10334Y5886D01*
X10342Y5895D01*
X10355Y5899D01*
X10359D01*
X10372Y5895D01*
X10381Y5886D01*
X10385Y5869D01*
Y5848D01*
X10381Y5826D01*
X10372Y5814D01*
X10359Y5809D01*
X10351D01*
X10338Y5814D01*
X10334Y5822D01*
X9623Y6277D02*
Y6187D01*
X9683Y6277D02*
Y6187D01*
X9623Y6234D02*
X9683D01*
X9764Y6277D02*
X9708D01*
Y6187D01*
X9764D01*
X9708Y6234D02*
X9742D01*
X9779Y6277D02*
Y6187D01*
Y6277D02*
X9817D01*
X9830Y6273D01*
X9834Y6268D01*
X9839Y6260D01*
Y6251D01*
X9834Y6243D01*
X9830Y6238D01*
X9817Y6234D01*
X9779D01*
X9809D02*
X9839Y6187D01*
X9914Y6277D02*
X9859D01*
Y6187D01*
X9914D01*
X9859Y6234D02*
X9893D01*
X9623Y6437D02*
Y6347D01*
X9675D01*
X9710Y6437D02*
X9702Y6432D01*
X9693Y6424D01*
X9689Y6415D01*
X9684Y6403D01*
Y6381D01*
X9689Y6368D01*
X9693Y6360D01*
X9702Y6351D01*
X9710Y6347D01*
X9727D01*
X9736Y6351D01*
X9744Y6360D01*
X9749Y6368D01*
X9753Y6381D01*
Y6403D01*
X9749Y6415D01*
X9744Y6424D01*
X9736Y6432D01*
X9727Y6437D01*
X9710D01*
X9838Y6415D02*
X9834Y6424D01*
X9825Y6432D01*
X9817Y6437D01*
X9800D01*
X9791Y6432D01*
X9783Y6424D01*
X9778Y6415D01*
X9774Y6403D01*
Y6381D01*
X9778Y6368D01*
X9783Y6360D01*
X9791Y6351D01*
X9800Y6347D01*
X9817D01*
X9825Y6351D01*
X9834Y6360D01*
X9838Y6368D01*
Y6381D01*
X9817D02*
X9838D01*
X9884Y6437D02*
X9876Y6432D01*
X9867Y6424D01*
X9863Y6415D01*
X9859Y6403D01*
Y6381D01*
X9863Y6368D01*
X9867Y6360D01*
X9876Y6351D01*
X9884Y6347D01*
X9902D01*
X9910Y6351D01*
X9919Y6360D01*
X9923Y6368D01*
X9927Y6381D01*
Y6403D01*
X9923Y6415D01*
X9919Y6424D01*
X9910Y6432D01*
X9902Y6437D01*
X9884D01*
X9623Y6530D02*
X9662D01*
X9675Y6534D01*
X9679Y6538D01*
X9683Y6547D01*
Y6560D01*
X9679Y6568D01*
X9675Y6573D01*
X9662Y6577D01*
X9623D01*
Y6487D01*
X9703Y6577D02*
Y6487D01*
X9755D01*
X9833D02*
X9799Y6577D01*
X9765Y6487D01*
X9777Y6517D02*
X9820D01*
X9918Y6555D02*
X9914Y6564D01*
X9905Y6573D01*
X9897Y6577D01*
X9880D01*
X9871Y6573D01*
X9863Y6564D01*
X9858Y6555D01*
X9854Y6543D01*
Y6521D01*
X9858Y6508D01*
X9863Y6500D01*
X9871Y6491D01*
X9880Y6487D01*
X9897D01*
X9905Y6491D01*
X9914Y6500D01*
X9918Y6508D01*
X9999Y6577D02*
X9944D01*
Y6487D01*
X9999D01*
X9944Y6534D02*
X9978D01*
X9041Y5899D02*
X9028Y5895D01*
X9020Y5882D01*
X9016Y5861D01*
Y5848D01*
X9020Y5826D01*
X9028Y5814D01*
X9041Y5809D01*
X9050D01*
X9063Y5814D01*
X9071Y5826D01*
X9076Y5848D01*
Y5861D01*
X9071Y5882D01*
X9063Y5895D01*
X9050Y5899D01*
X9041D01*
X9096Y5882D02*
X9104Y5886D01*
X9117Y5899D01*
Y5809D01*
X8283Y5637D02*
Y5547D01*
Y5637D02*
X8313D01*
X8326Y5633D01*
X8335Y5624D01*
X8339Y5615D01*
X8343Y5603D01*
Y5581D01*
X8339Y5568D01*
X8335Y5560D01*
X8326Y5551D01*
X8313Y5547D01*
X8283D01*
X8363Y5607D02*
Y5547D01*
Y5581D02*
X8368Y5594D01*
X8376Y5603D01*
X8385Y5607D01*
X8398D01*
X8414Y5637D02*
X8419Y5633D01*
X8423Y5637D01*
X8419Y5641D01*
X8414Y5637D01*
X8419Y5607D02*
Y5547D01*
X8439Y5637D02*
Y5547D01*
X8458Y5637D02*
Y5547D01*
X8541Y5615D02*
X8536Y5624D01*
X8528Y5633D01*
X8519Y5637D01*
X8502D01*
X8494Y5633D01*
X8485Y5624D01*
X8481Y5615D01*
X8476Y5603D01*
Y5581D01*
X8481Y5568D01*
X8485Y5560D01*
X8494Y5551D01*
X8502Y5547D01*
X8519D01*
X8528Y5551D01*
X8536Y5560D01*
X8541Y5568D01*
Y5581D01*
X8519D02*
X8541D01*
X8561Y5607D02*
Y5564D01*
X8565Y5551D01*
X8574Y5547D01*
X8587D01*
X8595Y5551D01*
X8608Y5564D01*
Y5607D02*
Y5547D01*
X8640Y5637D02*
X8645Y5633D01*
X8649Y5637D01*
X8645Y5641D01*
X8640Y5637D01*
X8645Y5607D02*
Y5547D01*
X8716Y5637D02*
Y5547D01*
Y5594D02*
X8708Y5603D01*
X8699Y5607D01*
X8686D01*
X8678Y5603D01*
X8669Y5594D01*
X8665Y5581D01*
Y5573D01*
X8669Y5560D01*
X8678Y5551D01*
X8686Y5547D01*
X8699D01*
X8708Y5551D01*
X8716Y5560D01*
X8740Y5581D02*
X8792D01*
Y5590D01*
X8787Y5598D01*
X8783Y5603D01*
X8775Y5607D01*
X8762D01*
X8753Y5603D01*
X8745Y5594D01*
X8740Y5581D01*
Y5573D01*
X8745Y5560D01*
X8753Y5551D01*
X8762Y5547D01*
X8775D01*
X8783Y5551D01*
X8792Y5560D01*
X6667Y5615D02*
X6663Y5624D01*
X6655Y5633D01*
X6646Y5637D01*
X6629D01*
X6620Y5633D01*
X6612Y5624D01*
X6607Y5615D01*
X6603Y5603D01*
Y5581D01*
X6607Y5568D01*
X6612Y5560D01*
X6620Y5551D01*
X6629Y5547D01*
X6646D01*
X6655Y5551D01*
X6663Y5560D01*
X6667Y5568D01*
X6714Y5607D02*
X6706Y5603D01*
X6697Y5594D01*
X6693Y5581D01*
Y5573D01*
X6697Y5560D01*
X6706Y5551D01*
X6714Y5547D01*
X6727D01*
X6736Y5551D01*
X6744Y5560D01*
X6748Y5573D01*
Y5581D01*
X6744Y5594D01*
X6736Y5603D01*
X6727Y5607D01*
X6714D01*
X6768D02*
Y5564D01*
X6772Y5551D01*
X6781Y5547D01*
X6794D01*
X6802Y5551D01*
X6815Y5564D01*
Y5607D02*
Y5547D01*
X6890Y5607D02*
Y5538D01*
X6886Y5525D01*
X6882Y5521D01*
X6873Y5517D01*
X6860D01*
X6852Y5521D01*
X6890Y5594D02*
X6882Y5603D01*
X6873Y5607D01*
X6860D01*
X6852Y5603D01*
X6843Y5594D01*
X6839Y5581D01*
Y5573D01*
X6843Y5560D01*
X6852Y5551D01*
X6860Y5547D01*
X6873D01*
X6882Y5551D01*
X6890Y5560D01*
X6966Y5607D02*
Y5547D01*
Y5594D02*
X6957Y5603D01*
X6948Y5607D01*
X6936D01*
X6927Y5603D01*
X6918Y5594D01*
X6914Y5581D01*
Y5573D01*
X6918Y5560D01*
X6927Y5551D01*
X6936Y5547D01*
X6948D01*
X6957Y5551D01*
X6966Y5560D01*
X6990Y5607D02*
Y5547D01*
Y5581D02*
X6994Y5594D01*
X7002Y5603D01*
X7011Y5607D01*
X7024D01*
X7167Y5615D02*
X7163Y5624D01*
X7154Y5633D01*
X7146Y5637D01*
X7128D01*
X7120Y5633D01*
X7111Y5624D01*
X7107Y5615D01*
X7103Y5603D01*
Y5581D01*
X7107Y5568D01*
X7111Y5560D01*
X7120Y5551D01*
X7128Y5547D01*
X7146D01*
X7154Y5551D01*
X7163Y5560D01*
X7167Y5568D01*
X7214Y5607D02*
X7205Y5603D01*
X7197Y5594D01*
X7192Y5581D01*
Y5573D01*
X7197Y5560D01*
X7205Y5551D01*
X7214Y5547D01*
X7227D01*
X7235Y5551D01*
X7244Y5560D01*
X7248Y5573D01*
Y5581D01*
X7244Y5594D01*
X7235Y5603D01*
X7227Y5607D01*
X7214D01*
X7268D02*
Y5547D01*
Y5590D02*
X7281Y5603D01*
X7289Y5607D01*
X7302D01*
X7311Y5603D01*
X7315Y5590D01*
Y5547D01*
X7351Y5637D02*
Y5564D01*
X7356Y5551D01*
X7364Y5547D01*
X7373D01*
X7338Y5607D02*
X7368D01*
X7386D02*
Y5547D01*
Y5581D02*
X7390Y5594D01*
X7398Y5603D01*
X7407Y5607D01*
X7420D01*
X7449D02*
X7441Y5603D01*
X7432Y5594D01*
X7428Y5581D01*
Y5573D01*
X7432Y5560D01*
X7441Y5551D01*
X7449Y5547D01*
X7462D01*
X7471Y5551D01*
X7479Y5560D01*
X7484Y5573D01*
Y5581D01*
X7479Y5594D01*
X7471Y5603D01*
X7462Y5607D01*
X7449D01*
X7503Y5637D02*
Y5547D01*
X7522Y5637D02*
Y5547D01*
X7541Y5581D02*
X7592D01*
Y5590D01*
X7588Y5598D01*
X7584Y5603D01*
X7575Y5607D01*
X7562D01*
X7554Y5603D01*
X7545Y5594D01*
X7541Y5581D01*
Y5573D01*
X7545Y5560D01*
X7554Y5551D01*
X7562Y5547D01*
X7575D01*
X7584Y5551D01*
X7592Y5560D01*
X7612Y5607D02*
Y5547D01*
Y5581D02*
X7616Y5594D01*
X7625Y5603D01*
X7633Y5607D01*
X7646D01*
X7658Y5555D02*
X7654Y5551D01*
X7658Y5547D01*
X7663Y5551D01*
X7658Y5555D01*
X7682Y5590D02*
X7721D01*
X7734Y5594D01*
X7738Y5598D01*
X7742Y5607D01*
Y5620D01*
X7738Y5628D01*
X7734Y5633D01*
X7721Y5637D01*
X7682D01*
Y5547D01*
X7827Y5615D02*
X7823Y5624D01*
X7814Y5633D01*
X7805Y5637D01*
X7788D01*
X7780Y5633D01*
X7771Y5624D01*
X7767Y5615D01*
X7763Y5603D01*
Y5581D01*
X7767Y5568D01*
X7771Y5560D01*
X7780Y5551D01*
X7788Y5547D01*
X7805D01*
X7814Y5551D01*
X7823Y5560D01*
X7827Y5568D01*
X7852Y5637D02*
Y5547D01*
Y5637D02*
X7891D01*
X7904Y5633D01*
X7908Y5628D01*
X7912Y5620D01*
Y5611D01*
X7908Y5603D01*
X7904Y5598D01*
X7891Y5594D01*
X7852D02*
X7891D01*
X7904Y5590D01*
X7908Y5585D01*
X7912Y5577D01*
Y5564D01*
X7908Y5555D01*
X7904Y5551D01*
X7891Y5547D01*
X7852D01*
D17*
X12853Y5472D02*
X12852Y5482D01*
X12849Y5492D01*
X12844Y5500D01*
X12838Y5508D01*
X12830Y5514D01*
X12820Y5519D01*
X12811Y5521D01*
X12801Y5522D01*
X12791Y5520D01*
X12781Y5517D01*
X12773Y5511D01*
X12765Y5504D01*
X12759Y5496D01*
X12755Y5487D01*
X12753Y5477D01*
Y5467D01*
X12755Y5457D01*
X12759Y5448D01*
X12765Y5439D01*
X12773Y5432D01*
X12781Y5427D01*
X12791Y5423D01*
X12801Y5422D01*
X12811Y5422D01*
X12820Y5425D01*
X12830Y5429D01*
X12838Y5436D01*
X12844Y5443D01*
X12849Y5452D01*
X12852Y5462D01*
X12853Y5472D01*
X12878D02*
X12877Y5482D01*
X12875Y5492D01*
X12872Y5501D01*
X12868Y5510D01*
X12862Y5518D01*
X12855Y5526D01*
X12848Y5532D01*
X12839Y5538D01*
X12830Y5542D01*
X12821Y5545D01*
X12811Y5546D01*
X12801Y5547D01*
X12791Y5546D01*
X12781Y5543D01*
X12772Y5540D01*
X12763Y5535D01*
X12755Y5529D01*
X12748Y5522D01*
X12741Y5514D01*
X12736Y5506D01*
X12732Y5496D01*
X12730Y5487D01*
X12728Y5477D01*
Y5467D01*
X12730Y5457D01*
X12732Y5447D01*
X12736Y5438D01*
X12741Y5429D01*
X12748Y5421D01*
X12755Y5415D01*
X12763Y5409D01*
X12772Y5404D01*
X12781Y5400D01*
X12791Y5398D01*
X12801Y5397D01*
X12811Y5397D01*
X12821Y5399D01*
X12830Y5402D01*
X12839Y5406D01*
X12848Y5411D01*
X12855Y5418D01*
X12862Y5425D01*
X12868Y5434D01*
X12872Y5443D01*
X12875Y5452D01*
X12877Y5462D01*
X12878Y5472D01*
X12806D02*
X12801D01*
X12806D01*
X12808D02*
X12801Y5476D01*
Y5467D01*
X12808Y5472D01*
X12823D02*
X12821Y5481D01*
X12814Y5488D01*
X12806Y5492D01*
X12796Y5490D01*
X12788Y5485D01*
X12784Y5477D01*
Y5467D01*
X12788Y5459D01*
X12796Y5453D01*
X12806Y5452D01*
X12814Y5455D01*
X12821Y5462D01*
X12823Y5472D01*
X12818D02*
X12815Y5481D01*
X12806Y5487D01*
X12796Y5485D01*
X12789Y5477D01*
Y5467D01*
X12796Y5459D01*
X12806Y5457D01*
X12815Y5462D01*
X12818Y5472D01*
X12813D02*
X12808Y5480D01*
X12798D01*
X12793Y5472D01*
X12798Y5463D01*
X12808D01*
X12813Y5472D01*
X5878Y11472D02*
X5877Y11482D01*
X5875Y11492D01*
X5872Y11501D01*
X5868Y11510D01*
X5862Y11518D01*
X5855Y11526D01*
X5848Y11532D01*
X5839Y11538D01*
X5830Y11542D01*
X5821Y11545D01*
X5811Y11546D01*
X5801Y11547D01*
X5791Y11546D01*
X5781Y11543D01*
X5772Y11540D01*
X5763Y11535D01*
X5755Y11529D01*
X5747Y11522D01*
X5741Y11514D01*
X5736Y11506D01*
X5732Y11496D01*
X5730Y11487D01*
X5728Y11477D01*
Y11467D01*
X5730Y11457D01*
X5732Y11447D01*
X5736Y11438D01*
X5741Y11429D01*
X5747Y11421D01*
X5755Y11415D01*
X5763Y11409D01*
X5772Y11404D01*
X5781Y11400D01*
X5791Y11398D01*
X5801Y11397D01*
X5811Y11397D01*
X5821Y11399D01*
X5830Y11402D01*
X5839Y11406D01*
X5848Y11411D01*
X5855Y11418D01*
X5862Y11425D01*
X5868Y11434D01*
X5872Y11443D01*
X5875Y11452D01*
X5877Y11462D01*
X5878Y11472D01*
X5806D02*
X5801D01*
X5806D01*
X5808D02*
X5801Y11476D01*
Y11467D01*
X5808Y11472D01*
X5813D02*
X5808Y11480D01*
X5798D01*
X5793Y11472D01*
X5798Y11463D01*
X5808D01*
X5813Y11472D01*
X5818D02*
X5815Y11481D01*
X5806Y11487D01*
X5796Y11485D01*
X5789Y11477D01*
Y11467D01*
X5796Y11459D01*
X5806Y11457D01*
X5815Y11462D01*
X5818Y11472D01*
X5823D02*
X5821Y11481D01*
X5814Y11488D01*
X5806Y11492D01*
X5796Y11491D01*
X5788Y11485D01*
X5784Y11477D01*
Y11467D01*
X5788Y11459D01*
X5796Y11453D01*
X5806Y11452D01*
X5814Y11455D01*
X5821Y11463D01*
X5823Y11472D01*
X5853D02*
X5852Y11482D01*
X5849Y11492D01*
X5844Y11500D01*
X5838Y11508D01*
X5830Y11514D01*
X5820Y11519D01*
X5811Y11521D01*
X5801Y11522D01*
X5791Y11520D01*
X5781Y11517D01*
X5773Y11511D01*
X5765Y11504D01*
X5759Y11496D01*
X5755Y11487D01*
X5753Y11477D01*
Y11467D01*
X5755Y11457D01*
X5759Y11448D01*
X5765Y11439D01*
X5773Y11432D01*
X5781Y11427D01*
X5791Y11423D01*
X5801Y11422D01*
X5811Y11422D01*
X5820Y11425D01*
X5830Y11429D01*
X5838Y11436D01*
X5844Y11443D01*
X5849Y11452D01*
X5852Y11462D01*
X5853Y11472D01*
X5853Y5472D02*
X5852Y5482D01*
X5849Y5492D01*
X5844Y5500D01*
X5838Y5508D01*
X5830Y5514D01*
X5820Y5519D01*
X5811Y5521D01*
X5801Y5522D01*
X5791Y5520D01*
X5781Y5517D01*
X5773Y5511D01*
X5765Y5504D01*
X5759Y5496D01*
X5755Y5487D01*
X5753Y5477D01*
Y5467D01*
X5755Y5457D01*
X5759Y5448D01*
X5765Y5439D01*
X5773Y5432D01*
X5781Y5427D01*
X5791Y5423D01*
X5801Y5422D01*
X5811Y5422D01*
X5820Y5425D01*
X5830Y5429D01*
X5838Y5436D01*
X5844Y5443D01*
X5849Y5452D01*
X5852Y5462D01*
X5853Y5472D01*
X5878D02*
X5877Y5482D01*
X5875Y5492D01*
X5872Y5501D01*
X5868Y5510D01*
X5862Y5518D01*
X5855Y5526D01*
X5848Y5532D01*
X5839Y5538D01*
X5830Y5542D01*
X5821Y5545D01*
X5811Y5546D01*
X5801Y5547D01*
X5791Y5546D01*
X5781Y5543D01*
X5772Y5540D01*
X5763Y5535D01*
X5755Y5529D01*
X5748Y5522D01*
X5741Y5514D01*
X5736Y5506D01*
X5732Y5496D01*
X5730Y5487D01*
X5728Y5477D01*
Y5467D01*
X5730Y5457D01*
X5732Y5447D01*
X5736Y5438D01*
X5741Y5429D01*
X5748Y5421D01*
X5755Y5415D01*
X5763Y5409D01*
X5772Y5404D01*
X5781Y5400D01*
X5791Y5398D01*
X5801Y5397D01*
X5811Y5397D01*
X5821Y5399D01*
X5830Y5402D01*
X5839Y5406D01*
X5848Y5411D01*
X5855Y5418D01*
X5862Y5425D01*
X5868Y5434D01*
X5872Y5443D01*
X5875Y5452D01*
X5877Y5462D01*
X5878Y5472D01*
X5806D02*
X5801D01*
X5806D01*
X5808D02*
X5801Y5476D01*
Y5467D01*
X5808Y5472D01*
X5823D02*
X5821Y5481D01*
X5814Y5488D01*
X5806Y5492D01*
X5796Y5490D01*
X5788Y5485D01*
X5784Y5477D01*
Y5467D01*
X5788Y5459D01*
X5796Y5453D01*
X5806Y5452D01*
X5814Y5455D01*
X5821Y5462D01*
X5823Y5472D01*
X5813D02*
X5808Y5480D01*
X5798D01*
X5793Y5472D01*
X5798Y5463D01*
X5808D01*
X5813Y5472D01*
X5818D02*
X5815Y5481D01*
X5806Y5487D01*
X5796Y5485D01*
X5789Y5477D01*
Y5467D01*
X5796Y5459D01*
X5806Y5457D01*
X5815Y5462D01*
X5818Y5472D01*
X5878D02*
X5928D01*
X5578D02*
X5728D01*
X5503Y5172D02*
X5578D01*
X5478Y5397D02*
X5528D01*
X5489Y5405D02*
X5518D01*
X5494Y5408D02*
X5513D01*
X5484Y5401D02*
X5523D01*
X5499Y5412D02*
X5508D01*
X5703Y5172D02*
X5728D01*
X5303Y5472D02*
X5503D01*
X5428Y5572D02*
X5503D01*
X5428Y5672D02*
X5503D01*
X5428Y5772D02*
X5503D01*
X5428Y5872D02*
X5503D01*
X5353Y5972D02*
X5503D01*
X5428Y6072D02*
X5503D01*
X5428Y6172D02*
X5503D01*
X5428Y6272D02*
X5503D01*
X5428Y6372D02*
X5503D01*
X5303Y6472D02*
X5503D01*
X5428Y6572D02*
X5503D01*
X5428Y6672D02*
X5503D01*
X5428Y6772D02*
X5503D01*
X5428Y6872D02*
X5503D01*
X5353Y6972D02*
X5503D01*
X5428Y7072D02*
X5503D01*
X5428Y7172D02*
X5503D01*
X5428Y7272D02*
X5503D01*
X5428Y7372D02*
X5503D01*
X5303Y7472D02*
X5503D01*
X5428Y7572D02*
X5503D01*
X5428Y7672D02*
X5503D01*
X5428Y7772D02*
X5503D01*
X5428Y7872D02*
X5503D01*
X5353Y7972D02*
X5503D01*
X5428Y8072D02*
X5503D01*
X5428Y8172D02*
X5503D01*
X5428Y8272D02*
X5503D01*
X5428Y8372D02*
X5503D01*
X5303Y8472D02*
X5503D01*
X5428Y8572D02*
X5503D01*
X5428Y8672D02*
X5503D01*
X5428Y8772D02*
X5503D01*
X5428Y8872D02*
X5503D01*
X5353Y8972D02*
X5503D01*
X5428Y9072D02*
X5503D01*
X5428Y9172D02*
X5503D01*
X5428Y9272D02*
X5503D01*
X5428Y9372D02*
X5503D01*
X5303Y9472D02*
X5503D01*
X5428Y9572D02*
X5503D01*
X5428Y9672D02*
X5503D01*
X5428Y9772D02*
X5503D01*
X5428Y9872D02*
X5503D01*
X5353Y9972D02*
X5503D01*
X5428Y10072D02*
X5503D01*
X5428Y10172D02*
X5503D01*
X5428Y10272D02*
X5503D01*
X5428Y10372D02*
X5503D01*
X5303Y10472D02*
X5503D01*
X5428Y10572D02*
X5503D01*
X5428Y10672D02*
X5503D01*
X5428Y10772D02*
X5503D01*
X5428Y10872D02*
X5503D01*
X5353Y10972D02*
X5503D01*
X5428Y11072D02*
X5503D01*
X5428Y11172D02*
X5503D01*
X5428Y11272D02*
X5503D01*
X5428Y11372D02*
X5503D01*
X5303Y11472D02*
X5503D01*
X5803D02*
X5853D01*
X5753D02*
X5803D01*
X5578D02*
X5728D01*
X5878D02*
X5928D01*
X12678Y5472D02*
X12728D01*
X12878D02*
X12928D01*
X5803Y5247D02*
Y5397D01*
Y5547D02*
Y5597D01*
X5503Y5172D02*
Y5247D01*
X5728Y5147D02*
Y5197D01*
X5736Y5157D02*
Y5186D01*
X5503Y5372D02*
Y5397D01*
X5740Y5162D02*
Y5181D01*
X5733Y5152D02*
Y5191D01*
X5743Y5167D02*
Y5176D01*
X5803Y4972D02*
Y5172D01*
X5903Y5097D02*
Y5172D01*
X6003Y5097D02*
Y5172D01*
X6103Y5097D02*
Y5172D01*
X6203Y5097D02*
Y5172D01*
X6303Y5022D02*
Y5172D01*
X6403Y5097D02*
Y5172D01*
X6503Y5097D02*
Y5172D01*
X6603Y5097D02*
Y5172D01*
X6703Y5097D02*
Y5172D01*
X6803Y4972D02*
Y5172D01*
X6903Y5097D02*
Y5172D01*
X7003Y5097D02*
Y5172D01*
X7103Y5097D02*
Y5172D01*
X7203Y5097D02*
Y5172D01*
X7303Y5022D02*
Y5172D01*
X7403Y5097D02*
Y5172D01*
X7503Y5097D02*
Y5172D01*
X7603Y5097D02*
Y5172D01*
X7703Y5097D02*
Y5172D01*
X7803Y4972D02*
Y5172D01*
X7903Y5097D02*
Y5172D01*
X8003Y5097D02*
Y5172D01*
X8103Y5097D02*
Y5172D01*
X8203Y5097D02*
Y5172D01*
X8303Y5022D02*
Y5172D01*
X8403Y5097D02*
Y5172D01*
X8503Y5097D02*
Y5172D01*
X8603Y5097D02*
Y5172D01*
X8703Y5097D02*
Y5172D01*
X8803Y4972D02*
Y5172D01*
X8903Y5097D02*
Y5172D01*
X9003Y5097D02*
Y5172D01*
X9103Y5097D02*
Y5172D01*
X9203Y5097D02*
Y5172D01*
X9303Y5022D02*
Y5172D01*
X9403Y5097D02*
Y5172D01*
X9503Y5097D02*
Y5172D01*
X9603Y5097D02*
Y5172D01*
X9703Y5097D02*
Y5172D01*
X9803Y4972D02*
Y5172D01*
X9903Y5097D02*
Y5172D01*
X10003Y5097D02*
Y5172D01*
X10103Y5097D02*
Y5172D01*
X10203Y5097D02*
Y5172D01*
X10303Y5022D02*
Y5172D01*
X10403Y5097D02*
Y5172D01*
X10503Y5097D02*
Y5172D01*
X10603Y5097D02*
Y5172D01*
X10703Y5097D02*
Y5172D01*
X10803Y4972D02*
Y5172D01*
X10903Y5097D02*
Y5172D01*
X11003Y5097D02*
Y5172D01*
X11103Y5097D02*
Y5172D01*
X11203Y5097D02*
Y5172D01*
X11303Y5022D02*
Y5172D01*
X11403Y5097D02*
Y5172D01*
X11503Y5097D02*
Y5172D01*
X11603Y5097D02*
Y5172D01*
X11703Y5097D02*
Y5172D01*
X11803Y4972D02*
Y5172D01*
X11903Y5097D02*
Y5172D01*
X12003Y5097D02*
Y5172D01*
X12103Y5097D02*
Y5172D01*
X12203Y5097D02*
Y5172D01*
X12303Y5022D02*
Y5172D01*
X12403Y5097D02*
Y5172D01*
X12503Y5097D02*
Y5172D01*
X12603Y5097D02*
Y5172D01*
X12703Y5097D02*
Y5172D01*
X12803Y4972D02*
Y5172D01*
X5803Y11422D02*
Y11472D01*
Y11522D01*
Y11547D02*
Y11597D01*
Y11347D02*
Y11397D01*
X12803Y5547D02*
Y5597D01*
Y5247D02*
Y5397D01*
X5803Y5472D02*
X5838Y5507D01*
X5768Y5437D02*
X5803Y5472D01*
X12768Y5437D02*
X12803Y5472D01*
X12838Y5507D01*
X5803Y5472D02*
X5838Y5437D01*
X5768Y5507D02*
X5803Y5472D01*
X12803D02*
X12838Y5437D01*
X12768Y5507D02*
X12803Y5472D01*
X5728Y5147D02*
X5803Y5172D01*
X5728Y5197D02*
X5803Y5172D01*
X5736Y5186D02*
X5779Y5172D01*
X5736Y5157D02*
X5779Y5172D01*
X5503Y5472D02*
X5528Y5397D01*
X5478D02*
X5503Y5472D01*
X5489Y5405D02*
X5503Y5448D01*
X5518Y5405D01*
X5494Y5408D02*
X5503Y5436D01*
X5513Y5408D01*
X5484Y5401D02*
X5503Y5459D01*
X5523Y5401D01*
X5499Y5412D02*
X5503Y5425D01*
X5508Y5412D01*
X5740Y5181D02*
X5768Y5172D01*
X5740Y5162D02*
X5768Y5172D01*
X5733Y5191D02*
X5791Y5172D01*
X5733Y5152D02*
X5791Y5172D01*
X5743Y5176D02*
X5756Y5172D01*
X5743Y5167D02*
X5756Y5172D01*
D18*
X6203Y6747D02*
X6193Y6746D01*
X6184Y6745D01*
X6174Y6742D01*
X6165Y6739D01*
X6156Y6735D01*
X6148Y6730D01*
X6140Y6724D01*
X6132Y6718D01*
X6126Y6710D01*
X6120Y6702D01*
X6115Y6694D01*
X6111Y6685D01*
X6107Y6676D01*
X6105Y6666D01*
X6104Y6657D01*
X6103Y6647D01*
Y5548D02*
X6104Y5538D01*
X6105Y5528D01*
X6107Y5519D01*
X6111Y5510D01*
X6115Y5501D01*
X6120Y5492D01*
X6126Y5484D01*
X6132Y5477D01*
X6139Y5470D01*
X6147Y5464D01*
X6155Y5459D01*
X6164Y5455D01*
X6173Y5452D01*
X6183Y5449D01*
X6193Y5447D01*
X6202Y5447D01*
X10403Y5447D02*
X10413Y5447D01*
X10423Y5449D01*
X10432Y5451D01*
X10441Y5454D01*
X10450Y5459D01*
X10459Y5464D01*
X10467Y5470D01*
X10474Y5476D01*
X10480Y5483D01*
X10486Y5491D01*
X10491Y5500D01*
X10496Y5509D01*
X10499Y5518D01*
X10501Y5527D01*
X10503Y5537D01*
X10503Y5547D01*
Y6647D02*
X10503Y6657D01*
X10501Y6666D01*
X10499Y6676D01*
X10496Y6685D01*
X10491Y6694D01*
X10486Y6702D01*
X10480Y6710D01*
X10474Y6718D01*
X10467Y6724D01*
X10459Y6730D01*
X10450Y6735D01*
X10441Y6739D01*
X10432Y6742D01*
X10423Y6745D01*
X10413Y6746D01*
X10403Y6747D01*
X6353Y7572D02*
X6703D01*
X6443Y10572D02*
X6463D01*
X6443Y7572D02*
X6463D01*
X6453Y10572D02*
X6473Y10512D01*
X6433D02*
X6453Y10572D01*
Y7572D02*
X6473Y7632D01*
X6433D02*
X6453Y7572D01*
Y9353D02*
Y10572D01*
Y7572D02*
Y8791D01*
X6703Y7302D02*
Y7572D01*
X14703Y7442D02*
Y7462D01*
X6703Y7442D02*
Y7462D01*
X14643Y7432D02*
X14703Y7452D01*
X14643Y7472D02*
X14703Y7452D01*
X6703D02*
X6763Y7432D01*
X6703Y7452D02*
X6763Y7472D01*
X10984Y7452D02*
X14703D01*
X6703D02*
X10422D01*
X6703Y7572D02*
X14703D01*
X6703Y10572D02*
X14703D01*
Y7572D02*
Y10572D01*
X6703Y7572D02*
Y10572D01*
X6203Y5447D02*
X10403D01*
X6203Y6747D02*
X10403D01*
X10503Y5547D02*
Y6647D01*
X6103Y5547D02*
Y6647D01*
D19*
X6439Y8801D02*
X6429Y8811D01*
Y8831D01*
X6439Y8841D01*
X6449D01*
X6459Y8831D01*
Y8821D01*
Y8831D01*
X6469Y8841D01*
X6479D01*
X6489Y8831D01*
Y8811D01*
X6479Y8801D01*
X6439Y8861D02*
X6429Y8871D01*
Y8891D01*
X6439Y8901D01*
X6479D01*
X6489Y8891D01*
Y8871D01*
X6479Y8861D01*
X6439D01*
Y8921D02*
X6429Y8931D01*
Y8951D01*
X6439Y8961D01*
X6479D01*
X6489Y8951D01*
Y8931D01*
X6479Y8921D01*
X6439D01*
Y8981D02*
X6429Y8991D01*
Y9011D01*
X6439Y9021D01*
X6479D01*
X6489Y9011D01*
Y8991D01*
X6479Y8981D01*
X6439D01*
X6489Y9121D02*
X6469Y9101D01*
X6449D01*
X6429Y9121D01*
X6489Y9151D02*
X6449D01*
Y9161D01*
X6459Y9171D01*
X6489D01*
X6459D01*
X6449Y9181D01*
X6459Y9191D01*
X6489D01*
Y9211D02*
Y9231D01*
Y9221D01*
X6449D01*
Y9211D01*
X6489Y9261D02*
Y9281D01*
Y9271D01*
X6429D01*
Y9261D01*
X6489Y9311D02*
X6469Y9331D01*
X6449D01*
X6429Y9311D01*
X10432Y7466D02*
X10442Y7476D01*
X10462D01*
X10472Y7466D01*
Y7456D01*
X10462Y7446D01*
X10472Y7436D01*
Y7426D01*
X10462Y7416D01*
X10442D01*
X10432Y7426D01*
Y7436D01*
X10442Y7446D01*
X10432Y7456D01*
Y7466D01*
X10442Y7446D02*
X10462D01*
X10492Y7466D02*
X10502Y7476D01*
X10522D01*
X10532Y7466D01*
Y7426D01*
X10522Y7416D01*
X10502D01*
X10492Y7426D01*
Y7466D01*
X10552D02*
X10562Y7476D01*
X10582D01*
X10592Y7466D01*
Y7426D01*
X10582Y7416D01*
X10562D01*
X10552Y7426D01*
Y7466D01*
X10612D02*
X10622Y7476D01*
X10642D01*
X10652Y7466D01*
Y7426D01*
X10642Y7416D01*
X10622D01*
X10612Y7426D01*
Y7466D01*
X10752Y7416D02*
X10732Y7436D01*
Y7456D01*
X10752Y7476D01*
X10782Y7416D02*
Y7456D01*
X10792D01*
X10802Y7446D01*
Y7416D01*
Y7446D01*
X10812Y7456D01*
X10822Y7446D01*
Y7416D01*
X10842D02*
X10862D01*
X10852D01*
Y7456D01*
X10842D01*
X10892Y7416D02*
X10912D01*
X10902D01*
Y7476D01*
X10892D01*
X10942Y7416D02*
X10962Y7436D01*
Y7456D01*
X10942Y7476D01*
D20*
X9303Y5929D02*
Y5884D01*
Y5929D02*
X9318D01*
X9325Y5927D01*
X9329Y5923D01*
X9331Y5919D01*
X9333Y5912D01*
Y5901D01*
X9331Y5895D01*
X9329Y5891D01*
X9325Y5886D01*
X9318Y5884D01*
X9303D01*
X9377D02*
X9360Y5929D01*
X9343Y5884D01*
X9350Y5899D02*
X9371D01*
X9403Y5929D02*
Y5884D01*
X9388Y5929D02*
X9418D01*
X9451D02*
X9423D01*
Y5884D01*
X9451D01*
X9423Y5908D02*
X9440D01*
X9461Y5914D02*
X9459Y5912D01*
X9461Y5910D01*
X9463Y5912D01*
X9461Y5914D01*
Y5889D02*
X9459Y5886D01*
X9461Y5884D01*
X9463Y5886D01*
X9461Y5889D01*
X8841Y5929D02*
Y5884D01*
Y5929D02*
X8860D01*
X8866Y5927D01*
X8868Y5925D01*
X8871Y5921D01*
Y5916D01*
X8868Y5912D01*
X8866Y5910D01*
X8860Y5908D01*
X8841D01*
X8856D02*
X8871Y5884D01*
X8909Y5929D02*
X8881D01*
Y5884D01*
X8909D01*
X8881Y5908D02*
X8898D01*
X8916Y5929D02*
X8933Y5884D01*
X8950Y5929D02*
X8933Y5884D01*
X8958Y5914D02*
X8956Y5912D01*
X8958Y5910D01*
X8960Y5912D01*
X8958Y5914D01*
Y5889D02*
X8956Y5886D01*
X8958Y5884D01*
X8960Y5886D01*
X8958Y5889D01*
X6203Y6181D02*
X6222D01*
X6229Y6183D01*
X6231Y6185D01*
X6233Y6189D01*
Y6196D01*
X6231Y6200D01*
X6229Y6202D01*
X6222Y6204D01*
X6203D01*
Y6159D01*
X6243Y6204D02*
Y6159D01*
X6273Y6204D02*
Y6159D01*
X6243Y6183D02*
X6273D01*
X6298Y6204D02*
X6294Y6202D01*
X6290Y6198D01*
X6288Y6194D01*
X6286Y6187D01*
Y6176D01*
X6288Y6170D01*
X6290Y6166D01*
X6294Y6161D01*
X6298Y6159D01*
X6307D01*
X6311Y6161D01*
X6316Y6166D01*
X6318Y6170D01*
X6320Y6176D01*
Y6187D01*
X6318Y6194D01*
X6316Y6198D01*
X6311Y6202D01*
X6307Y6204D01*
X6298D01*
X6330D02*
Y6159D01*
Y6204D02*
X6360Y6159D01*
Y6204D02*
Y6159D01*
X6401Y6204D02*
X6373D01*
Y6159D01*
X6401D01*
X6373Y6183D02*
X6390D01*
X6410Y6189D02*
X6408Y6187D01*
X6410Y6185D01*
X6412Y6187D01*
X6410Y6189D01*
Y6164D02*
X6408Y6161D01*
X6410Y6159D01*
X6412Y6161D01*
X6410Y6164D01*
X6203Y5806D02*
X6222D01*
X6229Y5808D01*
X6231Y5810D01*
X6233Y5814D01*
Y5821D01*
X6231Y5825D01*
X6229Y5827D01*
X6222Y5829D01*
X6203D01*
Y5784D01*
X6243Y5829D02*
Y5784D01*
X6273Y5829D02*
Y5784D01*
X6243Y5808D02*
X6273D01*
X6298Y5829D02*
X6294Y5827D01*
X6290Y5823D01*
X6288Y5819D01*
X6286Y5812D01*
Y5801D01*
X6288Y5795D01*
X6290Y5791D01*
X6294Y5786D01*
X6298Y5784D01*
X6307D01*
X6311Y5786D01*
X6316Y5791D01*
X6318Y5795D01*
X6320Y5801D01*
Y5812D01*
X6318Y5819D01*
X6316Y5823D01*
X6311Y5827D01*
X6307Y5829D01*
X6298D01*
X6330D02*
Y5784D01*
Y5829D02*
X6360Y5784D01*
Y5829D02*
Y5784D01*
X6401Y5829D02*
X6373D01*
Y5784D01*
X6401D01*
X6373Y5808D02*
X6390D01*
X6410Y5814D02*
X6408Y5812D01*
X6410Y5810D01*
X6412Y5812D01*
X6410Y5814D01*
Y5789D02*
X6408Y5786D01*
X6410Y5784D01*
X6412Y5786D01*
X6410Y5789D01*
X8043Y5652D02*
Y5607D01*
X8069D01*
X8108D02*
X8091Y5652D01*
X8074Y5607D01*
X8080Y5622D02*
X8102D01*
X8119Y5652D02*
X8136Y5630D01*
Y5607D01*
X8153Y5652D02*
X8136Y5630D01*
X8186Y5652D02*
X8159D01*
Y5607D01*
X8186D01*
X8159Y5630D02*
X8176D01*
X8194Y5652D02*
Y5607D01*
Y5652D02*
X8213D01*
X8220Y5650D01*
X8222Y5648D01*
X8224Y5643D01*
Y5639D01*
X8222Y5635D01*
X8220Y5633D01*
X8213Y5630D01*
X8194D01*
X8209D02*
X8224Y5607D01*
X8236Y5637D02*
X8234Y5635D01*
X8236Y5633D01*
X8238Y5635D01*
X8236Y5637D01*
Y5611D02*
X8234Y5609D01*
X8236Y5607D01*
X8238Y5609D01*
X8236Y5611D01*
X6231Y6392D02*
X6203D01*
Y6347D01*
X6231D01*
X6203Y6370D02*
X6220D01*
X6238Y6392D02*
Y6347D01*
Y6392D02*
X6268Y6347D01*
Y6392D02*
Y6347D01*
X6313Y6381D02*
X6311Y6385D01*
X6307Y6390D01*
X6302Y6392D01*
X6294D01*
X6289Y6390D01*
X6285Y6385D01*
X6283Y6381D01*
X6281Y6375D01*
Y6364D01*
X6283Y6358D01*
X6285Y6353D01*
X6289Y6349D01*
X6294Y6347D01*
X6302D01*
X6307Y6349D01*
X6311Y6353D01*
X6313Y6358D01*
Y6364D01*
X6302D02*
X6313D01*
X6323Y6392D02*
Y6347D01*
X6333Y6392D02*
Y6347D01*
Y6392D02*
X6363Y6347D01*
Y6392D02*
Y6347D01*
X6403Y6392D02*
X6375D01*
Y6347D01*
X6403D01*
X6375Y6370D02*
X6392D01*
X6438Y6392D02*
X6411D01*
Y6347D01*
X6438D01*
X6411Y6370D02*
X6428D01*
X6446Y6392D02*
Y6347D01*
Y6392D02*
X6465D01*
X6472Y6390D01*
X6474Y6388D01*
X6476Y6383D01*
Y6379D01*
X6474Y6375D01*
X6472Y6373D01*
X6465Y6370D01*
X6446D01*
X6461D02*
X6476Y6347D01*
X6488Y6377D02*
X6486Y6375D01*
X6488Y6373D01*
X6490Y6375D01*
X6488Y6377D01*
Y6351D02*
X6486Y6349D01*
X6488Y6347D01*
X6490Y6349D01*
X6488Y6351D01*
X7103Y5906D02*
X7122D01*
X7129Y5908D01*
X7131Y5910D01*
X7133Y5914D01*
Y5921D01*
X7131Y5925D01*
X7129Y5927D01*
X7122Y5929D01*
X7103D01*
Y5884D01*
X7177D02*
X7160Y5929D01*
X7143Y5884D01*
X7150Y5899D02*
X7171D01*
X7188Y5929D02*
Y5884D01*
Y5929D02*
X7207D01*
X7214Y5927D01*
X7216Y5925D01*
X7218Y5921D01*
Y5916D01*
X7216Y5912D01*
X7214Y5910D01*
X7207Y5908D01*
X7188D01*
X7203D02*
X7218Y5884D01*
X7243Y5929D02*
Y5884D01*
X7228Y5929D02*
X7258D01*
X7299D02*
Y5884D01*
Y5929D02*
X7329Y5884D01*
Y5929D02*
Y5884D01*
X7354Y5929D02*
X7350Y5927D01*
X7345Y5923D01*
X7343Y5919D01*
X7341Y5912D01*
Y5901D01*
X7343Y5895D01*
X7345Y5891D01*
X7350Y5886D01*
X7354Y5884D01*
X7363D01*
X7367Y5886D01*
X7371Y5891D01*
X7373Y5895D01*
X7375Y5901D01*
Y5912D01*
X7373Y5919D01*
X7371Y5923D01*
X7367Y5927D01*
X7363Y5929D01*
X7354D01*
X7388Y5889D02*
X7386Y5886D01*
X7388Y5884D01*
X7390Y5886D01*
X7388Y5889D01*
X7402Y5914D02*
X7400Y5912D01*
X7402Y5910D01*
X7404Y5912D01*
X7402Y5914D01*
Y5889D02*
X7400Y5886D01*
X7402Y5884D01*
X7404Y5886D01*
X7402Y5889D01*
X7106Y6404D02*
Y6359D01*
X7091Y6404D02*
X7121D01*
X7126D02*
Y6359D01*
X7150Y6404D02*
Y6359D01*
X7135Y6404D02*
X7165D01*
X7171D02*
Y6359D01*
X7196D01*
X7229Y6404D02*
X7201D01*
Y6359D01*
X7229D01*
X7201Y6383D02*
X7219D01*
X7239Y6389D02*
X7237Y6387D01*
X7239Y6385D01*
X7241Y6387D01*
X7239Y6389D01*
Y6364D02*
X7237Y6361D01*
X7239Y6359D01*
X7241Y6361D01*
X7239Y6364D01*
X6231Y6012D02*
X6203D01*
Y5967D01*
X6231D01*
X6203Y5990D02*
X6220D01*
X6238Y6012D02*
Y5967D01*
Y6012D02*
X6268Y5967D01*
Y6012D02*
Y5967D01*
X6313Y6001D02*
X6311Y6005D01*
X6307Y6010D01*
X6302Y6012D01*
X6294D01*
X6289Y6010D01*
X6285Y6005D01*
X6283Y6001D01*
X6281Y5995D01*
Y5984D01*
X6283Y5978D01*
X6285Y5973D01*
X6289Y5969D01*
X6294Y5967D01*
X6302D01*
X6307Y5969D01*
X6311Y5973D01*
X6313Y5978D01*
Y5984D01*
X6302D02*
X6313D01*
X6323Y6012D02*
Y5967D01*
X6333Y6012D02*
Y5967D01*
Y6012D02*
X6363Y5967D01*
Y6012D02*
Y5967D01*
X6403Y6012D02*
X6375D01*
Y5967D01*
X6403D01*
X6375Y5990D02*
X6392D01*
X6438Y6012D02*
X6411D01*
Y5967D01*
X6438D01*
X6411Y5990D02*
X6428D01*
X6446Y6012D02*
Y5967D01*
Y6012D02*
X6465D01*
X6472Y6010D01*
X6474Y6008D01*
X6476Y6003D01*
Y5999D01*
X6474Y5995D01*
X6472Y5993D01*
X6465Y5990D01*
X6446D01*
X6461D02*
X6476Y5967D01*
X6488Y5997D02*
X6486Y5995D01*
X6488Y5993D01*
X6490Y5995D01*
X6488Y5997D01*
Y5971D02*
X6486Y5969D01*
X6488Y5967D01*
X6490Y5969D01*
X6488Y5971D01*
X6203Y5652D02*
Y5607D01*
Y5652D02*
X6231D01*
X6203Y5630D02*
X6220D01*
X6236Y5652D02*
Y5607D01*
X6246Y5652D02*
Y5607D01*
X6271D01*
X6304Y5652D02*
X6276D01*
Y5607D01*
X6304D01*
X6276Y5630D02*
X6293D01*
X6347Y5652D02*
Y5607D01*
Y5652D02*
X6377Y5607D01*
Y5652D02*
Y5607D01*
X6424D02*
X6406Y5652D01*
X6389Y5607D01*
X6396Y5622D02*
X6417D01*
X6434Y5652D02*
Y5607D01*
Y5652D02*
X6451Y5607D01*
X6468Y5652D02*
X6451Y5607D01*
X6468Y5652D02*
Y5607D01*
X6509Y5652D02*
X6481D01*
Y5607D01*
X6509D01*
X6481Y5630D02*
X6498D01*
X6519Y5637D02*
X6517Y5635D01*
X6519Y5633D01*
X6521Y5635D01*
X6519Y5637D01*
Y5611D02*
X6517Y5609D01*
X6519Y5607D01*
X6521Y5609D01*
X6519Y5611D01*
X9895Y5641D02*
X9893Y5645D01*
X9889Y5650D01*
X9885Y5652D01*
X9876D01*
X9872Y5650D01*
X9867Y5645D01*
X9865Y5641D01*
X9863Y5635D01*
Y5624D01*
X9865Y5618D01*
X9867Y5613D01*
X9872Y5609D01*
X9876Y5607D01*
X9885D01*
X9889Y5609D01*
X9893Y5613D01*
X9895Y5618D01*
Y5624D01*
X9885D02*
X9895D01*
X9933Y5652D02*
X9906D01*
Y5607D01*
X9933D01*
X9906Y5630D02*
X9923D01*
X9941Y5652D02*
Y5607D01*
Y5652D02*
X9960D01*
X9967Y5650D01*
X9969Y5648D01*
X9971Y5643D01*
Y5639D01*
X9969Y5635D01*
X9967Y5633D01*
X9960Y5630D01*
X9941D01*
X9956D02*
X9971Y5607D01*
X9981Y5652D02*
Y5607D01*
Y5652D02*
X10000D01*
X10007Y5650D01*
X10009Y5648D01*
X10011Y5643D01*
Y5639D01*
X10009Y5635D01*
X10007Y5633D01*
X10000Y5630D01*
X9981D02*
X10000D01*
X10007Y5628D01*
X10009Y5626D01*
X10011Y5622D01*
Y5615D01*
X10009Y5611D01*
X10007Y5609D01*
X10000Y5607D01*
X9981D01*
X10049Y5652D02*
X10021D01*
Y5607D01*
X10049D01*
X10021Y5630D02*
X10038D01*
X10056Y5652D02*
Y5607D01*
Y5652D02*
X10076D01*
X10082Y5650D01*
X10084Y5648D01*
X10086Y5643D01*
Y5639D01*
X10084Y5635D01*
X10082Y5633D01*
X10076Y5630D01*
X10056D01*
X10071D02*
X10086Y5607D01*
X10099Y5637D02*
X10096Y5635D01*
X10099Y5633D01*
X10101Y5635D01*
X10099Y5637D01*
Y5611D02*
X10096Y5609D01*
X10099Y5607D01*
X10101Y5609D01*
X10099Y5611D01*
X6827Y7772D02*
X6859D01*
X6843Y7756D02*
Y7788D01*
X7687Y7772D02*
X7719D01*
X7703Y7756D02*
Y7788D01*
X8547Y7772D02*
X8579D01*
X8563Y7756D02*
Y7788D01*
X9407Y7772D02*
X9439D01*
X9423Y7756D02*
Y7788D01*
X10267Y7772D02*
X10299D01*
X10283Y7756D02*
Y7788D01*
X11107Y7772D02*
X11139D01*
X11123Y7756D02*
Y7788D01*
X11967Y7772D02*
X11999D01*
X11983Y7756D02*
Y7788D01*
X12827Y7772D02*
X12859D01*
X12843Y7756D02*
Y7788D01*
X13687Y7772D02*
X13719D01*
X13703Y7756D02*
Y7788D01*
X14547Y7772D02*
X14579D01*
X14563Y7756D02*
Y7788D01*
X8237Y9852D02*
X8389D01*
X8313Y9776D02*
Y9928D01*
X14149Y8936D02*
X14177D01*
X14163Y8922D02*
Y8950D01*
X14247Y9034D02*
X14275D01*
X14261Y9020D02*
Y9048D01*
X14149Y9132D02*
X14177D01*
X14163Y9118D02*
Y9146D01*
X8169Y8132D02*
X8197D01*
X8183Y8118D02*
Y8146D01*
X8269Y8132D02*
X8297D01*
X8283Y8118D02*
Y8146D01*
X8369Y8132D02*
X8397D01*
X8383Y8118D02*
Y8146D01*
X8969Y8132D02*
X8997D01*
X8983Y8118D02*
Y8146D01*
X9069Y8132D02*
X9097D01*
X9083Y8118D02*
Y8146D01*
X9169Y8132D02*
X9197D01*
X9183Y8118D02*
Y8146D01*
X9269Y8132D02*
X9297D01*
X9283Y8118D02*
Y8146D01*
X8169Y8732D02*
X8197D01*
X8183Y8718D02*
Y8746D01*
X8269Y8732D02*
X8297D01*
X8283Y8718D02*
Y8746D01*
X8369Y8732D02*
X8397D01*
X8383Y8718D02*
Y8746D01*
X8969Y8732D02*
X8997D01*
X8983Y8718D02*
Y8746D01*
X9069Y8732D02*
X9097D01*
X9083Y8718D02*
Y8746D01*
X9169Y8732D02*
X9197D01*
X9183Y8718D02*
Y8746D01*
X9269Y8732D02*
X9297D01*
X9283Y8718D02*
Y8746D01*
X9967Y9652D02*
X9999D01*
X9983Y9636D02*
Y9668D01*
X10067Y9652D02*
X10099D01*
X10083Y9636D02*
Y9668D01*
X10167Y9652D02*
X10199D01*
X10183Y9636D02*
Y9668D01*
X10267Y9652D02*
X10299D01*
X10283Y9636D02*
Y9668D01*
X10367Y9652D02*
X10399D01*
X10383Y9636D02*
Y9668D01*
X10467Y9652D02*
X10499D01*
X10483Y9636D02*
Y9668D01*
X10567Y9652D02*
X10599D01*
X10583Y9636D02*
Y9668D01*
X10667Y9652D02*
X10699D01*
X10683Y9636D02*
Y9668D01*
X10667Y9952D02*
X10699D01*
X10683Y9936D02*
Y9968D01*
X10567Y9952D02*
X10599D01*
X10583Y9936D02*
Y9968D01*
X10467Y9952D02*
X10499D01*
X10483Y9936D02*
Y9968D01*
X10367Y9952D02*
X10399D01*
X10383Y9936D02*
Y9968D01*
X10267Y9952D02*
X10299D01*
X10283Y9936D02*
Y9968D01*
X10167Y9952D02*
X10199D01*
X10183Y9936D02*
Y9968D01*
X10067Y9952D02*
X10099D01*
X10083Y9936D02*
Y9968D01*
X9967Y9952D02*
X9999D01*
X9983Y9936D02*
Y9968D01*
X13343Y10372D02*
X13383D01*
X13363Y10352D02*
Y10392D01*
X13343Y9972D02*
X13383D01*
X13363Y9952D02*
Y9992D01*
X13183Y10372D02*
X13223D01*
X13203Y10352D02*
Y10392D01*
X13183Y9972D02*
X13223D01*
X13203Y9952D02*
Y9992D01*
X13789Y8572D02*
X13817D01*
X13803Y8558D02*
Y8586D01*
X13789Y8892D02*
X13817D01*
X13803Y8878D02*
Y8906D01*
X11809Y8532D02*
X11837D01*
X11823Y8518D02*
Y8546D01*
X11809Y8212D02*
X11837D01*
X11823Y8198D02*
Y8226D01*
X13487Y9252D02*
X13519D01*
X13503Y9236D02*
Y9268D01*
X13787Y9252D02*
X13819D01*
X13803Y9236D02*
Y9268D01*
X13787Y9552D02*
X13819D01*
X13803Y9536D02*
Y9568D01*
X13687Y9552D02*
X13719D01*
X13703Y9536D02*
Y9568D01*
X13587Y9552D02*
X13619D01*
X13603Y9536D02*
Y9568D01*
X13487Y9552D02*
X13519D01*
X13503Y9536D02*
Y9568D01*
X10187Y8152D02*
X10219D01*
X10203Y8136D02*
Y8168D01*
X10087Y8152D02*
X10119D01*
X10103Y8136D02*
Y8168D01*
X9987Y8152D02*
X10019D01*
X10003Y8136D02*
Y8168D01*
X9887Y8152D02*
X9919D01*
X9903Y8136D02*
Y8168D01*
X9887Y8452D02*
X9919D01*
X9903Y8436D02*
Y8468D01*
X9987Y8452D02*
X10019D01*
X10003Y8436D02*
Y8468D01*
X10087Y8452D02*
X10119D01*
X10103Y8436D02*
Y8468D01*
X10187Y8452D02*
X10219D01*
X10203Y8436D02*
Y8468D01*
X10187Y8912D02*
X10219D01*
X10203Y8896D02*
Y8928D01*
X10087Y8912D02*
X10119D01*
X10103Y8896D02*
Y8928D01*
X9987Y8912D02*
X10019D01*
X10003Y8896D02*
Y8928D01*
X9887Y8912D02*
X9919D01*
X9903Y8896D02*
Y8928D01*
X9887Y8612D02*
X9919D01*
X9903Y8596D02*
Y8628D01*
X9987Y8612D02*
X10019D01*
X10003Y8596D02*
Y8628D01*
X10087Y8612D02*
X10119D01*
X10103Y8596D02*
Y8628D01*
X10187Y8612D02*
X10219D01*
X10203Y8596D02*
Y8628D01*
X7387Y9632D02*
X7419D01*
X7403Y9616D02*
Y9648D01*
X7387Y9732D02*
X7419D01*
X7403Y9716D02*
Y9748D01*
X7087Y9732D02*
X7119D01*
X7103Y9716D02*
Y9748D01*
X7087Y9632D02*
X7119D01*
X7103Y9616D02*
Y9648D01*
X11267Y8672D02*
X11299D01*
X11283Y8656D02*
Y8688D01*
X11367Y8672D02*
X11399D01*
X11383Y8656D02*
Y8688D01*
X11367Y8372D02*
X11399D01*
X11383Y8356D02*
Y8388D01*
X11267Y8372D02*
X11299D01*
X11283Y8356D02*
Y8388D01*
X13847Y9772D02*
X13879D01*
X13863Y9756D02*
Y9788D01*
X14247Y9772D02*
X14279D01*
X14263Y9756D02*
Y9788D01*
X11127Y8512D02*
X11159D01*
X11143Y8496D02*
Y8528D01*
X10727Y8512D02*
X10759D01*
X10743Y8496D02*
Y8528D01*
X11547Y8212D02*
X11579D01*
X11563Y8196D02*
Y8228D01*
X11147Y8212D02*
X11179D01*
X11163Y8196D02*
Y8228D01*
X11987Y8052D02*
X12019D01*
X12003Y8036D02*
Y8068D01*
X11987Y8452D02*
X12019D01*
X12003Y8436D02*
Y8468D01*
X11147Y8712D02*
X11179D01*
X11163Y8696D02*
Y8728D01*
X11147Y9112D02*
X11179D01*
X11163Y9096D02*
Y9128D01*
X11887Y8672D02*
X11919D01*
X11903Y8656D02*
Y8688D01*
X11887Y9072D02*
X11919D01*
X11903Y9056D02*
Y9088D01*
X10127Y9252D02*
X10159D01*
X10143Y9236D02*
Y9268D01*
X9727Y9252D02*
X9759D01*
X9743Y9236D02*
Y9268D01*
X10207Y9252D02*
X10239D01*
X10223Y9236D02*
Y9268D01*
X10607Y9252D02*
X10639D01*
X10623Y9236D02*
Y9268D01*
X7961Y9152D02*
X8005D01*
X7983Y9130D02*
Y9174D01*
X7521Y9152D02*
X7565D01*
X7543Y9130D02*
Y9174D01*
X9701Y8412D02*
X9745D01*
X9723Y8390D02*
Y8434D01*
X9701Y7972D02*
X9745D01*
X9723Y7950D02*
Y7994D01*
X7587Y10412D02*
X7619D01*
X7603Y10396D02*
Y10428D01*
X7587Y10312D02*
X7619D01*
X7603Y10296D02*
Y10328D01*
X7227Y9332D02*
X7259D01*
X7243Y9316D02*
Y9348D01*
X6827Y9332D02*
X6859D01*
X6843Y9316D02*
Y9348D01*
X7387Y9892D02*
X7419D01*
X7403Y9876D02*
Y9908D01*
X7787Y9892D02*
X7819D01*
X7803Y9876D02*
Y9908D01*
X7927Y10432D02*
X7959D01*
X7943Y10416D02*
Y10448D01*
X7927Y10032D02*
X7959D01*
X7943Y10016D02*
Y10048D01*
X9187Y8932D02*
X9219D01*
X9203Y8916D02*
Y8948D01*
X9587Y8932D02*
X9619D01*
X9603Y8916D02*
Y8948D01*
X11287Y9492D02*
X11319D01*
X11303Y9476D02*
Y9508D01*
X10887Y9492D02*
X10919D01*
X10903Y9476D02*
Y9508D01*
X11287Y9612D02*
X11319D01*
X11303Y9596D02*
Y9628D01*
X10887Y9612D02*
X10919D01*
X10903Y9596D02*
Y9628D01*
X14147Y9652D02*
X14179D01*
X14163Y9636D02*
Y9668D01*
X10967Y8312D02*
X10999D01*
X10983Y8296D02*
Y8328D01*
X10967Y7912D02*
X10999D01*
X10983Y7896D02*
Y7928D01*
X9727Y8632D02*
X9759D01*
X9743Y8616D02*
Y8648D01*
X9727Y9032D02*
X9759D01*
X9743Y9016D02*
Y9048D01*
X13187Y9092D02*
X13219D01*
X13203Y9076D02*
Y9108D01*
X12887Y8892D02*
X12919D01*
X12903Y8876D02*
Y8908D01*
X12887Y9292D02*
X12919D01*
X12903Y9276D02*
Y9308D01*
X12987Y9692D02*
X13019D01*
X13003Y9676D02*
Y9708D01*
X12987Y9292D02*
X13019D01*
X13003Y9276D02*
Y9308D01*
X8687Y10422D02*
X8719D01*
X8703Y10406D02*
Y10438D01*
X8287Y10422D02*
X8319D01*
X8303Y10406D02*
Y10438D01*
X13267Y9292D02*
X13299D01*
X13283Y9276D02*
Y9308D01*
X13267Y9692D02*
X13299D01*
X13283Y9676D02*
Y9708D01*
X7527Y9692D02*
X7559D01*
X7543Y9676D02*
Y9708D01*
X7527Y9292D02*
X7559D01*
X7543Y9276D02*
Y9308D01*
X11607Y10412D02*
X11639D01*
X11623Y10396D02*
Y10428D01*
X11607Y10012D02*
X11639D01*
X11623Y9996D02*
Y10028D01*
X13467Y9832D02*
X13499D01*
X13483Y9816D02*
Y9848D01*
X13067Y9832D02*
X13099D01*
X13083Y9816D02*
Y9848D01*
X11747Y10412D02*
X11779D01*
X11763Y10396D02*
Y10428D01*
X12147Y10312D02*
X12179D01*
X12163Y10296D02*
Y10328D01*
X11747Y10312D02*
X11779D01*
X11763Y10296D02*
Y10328D01*
X11527Y9212D02*
X11559D01*
X11543Y9196D02*
Y9228D01*
X11127Y9212D02*
X11159D01*
X11143Y9196D02*
Y9228D01*
X7541Y8512D02*
X7585D01*
X7563Y8490D02*
Y8534D01*
X7541Y8952D02*
X7585D01*
X7563Y8930D02*
Y8974D01*
X13027Y8592D02*
X13059D01*
X13043Y8576D02*
Y8608D01*
X13127Y8592D02*
X13159D01*
X13143Y8576D02*
Y8608D01*
X13227Y8592D02*
X13259D01*
X13243Y8576D02*
Y8608D01*
X13327Y8592D02*
X13359D01*
X13343Y8576D02*
Y8608D01*
X13427Y8592D02*
X13459D01*
X13443Y8576D02*
Y8608D01*
X13527Y8592D02*
X13559D01*
X13543Y8576D02*
Y8608D01*
X13627Y8592D02*
X13659D01*
X13643Y8576D02*
Y8608D01*
X13627Y8892D02*
X13659D01*
X13643Y8876D02*
Y8908D01*
X13527Y8892D02*
X13559D01*
X13543Y8876D02*
Y8908D01*
X13427Y8892D02*
X13459D01*
X13443Y8876D02*
Y8908D01*
X13327Y8892D02*
X13359D01*
X13343Y8876D02*
Y8908D01*
X13227Y8892D02*
X13259D01*
X13243Y8876D02*
Y8908D01*
X13127Y8892D02*
X13159D01*
X13143Y8876D02*
Y8908D01*
X13027Y8892D02*
X13059D01*
X13043Y8876D02*
Y8908D01*
X12509Y9032D02*
X12537D01*
X12523Y9018D02*
Y9046D01*
X12509Y8932D02*
X12537D01*
X12523Y8918D02*
Y8946D01*
X12289Y9032D02*
X12317D01*
X12303Y9018D02*
Y9046D01*
X12289Y8932D02*
X12317D01*
X12303Y8918D02*
Y8946D01*
X11989Y10172D02*
X12017D01*
X12003Y10158D02*
Y10186D01*
X11789Y10172D02*
X11817D01*
X11803Y10158D02*
Y10186D01*
X11829Y9992D02*
X11857D01*
X11843Y9978D02*
Y10006D01*
X11829Y9792D02*
X11857D01*
X11843Y9778D02*
Y9806D01*
X10389Y8412D02*
X10417D01*
X10403Y8398D02*
Y8426D01*
X10389Y8212D02*
X10417D01*
X10403Y8198D02*
Y8226D01*
X10569Y8412D02*
X10597D01*
X10583Y8398D02*
Y8426D01*
X10569Y8212D02*
X10597D01*
X10583Y8198D02*
Y8226D01*
X13729Y9092D02*
X13757D01*
X13743Y9078D02*
Y9106D01*
X13929Y9092D02*
X13957D01*
X13943Y9078D02*
Y9106D01*
X10569Y8692D02*
X10597D01*
X10583Y8678D02*
Y8706D01*
X10369Y8692D02*
X10397D01*
X10383Y8678D02*
Y8706D01*
X13689Y9672D02*
X13717D01*
X13703Y9658D02*
Y9686D01*
X13489Y9672D02*
X13517D01*
X13503Y9658D02*
Y9686D01*
X13949Y10172D02*
X13977D01*
X13963Y10158D02*
Y10186D01*
X13949Y10372D02*
X13977D01*
X13963Y10358D02*
Y10386D01*
X9969Y10132D02*
X9997D01*
X9983Y10118D02*
Y10146D01*
X9769Y10132D02*
X9797D01*
X9783Y10118D02*
Y10146D01*
X13029Y9212D02*
X13057D01*
X13043Y9198D02*
Y9226D01*
X13029Y9012D02*
X13057D01*
X13043Y8998D02*
Y9026D01*
X10689Y9472D02*
X10717D01*
X10703Y9458D02*
Y9486D01*
X10489Y9472D02*
X10517D01*
X10503Y9458D02*
Y9486D01*
X10329Y9472D02*
X10357D01*
X10343Y9458D02*
Y9486D01*
X10129Y9472D02*
X10157D01*
X10143Y9458D02*
Y9486D01*
X9789Y9932D02*
X9817D01*
X9803Y9918D02*
Y9946D01*
X9789Y9732D02*
X9817D01*
X9803Y9718D02*
Y9746D01*
X9969Y9472D02*
X9997D01*
X9983Y9458D02*
Y9486D01*
X9769Y9472D02*
X9797D01*
X9783Y9458D02*
Y9486D01*
X11989Y9992D02*
X12017D01*
X12003Y9978D02*
Y10006D01*
X11989Y9792D02*
X12017D01*
X12003Y9778D02*
Y9806D01*
X12089Y9012D02*
X12117D01*
X12103Y8998D02*
Y9026D01*
X12089Y9212D02*
X12117D01*
X12103Y9198D02*
Y9226D01*
X12529Y9992D02*
X12557D01*
X12543Y9978D02*
Y10006D01*
X12529Y9792D02*
X12557D01*
X12543Y9778D02*
Y9806D01*
X11689Y8992D02*
X11717D01*
X11703Y8978D02*
Y9006D01*
X11689Y9192D02*
X11717D01*
X11703Y9178D02*
Y9206D01*
X9209Y9953D02*
X9237D01*
X9223Y9939D02*
Y9967D01*
X9209Y10032D02*
X9237D01*
X9223Y10018D02*
Y10046D01*
X12289Y9192D02*
X12317D01*
X12303Y9178D02*
Y9206D01*
X12489Y9192D02*
X12517D01*
X12503Y9178D02*
Y9206D01*
X6927Y10272D02*
X7079D01*
X7003Y10196D02*
Y10348D01*
X7607Y8032D02*
X7639D01*
X7623Y8016D02*
Y8048D01*
X7607Y8132D02*
X7639D01*
X7623Y8116D02*
Y8148D01*
X14327Y10272D02*
X14479D01*
X14403Y10196D02*
Y10348D01*
X6927Y8072D02*
X7079D01*
X7003Y7996D02*
Y8148D01*
X14327Y8072D02*
X14479D01*
X14403Y7996D02*
Y8148D01*
X12169Y9992D02*
X12197D01*
X12183Y9978D02*
Y10006D01*
X13587Y9092D02*
X13619D01*
X13603Y9076D02*
Y9108D01*
X14147Y9252D02*
X14179D01*
X14163Y9236D02*
Y9268D01*
X12147Y10412D02*
X12179D01*
X12163Y10396D02*
Y10428D01*
X12169Y9792D02*
X12197D01*
X12183Y9778D02*
Y9806D01*
X12349Y9792D02*
X12377D01*
X12363Y9778D02*
Y9806D01*
X12349Y9992D02*
X12377D01*
X12363Y9978D02*
Y10006D01*
X10367Y8852D02*
X10399D01*
X10383Y8836D02*
Y8868D01*
X10767Y8852D02*
X10799D01*
X10783Y8836D02*
Y8868D01*
X9443Y8072D02*
X9523D01*
X9483Y8032D02*
Y8112D01*
X13223Y8092D02*
X13303D01*
X13263Y8052D02*
Y8132D01*
X8949Y9332D02*
X8977D01*
X8963Y9318D02*
Y9346D01*
X8949Y9432D02*
X8977D01*
X8963Y9418D02*
Y9446D01*
X8662Y9432D02*
X8694D01*
X8678Y9416D02*
Y9448D01*
X8267Y9037D02*
X8299D01*
X8283Y9021D02*
Y9053D01*
X8267Y9432D02*
X8299D01*
X8283Y9416D02*
Y9448D01*
X8662Y9037D02*
X8694D01*
X8678Y9021D02*
Y9053D01*
X7349Y8352D02*
X7417D01*
X7383Y8318D02*
Y8386D01*
X7349Y8820D02*
X7417D01*
X7383Y8786D02*
Y8854D01*
X7349Y8664D02*
X7417D01*
X7383Y8630D02*
Y8698D01*
X7349Y8508D02*
X7417D01*
X7383Y8474D02*
Y8542D01*
X7349Y8977D02*
X7417D01*
X7383Y8943D02*
Y9011D01*
X12829Y9652D02*
X12857D01*
X12843Y9638D02*
Y9666D01*
X12729Y9652D02*
X12757D01*
X12743Y9638D02*
Y9666D01*
X12629Y9652D02*
X12657D01*
X12643Y9638D02*
Y9666D01*
X12529Y9652D02*
X12557D01*
X12543Y9638D02*
Y9666D01*
X12429Y9652D02*
X12457D01*
X12443Y9638D02*
Y9666D01*
X12329Y9652D02*
X12357D01*
X12343Y9638D02*
Y9666D01*
X12229Y9652D02*
X12257D01*
X12243Y9638D02*
Y9666D01*
X12129Y9652D02*
X12157D01*
X12143Y9638D02*
Y9666D01*
X12029Y9652D02*
X12057D01*
X12043Y9638D02*
Y9666D01*
X11929Y9652D02*
X11957D01*
X11943Y9638D02*
Y9666D01*
X11829Y9652D02*
X11857D01*
X11843Y9638D02*
Y9666D01*
X11729Y9652D02*
X11757D01*
X11743Y9638D02*
Y9666D01*
X11629Y9652D02*
X11657D01*
X11643Y9638D02*
Y9666D01*
X11529Y9652D02*
X11557D01*
X11543Y9638D02*
Y9666D01*
X12829Y9352D02*
X12857D01*
X12843Y9338D02*
Y9366D01*
X12729Y9352D02*
X12757D01*
X12743Y9338D02*
Y9366D01*
X12629Y9352D02*
X12657D01*
X12643Y9338D02*
Y9366D01*
X12529Y9352D02*
X12557D01*
X12543Y9338D02*
Y9366D01*
X12429Y9352D02*
X12457D01*
X12443Y9338D02*
Y9366D01*
X12329Y9352D02*
X12357D01*
X12343Y9338D02*
Y9366D01*
X12229Y9352D02*
X12257D01*
X12243Y9338D02*
Y9366D01*
X12129Y9352D02*
X12157D01*
X12143Y9338D02*
Y9366D01*
X12029Y9352D02*
X12057D01*
X12043Y9338D02*
Y9366D01*
X11929Y9352D02*
X11957D01*
X11943Y9338D02*
Y9366D01*
X11829Y9352D02*
X11857D01*
X11843Y9338D02*
Y9366D01*
X11729Y9352D02*
X11757D01*
X11743Y9338D02*
Y9366D01*
X11629Y9352D02*
X11657D01*
X11643Y9338D02*
Y9366D01*
X11529Y9352D02*
X11557D01*
X11543Y9338D02*
Y9366D01*
X7765Y9032D02*
X7801D01*
X7783Y9014D02*
Y9050D01*
X7765Y8332D02*
X7801D01*
X7783Y8314D02*
Y8350D01*
X8921Y9752D02*
X8965D01*
X8943Y9730D02*
Y9774D01*
X8921Y9852D02*
X8965D01*
X8943Y9830D02*
Y9874D01*
X8921Y9952D02*
X8965D01*
X8943Y9930D02*
Y9974D01*
X13587Y9252D02*
X13619D01*
X13603Y9236D02*
Y9268D01*
X13687Y9252D02*
X13719D01*
X13703Y9236D02*
Y9268D01*
X14009Y9332D02*
X14037D01*
X14023Y9318D02*
Y9346D01*
X14009Y9532D02*
X14037D01*
X14023Y9518D02*
Y9546D01*
X13047Y9972D02*
X13079D01*
X13063Y9956D02*
Y9988D01*
X13047Y10372D02*
X13079D01*
X13063Y10356D02*
Y10388D01*
X12863Y10192D02*
X12903D01*
X12883Y10172D02*
Y10212D01*
X12863Y10292D02*
X12903D01*
X12883Y10272D02*
Y10312D01*
X12763Y10192D02*
X12803D01*
X12783Y10172D02*
Y10212D01*
X12763Y10292D02*
X12803D01*
X12783Y10272D02*
Y10312D01*
X12663Y10192D02*
X12703D01*
X12683Y10172D02*
Y10212D01*
X12663Y10292D02*
X12703D01*
X12683Y10272D02*
Y10312D01*
X11659Y8392D02*
X11687D01*
X11673Y8378D02*
Y8406D01*
X11519Y8392D02*
X11547D01*
X11533Y8378D02*
Y8406D01*
X11589Y8392D02*
X11617D01*
X11603Y8378D02*
Y8406D01*
X10079Y9072D02*
X10107D01*
X10093Y9058D02*
Y9086D01*
X10219Y9072D02*
X10247D01*
X10233Y9058D02*
Y9086D01*
X10149Y9072D02*
X10177D01*
X10163Y9058D02*
Y9086D01*
X7967Y9492D02*
X7999D01*
X7983Y9476D02*
Y9508D01*
X7967Y9297D02*
X7999D01*
X7983Y9281D02*
Y9313D01*
X10163Y10092D02*
X10203D01*
X10183Y10072D02*
Y10112D01*
X10363Y10092D02*
X10403D01*
X10383Y10072D02*
Y10112D01*
X10263Y10092D02*
X10303D01*
X10283Y10072D02*
Y10112D01*
X13709Y9852D02*
X13737D01*
X13723Y9838D02*
Y9866D01*
X13639Y9852D02*
X13667D01*
X13653Y9838D02*
Y9866D01*
X13779Y9852D02*
X13807D01*
X13793Y9838D02*
Y9866D01*
X13803Y10032D02*
X13843D01*
X13823Y10012D02*
Y10052D01*
X13703Y10032D02*
X13743D01*
X13723Y10012D02*
Y10052D01*
X13603Y10032D02*
X13643D01*
X13623Y10012D02*
Y10052D01*
X13503Y10032D02*
X13543D01*
X13523Y10012D02*
Y10052D01*
X6863Y9172D02*
X6903D01*
X6883Y9152D02*
Y9192D01*
X6953Y9172D02*
X6993D01*
X6973Y9152D02*
Y9192D01*
X7043Y9172D02*
X7083D01*
X7063Y9152D02*
Y9192D01*
X11889Y9462D02*
X11917D01*
X11903Y9448D02*
Y9476D01*
X11989Y9472D02*
X12017D01*
X12003Y9458D02*
Y9486D01*
X12049Y8882D02*
X12077D01*
X12063Y8868D02*
Y8896D01*
X10739Y9022D02*
X10767D01*
X10753Y9008D02*
Y9036D01*
X13509Y9452D02*
X13537D01*
X13523Y9438D02*
Y9466D01*
X13139Y9412D02*
X13167D01*
X13153Y9398D02*
Y9426D01*
X13479Y8982D02*
X13507D01*
X13493Y8968D02*
Y8996D01*
X12729Y9492D02*
X12757D01*
X12743Y9478D02*
Y9506D01*
X12829Y9062D02*
X12857D01*
X12843Y9048D02*
Y9076D01*
X12959Y8692D02*
X12987D01*
X12973Y8678D02*
Y8706D01*
X9379Y10472D02*
X9407D01*
X9393Y10458D02*
Y10486D01*
X12329Y9482D02*
X12357D01*
X12343Y9468D02*
Y9496D01*
X12079Y9592D02*
X12107D01*
X12093Y9578D02*
Y9606D01*
X12079Y9492D02*
X12107D01*
X12093Y9478D02*
Y9506D01*
M02*
