%FSLAX23Y23*%
%MOIN*%
G70*
G01*
G75*
%ADD10C,0.021*%
%ADD11C,0.012*%
%ADD12C,0.035*%
%ADD13C,0.025*%
%ADD14C,0.045*%
%ADD15C,0.055*%
%ADD16C,0.009*%
%ADD17C,0.008*%
%ADD18C,0.010*%
%ADD19C,0.006*%
%ADD20C,0.005*%
%ADD21C,0.060*%
%ADD22C,0.200*%
%ADD23C,0.062*%
%ADD24R,0.062X0.062*%
%ADD25R,0.052X0.052*%
%ADD26C,0.052*%
%ADD27C,0.080*%
%ADD28C,0.055*%
%ADD29R,0.050X0.050*%
%ADD30C,0.050*%
%ADD31C,0.120*%
%ADD32R,0.060X0.060*%
%ADD33R,0.100X0.100*%
%ADD34C,0.100*%
%ADD35R,0.080X0.080*%
%ADD36P,0.065X8X0*%
%ADD37C,0.065*%
%ADD38R,0.065X0.065*%
%ADD39C,0.068*%
%ADD40C,0.208*%
%ADD41C,0.070*%
%ADD42R,0.070X0.070*%
%ADD43C,0.088*%
%ADD44C,0.063*%
%ADD45R,0.058X0.058*%
%ADD46C,0.058*%
%ADD47C,0.128*%
%ADD48R,0.068X0.068*%
%ADD49R,0.108X0.108*%
%ADD50C,0.108*%
%ADD51R,0.088X0.088*%
%ADD52P,0.073X8X0*%
%ADD53C,0.073*%
%ADD54R,0.073X0.073*%
%ADD55C,0.007*%
D13*
X10453Y5923D02*
X10452Y5932D01*
X10449Y5942D01*
X10445Y5950D01*
X10439Y5957D01*
X10431Y5964D01*
X10423Y5968D01*
X10414Y5971D01*
X10404Y5972D01*
X9303D02*
X9293Y5971D01*
X9284Y5968D01*
X9275Y5963D01*
X9268Y5957D01*
X9262Y5950D01*
X9257Y5941D01*
X9254Y5932D01*
X9253Y5922D01*
X10403Y6022D02*
X10413Y6023D01*
X10422Y6026D01*
X10431Y6030D01*
X10438Y6036D01*
X10445Y6044D01*
X10449Y6053D01*
X10452Y6062D01*
X10453Y6072D01*
X9253D02*
X9254Y6062D01*
X9257Y6053D01*
X9262Y6044D01*
X9268Y6036D01*
X9275Y6030D01*
X9284Y6026D01*
X9293Y6023D01*
X9303Y6022D01*
X10453Y6648D02*
X10452Y6658D01*
X10449Y6667D01*
X10445Y6676D01*
X10438Y6683D01*
X10430Y6689D01*
X10422Y6694D01*
X10412Y6696D01*
X10402Y6697D01*
X10403Y5747D02*
X10413Y5748D01*
X10422Y5751D01*
X10431Y5755D01*
X10438Y5761D01*
X10445Y5769D01*
X10449Y5778D01*
X10452Y5787D01*
X10453Y5797D01*
X10453Y5648D02*
X10452Y5657D01*
X10449Y5667D01*
X10444Y5675D01*
X10438Y5682D01*
X10431Y5689D01*
X10422Y5693D01*
X10413Y5696D01*
X10403Y5697D01*
Y5497D02*
X10413Y5498D01*
X10422Y5501D01*
X10431Y5505D01*
X10438Y5511D01*
X10445Y5519D01*
X10449Y5528D01*
X10452Y5537D01*
X10453Y5547D01*
X9153Y5747D02*
X9163Y5748D01*
X9172Y5751D01*
X9181Y5755D01*
X9188Y5761D01*
X9195Y5769D01*
X9199Y5778D01*
X9202Y5787D01*
X9203Y5797D01*
X9253Y5796D02*
X9254Y5786D01*
X9257Y5777D01*
X9262Y5768D01*
X9268Y5761D01*
X9275Y5755D01*
X9284Y5750D01*
X9293Y5748D01*
X9303Y5747D01*
X9203Y5923D02*
X9202Y5932D01*
X9199Y5942D01*
X9195Y5950D01*
X9189Y5957D01*
X9181Y5964D01*
X9173Y5968D01*
X9164Y5971D01*
X9154Y5972D01*
X6153Y5547D02*
X6154Y5537D01*
X6157Y5528D01*
X6161Y5519D01*
X6167Y5512D01*
X6175Y5506D01*
X6183Y5501D01*
X6193Y5498D01*
X6202Y5497D01*
X9154Y6022D02*
X9164Y6023D01*
X9173Y6026D01*
X9181Y6031D01*
X9189Y6037D01*
X9195Y6044D01*
X9199Y6053D01*
X9202Y6062D01*
X9203Y6072D01*
X6203Y5697D02*
X6193Y5696D01*
X6184Y5693D01*
X6175Y5688D01*
X6168Y5682D01*
X6162Y5675D01*
X6157Y5666D01*
X6154Y5657D01*
X6153Y5647D01*
X9203Y6397D02*
X9202Y6407D01*
X9199Y6416D01*
X9195Y6425D01*
X9188Y6432D01*
X9181Y6438D01*
X9172Y6443D01*
X9163Y6446D01*
X9153Y6447D01*
Y6497D02*
X9163Y6498D01*
X9172Y6501D01*
X9181Y6505D01*
X9188Y6511D01*
X9195Y6519D01*
X9199Y6528D01*
X9202Y6537D01*
X9203Y6547D01*
X9303Y6697D02*
X9293Y6696D01*
X9284Y6693D01*
X9275Y6688D01*
X9268Y6682D01*
X9262Y6675D01*
X9257Y6666D01*
X9254Y6657D01*
X9253Y6647D01*
X9203D02*
X9202Y6657D01*
X9199Y6666D01*
X9195Y6675D01*
X9188Y6682D01*
X9181Y6688D01*
X9172Y6693D01*
X9163Y6696D01*
X9153Y6697D01*
X6203D02*
X6193Y6696D01*
X6184Y6693D01*
X6175Y6688D01*
X6168Y6682D01*
X6162Y6675D01*
X6157Y6666D01*
X6154Y6657D01*
X6153Y6647D01*
Y6547D02*
X6154Y6537D01*
X6157Y6528D01*
X6162Y6519D01*
X6168Y6511D01*
X6175Y6505D01*
X6184Y6501D01*
X6193Y6498D01*
X6203Y6497D01*
Y6447D02*
X6193Y6446D01*
X6184Y6443D01*
X6175Y6438D01*
X6168Y6432D01*
X6162Y6425D01*
X6157Y6416D01*
X6154Y6407D01*
X6153Y6397D01*
Y6172D02*
X6154Y6162D01*
X6157Y6153D01*
X6162Y6144D01*
X6168Y6136D01*
X6175Y6130D01*
X6184Y6126D01*
X6193Y6123D01*
X6203Y6122D01*
Y6072D02*
X6193Y6071D01*
X6184Y6068D01*
X6175Y6063D01*
X6168Y6057D01*
X6162Y6050D01*
X6157Y6041D01*
X6154Y6032D01*
X6153Y6022D01*
Y5797D02*
X6154Y5787D01*
X6157Y5778D01*
X6161Y5769D01*
X6167Y5762D01*
X6175Y5756D01*
X6183Y5751D01*
X6193Y5748D01*
X6202Y5747D01*
X7103Y6447D02*
X7093Y6446D01*
X7084Y6443D01*
X7075Y6438D01*
X7068Y6432D01*
X7062Y6425D01*
X7057Y6416D01*
X7054Y6407D01*
X7053Y6397D01*
X7103Y5972D02*
X7093Y5971D01*
X7084Y5968D01*
X7075Y5963D01*
X7068Y5957D01*
X7062Y5950D01*
X7057Y5941D01*
X7054Y5932D01*
X7053Y5922D01*
X8851Y5972D02*
X8841Y5971D01*
X8832Y5968D01*
X8824Y5963D01*
X8816Y5957D01*
X8810Y5949D01*
X8806Y5940D01*
X8804Y5931D01*
X8803Y5921D01*
X8803Y5798D02*
X8804Y5788D01*
X8807Y5778D01*
X8812Y5770D01*
X8818Y5762D01*
X8825Y5756D01*
X8834Y5751D01*
X8843Y5748D01*
X8853Y5747D01*
X8704Y5747D02*
X8714Y5748D01*
X8723Y5751D01*
X8732Y5755D01*
X8739Y5761D01*
X8745Y5769D01*
X8750Y5778D01*
X8752Y5787D01*
X8753Y5797D01*
X8753Y5923D02*
X8752Y5932D01*
X8749Y5942D01*
X8745Y5950D01*
X8739Y5957D01*
X8731Y5964D01*
X8723Y5968D01*
X8714Y5971D01*
X8704Y5972D01*
X6954Y5747D02*
X6964Y5748D01*
X6973Y5751D01*
X6981Y5755D01*
X6989Y5761D01*
X6995Y5769D01*
X6999Y5777D01*
X7002Y5786D01*
X7003Y5796D01*
X7053D02*
X7054Y5786D01*
X7057Y5777D01*
X7061Y5769D01*
X7067Y5761D01*
X7075Y5755D01*
X7083Y5751D01*
X7093Y5748D01*
X7102Y5747D01*
X7053Y6071D02*
X7054Y6061D01*
X7057Y6052D01*
X7061Y6044D01*
X7067Y6036D01*
X7075Y6030D01*
X7083Y6026D01*
X7093Y6023D01*
X7102Y6022D01*
X7003Y6023D02*
X7002Y6033D01*
X6999Y6042D01*
X6995Y6051D01*
X6988Y6058D01*
X6980Y6064D01*
X6972Y6069D01*
X6962Y6071D01*
X6952Y6072D01*
X6955Y6122D02*
X6964Y6123D01*
X6973Y6125D01*
X6982Y6130D01*
X6989Y6136D01*
X6995Y6143D01*
X6999Y6151D01*
X7002Y6160D01*
X7003Y6170D01*
Y6398D02*
X7002Y6407D01*
X6999Y6417D01*
X6995Y6425D01*
X6989Y6432D01*
X6981Y6439D01*
X6973Y6443D01*
X6964Y6446D01*
X6954Y6447D01*
X9853Y5697D02*
X9843Y5696D01*
X9834Y5693D01*
X9825Y5688D01*
X9818Y5682D01*
X9812Y5675D01*
X9807Y5666D01*
X9804Y5657D01*
X9803Y5647D01*
Y5546D02*
X9804Y5536D01*
X9807Y5527D01*
X9812Y5518D01*
X9818Y5511D01*
X9825Y5505D01*
X9834Y5500D01*
X9843Y5498D01*
X9853Y5497D01*
X9704Y5497D02*
X9714Y5498D01*
X9723Y5500D01*
X9732Y5505D01*
X9739Y5511D01*
X9745Y5519D01*
X9750Y5527D01*
X9752Y5537D01*
X9753Y5546D01*
X9753Y5647D02*
X9752Y5657D01*
X9749Y5666D01*
X9745Y5675D01*
X9738Y5682D01*
X9731Y5688D01*
X9722Y5693D01*
X9713Y5696D01*
X9703Y5697D01*
X7978Y5547D02*
X7979Y5537D01*
X7982Y5528D01*
X7986Y5519D01*
X7992Y5512D01*
X8000Y5506D01*
X8008Y5501D01*
X8018Y5498D01*
X8027Y5497D01*
X8028Y5697D02*
X8018Y5696D01*
X8009Y5693D01*
X8000Y5688D01*
X7993Y5682D01*
X7987Y5675D01*
X7982Y5666D01*
X7979Y5657D01*
X7978Y5647D01*
X7879Y5497D02*
X7889Y5498D01*
X7898Y5500D01*
X7907Y5505D01*
X7914Y5511D01*
X7920Y5519D01*
X7925Y5527D01*
X7927Y5537D01*
X7928Y5546D01*
X7928Y5647D02*
X7927Y5657D01*
X7924Y5666D01*
X7920Y5675D01*
X7913Y5682D01*
X7906Y5688D01*
X7897Y5693D01*
X7888Y5696D01*
X7878Y5697D01*
X8028Y5497D02*
X9703D01*
X6203D02*
X7878D01*
X6203Y5697D02*
X7878D01*
X8028D02*
X9703D01*
X9853Y5497D02*
X10403D01*
X9853Y5697D02*
X10403D01*
X6203Y6697D02*
X9153D01*
X6203Y5747D02*
X6953D01*
X6203Y6072D02*
X6953D01*
X6203Y6122D02*
X6953D01*
X6203Y6447D02*
X6953D01*
X6203Y6497D02*
X9153D01*
X7103Y6447D02*
X9153D01*
X7103Y5972D02*
X8703D01*
X7103Y5747D02*
X8703D01*
X8853D02*
X9153D01*
X8853Y5972D02*
X9153D01*
X9303Y5747D02*
X10403D01*
X9303Y6697D02*
X10403D01*
X7103Y6022D02*
X9153D01*
X9303D02*
X10403D01*
X9303Y5972D02*
X10403D01*
X7928Y5547D02*
Y5647D01*
X7978Y5547D02*
Y5647D01*
X9753Y5547D02*
Y5647D01*
X9803Y5547D02*
Y5647D01*
X6153Y5797D02*
Y6022D01*
X7003Y5797D02*
Y6022D01*
X6153Y6172D02*
Y6397D01*
X7003Y6172D02*
Y6397D01*
X6153Y6547D02*
Y6647D01*
X9203Y6547D02*
Y6647D01*
Y6072D02*
Y6397D01*
X7053Y6072D02*
Y6397D01*
X8753Y5797D02*
Y5922D01*
X7053Y5797D02*
Y5922D01*
X8803Y5797D02*
Y5922D01*
X9203Y5797D02*
Y5922D01*
X10453Y5547D02*
Y5647D01*
Y5797D02*
Y5897D01*
X6153Y5547D02*
Y5647D01*
X9253Y6072D02*
Y6647D01*
X10453Y6072D02*
Y6647D01*
X9253Y5797D02*
Y5922D01*
D16*
X5130Y11499D02*
X5125Y11507D01*
X5112Y11512D01*
X5104D01*
X5091Y11507D01*
X5082Y11495D01*
X5078Y11473D01*
Y11452D01*
X5082Y11435D01*
X5091Y11426D01*
X5104Y11422D01*
X5108D01*
X5121Y11426D01*
X5130Y11435D01*
X5134Y11448D01*
Y11452D01*
X5130Y11465D01*
X5121Y11473D01*
X5108Y11478D01*
X5104D01*
X5091Y11473D01*
X5082Y11465D01*
X5078Y11452D01*
X5158Y11430D02*
X5154Y11426D01*
X5158Y11422D01*
X5162Y11426D01*
X5158Y11430D01*
X5208Y11512D02*
X5195Y11507D01*
X5186Y11495D01*
X5182Y11473D01*
Y11460D01*
X5186Y11439D01*
X5195Y11426D01*
X5208Y11422D01*
X5216D01*
X5229Y11426D01*
X5238Y11439D01*
X5242Y11460D01*
Y11473D01*
X5238Y11495D01*
X5229Y11507D01*
X5216Y11512D01*
X5208D01*
X5121Y9512D02*
X5078Y9452D01*
X5142D01*
X5121Y9512D02*
Y9422D01*
X5163Y9430D02*
X5158Y9426D01*
X5163Y9422D01*
X5167Y9426D01*
X5163Y9430D01*
X5212Y9512D02*
X5199Y9507D01*
X5191Y9495D01*
X5187Y9473D01*
Y9460D01*
X5191Y9439D01*
X5199Y9426D01*
X5212Y9422D01*
X5221D01*
X5234Y9426D01*
X5242Y9439D01*
X5247Y9460D01*
Y9473D01*
X5242Y9495D01*
X5234Y9507D01*
X5221Y9512D01*
X5212D01*
X5082Y7490D02*
Y7495D01*
X5087Y7503D01*
X5091Y7508D01*
X5100Y7512D01*
X5117D01*
X5125Y7508D01*
X5130Y7503D01*
X5134Y7495D01*
Y7486D01*
X5130Y7478D01*
X5121Y7465D01*
X5078Y7422D01*
X5138D01*
X5163Y7430D02*
X5158Y7426D01*
X5163Y7422D01*
X5167Y7426D01*
X5163Y7430D01*
X5212Y7512D02*
X5199Y7508D01*
X5191Y7495D01*
X5187Y7473D01*
Y7460D01*
X5191Y7439D01*
X5199Y7426D01*
X5212Y7422D01*
X5221D01*
X5234Y7426D01*
X5242Y7439D01*
X5247Y7460D01*
Y7473D01*
X5242Y7495D01*
X5234Y7508D01*
X5221Y7512D01*
X5212D01*
X5216Y5512D02*
X5203Y5508D01*
X5195Y5495D01*
X5191Y5473D01*
Y5460D01*
X5195Y5439D01*
X5203Y5426D01*
X5216Y5422D01*
X5225D01*
X5238Y5426D01*
X5246Y5439D01*
X5251Y5460D01*
Y5473D01*
X5246Y5495D01*
X5238Y5508D01*
X5225Y5512D01*
X5216D01*
X5103Y6495D02*
X5112Y6499D01*
X5125Y6512D01*
Y6422D01*
X5173Y6430D02*
X5169Y6426D01*
X5173Y6422D01*
X5178Y6426D01*
X5173Y6430D01*
X5223Y6512D02*
X5210Y6508D01*
X5202Y6495D01*
X5197Y6473D01*
Y6460D01*
X5202Y6439D01*
X5210Y6426D01*
X5223Y6422D01*
X5232D01*
X5245Y6426D01*
X5253Y6439D01*
X5257Y6460D01*
Y6473D01*
X5253Y6495D01*
X5245Y6508D01*
X5232Y6512D01*
X5223D01*
X5087Y8512D02*
X5134D01*
X5108Y8478D01*
X5121D01*
X5130Y8473D01*
X5134Y8469D01*
X5138Y8456D01*
Y8448D01*
X5134Y8435D01*
X5125Y8426D01*
X5112Y8422D01*
X5100D01*
X5087Y8426D01*
X5082Y8430D01*
X5078Y8439D01*
X5163Y8430D02*
X5158Y8426D01*
X5163Y8422D01*
X5167Y8426D01*
X5163Y8430D01*
X5212Y8512D02*
X5199Y8507D01*
X5191Y8495D01*
X5187Y8473D01*
Y8460D01*
X5191Y8439D01*
X5199Y8426D01*
X5212Y8422D01*
X5221D01*
X5234Y8426D01*
X5242Y8439D01*
X5247Y8460D01*
Y8473D01*
X5242Y8495D01*
X5234Y8507D01*
X5221Y8512D01*
X5212D01*
X5130Y10512D02*
X5087D01*
X5082Y10473D01*
X5087Y10478D01*
X5100Y10482D01*
X5112D01*
X5125Y10478D01*
X5134Y10469D01*
X5138Y10456D01*
Y10448D01*
X5134Y10435D01*
X5125Y10426D01*
X5112Y10422D01*
X5100D01*
X5087Y10426D01*
X5082Y10430D01*
X5078Y10439D01*
X5163Y10430D02*
X5158Y10426D01*
X5163Y10422D01*
X5167Y10426D01*
X5163Y10430D01*
X5212Y10512D02*
X5199Y10507D01*
X5191Y10495D01*
X5187Y10473D01*
Y10460D01*
X5191Y10439D01*
X5199Y10426D01*
X5212Y10422D01*
X5221D01*
X5234Y10426D01*
X5242Y10439D01*
X5247Y10460D01*
Y10473D01*
X5242Y10495D01*
X5234Y10507D01*
X5221Y10512D01*
X5212D01*
X12843Y4862D02*
X12753Y4905D01*
X12843Y4922D02*
Y4862D01*
X12762Y4837D02*
X12757Y4842D01*
X12753Y4837D01*
X12757Y4833D01*
X12762Y4837D01*
X12843Y4788D02*
X12839Y4801D01*
X12826Y4809D01*
X12805Y4813D01*
X12792D01*
X12770Y4809D01*
X12757Y4801D01*
X12753Y4788D01*
Y4779D01*
X12757Y4766D01*
X12770Y4758D01*
X12792Y4753D01*
X12805D01*
X12826Y4758D01*
X12839Y4766D01*
X12843Y4779D01*
Y4788D01*
X10843Y4870D02*
Y4913D01*
X10805Y4918D01*
X10809Y4913D01*
X10813Y4900D01*
Y4888D01*
X10809Y4875D01*
X10800Y4866D01*
X10787Y4862D01*
X10779D01*
X10766Y4866D01*
X10757Y4875D01*
X10753Y4888D01*
Y4900D01*
X10757Y4913D01*
X10762Y4918D01*
X10770Y4922D01*
X10762Y4837D02*
X10757Y4842D01*
X10753Y4837D01*
X10757Y4833D01*
X10762Y4837D01*
X10843Y4788D02*
X10839Y4801D01*
X10826Y4809D01*
X10805Y4813D01*
X10792D01*
X10770Y4809D01*
X10757Y4801D01*
X10753Y4788D01*
Y4779D01*
X10757Y4766D01*
X10770Y4758D01*
X10792Y4753D01*
X10805D01*
X10826Y4758D01*
X10839Y4766D01*
X10843Y4779D01*
Y4788D01*
X8843Y4913D02*
Y4866D01*
X8809Y4892D01*
Y4879D01*
X8805Y4870D01*
X8800Y4866D01*
X8787Y4862D01*
X8779D01*
X8766Y4866D01*
X8757Y4875D01*
X8753Y4888D01*
Y4900D01*
X8757Y4913D01*
X8762Y4918D01*
X8770Y4922D01*
X8762Y4837D02*
X8757Y4842D01*
X8753Y4837D01*
X8757Y4833D01*
X8762Y4837D01*
X8843Y4788D02*
X8839Y4801D01*
X8826Y4809D01*
X8805Y4813D01*
X8792D01*
X8770Y4809D01*
X8757Y4801D01*
X8753Y4788D01*
Y4779D01*
X8757Y4766D01*
X8770Y4758D01*
X8792Y4753D01*
X8805D01*
X8826Y4758D01*
X8839Y4766D01*
X8843Y4779D01*
Y4788D01*
X6826Y4922D02*
X6830Y4913D01*
X6843Y4900D01*
X6753D01*
X6762Y4852D02*
X6757Y4856D01*
X6753Y4852D01*
X6757Y4847D01*
X6762Y4852D01*
X6843Y4802D02*
X6839Y4815D01*
X6826Y4823D01*
X6805Y4828D01*
X6792D01*
X6770Y4823D01*
X6757Y4815D01*
X6753Y4802D01*
Y4793D01*
X6757Y4780D01*
X6770Y4772D01*
X6792Y4768D01*
X6805D01*
X6826Y4772D01*
X6839Y4780D01*
X6843Y4793D01*
Y4802D01*
X5843Y4896D02*
X5839Y4909D01*
X5826Y4918D01*
X5805Y4922D01*
X5792D01*
X5770Y4918D01*
X5757Y4909D01*
X5753Y4896D01*
Y4888D01*
X5757Y4875D01*
X5770Y4866D01*
X5792Y4862D01*
X5805D01*
X5826Y4866D01*
X5839Y4875D01*
X5843Y4888D01*
Y4896D01*
X7822Y4918D02*
X7826D01*
X7835Y4913D01*
X7839Y4909D01*
X7843Y4900D01*
Y4883D01*
X7839Y4875D01*
X7835Y4870D01*
X7826Y4866D01*
X7817D01*
X7809Y4870D01*
X7796Y4879D01*
X7753Y4922D01*
Y4862D01*
X7762Y4837D02*
X7757Y4842D01*
X7753Y4837D01*
X7757Y4833D01*
X7762Y4837D01*
X7843Y4788D02*
X7839Y4801D01*
X7826Y4809D01*
X7805Y4813D01*
X7792D01*
X7770Y4809D01*
X7757Y4801D01*
X7753Y4788D01*
Y4779D01*
X7757Y4766D01*
X7770Y4758D01*
X7792Y4753D01*
X7805D01*
X7826Y4758D01*
X7839Y4766D01*
X7843Y4779D01*
Y4788D01*
X9843Y4879D02*
X9783Y4922D01*
Y4858D01*
X9843Y4879D02*
X9753D01*
X9762Y4837D02*
X9757Y4842D01*
X9753Y4837D01*
X9757Y4833D01*
X9762Y4837D01*
X9843Y4788D02*
X9839Y4801D01*
X9826Y4809D01*
X9805Y4813D01*
X9792D01*
X9770Y4809D01*
X9757Y4801D01*
X9753Y4788D01*
Y4779D01*
X9757Y4766D01*
X9770Y4758D01*
X9792Y4753D01*
X9805D01*
X9826Y4758D01*
X9839Y4766D01*
X9843Y4779D01*
Y4788D01*
X11830Y4870D02*
X11839Y4875D01*
X11843Y4888D01*
Y4896D01*
X11839Y4909D01*
X11826Y4918D01*
X11805Y4922D01*
X11783D01*
X11766Y4918D01*
X11757Y4909D01*
X11753Y4896D01*
Y4892D01*
X11757Y4879D01*
X11766Y4870D01*
X11779Y4866D01*
X11783D01*
X11796Y4870D01*
X11805Y4879D01*
X11809Y4892D01*
Y4896D01*
X11805Y4909D01*
X11796Y4918D01*
X11783Y4922D01*
X11762Y4842D02*
X11757Y4846D01*
X11753Y4842D01*
X11757Y4838D01*
X11762Y4842D01*
X11843Y4792D02*
X11839Y4805D01*
X11826Y4814D01*
X11805Y4818D01*
X11792D01*
X11770Y4814D01*
X11757Y4805D01*
X11753Y4792D01*
Y4784D01*
X11757Y4771D01*
X11770Y4762D01*
X11792Y4758D01*
X11805D01*
X11826Y4762D01*
X11839Y4771D01*
X11843Y4784D01*
Y4792D01*
X5616Y5212D02*
X5676Y5122D01*
Y5212D02*
X5616Y5122D01*
X5543Y5334D02*
X5500Y5300D01*
X5453D01*
X5543Y5266D02*
X5500Y5300D01*
X9528Y5882D02*
X9537Y5886D01*
X9550Y5899D01*
Y5809D01*
X9620Y5899D02*
X9607Y5895D01*
X9598Y5882D01*
X9594Y5861D01*
Y5848D01*
X9598Y5826D01*
X9607Y5814D01*
X9620Y5809D01*
X9628D01*
X9641Y5814D01*
X9650Y5826D01*
X9654Y5848D01*
Y5861D01*
X9650Y5882D01*
X9641Y5895D01*
X9628Y5899D01*
X9620D01*
X9674Y5848D02*
X9751D01*
X9821Y5899D02*
Y5831D01*
X9816Y5818D01*
X9812Y5814D01*
X9804Y5809D01*
X9795D01*
X9786Y5814D01*
X9782Y5818D01*
X9778Y5831D01*
Y5839D01*
X9844Y5869D02*
Y5826D01*
X9848Y5814D01*
X9857Y5809D01*
X9870D01*
X9878Y5814D01*
X9891Y5826D01*
Y5869D02*
Y5809D01*
X9915Y5869D02*
Y5809D01*
Y5852D02*
X9927Y5865D01*
X9936Y5869D01*
X9949D01*
X9957Y5865D01*
X9962Y5852D01*
Y5809D01*
X9985Y5848D02*
X10062D01*
X10093Y5878D02*
Y5882D01*
X10098Y5891D01*
X10102Y5895D01*
X10110Y5899D01*
X10128D01*
X10136Y5895D01*
X10140Y5891D01*
X10145Y5882D01*
Y5874D01*
X10140Y5865D01*
X10132Y5852D01*
X10089Y5809D01*
X10149D01*
X10195Y5899D02*
X10182Y5895D01*
X10173Y5882D01*
X10169Y5861D01*
Y5848D01*
X10173Y5826D01*
X10182Y5814D01*
X10195Y5809D01*
X10203D01*
X10216Y5814D01*
X10225Y5826D01*
X10229Y5848D01*
Y5861D01*
X10225Y5882D01*
X10216Y5895D01*
X10203Y5899D01*
X10195D01*
X10275D02*
X10262Y5895D01*
X10254Y5882D01*
X10249Y5861D01*
Y5848D01*
X10254Y5826D01*
X10262Y5814D01*
X10275Y5809D01*
X10284D01*
X10296Y5814D01*
X10305Y5826D01*
X10309Y5848D01*
Y5861D01*
X10305Y5882D01*
X10296Y5895D01*
X10284Y5899D01*
X10275D01*
X10385Y5869D02*
X10381Y5856D01*
X10372Y5848D01*
X10359Y5844D01*
X10355D01*
X10342Y5848D01*
X10334Y5856D01*
X10329Y5869D01*
Y5874D01*
X10334Y5886D01*
X10342Y5895D01*
X10355Y5899D01*
X10359D01*
X10372Y5895D01*
X10381Y5886D01*
X10385Y5869D01*
Y5848D01*
X10381Y5826D01*
X10372Y5814D01*
X10359Y5809D01*
X10351D01*
X10338Y5814D01*
X10334Y5822D01*
X9623Y6277D02*
Y6187D01*
X9683Y6277D02*
Y6187D01*
X9623Y6234D02*
X9683D01*
X9764Y6277D02*
X9708D01*
Y6187D01*
X9764D01*
X9708Y6234D02*
X9742D01*
X9779Y6277D02*
Y6187D01*
Y6277D02*
X9817D01*
X9830Y6273D01*
X9834Y6268D01*
X9839Y6260D01*
Y6251D01*
X9834Y6243D01*
X9830Y6238D01*
X9817Y6234D01*
X9779D01*
X9809D02*
X9839Y6187D01*
X9914Y6277D02*
X9859D01*
Y6187D01*
X9914D01*
X9859Y6234D02*
X9893D01*
X9623Y6437D02*
Y6347D01*
X9675D01*
X9710Y6437D02*
X9702Y6432D01*
X9693Y6424D01*
X9689Y6415D01*
X9684Y6403D01*
Y6381D01*
X9689Y6368D01*
X9693Y6360D01*
X9702Y6351D01*
X9710Y6347D01*
X9727D01*
X9736Y6351D01*
X9744Y6360D01*
X9749Y6368D01*
X9753Y6381D01*
Y6403D01*
X9749Y6415D01*
X9744Y6424D01*
X9736Y6432D01*
X9727Y6437D01*
X9710D01*
X9838Y6415D02*
X9834Y6424D01*
X9825Y6432D01*
X9817Y6437D01*
X9800D01*
X9791Y6432D01*
X9783Y6424D01*
X9778Y6415D01*
X9774Y6403D01*
Y6381D01*
X9778Y6368D01*
X9783Y6360D01*
X9791Y6351D01*
X9800Y6347D01*
X9817D01*
X9825Y6351D01*
X9834Y6360D01*
X9838Y6368D01*
Y6381D01*
X9817D02*
X9838D01*
X9884Y6437D02*
X9876Y6432D01*
X9867Y6424D01*
X9863Y6415D01*
X9859Y6403D01*
Y6381D01*
X9863Y6368D01*
X9867Y6360D01*
X9876Y6351D01*
X9884Y6347D01*
X9902D01*
X9910Y6351D01*
X9919Y6360D01*
X9923Y6368D01*
X9927Y6381D01*
Y6403D01*
X9923Y6415D01*
X9919Y6424D01*
X9910Y6432D01*
X9902Y6437D01*
X9884D01*
X9623Y6530D02*
X9662D01*
X9675Y6534D01*
X9679Y6538D01*
X9683Y6547D01*
Y6560D01*
X9679Y6568D01*
X9675Y6573D01*
X9662Y6577D01*
X9623D01*
Y6487D01*
X9703Y6577D02*
Y6487D01*
X9755D01*
X9833D02*
X9799Y6577D01*
X9765Y6487D01*
X9777Y6517D02*
X9820D01*
X9918Y6555D02*
X9914Y6564D01*
X9905Y6573D01*
X9897Y6577D01*
X9880D01*
X9871Y6573D01*
X9863Y6564D01*
X9858Y6555D01*
X9854Y6543D01*
Y6521D01*
X9858Y6508D01*
X9863Y6500D01*
X9871Y6491D01*
X9880Y6487D01*
X9897D01*
X9905Y6491D01*
X9914Y6500D01*
X9918Y6508D01*
X9999Y6577D02*
X9944D01*
Y6487D01*
X9999D01*
X9944Y6534D02*
X9978D01*
X9041Y5899D02*
X9028Y5895D01*
X9020Y5882D01*
X9016Y5861D01*
Y5848D01*
X9020Y5826D01*
X9028Y5814D01*
X9041Y5809D01*
X9050D01*
X9063Y5814D01*
X9071Y5826D01*
X9076Y5848D01*
Y5861D01*
X9071Y5882D01*
X9063Y5895D01*
X9050Y5899D01*
X9041D01*
X9096Y5882D02*
X9104Y5886D01*
X9117Y5899D01*
Y5809D01*
X8283Y5637D02*
Y5547D01*
Y5637D02*
X8313D01*
X8326Y5633D01*
X8335Y5624D01*
X8339Y5615D01*
X8343Y5603D01*
Y5581D01*
X8339Y5568D01*
X8335Y5560D01*
X8326Y5551D01*
X8313Y5547D01*
X8283D01*
X8363Y5607D02*
Y5547D01*
Y5581D02*
X8368Y5594D01*
X8376Y5603D01*
X8385Y5607D01*
X8398D01*
X8414Y5637D02*
X8419Y5633D01*
X8423Y5637D01*
X8419Y5641D01*
X8414Y5637D01*
X8419Y5607D02*
Y5547D01*
X8439Y5637D02*
Y5547D01*
X8458Y5637D02*
Y5547D01*
X8476Y5637D02*
Y5547D01*
Y5637D02*
X8506D01*
X8519Y5633D01*
X8528Y5624D01*
X8532Y5615D01*
X8536Y5603D01*
Y5581D01*
X8532Y5568D01*
X8528Y5560D01*
X8519Y5551D01*
X8506Y5547D01*
X8476D01*
X8556Y5607D02*
Y5547D01*
Y5581D02*
X8561Y5594D01*
X8569Y5603D01*
X8578Y5607D01*
X8591D01*
X8650D02*
Y5547D01*
Y5594D02*
X8642Y5603D01*
X8633Y5607D01*
X8620D01*
X8612Y5603D01*
X8603Y5594D01*
X8599Y5581D01*
Y5573D01*
X8603Y5560D01*
X8612Y5551D01*
X8620Y5547D01*
X8633D01*
X8642Y5551D01*
X8650Y5560D01*
X8674Y5607D02*
X8691Y5547D01*
X8709Y5607D02*
X8691Y5547D01*
X8709Y5607D02*
X8726Y5547D01*
X8743Y5607D02*
X8726Y5547D01*
X8772Y5637D02*
X8777Y5633D01*
X8781Y5637D01*
X8777Y5641D01*
X8772Y5637D01*
X8777Y5607D02*
Y5547D01*
X8797Y5607D02*
Y5547D01*
Y5590D02*
X8810Y5603D01*
X8818Y5607D01*
X8831D01*
X8840Y5603D01*
X8844Y5590D01*
Y5547D01*
X8919Y5607D02*
Y5538D01*
X8915Y5525D01*
X8910Y5521D01*
X8902Y5517D01*
X8889D01*
X8880Y5521D01*
X8919Y5594D02*
X8910Y5603D01*
X8902Y5607D01*
X8889D01*
X8880Y5603D01*
X8872Y5594D01*
X8868Y5581D01*
Y5573D01*
X8872Y5560D01*
X8880Y5551D01*
X8889Y5547D01*
X8902D01*
X8910Y5551D01*
X8919Y5560D01*
X6667Y5615D02*
X6663Y5624D01*
X6655Y5633D01*
X6646Y5637D01*
X6629D01*
X6620Y5633D01*
X6612Y5624D01*
X6607Y5615D01*
X6603Y5603D01*
Y5581D01*
X6607Y5568D01*
X6612Y5560D01*
X6620Y5551D01*
X6629Y5547D01*
X6646D01*
X6655Y5551D01*
X6663Y5560D01*
X6667Y5568D01*
X6714Y5607D02*
X6706Y5603D01*
X6697Y5594D01*
X6693Y5581D01*
Y5573D01*
X6697Y5560D01*
X6706Y5551D01*
X6714Y5547D01*
X6727D01*
X6736Y5551D01*
X6744Y5560D01*
X6748Y5573D01*
Y5581D01*
X6744Y5594D01*
X6736Y5603D01*
X6727Y5607D01*
X6714D01*
X6768D02*
Y5564D01*
X6772Y5551D01*
X6781Y5547D01*
X6794D01*
X6802Y5551D01*
X6815Y5564D01*
Y5607D02*
Y5547D01*
X6890Y5607D02*
Y5538D01*
X6886Y5525D01*
X6882Y5521D01*
X6873Y5517D01*
X6860D01*
X6852Y5521D01*
X6890Y5594D02*
X6882Y5603D01*
X6873Y5607D01*
X6860D01*
X6852Y5603D01*
X6843Y5594D01*
X6839Y5581D01*
Y5573D01*
X6843Y5560D01*
X6852Y5551D01*
X6860Y5547D01*
X6873D01*
X6882Y5551D01*
X6890Y5560D01*
X6966Y5607D02*
Y5547D01*
Y5594D02*
X6957Y5603D01*
X6948Y5607D01*
X6936D01*
X6927Y5603D01*
X6918Y5594D01*
X6914Y5581D01*
Y5573D01*
X6918Y5560D01*
X6927Y5551D01*
X6936Y5547D01*
X6948D01*
X6957Y5551D01*
X6966Y5560D01*
X6990Y5607D02*
Y5547D01*
Y5581D02*
X6994Y5594D01*
X7002Y5603D01*
X7011Y5607D01*
X7024D01*
X7167Y5615D02*
X7163Y5624D01*
X7154Y5633D01*
X7146Y5637D01*
X7128D01*
X7120Y5633D01*
X7111Y5624D01*
X7107Y5615D01*
X7103Y5603D01*
Y5581D01*
X7107Y5568D01*
X7111Y5560D01*
X7120Y5551D01*
X7128Y5547D01*
X7146D01*
X7154Y5551D01*
X7163Y5560D01*
X7167Y5568D01*
X7214Y5607D02*
X7205Y5603D01*
X7197Y5594D01*
X7192Y5581D01*
Y5573D01*
X7197Y5560D01*
X7205Y5551D01*
X7214Y5547D01*
X7227D01*
X7235Y5551D01*
X7244Y5560D01*
X7248Y5573D01*
Y5581D01*
X7244Y5594D01*
X7235Y5603D01*
X7227Y5607D01*
X7214D01*
X7268D02*
Y5547D01*
Y5590D02*
X7281Y5603D01*
X7289Y5607D01*
X7302D01*
X7311Y5603D01*
X7315Y5590D01*
Y5547D01*
X7351Y5637D02*
Y5564D01*
X7356Y5551D01*
X7364Y5547D01*
X7373D01*
X7338Y5607D02*
X7368D01*
X7386D02*
Y5547D01*
Y5581D02*
X7390Y5594D01*
X7398Y5603D01*
X7407Y5607D01*
X7420D01*
X7449D02*
X7441Y5603D01*
X7432Y5594D01*
X7428Y5581D01*
Y5573D01*
X7432Y5560D01*
X7441Y5551D01*
X7449Y5547D01*
X7462D01*
X7471Y5551D01*
X7479Y5560D01*
X7484Y5573D01*
Y5581D01*
X7479Y5594D01*
X7471Y5603D01*
X7462Y5607D01*
X7449D01*
X7503Y5637D02*
Y5547D01*
X7522Y5637D02*
Y5547D01*
X7541Y5581D02*
X7592D01*
Y5590D01*
X7588Y5598D01*
X7584Y5603D01*
X7575Y5607D01*
X7562D01*
X7554Y5603D01*
X7545Y5594D01*
X7541Y5581D01*
Y5573D01*
X7545Y5560D01*
X7554Y5551D01*
X7562Y5547D01*
X7575D01*
X7584Y5551D01*
X7592Y5560D01*
X7612Y5607D02*
Y5547D01*
Y5581D02*
X7616Y5594D01*
X7625Y5603D01*
X7633Y5607D01*
X7646D01*
X7658Y5555D02*
X7654Y5551D01*
X7658Y5547D01*
X7663Y5551D01*
X7658Y5555D01*
X7682Y5590D02*
X7721D01*
X7734Y5594D01*
X7738Y5598D01*
X7742Y5607D01*
Y5620D01*
X7738Y5628D01*
X7734Y5633D01*
X7721Y5637D01*
X7682D01*
Y5547D01*
X7827Y5615D02*
X7823Y5624D01*
X7814Y5633D01*
X7805Y5637D01*
X7788D01*
X7780Y5633D01*
X7771Y5624D01*
X7767Y5615D01*
X7763Y5603D01*
Y5581D01*
X7767Y5568D01*
X7771Y5560D01*
X7780Y5551D01*
X7788Y5547D01*
X7805D01*
X7814Y5551D01*
X7823Y5560D01*
X7827Y5568D01*
X7852Y5637D02*
Y5547D01*
Y5637D02*
X7891D01*
X7904Y5633D01*
X7908Y5628D01*
X7912Y5620D01*
Y5611D01*
X7908Y5603D01*
X7904Y5598D01*
X7891Y5594D01*
X7852D02*
X7891D01*
X7904Y5590D01*
X7908Y5585D01*
X7912Y5577D01*
Y5564D01*
X7908Y5555D01*
X7904Y5551D01*
X7891Y5547D01*
X7852D01*
D17*
X12853Y5472D02*
X12852Y5482D01*
X12849Y5492D01*
X12844Y5500D01*
X12838Y5508D01*
X12830Y5514D01*
X12820Y5519D01*
X12811Y5521D01*
X12801Y5522D01*
X12791Y5520D01*
X12781Y5517D01*
X12773Y5511D01*
X12765Y5504D01*
X12759Y5496D01*
X12755Y5487D01*
X12753Y5477D01*
Y5467D01*
X12755Y5457D01*
X12759Y5448D01*
X12765Y5439D01*
X12773Y5432D01*
X12781Y5427D01*
X12791Y5423D01*
X12801Y5422D01*
X12811Y5422D01*
X12820Y5425D01*
X12830Y5429D01*
X12838Y5436D01*
X12844Y5443D01*
X12849Y5452D01*
X12852Y5462D01*
X12853Y5472D01*
X12878D02*
X12877Y5482D01*
X12875Y5492D01*
X12872Y5501D01*
X12868Y5510D01*
X12862Y5518D01*
X12855Y5526D01*
X12848Y5532D01*
X12839Y5538D01*
X12830Y5542D01*
X12821Y5545D01*
X12811Y5546D01*
X12801Y5547D01*
X12791Y5546D01*
X12781Y5543D01*
X12772Y5540D01*
X12763Y5535D01*
X12755Y5529D01*
X12748Y5522D01*
X12741Y5514D01*
X12736Y5506D01*
X12732Y5496D01*
X12730Y5487D01*
X12728Y5477D01*
Y5467D01*
X12730Y5457D01*
X12732Y5447D01*
X12736Y5438D01*
X12741Y5429D01*
X12748Y5421D01*
X12755Y5415D01*
X12763Y5409D01*
X12772Y5404D01*
X12781Y5400D01*
X12791Y5398D01*
X12801Y5397D01*
X12811Y5397D01*
X12821Y5399D01*
X12830Y5402D01*
X12839Y5406D01*
X12848Y5411D01*
X12855Y5418D01*
X12862Y5425D01*
X12868Y5434D01*
X12872Y5443D01*
X12875Y5452D01*
X12877Y5462D01*
X12878Y5472D01*
X12806D02*
X12801D01*
X12806D01*
X12808D02*
X12801Y5476D01*
Y5467D01*
X12808Y5472D01*
X12823D02*
X12821Y5481D01*
X12814Y5488D01*
X12806Y5492D01*
X12796Y5490D01*
X12788Y5485D01*
X12784Y5477D01*
Y5467D01*
X12788Y5459D01*
X12796Y5453D01*
X12806Y5452D01*
X12814Y5455D01*
X12821Y5462D01*
X12823Y5472D01*
X12818D02*
X12815Y5481D01*
X12806Y5487D01*
X12796Y5485D01*
X12789Y5477D01*
Y5467D01*
X12796Y5459D01*
X12806Y5457D01*
X12815Y5462D01*
X12818Y5472D01*
X12813D02*
X12808Y5480D01*
X12798D01*
X12793Y5472D01*
X12798Y5463D01*
X12808D01*
X12813Y5472D01*
X5878Y11472D02*
X5877Y11482D01*
X5875Y11492D01*
X5872Y11501D01*
X5868Y11510D01*
X5862Y11518D01*
X5855Y11526D01*
X5848Y11532D01*
X5839Y11538D01*
X5830Y11542D01*
X5821Y11545D01*
X5811Y11546D01*
X5801Y11547D01*
X5791Y11546D01*
X5781Y11543D01*
X5772Y11540D01*
X5763Y11535D01*
X5755Y11529D01*
X5747Y11522D01*
X5741Y11514D01*
X5736Y11506D01*
X5732Y11496D01*
X5730Y11487D01*
X5728Y11477D01*
Y11467D01*
X5730Y11457D01*
X5732Y11447D01*
X5736Y11438D01*
X5741Y11429D01*
X5747Y11421D01*
X5755Y11415D01*
X5763Y11409D01*
X5772Y11404D01*
X5781Y11400D01*
X5791Y11398D01*
X5801Y11397D01*
X5811Y11397D01*
X5821Y11399D01*
X5830Y11402D01*
X5839Y11406D01*
X5848Y11411D01*
X5855Y11418D01*
X5862Y11425D01*
X5868Y11434D01*
X5872Y11443D01*
X5875Y11452D01*
X5877Y11462D01*
X5878Y11472D01*
X5806D02*
X5801D01*
X5806D01*
X5808D02*
X5801Y11476D01*
Y11467D01*
X5808Y11472D01*
X5813D02*
X5808Y11480D01*
X5798D01*
X5793Y11472D01*
X5798Y11463D01*
X5808D01*
X5813Y11472D01*
X5818D02*
X5815Y11481D01*
X5806Y11487D01*
X5796Y11485D01*
X5789Y11477D01*
Y11467D01*
X5796Y11459D01*
X5806Y11457D01*
X5815Y11462D01*
X5818Y11472D01*
X5823D02*
X5821Y11481D01*
X5814Y11488D01*
X5806Y11492D01*
X5796Y11491D01*
X5788Y11485D01*
X5784Y11477D01*
Y11467D01*
X5788Y11459D01*
X5796Y11453D01*
X5806Y11452D01*
X5814Y11455D01*
X5821Y11463D01*
X5823Y11472D01*
X5853D02*
X5852Y11482D01*
X5849Y11492D01*
X5844Y11500D01*
X5838Y11508D01*
X5830Y11514D01*
X5820Y11519D01*
X5811Y11521D01*
X5801Y11522D01*
X5791Y11520D01*
X5781Y11517D01*
X5773Y11511D01*
X5765Y11504D01*
X5759Y11496D01*
X5755Y11487D01*
X5753Y11477D01*
Y11467D01*
X5755Y11457D01*
X5759Y11448D01*
X5765Y11439D01*
X5773Y11432D01*
X5781Y11427D01*
X5791Y11423D01*
X5801Y11422D01*
X5811Y11422D01*
X5820Y11425D01*
X5830Y11429D01*
X5838Y11436D01*
X5844Y11443D01*
X5849Y11452D01*
X5852Y11462D01*
X5853Y11472D01*
X5853Y5472D02*
X5852Y5482D01*
X5849Y5492D01*
X5844Y5500D01*
X5838Y5508D01*
X5830Y5514D01*
X5820Y5519D01*
X5811Y5521D01*
X5801Y5522D01*
X5791Y5520D01*
X5781Y5517D01*
X5773Y5511D01*
X5765Y5504D01*
X5759Y5496D01*
X5755Y5487D01*
X5753Y5477D01*
Y5467D01*
X5755Y5457D01*
X5759Y5448D01*
X5765Y5439D01*
X5773Y5432D01*
X5781Y5427D01*
X5791Y5423D01*
X5801Y5422D01*
X5811Y5422D01*
X5820Y5425D01*
X5830Y5429D01*
X5838Y5436D01*
X5844Y5443D01*
X5849Y5452D01*
X5852Y5462D01*
X5853Y5472D01*
X5878D02*
X5877Y5482D01*
X5875Y5492D01*
X5872Y5501D01*
X5868Y5510D01*
X5862Y5518D01*
X5855Y5526D01*
X5848Y5532D01*
X5839Y5538D01*
X5830Y5542D01*
X5821Y5545D01*
X5811Y5546D01*
X5801Y5547D01*
X5791Y5546D01*
X5781Y5543D01*
X5772Y5540D01*
X5763Y5535D01*
X5755Y5529D01*
X5748Y5522D01*
X5741Y5514D01*
X5736Y5506D01*
X5732Y5496D01*
X5730Y5487D01*
X5728Y5477D01*
Y5467D01*
X5730Y5457D01*
X5732Y5447D01*
X5736Y5438D01*
X5741Y5429D01*
X5748Y5421D01*
X5755Y5415D01*
X5763Y5409D01*
X5772Y5404D01*
X5781Y5400D01*
X5791Y5398D01*
X5801Y5397D01*
X5811Y5397D01*
X5821Y5399D01*
X5830Y5402D01*
X5839Y5406D01*
X5848Y5411D01*
X5855Y5418D01*
X5862Y5425D01*
X5868Y5434D01*
X5872Y5443D01*
X5875Y5452D01*
X5877Y5462D01*
X5878Y5472D01*
X5806D02*
X5801D01*
X5806D01*
X5808D02*
X5801Y5476D01*
Y5467D01*
X5808Y5472D01*
X5823D02*
X5821Y5481D01*
X5814Y5488D01*
X5806Y5492D01*
X5796Y5490D01*
X5788Y5485D01*
X5784Y5477D01*
Y5467D01*
X5788Y5459D01*
X5796Y5453D01*
X5806Y5452D01*
X5814Y5455D01*
X5821Y5462D01*
X5823Y5472D01*
X5813D02*
X5808Y5480D01*
X5798D01*
X5793Y5472D01*
X5798Y5463D01*
X5808D01*
X5813Y5472D01*
X5818D02*
X5815Y5481D01*
X5806Y5487D01*
X5796Y5485D01*
X5789Y5477D01*
Y5467D01*
X5796Y5459D01*
X5806Y5457D01*
X5815Y5462D01*
X5818Y5472D01*
X5878D02*
X5928D01*
X5578D02*
X5728D01*
X5503Y5172D02*
X5578D01*
X5478Y5397D02*
X5528D01*
X5489Y5405D02*
X5518D01*
X5494Y5408D02*
X5513D01*
X5484Y5401D02*
X5523D01*
X5499Y5412D02*
X5508D01*
X5703Y5172D02*
X5728D01*
X5303Y5472D02*
X5503D01*
X5428Y5572D02*
X5503D01*
X5428Y5672D02*
X5503D01*
X5428Y5772D02*
X5503D01*
X5428Y5872D02*
X5503D01*
X5353Y5972D02*
X5503D01*
X5428Y6072D02*
X5503D01*
X5428Y6172D02*
X5503D01*
X5428Y6272D02*
X5503D01*
X5428Y6372D02*
X5503D01*
X5303Y6472D02*
X5503D01*
X5428Y6572D02*
X5503D01*
X5428Y6672D02*
X5503D01*
X5428Y6772D02*
X5503D01*
X5428Y6872D02*
X5503D01*
X5353Y6972D02*
X5503D01*
X5428Y7072D02*
X5503D01*
X5428Y7172D02*
X5503D01*
X5428Y7272D02*
X5503D01*
X5428Y7372D02*
X5503D01*
X5303Y7472D02*
X5503D01*
X5428Y7572D02*
X5503D01*
X5428Y7672D02*
X5503D01*
X5428Y7772D02*
X5503D01*
X5428Y7872D02*
X5503D01*
X5353Y7972D02*
X5503D01*
X5428Y8072D02*
X5503D01*
X5428Y8172D02*
X5503D01*
X5428Y8272D02*
X5503D01*
X5428Y8372D02*
X5503D01*
X5303Y8472D02*
X5503D01*
X5428Y8572D02*
X5503D01*
X5428Y8672D02*
X5503D01*
X5428Y8772D02*
X5503D01*
X5428Y8872D02*
X5503D01*
X5353Y8972D02*
X5503D01*
X5428Y9072D02*
X5503D01*
X5428Y9172D02*
X5503D01*
X5428Y9272D02*
X5503D01*
X5428Y9372D02*
X5503D01*
X5303Y9472D02*
X5503D01*
X5428Y9572D02*
X5503D01*
X5428Y9672D02*
X5503D01*
X5428Y9772D02*
X5503D01*
X5428Y9872D02*
X5503D01*
X5353Y9972D02*
X5503D01*
X5428Y10072D02*
X5503D01*
X5428Y10172D02*
X5503D01*
X5428Y10272D02*
X5503D01*
X5428Y10372D02*
X5503D01*
X5303Y10472D02*
X5503D01*
X5428Y10572D02*
X5503D01*
X5428Y10672D02*
X5503D01*
X5428Y10772D02*
X5503D01*
X5428Y10872D02*
X5503D01*
X5353Y10972D02*
X5503D01*
X5428Y11072D02*
X5503D01*
X5428Y11172D02*
X5503D01*
X5428Y11272D02*
X5503D01*
X5428Y11372D02*
X5503D01*
X5303Y11472D02*
X5503D01*
X5803D02*
X5853D01*
X5753D02*
X5803D01*
X5578D02*
X5728D01*
X5878D02*
X5928D01*
X12678Y5472D02*
X12728D01*
X12878D02*
X12928D01*
X5803Y5247D02*
Y5397D01*
Y5547D02*
Y5597D01*
X5503Y5172D02*
Y5247D01*
X5728Y5147D02*
Y5197D01*
X5736Y5157D02*
Y5186D01*
X5503Y5372D02*
Y5397D01*
X5740Y5162D02*
Y5181D01*
X5733Y5152D02*
Y5191D01*
X5743Y5167D02*
Y5176D01*
X5803Y4972D02*
Y5172D01*
X5903Y5097D02*
Y5172D01*
X6003Y5097D02*
Y5172D01*
X6103Y5097D02*
Y5172D01*
X6203Y5097D02*
Y5172D01*
X6303Y5022D02*
Y5172D01*
X6403Y5097D02*
Y5172D01*
X6503Y5097D02*
Y5172D01*
X6603Y5097D02*
Y5172D01*
X6703Y5097D02*
Y5172D01*
X6803Y4972D02*
Y5172D01*
X6903Y5097D02*
Y5172D01*
X7003Y5097D02*
Y5172D01*
X7103Y5097D02*
Y5172D01*
X7203Y5097D02*
Y5172D01*
X7303Y5022D02*
Y5172D01*
X7403Y5097D02*
Y5172D01*
X7503Y5097D02*
Y5172D01*
X7603Y5097D02*
Y5172D01*
X7703Y5097D02*
Y5172D01*
X7803Y4972D02*
Y5172D01*
X7903Y5097D02*
Y5172D01*
X8003Y5097D02*
Y5172D01*
X8103Y5097D02*
Y5172D01*
X8203Y5097D02*
Y5172D01*
X8303Y5022D02*
Y5172D01*
X8403Y5097D02*
Y5172D01*
X8503Y5097D02*
Y5172D01*
X8603Y5097D02*
Y5172D01*
X8703Y5097D02*
Y5172D01*
X8803Y4972D02*
Y5172D01*
X8903Y5097D02*
Y5172D01*
X9003Y5097D02*
Y5172D01*
X9103Y5097D02*
Y5172D01*
X9203Y5097D02*
Y5172D01*
X9303Y5022D02*
Y5172D01*
X9403Y5097D02*
Y5172D01*
X9503Y5097D02*
Y5172D01*
X9603Y5097D02*
Y5172D01*
X9703Y5097D02*
Y5172D01*
X9803Y4972D02*
Y5172D01*
X9903Y5097D02*
Y5172D01*
X10003Y5097D02*
Y5172D01*
X10103Y5097D02*
Y5172D01*
X10203Y5097D02*
Y5172D01*
X10303Y5022D02*
Y5172D01*
X10403Y5097D02*
Y5172D01*
X10503Y5097D02*
Y5172D01*
X10603Y5097D02*
Y5172D01*
X10703Y5097D02*
Y5172D01*
X10803Y4972D02*
Y5172D01*
X10903Y5097D02*
Y5172D01*
X11003Y5097D02*
Y5172D01*
X11103Y5097D02*
Y5172D01*
X11203Y5097D02*
Y5172D01*
X11303Y5022D02*
Y5172D01*
X11403Y5097D02*
Y5172D01*
X11503Y5097D02*
Y5172D01*
X11603Y5097D02*
Y5172D01*
X11703Y5097D02*
Y5172D01*
X11803Y4972D02*
Y5172D01*
X11903Y5097D02*
Y5172D01*
X12003Y5097D02*
Y5172D01*
X12103Y5097D02*
Y5172D01*
X12203Y5097D02*
Y5172D01*
X12303Y5022D02*
Y5172D01*
X12403Y5097D02*
Y5172D01*
X12503Y5097D02*
Y5172D01*
X12603Y5097D02*
Y5172D01*
X12703Y5097D02*
Y5172D01*
X12803Y4972D02*
Y5172D01*
X5803Y11422D02*
Y11472D01*
Y11522D01*
Y11547D02*
Y11597D01*
Y11347D02*
Y11397D01*
X12803Y5547D02*
Y5597D01*
Y5247D02*
Y5397D01*
X5803Y5472D02*
X5838Y5507D01*
X5768Y5437D02*
X5803Y5472D01*
X12768Y5437D02*
X12803Y5472D01*
X12838Y5507D01*
X5803Y5472D02*
X5838Y5437D01*
X5768Y5507D02*
X5803Y5472D01*
X12803D02*
X12838Y5437D01*
X12768Y5507D02*
X12803Y5472D01*
X5728Y5147D02*
X5803Y5172D01*
X5728Y5197D02*
X5803Y5172D01*
X5736Y5186D02*
X5779Y5172D01*
X5736Y5157D02*
X5779Y5172D01*
X5503Y5472D02*
X5528Y5397D01*
X5478D02*
X5503Y5472D01*
X5489Y5405D02*
X5503Y5448D01*
X5518Y5405D01*
X5494Y5408D02*
X5503Y5436D01*
X5513Y5408D01*
X5484Y5401D02*
X5503Y5459D01*
X5523Y5401D01*
X5499Y5412D02*
X5503Y5425D01*
X5508Y5412D01*
X5740Y5181D02*
X5768Y5172D01*
X5740Y5162D02*
X5768Y5172D01*
X5733Y5191D02*
X5791Y5172D01*
X5733Y5152D02*
X5791Y5172D01*
X5743Y5176D02*
X5756Y5172D01*
X5743Y5167D02*
X5756Y5172D01*
D18*
X6203Y6747D02*
X6193Y6746D01*
X6184Y6745D01*
X6174Y6742D01*
X6165Y6739D01*
X6156Y6735D01*
X6148Y6730D01*
X6140Y6724D01*
X6132Y6718D01*
X6126Y6710D01*
X6120Y6702D01*
X6115Y6694D01*
X6111Y6685D01*
X6107Y6676D01*
X6105Y6666D01*
X6104Y6657D01*
X6103Y6647D01*
Y5548D02*
X6104Y5538D01*
X6105Y5528D01*
X6107Y5519D01*
X6111Y5510D01*
X6115Y5501D01*
X6120Y5492D01*
X6126Y5484D01*
X6132Y5477D01*
X6139Y5470D01*
X6147Y5464D01*
X6155Y5459D01*
X6164Y5455D01*
X6173Y5452D01*
X6183Y5449D01*
X6193Y5447D01*
X6202Y5447D01*
X10403Y5447D02*
X10413Y5447D01*
X10423Y5449D01*
X10432Y5451D01*
X10441Y5454D01*
X10450Y5459D01*
X10459Y5464D01*
X10467Y5470D01*
X10474Y5476D01*
X10480Y5483D01*
X10486Y5491D01*
X10491Y5500D01*
X10496Y5509D01*
X10499Y5518D01*
X10501Y5527D01*
X10503Y5537D01*
X10503Y5547D01*
Y6647D02*
X10503Y6657D01*
X10501Y6666D01*
X10499Y6676D01*
X10496Y6685D01*
X10491Y6694D01*
X10486Y6702D01*
X10480Y6710D01*
X10474Y6718D01*
X10467Y6724D01*
X10459Y6730D01*
X10450Y6735D01*
X10441Y6739D01*
X10432Y6742D01*
X10423Y6745D01*
X10413Y6746D01*
X10403Y6747D01*
X6353Y7572D02*
X6703D01*
X6443Y10572D02*
X6463D01*
X6443Y7572D02*
X6463D01*
X6453Y10572D02*
X6473Y10512D01*
X6433D02*
X6453Y10572D01*
Y7572D02*
X6473Y7632D01*
X6433D02*
X6453Y7572D01*
Y9353D02*
Y10572D01*
Y7572D02*
Y8791D01*
X6703Y7302D02*
Y7572D01*
X14703Y7442D02*
Y7462D01*
X6703Y7442D02*
Y7462D01*
X14643Y7432D02*
X14703Y7452D01*
X14643Y7472D02*
X14703Y7452D01*
X6703D02*
X6763Y7432D01*
X6703Y7452D02*
X6763Y7472D01*
X10984Y7452D02*
X14703D01*
X6703D02*
X10422D01*
X6703Y7572D02*
X14703D01*
X6703Y10572D02*
X14703D01*
Y7572D02*
Y10572D01*
X6703Y7572D02*
Y10572D01*
X6203Y5447D02*
X10403D01*
X6203Y6747D02*
X10403D01*
X10503Y5547D02*
Y6647D01*
X6103Y5547D02*
Y6647D01*
X14903Y7732D02*
Y7672D01*
X14933D01*
X14943Y7682D01*
Y7722D01*
X14933Y7732D01*
X14903D01*
X14963Y7712D02*
Y7672D01*
Y7692D01*
X14973Y7702D01*
X14983Y7712D01*
X14993D01*
X15023Y7672D02*
X15043D01*
X15033D01*
Y7712D01*
X15023D01*
X15073Y7672D02*
X15093D01*
X15083D01*
Y7732D01*
X15073D01*
X15123Y7672D02*
X15143D01*
X15133D01*
Y7732D01*
X15123D01*
X15233D02*
Y7672D01*
X15263D01*
X15273Y7682D01*
Y7722D01*
X15263Y7732D01*
X15233D01*
X15293Y7712D02*
Y7672D01*
Y7692D01*
X15303Y7702D01*
X15313Y7712D01*
X15323D01*
X15363D02*
X15383D01*
X15393Y7702D01*
Y7672D01*
X15363D01*
X15353Y7682D01*
X15363Y7692D01*
X15393D01*
X15413Y7712D02*
Y7682D01*
X15423Y7672D01*
X15433Y7682D01*
X15443Y7672D01*
X15453Y7682D01*
Y7712D01*
X15473Y7672D02*
X15493D01*
X15483D01*
Y7712D01*
X15473D01*
X15523Y7672D02*
Y7712D01*
X15553D01*
X15563Y7702D01*
Y7672D01*
X15603Y7652D02*
X15613D01*
X15623Y7662D01*
Y7712D01*
X15593D01*
X15583Y7702D01*
Y7682D01*
X15593Y7672D01*
X15623D01*
X15643D02*
Y7682D01*
X15653D01*
Y7672D01*
X15643D01*
X15233Y8452D02*
X15253D01*
X15243D01*
Y8512D01*
X15233Y8502D01*
X15313Y8452D02*
Y8512D01*
X15283Y8482D01*
X15323D01*
X15383Y8452D02*
X15343D01*
X15383Y8492D01*
Y8502D01*
X15373Y8512D01*
X15353D01*
X15343Y8502D01*
X15723D02*
X15733Y8512D01*
X15753D01*
X15763Y8502D01*
Y8492D01*
X15753Y8482D01*
X15743D01*
X15753D01*
X15763Y8472D01*
Y8462D01*
X15753Y8452D01*
X15733D01*
X15723Y8462D01*
X15823Y8452D02*
X15783D01*
X15823Y8492D01*
Y8502D01*
X15813Y8512D01*
X15793D01*
X15783Y8502D01*
X15843Y8452D02*
Y8492D01*
X15853D01*
X15863Y8482D01*
Y8452D01*
Y8482D01*
X15873Y8492D01*
X15883Y8482D01*
Y8452D01*
X15903D02*
X15923D01*
X15913D01*
Y8492D01*
X15903D01*
X15953Y8452D02*
X15973D01*
X15963D01*
Y8512D01*
X15953D01*
X16423Y8502D02*
X16433Y8512D01*
X16453D01*
X16463Y8502D01*
Y8462D01*
X16453Y8452D01*
X16433D01*
X16423Y8462D01*
Y8502D01*
X16483Y8452D02*
Y8462D01*
X16493D01*
Y8452D01*
X16483D01*
X16533Y8502D02*
X16543Y8512D01*
X16563D01*
X16573Y8502D01*
Y8492D01*
X16563Y8482D01*
X16573Y8472D01*
Y8462D01*
X16563Y8452D01*
X16543D01*
X16533Y8462D01*
Y8472D01*
X16543Y8482D01*
X16533Y8492D01*
Y8502D01*
X16543Y8482D02*
X16563D01*
X16593Y8452D02*
X16613D01*
X16603D01*
Y8512D01*
X16593Y8502D01*
X16683Y8452D02*
X16643D01*
X16683Y8492D01*
Y8502D01*
X16673Y8512D01*
X16653D01*
X16643Y8502D01*
X16703D02*
X16713Y8512D01*
X16733D01*
X16743Y8502D01*
Y8492D01*
X16733Y8482D01*
X16743Y8472D01*
Y8462D01*
X16733Y8452D01*
X16713D01*
X16703Y8462D01*
Y8472D01*
X16713Y8482D01*
X16703Y8492D01*
Y8502D01*
X16713Y8482D02*
X16733D01*
X16763Y8452D02*
Y8492D01*
X16773D01*
X16783Y8482D01*
Y8452D01*
Y8482D01*
X16793Y8492D01*
X16803Y8482D01*
Y8452D01*
X16823D02*
Y8492D01*
X16833D01*
X16843Y8482D01*
Y8452D01*
Y8482D01*
X16853Y8492D01*
X16863Y8482D01*
Y8452D01*
X17123D02*
Y8512D01*
X17153D01*
X17163Y8502D01*
Y8482D01*
X17153Y8472D01*
X17123D01*
X17183Y8512D02*
X17223D01*
X17203D01*
Y8452D01*
X17243Y8512D02*
Y8452D01*
Y8482D01*
X17283D01*
Y8512D01*
Y8452D01*
X15273Y8392D02*
X15233D01*
Y8362D01*
X15253Y8372D01*
X15263D01*
X15273Y8362D01*
Y8342D01*
X15263Y8332D01*
X15243D01*
X15233Y8342D01*
X15723Y8332D02*
X15743D01*
X15733D01*
Y8392D01*
X15723Y8382D01*
X15813Y8392D02*
X15773D01*
Y8362D01*
X15793Y8372D01*
X15803D01*
X15813Y8362D01*
Y8342D01*
X15803Y8332D01*
X15783D01*
X15773Y8342D01*
X15873Y8332D02*
X15833D01*
X15873Y8372D01*
Y8382D01*
X15863Y8392D01*
X15843D01*
X15833Y8382D01*
X15893Y8332D02*
Y8372D01*
X15903D01*
X15913Y8362D01*
Y8332D01*
Y8362D01*
X15923Y8372D01*
X15933Y8362D01*
Y8332D01*
X15953D02*
X15973D01*
X15963D01*
Y8372D01*
X15953D01*
X16003Y8332D02*
X16023D01*
X16013D01*
Y8392D01*
X16003D01*
X16423Y8382D02*
X16433Y8392D01*
X16453D01*
X16463Y8382D01*
Y8372D01*
X16453Y8362D01*
X16443D01*
X16453D01*
X16463Y8352D01*
Y8342D01*
X16453Y8332D01*
X16433D01*
X16423Y8342D01*
X16483Y8332D02*
Y8342D01*
X16493D01*
Y8332D01*
X16483D01*
X16533Y8382D02*
X16543Y8392D01*
X16563D01*
X16573Y8382D01*
Y8372D01*
X16563Y8362D01*
X16573Y8352D01*
Y8342D01*
X16563Y8332D01*
X16543D01*
X16533Y8342D01*
Y8352D01*
X16543Y8362D01*
X16533Y8372D01*
Y8382D01*
X16543Y8362D02*
X16563D01*
X16633Y8392D02*
X16613Y8382D01*
X16593Y8362D01*
Y8342D01*
X16603Y8332D01*
X16623D01*
X16633Y8342D01*
Y8352D01*
X16623Y8362D01*
X16593D01*
X16653Y8382D02*
X16663Y8392D01*
X16683D01*
X16693Y8382D01*
Y8342D01*
X16683Y8332D01*
X16663D01*
X16653Y8342D01*
Y8382D01*
X16713D02*
X16723Y8392D01*
X16743D01*
X16753Y8382D01*
Y8372D01*
X16743Y8362D01*
X16753Y8352D01*
Y8342D01*
X16743Y8332D01*
X16723D01*
X16713Y8342D01*
Y8352D01*
X16723Y8362D01*
X16713Y8372D01*
Y8382D01*
X16723Y8362D02*
X16743D01*
X16773Y8332D02*
Y8372D01*
X16783D01*
X16793Y8362D01*
Y8332D01*
Y8362D01*
X16803Y8372D01*
X16813Y8362D01*
Y8332D01*
X16833D02*
Y8372D01*
X16843D01*
X16853Y8362D01*
Y8332D01*
Y8362D01*
X16863Y8372D01*
X16873Y8362D01*
Y8332D01*
X17123D02*
Y8392D01*
X17153D01*
X17163Y8382D01*
Y8362D01*
X17153Y8352D01*
X17123D01*
X17183Y8392D02*
X17223D01*
X17203D01*
Y8332D01*
X17243Y8392D02*
Y8332D01*
Y8362D01*
X17283D01*
Y8392D01*
Y8332D01*
X15233Y8212D02*
X15253D01*
X15243D01*
Y8272D01*
X15233Y8262D01*
X15323Y8212D02*
X15283D01*
X15323Y8252D01*
Y8262D01*
X15313Y8272D01*
X15293D01*
X15283Y8262D01*
X15373Y8212D02*
Y8272D01*
X15343Y8242D01*
X15383D01*
X15763Y8212D02*
X15723D01*
X15763Y8252D01*
Y8262D01*
X15753Y8272D01*
X15733D01*
X15723Y8262D01*
X15783D02*
X15793Y8272D01*
X15813D01*
X15823Y8262D01*
Y8252D01*
X15813Y8242D01*
X15823Y8232D01*
Y8222D01*
X15813Y8212D01*
X15793D01*
X15783Y8222D01*
Y8232D01*
X15793Y8242D01*
X15783Y8252D01*
Y8262D01*
X15793Y8242D02*
X15813D01*
X15843Y8212D02*
Y8252D01*
X15853D01*
X15863Y8242D01*
Y8212D01*
Y8242D01*
X15873Y8252D01*
X15883Y8242D01*
Y8212D01*
X15903D02*
X15923D01*
X15913D01*
Y8252D01*
X15903D01*
X15953Y8212D02*
X15973D01*
X15963D01*
Y8272D01*
X15953D01*
X16423Y8262D02*
X16433Y8272D01*
X16453D01*
X16463Y8262D01*
Y8222D01*
X16453Y8212D01*
X16433D01*
X16423Y8222D01*
Y8262D01*
X16483Y8212D02*
Y8222D01*
X16493D01*
Y8212D01*
X16483D01*
X16533Y8272D02*
X16573D01*
Y8262D01*
X16533Y8222D01*
Y8212D01*
X16593D02*
X16613D01*
X16603D01*
Y8272D01*
X16593Y8262D01*
X16643Y8212D02*
X16663D01*
X16653D01*
Y8272D01*
X16643Y8262D01*
X16733Y8212D02*
X16693D01*
X16733Y8252D01*
Y8262D01*
X16723Y8272D01*
X16703D01*
X16693Y8262D01*
X16753Y8212D02*
Y8252D01*
X16763D01*
X16773Y8242D01*
Y8212D01*
Y8242D01*
X16783Y8252D01*
X16793Y8242D01*
Y8212D01*
X16813D02*
Y8252D01*
X16823D01*
X16833Y8242D01*
Y8212D01*
Y8242D01*
X16843Y8252D01*
X16853Y8242D01*
Y8212D01*
X17123D02*
Y8272D01*
X17153D01*
X17163Y8262D01*
Y8242D01*
X17153Y8232D01*
X17123D01*
X17183Y8272D02*
X17223D01*
X17203D01*
Y8212D01*
X17243Y8272D02*
Y8212D01*
Y8242D01*
X17283D01*
Y8272D01*
Y8212D01*
X15273Y8092D02*
X15233D01*
X15273Y8132D01*
Y8142D01*
X15263Y8152D01*
X15243D01*
X15233Y8142D01*
X15293D02*
X15303Y8152D01*
X15323D01*
X15333Y8142D01*
Y8102D01*
X15323Y8092D01*
X15303D01*
X15293Y8102D01*
Y8142D01*
X15753Y8092D02*
Y8152D01*
X15723Y8122D01*
X15763D01*
X15783Y8142D02*
X15793Y8152D01*
X15813D01*
X15823Y8142D01*
Y8102D01*
X15813Y8092D01*
X15793D01*
X15783Y8102D01*
Y8142D01*
X15843Y8092D02*
Y8132D01*
X15853D01*
X15863Y8122D01*
Y8092D01*
Y8122D01*
X15873Y8132D01*
X15883Y8122D01*
Y8092D01*
X15903D02*
X15923D01*
X15913D01*
Y8132D01*
X15903D01*
X15953Y8092D02*
X15973D01*
X15963D01*
Y8152D01*
X15953D01*
X16423Y8092D02*
X16443D01*
X16433D01*
Y8152D01*
X16423Y8142D01*
X16473Y8092D02*
Y8102D01*
X16483D01*
Y8092D01*
X16473D01*
X16523Y8142D02*
X16533Y8152D01*
X16553D01*
X16563Y8142D01*
Y8102D01*
X16553Y8092D01*
X16533D01*
X16523Y8102D01*
Y8142D01*
X16583Y8092D02*
X16603D01*
X16593D01*
Y8152D01*
X16583Y8142D01*
X16673Y8152D02*
X16653Y8142D01*
X16633Y8122D01*
Y8102D01*
X16643Y8092D01*
X16663D01*
X16673Y8102D01*
Y8112D01*
X16663Y8122D01*
X16633D01*
X16693Y8092D02*
Y8132D01*
X16703D01*
X16713Y8122D01*
Y8092D01*
Y8122D01*
X16723Y8132D01*
X16733Y8122D01*
Y8092D01*
X16753D02*
Y8132D01*
X16763D01*
X16773Y8122D01*
Y8092D01*
Y8122D01*
X16783Y8132D01*
X16793Y8122D01*
Y8092D01*
X17123D02*
Y8152D01*
X17153D01*
X17163Y8142D01*
Y8122D01*
X17153Y8112D01*
X17123D01*
X17183Y8152D02*
X17223D01*
X17203D01*
Y8092D01*
X17243Y8152D02*
Y8092D01*
Y8122D01*
X17283D01*
Y8152D01*
Y8092D01*
X15233Y7982D02*
X15243Y7972D01*
X15263D01*
X15273Y7982D01*
Y8022D01*
X15263Y8032D01*
X15243D01*
X15233Y8022D01*
Y8012D01*
X15243Y8002D01*
X15273D01*
X15753Y7972D02*
Y8032D01*
X15723Y8002D01*
X15763D01*
X15813Y7972D02*
Y8032D01*
X15783Y8002D01*
X15823D01*
X15843Y7972D02*
Y8012D01*
X15853D01*
X15863Y8002D01*
Y7972D01*
Y8002D01*
X15873Y8012D01*
X15883Y8002D01*
Y7972D01*
X15903D02*
X15923D01*
X15913D01*
Y8012D01*
X15903D01*
X15953Y7972D02*
X15973D01*
X15963D01*
Y8032D01*
X15953D01*
X16423Y7972D02*
X16443D01*
X16433D01*
Y8032D01*
X16423Y8022D01*
X16473Y7972D02*
Y7982D01*
X16483D01*
Y7972D01*
X16473D01*
X16523D02*
X16543D01*
X16533D01*
Y8032D01*
X16523Y8022D01*
X16573Y7972D02*
X16593D01*
X16583D01*
Y8032D01*
X16573Y8022D01*
X16623Y8032D02*
X16663D01*
Y8022D01*
X16623Y7982D01*
Y7972D01*
X16723Y8032D02*
X16703Y8022D01*
X16683Y8002D01*
Y7982D01*
X16693Y7972D01*
X16713D01*
X16723Y7982D01*
Y7992D01*
X16713Y8002D01*
X16683D01*
X16743Y7972D02*
Y8012D01*
X16753D01*
X16763Y8002D01*
Y7972D01*
Y8002D01*
X16773Y8012D01*
X16783Y8002D01*
Y7972D01*
X16803D02*
Y8012D01*
X16813D01*
X16823Y8002D01*
Y7972D01*
Y8002D01*
X16833Y8012D01*
X16843Y8002D01*
Y7972D01*
X17123D02*
Y8032D01*
X17153D01*
X17163Y8022D01*
Y8002D01*
X17153Y7992D01*
X17123D01*
X17183Y8032D02*
X17223D01*
X17203D01*
Y7972D01*
X17243Y8032D02*
Y7972D01*
Y8002D01*
X17283D01*
Y8032D01*
Y7972D01*
X15273Y7852D02*
X15233D01*
X15273Y7892D01*
Y7902D01*
X15263Y7912D01*
X15243D01*
X15233Y7902D01*
X15723D02*
X15733Y7912D01*
X15753D01*
X15763Y7902D01*
Y7892D01*
X15753Y7882D01*
X15763Y7872D01*
Y7862D01*
X15753Y7852D01*
X15733D01*
X15723Y7862D01*
Y7872D01*
X15733Y7882D01*
X15723Y7892D01*
Y7902D01*
X15733Y7882D02*
X15753D01*
X15783Y7902D02*
X15793Y7912D01*
X15813D01*
X15823Y7902D01*
Y7862D01*
X15813Y7852D01*
X15793D01*
X15783Y7862D01*
Y7902D01*
X15843Y7852D02*
Y7892D01*
X15853D01*
X15863Y7882D01*
Y7852D01*
Y7882D01*
X15873Y7892D01*
X15883Y7882D01*
Y7852D01*
X15903D02*
X15923D01*
X15913D01*
Y7892D01*
X15903D01*
X15953Y7852D02*
X15973D01*
X15963D01*
Y7912D01*
X15953D01*
X16463Y7852D02*
X16423D01*
X16463Y7892D01*
Y7902D01*
X16453Y7912D01*
X16433D01*
X16423Y7902D01*
X16483Y7852D02*
Y7862D01*
X16493D01*
Y7852D01*
X16483D01*
X16533Y7902D02*
X16543Y7912D01*
X16563D01*
X16573Y7902D01*
Y7862D01*
X16563Y7852D01*
X16543D01*
X16533Y7862D01*
Y7902D01*
X16593D02*
X16603Y7912D01*
X16623D01*
X16633Y7902D01*
Y7892D01*
X16623Y7882D01*
X16613D01*
X16623D01*
X16633Y7872D01*
Y7862D01*
X16623Y7852D01*
X16603D01*
X16593Y7862D01*
X16693Y7852D02*
X16653D01*
X16693Y7892D01*
Y7902D01*
X16683Y7912D01*
X16663D01*
X16653Y7902D01*
X16713Y7852D02*
Y7892D01*
X16723D01*
X16733Y7882D01*
Y7852D01*
Y7882D01*
X16743Y7892D01*
X16753Y7882D01*
Y7852D01*
X16773D02*
Y7892D01*
X16783D01*
X16793Y7882D01*
Y7852D01*
Y7882D01*
X16803Y7892D01*
X16813Y7882D01*
Y7852D01*
X17123D02*
Y7912D01*
X17153D01*
X17163Y7902D01*
Y7882D01*
X17153Y7872D01*
X17123D01*
X17183Y7912D02*
X17223D01*
X17203D01*
Y7852D01*
X17243Y7912D02*
Y7852D01*
Y7882D01*
X17283D01*
Y7912D01*
Y7852D01*
X15273Y7792D02*
X15233D01*
Y7762D01*
X15253Y7772D01*
X15263D01*
X15273Y7762D01*
Y7742D01*
X15263Y7732D01*
X15243D01*
X15233Y7742D01*
X15763Y7792D02*
X15743Y7782D01*
X15723Y7762D01*
Y7742D01*
X15733Y7732D01*
X15753D01*
X15763Y7742D01*
Y7752D01*
X15753Y7762D01*
X15723D01*
X15783Y7782D02*
X15793Y7792D01*
X15813D01*
X15823Y7782D01*
Y7772D01*
X15813Y7762D01*
X15823Y7752D01*
Y7742D01*
X15813Y7732D01*
X15793D01*
X15783Y7742D01*
Y7752D01*
X15793Y7762D01*
X15783Y7772D01*
Y7782D01*
X15793Y7762D02*
X15813D01*
X15843Y7732D02*
Y7772D01*
X15853D01*
X15863Y7762D01*
Y7732D01*
Y7762D01*
X15873Y7772D01*
X15883Y7762D01*
Y7732D01*
X15903D02*
X15923D01*
X15913D01*
Y7772D01*
X15903D01*
X15953Y7732D02*
X15973D01*
X15963D01*
Y7792D01*
X15953D01*
X16423Y7732D02*
X16443D01*
X16433D01*
Y7792D01*
X16423Y7782D01*
X16473Y7732D02*
Y7742D01*
X16483D01*
Y7732D01*
X16473D01*
X16523Y7792D02*
X16563D01*
Y7782D01*
X16523Y7742D01*
Y7732D01*
X16623D02*
X16583D01*
X16623Y7772D01*
Y7782D01*
X16613Y7792D01*
X16593D01*
X16583Y7782D01*
X16643Y7792D02*
X16683D01*
Y7782D01*
X16643Y7742D01*
Y7732D01*
X16743D02*
X16703D01*
X16743Y7772D01*
Y7782D01*
X16733Y7792D01*
X16713D01*
X16703Y7782D01*
X16763Y7732D02*
Y7772D01*
X16773D01*
X16783Y7762D01*
Y7732D01*
Y7762D01*
X16793Y7772D01*
X16803Y7762D01*
Y7732D01*
X16823D02*
Y7772D01*
X16833D01*
X16843Y7762D01*
Y7732D01*
Y7762D01*
X16853Y7772D01*
X16863Y7762D01*
Y7732D01*
X17123D02*
Y7792D01*
X17153D01*
X17163Y7782D01*
Y7762D01*
X17153Y7752D01*
X17123D01*
X17183Y7792D02*
X17223D01*
X17203D01*
Y7732D01*
X17243Y7792D02*
Y7732D01*
Y7762D01*
X17283D01*
Y7792D01*
Y7732D01*
X15273Y7612D02*
X15233D01*
X15273Y7652D01*
Y7662D01*
X15263Y7672D01*
X15243D01*
X15233Y7662D01*
X15723D02*
X15733Y7672D01*
X15753D01*
X15763Y7662D01*
Y7652D01*
X15753Y7642D01*
X15743D01*
X15753D01*
X15763Y7632D01*
Y7622D01*
X15753Y7612D01*
X15733D01*
X15723Y7622D01*
X15823Y7672D02*
X15803Y7662D01*
X15783Y7642D01*
Y7622D01*
X15793Y7612D01*
X15813D01*
X15823Y7622D01*
Y7632D01*
X15813Y7642D01*
X15783D01*
X15843Y7612D02*
Y7652D01*
X15853D01*
X15863Y7642D01*
Y7612D01*
Y7642D01*
X15873Y7652D01*
X15883Y7642D01*
Y7612D01*
X15903D02*
X15923D01*
X15913D01*
Y7652D01*
X15903D01*
X15953Y7612D02*
X15973D01*
X15963D01*
Y7672D01*
X15953D01*
X16423Y7662D02*
X16433Y7672D01*
X16453D01*
X16463Y7662D01*
Y7622D01*
X16453Y7612D01*
X16433D01*
X16423Y7622D01*
Y7662D01*
X16483Y7612D02*
Y7622D01*
X16493D01*
Y7612D01*
X16483D01*
X16533Y7622D02*
X16543Y7612D01*
X16563D01*
X16573Y7622D01*
Y7662D01*
X16563Y7672D01*
X16543D01*
X16533Y7662D01*
Y7652D01*
X16543Y7642D01*
X16573D01*
X16593Y7612D02*
X16613D01*
X16603D01*
Y7672D01*
X16593Y7662D01*
X16673Y7612D02*
Y7672D01*
X16643Y7642D01*
X16683D01*
X16733Y7612D02*
Y7672D01*
X16703Y7642D01*
X16743D01*
X16763Y7612D02*
Y7652D01*
X16773D01*
X16783Y7642D01*
Y7612D01*
Y7642D01*
X16793Y7652D01*
X16803Y7642D01*
Y7612D01*
X16823D02*
Y7652D01*
X16833D01*
X16843Y7642D01*
Y7612D01*
Y7642D01*
X16853Y7652D01*
X16863Y7642D01*
Y7612D01*
X17123D02*
Y7672D01*
X17153D01*
X17163Y7662D01*
Y7642D01*
X17153Y7632D01*
X17123D01*
X17183Y7672D02*
X17223D01*
X17203D01*
Y7612D01*
X17243Y7672D02*
Y7612D01*
Y7642D01*
X17283D01*
Y7672D01*
Y7612D01*
X15233Y7542D02*
X15243Y7552D01*
X15263D01*
X15273Y7542D01*
Y7532D01*
X15263Y7522D01*
X15253D01*
X15263D01*
X15273Y7512D01*
Y7502D01*
X15263Y7492D01*
X15243D01*
X15233Y7502D01*
X15293Y7542D02*
X15303Y7552D01*
X15323D01*
X15333Y7542D01*
Y7502D01*
X15323Y7492D01*
X15303D01*
X15293Y7502D01*
Y7542D01*
X15353Y7502D02*
X15363Y7492D01*
X15383D01*
X15393Y7502D01*
Y7542D01*
X15383Y7552D01*
X15363D01*
X15353Y7542D01*
Y7532D01*
X15363Y7522D01*
X15393D01*
X15723Y7552D02*
X15763D01*
X15743D01*
Y7492D01*
X15793D02*
X15813D01*
X15823Y7502D01*
Y7522D01*
X15813Y7532D01*
X15793D01*
X15783Y7522D01*
Y7502D01*
X15793Y7492D01*
X15853Y7542D02*
Y7532D01*
X15843D01*
X15863D01*
X15853D01*
Y7502D01*
X15863Y7492D01*
X15903Y7532D02*
X15923D01*
X15933Y7522D01*
Y7492D01*
X15903D01*
X15893Y7502D01*
X15903Y7512D01*
X15933D01*
X15953Y7492D02*
X15973D01*
X15963D01*
Y7552D01*
X15953D01*
D19*
X6439Y8801D02*
X6429Y8811D01*
Y8831D01*
X6439Y8841D01*
X6449D01*
X6459Y8831D01*
Y8821D01*
Y8831D01*
X6469Y8841D01*
X6479D01*
X6489Y8831D01*
Y8811D01*
X6479Y8801D01*
X6439Y8861D02*
X6429Y8871D01*
Y8891D01*
X6439Y8901D01*
X6479D01*
X6489Y8891D01*
Y8871D01*
X6479Y8861D01*
X6439D01*
Y8921D02*
X6429Y8931D01*
Y8951D01*
X6439Y8961D01*
X6479D01*
X6489Y8951D01*
Y8931D01*
X6479Y8921D01*
X6439D01*
Y8981D02*
X6429Y8991D01*
Y9011D01*
X6439Y9021D01*
X6479D01*
X6489Y9011D01*
Y8991D01*
X6479Y8981D01*
X6439D01*
X6489Y9121D02*
X6469Y9101D01*
X6449D01*
X6429Y9121D01*
X6489Y9151D02*
X6449D01*
Y9161D01*
X6459Y9171D01*
X6489D01*
X6459D01*
X6449Y9181D01*
X6459Y9191D01*
X6489D01*
Y9211D02*
Y9231D01*
Y9221D01*
X6449D01*
Y9211D01*
X6489Y9261D02*
Y9281D01*
Y9271D01*
X6429D01*
Y9261D01*
X6489Y9311D02*
X6469Y9331D01*
X6449D01*
X6429Y9311D01*
X10432Y7466D02*
X10442Y7476D01*
X10462D01*
X10472Y7466D01*
Y7456D01*
X10462Y7446D01*
X10472Y7436D01*
Y7426D01*
X10462Y7416D01*
X10442D01*
X10432Y7426D01*
Y7436D01*
X10442Y7446D01*
X10432Y7456D01*
Y7466D01*
X10442Y7446D02*
X10462D01*
X10492Y7466D02*
X10502Y7476D01*
X10522D01*
X10532Y7466D01*
Y7426D01*
X10522Y7416D01*
X10502D01*
X10492Y7426D01*
Y7466D01*
X10552D02*
X10562Y7476D01*
X10582D01*
X10592Y7466D01*
Y7426D01*
X10582Y7416D01*
X10562D01*
X10552Y7426D01*
Y7466D01*
X10612D02*
X10622Y7476D01*
X10642D01*
X10652Y7466D01*
Y7426D01*
X10642Y7416D01*
X10622D01*
X10612Y7426D01*
Y7466D01*
X10752Y7416D02*
X10732Y7436D01*
Y7456D01*
X10752Y7476D01*
X10782Y7416D02*
Y7456D01*
X10792D01*
X10802Y7446D01*
Y7416D01*
Y7446D01*
X10812Y7456D01*
X10822Y7446D01*
Y7416D01*
X10842D02*
X10862D01*
X10852D01*
Y7456D01*
X10842D01*
X10892Y7416D02*
X10912D01*
X10902D01*
Y7476D01*
X10892D01*
X10942Y7416D02*
X10962Y7436D01*
Y7456D01*
X10942Y7476D01*
D20*
X9303Y5929D02*
Y5884D01*
Y5929D02*
X9318D01*
X9325Y5927D01*
X9329Y5923D01*
X9331Y5919D01*
X9333Y5912D01*
Y5901D01*
X9331Y5895D01*
X9329Y5891D01*
X9325Y5886D01*
X9318Y5884D01*
X9303D01*
X9377D02*
X9360Y5929D01*
X9343Y5884D01*
X9350Y5899D02*
X9371D01*
X9403Y5929D02*
Y5884D01*
X9388Y5929D02*
X9418D01*
X9451D02*
X9423D01*
Y5884D01*
X9451D01*
X9423Y5908D02*
X9440D01*
X9461Y5914D02*
X9459Y5912D01*
X9461Y5910D01*
X9463Y5912D01*
X9461Y5914D01*
Y5889D02*
X9459Y5886D01*
X9461Y5884D01*
X9463Y5886D01*
X9461Y5889D01*
X8841Y5929D02*
Y5884D01*
Y5929D02*
X8860D01*
X8866Y5927D01*
X8868Y5925D01*
X8871Y5921D01*
Y5916D01*
X8868Y5912D01*
X8866Y5910D01*
X8860Y5908D01*
X8841D01*
X8856D02*
X8871Y5884D01*
X8909Y5929D02*
X8881D01*
Y5884D01*
X8909D01*
X8881Y5908D02*
X8898D01*
X8916Y5929D02*
X8933Y5884D01*
X8950Y5929D02*
X8933Y5884D01*
X8958Y5914D02*
X8956Y5912D01*
X8958Y5910D01*
X8960Y5912D01*
X8958Y5914D01*
Y5889D02*
X8956Y5886D01*
X8958Y5884D01*
X8960Y5886D01*
X8958Y5889D01*
X6203Y6181D02*
X6222D01*
X6229Y6183D01*
X6231Y6185D01*
X6233Y6189D01*
Y6196D01*
X6231Y6200D01*
X6229Y6202D01*
X6222Y6204D01*
X6203D01*
Y6159D01*
X6243Y6204D02*
Y6159D01*
X6273Y6204D02*
Y6159D01*
X6243Y6183D02*
X6273D01*
X6298Y6204D02*
X6294Y6202D01*
X6290Y6198D01*
X6288Y6194D01*
X6286Y6187D01*
Y6176D01*
X6288Y6170D01*
X6290Y6166D01*
X6294Y6161D01*
X6298Y6159D01*
X6307D01*
X6311Y6161D01*
X6316Y6166D01*
X6318Y6170D01*
X6320Y6176D01*
Y6187D01*
X6318Y6194D01*
X6316Y6198D01*
X6311Y6202D01*
X6307Y6204D01*
X6298D01*
X6330D02*
Y6159D01*
Y6204D02*
X6360Y6159D01*
Y6204D02*
Y6159D01*
X6401Y6204D02*
X6373D01*
Y6159D01*
X6401D01*
X6373Y6183D02*
X6390D01*
X6410Y6189D02*
X6408Y6187D01*
X6410Y6185D01*
X6412Y6187D01*
X6410Y6189D01*
Y6164D02*
X6408Y6161D01*
X6410Y6159D01*
X6412Y6161D01*
X6410Y6164D01*
X6203Y5806D02*
X6222D01*
X6229Y5808D01*
X6231Y5810D01*
X6233Y5814D01*
Y5821D01*
X6231Y5825D01*
X6229Y5827D01*
X6222Y5829D01*
X6203D01*
Y5784D01*
X6243Y5829D02*
Y5784D01*
X6273Y5829D02*
Y5784D01*
X6243Y5808D02*
X6273D01*
X6298Y5829D02*
X6294Y5827D01*
X6290Y5823D01*
X6288Y5819D01*
X6286Y5812D01*
Y5801D01*
X6288Y5795D01*
X6290Y5791D01*
X6294Y5786D01*
X6298Y5784D01*
X6307D01*
X6311Y5786D01*
X6316Y5791D01*
X6318Y5795D01*
X6320Y5801D01*
Y5812D01*
X6318Y5819D01*
X6316Y5823D01*
X6311Y5827D01*
X6307Y5829D01*
X6298D01*
X6330D02*
Y5784D01*
Y5829D02*
X6360Y5784D01*
Y5829D02*
Y5784D01*
X6401Y5829D02*
X6373D01*
Y5784D01*
X6401D01*
X6373Y5808D02*
X6390D01*
X6410Y5814D02*
X6408Y5812D01*
X6410Y5810D01*
X6412Y5812D01*
X6410Y5814D01*
Y5789D02*
X6408Y5786D01*
X6410Y5784D01*
X6412Y5786D01*
X6410Y5789D01*
X8043Y5652D02*
Y5607D01*
X8069D01*
X8108D02*
X8091Y5652D01*
X8074Y5607D01*
X8080Y5622D02*
X8102D01*
X8119Y5652D02*
X8136Y5630D01*
Y5607D01*
X8153Y5652D02*
X8136Y5630D01*
X8186Y5652D02*
X8159D01*
Y5607D01*
X8186D01*
X8159Y5630D02*
X8176D01*
X8194Y5652D02*
Y5607D01*
Y5652D02*
X8213D01*
X8220Y5650D01*
X8222Y5648D01*
X8224Y5643D01*
Y5639D01*
X8222Y5635D01*
X8220Y5633D01*
X8213Y5630D01*
X8194D01*
X8209D02*
X8224Y5607D01*
X8236Y5637D02*
X8234Y5635D01*
X8236Y5633D01*
X8238Y5635D01*
X8236Y5637D01*
Y5611D02*
X8234Y5609D01*
X8236Y5607D01*
X8238Y5609D01*
X8236Y5611D01*
X6231Y6392D02*
X6203D01*
Y6347D01*
X6231D01*
X6203Y6370D02*
X6220D01*
X6238Y6392D02*
Y6347D01*
Y6392D02*
X6268Y6347D01*
Y6392D02*
Y6347D01*
X6313Y6381D02*
X6311Y6385D01*
X6307Y6390D01*
X6302Y6392D01*
X6294D01*
X6289Y6390D01*
X6285Y6385D01*
X6283Y6381D01*
X6281Y6375D01*
Y6364D01*
X6283Y6358D01*
X6285Y6353D01*
X6289Y6349D01*
X6294Y6347D01*
X6302D01*
X6307Y6349D01*
X6311Y6353D01*
X6313Y6358D01*
Y6364D01*
X6302D02*
X6313D01*
X6323Y6392D02*
Y6347D01*
X6333Y6392D02*
Y6347D01*
Y6392D02*
X6363Y6347D01*
Y6392D02*
Y6347D01*
X6403Y6392D02*
X6375D01*
Y6347D01*
X6403D01*
X6375Y6370D02*
X6392D01*
X6438Y6392D02*
X6411D01*
Y6347D01*
X6438D01*
X6411Y6370D02*
X6428D01*
X6446Y6392D02*
Y6347D01*
Y6392D02*
X6465D01*
X6472Y6390D01*
X6474Y6388D01*
X6476Y6383D01*
Y6379D01*
X6474Y6375D01*
X6472Y6373D01*
X6465Y6370D01*
X6446D01*
X6461D02*
X6476Y6347D01*
X6488Y6377D02*
X6486Y6375D01*
X6488Y6373D01*
X6490Y6375D01*
X6488Y6377D01*
Y6351D02*
X6486Y6349D01*
X6488Y6347D01*
X6490Y6349D01*
X6488Y6351D01*
X7103Y5906D02*
X7122D01*
X7129Y5908D01*
X7131Y5910D01*
X7133Y5914D01*
Y5921D01*
X7131Y5925D01*
X7129Y5927D01*
X7122Y5929D01*
X7103D01*
Y5884D01*
X7177D02*
X7160Y5929D01*
X7143Y5884D01*
X7150Y5899D02*
X7171D01*
X7188Y5929D02*
Y5884D01*
Y5929D02*
X7207D01*
X7214Y5927D01*
X7216Y5925D01*
X7218Y5921D01*
Y5916D01*
X7216Y5912D01*
X7214Y5910D01*
X7207Y5908D01*
X7188D01*
X7203D02*
X7218Y5884D01*
X7243Y5929D02*
Y5884D01*
X7228Y5929D02*
X7258D01*
X7299D02*
Y5884D01*
Y5929D02*
X7329Y5884D01*
Y5929D02*
Y5884D01*
X7354Y5929D02*
X7350Y5927D01*
X7345Y5923D01*
X7343Y5919D01*
X7341Y5912D01*
Y5901D01*
X7343Y5895D01*
X7345Y5891D01*
X7350Y5886D01*
X7354Y5884D01*
X7363D01*
X7367Y5886D01*
X7371Y5891D01*
X7373Y5895D01*
X7375Y5901D01*
Y5912D01*
X7373Y5919D01*
X7371Y5923D01*
X7367Y5927D01*
X7363Y5929D01*
X7354D01*
X7388Y5889D02*
X7386Y5886D01*
X7388Y5884D01*
X7390Y5886D01*
X7388Y5889D01*
X7402Y5914D02*
X7400Y5912D01*
X7402Y5910D01*
X7404Y5912D01*
X7402Y5914D01*
Y5889D02*
X7400Y5886D01*
X7402Y5884D01*
X7404Y5886D01*
X7402Y5889D01*
X7106Y6404D02*
Y6359D01*
X7091Y6404D02*
X7121D01*
X7126D02*
Y6359D01*
X7150Y6404D02*
Y6359D01*
X7135Y6404D02*
X7165D01*
X7171D02*
Y6359D01*
X7196D01*
X7229Y6404D02*
X7201D01*
Y6359D01*
X7229D01*
X7201Y6383D02*
X7219D01*
X7239Y6389D02*
X7237Y6387D01*
X7239Y6385D01*
X7241Y6387D01*
X7239Y6389D01*
Y6364D02*
X7237Y6361D01*
X7239Y6359D01*
X7241Y6361D01*
X7239Y6364D01*
X6231Y6012D02*
X6203D01*
Y5967D01*
X6231D01*
X6203Y5990D02*
X6220D01*
X6238Y6012D02*
Y5967D01*
Y6012D02*
X6268Y5967D01*
Y6012D02*
Y5967D01*
X6313Y6001D02*
X6311Y6005D01*
X6307Y6010D01*
X6302Y6012D01*
X6294D01*
X6289Y6010D01*
X6285Y6005D01*
X6283Y6001D01*
X6281Y5995D01*
Y5984D01*
X6283Y5978D01*
X6285Y5973D01*
X6289Y5969D01*
X6294Y5967D01*
X6302D01*
X6307Y5969D01*
X6311Y5973D01*
X6313Y5978D01*
Y5984D01*
X6302D02*
X6313D01*
X6323Y6012D02*
Y5967D01*
X6333Y6012D02*
Y5967D01*
Y6012D02*
X6363Y5967D01*
Y6012D02*
Y5967D01*
X6403Y6012D02*
X6375D01*
Y5967D01*
X6403D01*
X6375Y5990D02*
X6392D01*
X6438Y6012D02*
X6411D01*
Y5967D01*
X6438D01*
X6411Y5990D02*
X6428D01*
X6446Y6012D02*
Y5967D01*
Y6012D02*
X6465D01*
X6472Y6010D01*
X6474Y6008D01*
X6476Y6003D01*
Y5999D01*
X6474Y5995D01*
X6472Y5993D01*
X6465Y5990D01*
X6446D01*
X6461D02*
X6476Y5967D01*
X6488Y5997D02*
X6486Y5995D01*
X6488Y5993D01*
X6490Y5995D01*
X6488Y5997D01*
Y5971D02*
X6486Y5969D01*
X6488Y5967D01*
X6490Y5969D01*
X6488Y5971D01*
X6203Y5652D02*
Y5607D01*
Y5652D02*
X6231D01*
X6203Y5630D02*
X6220D01*
X6236Y5652D02*
Y5607D01*
X6246Y5652D02*
Y5607D01*
X6271D01*
X6304Y5652D02*
X6276D01*
Y5607D01*
X6304D01*
X6276Y5630D02*
X6293D01*
X6347Y5652D02*
Y5607D01*
Y5652D02*
X6377Y5607D01*
Y5652D02*
Y5607D01*
X6424D02*
X6406Y5652D01*
X6389Y5607D01*
X6396Y5622D02*
X6417D01*
X6434Y5652D02*
Y5607D01*
Y5652D02*
X6451Y5607D01*
X6468Y5652D02*
X6451Y5607D01*
X6468Y5652D02*
Y5607D01*
X6509Y5652D02*
X6481D01*
Y5607D01*
X6509D01*
X6481Y5630D02*
X6498D01*
X6519Y5637D02*
X6517Y5635D01*
X6519Y5633D01*
X6521Y5635D01*
X6519Y5637D01*
Y5611D02*
X6517Y5609D01*
X6519Y5607D01*
X6521Y5609D01*
X6519Y5611D01*
X9895Y5641D02*
X9893Y5645D01*
X9889Y5650D01*
X9885Y5652D01*
X9876D01*
X9872Y5650D01*
X9867Y5645D01*
X9865Y5641D01*
X9863Y5635D01*
Y5624D01*
X9865Y5618D01*
X9867Y5613D01*
X9872Y5609D01*
X9876Y5607D01*
X9885D01*
X9889Y5609D01*
X9893Y5613D01*
X9895Y5618D01*
Y5624D01*
X9885D02*
X9895D01*
X9933Y5652D02*
X9906D01*
Y5607D01*
X9933D01*
X9906Y5630D02*
X9923D01*
X9941Y5652D02*
Y5607D01*
Y5652D02*
X9960D01*
X9967Y5650D01*
X9969Y5648D01*
X9971Y5643D01*
Y5639D01*
X9969Y5635D01*
X9967Y5633D01*
X9960Y5630D01*
X9941D01*
X9956D02*
X9971Y5607D01*
X9981Y5652D02*
Y5607D01*
Y5652D02*
X10000D01*
X10007Y5650D01*
X10009Y5648D01*
X10011Y5643D01*
Y5639D01*
X10009Y5635D01*
X10007Y5633D01*
X10000Y5630D01*
X9981D02*
X10000D01*
X10007Y5628D01*
X10009Y5626D01*
X10011Y5622D01*
Y5615D01*
X10009Y5611D01*
X10007Y5609D01*
X10000Y5607D01*
X9981D01*
X10049Y5652D02*
X10021D01*
Y5607D01*
X10049D01*
X10021Y5630D02*
X10038D01*
X10056Y5652D02*
Y5607D01*
Y5652D02*
X10076D01*
X10082Y5650D01*
X10084Y5648D01*
X10086Y5643D01*
Y5639D01*
X10084Y5635D01*
X10082Y5633D01*
X10076Y5630D01*
X10056D01*
X10071D02*
X10086Y5607D01*
X10099Y5637D02*
X10096Y5635D01*
X10099Y5633D01*
X10101Y5635D01*
X10099Y5637D01*
Y5611D02*
X10096Y5609D01*
X10099Y5607D01*
X10101Y5609D01*
X10099Y5611D01*
X6823Y7752D02*
Y7792D01*
X6863D01*
Y7752D01*
X6823D01*
X7683D02*
Y7792D01*
X7723D01*
Y7752D01*
X7683D01*
X8543D02*
Y7792D01*
X8583D01*
Y7752D01*
X8543D01*
X9403D02*
Y7792D01*
X9443D01*
Y7752D01*
X9403D01*
X10263D02*
Y7792D01*
X10303D01*
Y7752D01*
X10263D01*
X11103D02*
Y7792D01*
X11143D01*
Y7752D01*
X11103D01*
X11963D02*
Y7792D01*
X12003D01*
Y7752D01*
X11963D01*
X12823D02*
Y7792D01*
X12863D01*
Y7752D01*
X12823D01*
X13683D02*
Y7792D01*
X13723D01*
Y7752D01*
X13683D01*
X14543D02*
Y7792D01*
X14583D01*
Y7752D01*
X14543D01*
X14163Y8916D02*
X14143Y8956D01*
X14183D01*
X14163Y8916D01*
X14261Y9014D02*
X14241Y9054D01*
X14281D01*
X14261Y9014D01*
X14163Y9112D02*
X14143Y9152D01*
X14183D01*
X14163Y9112D01*
X8183Y8112D02*
X8163Y8152D01*
X8203D01*
X8183Y8112D01*
X8283D02*
X8263Y8152D01*
X8303D01*
X8283Y8112D01*
X8383D02*
X8363Y8152D01*
X8403D01*
X8383Y8112D01*
X8983D02*
X8963Y8152D01*
X9003D01*
X8983Y8112D01*
X9083D02*
X9063Y8152D01*
X9103D01*
X9083Y8112D01*
X9183D02*
X9163Y8152D01*
X9203D01*
X9183Y8112D01*
X9283D02*
X9263Y8152D01*
X9303D01*
X9283Y8112D01*
X8183Y8712D02*
X8163Y8752D01*
X8203D01*
X8183Y8712D01*
X8283D02*
X8263Y8752D01*
X8303D01*
X8283Y8712D01*
X8383D02*
X8363Y8752D01*
X8403D01*
X8383Y8712D01*
X8983D02*
X8963Y8752D01*
X9003D01*
X8983Y8712D01*
X9083D02*
X9063Y8752D01*
X9103D01*
X9083Y8712D01*
X9183D02*
X9163Y8752D01*
X9203D01*
X9183Y8712D01*
X9283D02*
X9263Y8752D01*
X9303D01*
X9283Y8712D01*
X9963Y9632D02*
Y9672D01*
X10003D01*
Y9632D01*
X9963D01*
X10063D02*
Y9672D01*
X10103D01*
Y9632D01*
X10063D01*
X10163D02*
Y9672D01*
X10203D01*
Y9632D01*
X10163D01*
X10263D02*
Y9672D01*
X10303D01*
Y9632D01*
X10263D01*
X10363D02*
Y9672D01*
X10403D01*
Y9632D01*
X10363D01*
X10463D02*
Y9672D01*
X10503D01*
Y9632D01*
X10463D01*
X10563D02*
Y9672D01*
X10603D01*
Y9632D01*
X10563D01*
X10663D02*
Y9672D01*
X10703D01*
Y9632D01*
X10663D01*
Y9932D02*
Y9972D01*
X10703D01*
Y9932D01*
X10663D01*
X10563D02*
Y9972D01*
X10603D01*
Y9932D01*
X10563D01*
X10463D02*
Y9972D01*
X10503D01*
Y9932D01*
X10463D01*
X10363D02*
Y9972D01*
X10403D01*
Y9932D01*
X10363D01*
X10263D02*
Y9972D01*
X10303D01*
Y9932D01*
X10263D01*
X10163D02*
Y9972D01*
X10203D01*
Y9932D01*
X10163D01*
X10063D02*
Y9972D01*
X10103D01*
Y9932D01*
X10063D01*
X9963D02*
Y9972D01*
X10003D01*
Y9932D01*
X9963D01*
X13363Y10352D02*
X13373Y10362D01*
X13383D01*
X13373Y10372D01*
X13383Y10382D01*
X13373D01*
X13363Y10392D01*
X13353Y10382D01*
X13343D01*
X13353Y10372D01*
X13343Y10362D01*
X13353D01*
X13363Y10352D01*
Y9952D02*
X13373Y9962D01*
X13383D01*
X13373Y9972D01*
X13383Y9982D01*
X13373D01*
X13363Y9992D01*
X13353Y9982D01*
X13343D01*
X13353Y9972D01*
X13343Y9962D01*
X13353D01*
X13363Y9952D01*
X13203Y10352D02*
X13213Y10362D01*
X13223D01*
X13213Y10372D01*
X13223Y10382D01*
X13213D01*
X13203Y10392D01*
X13193Y10382D01*
X13183D01*
X13193Y10372D01*
X13183Y10362D01*
X13193D01*
X13203Y10352D01*
Y9952D02*
X13213Y9962D01*
X13223D01*
X13213Y9972D01*
X13223Y9982D01*
X13213D01*
X13203Y9992D01*
X13193Y9982D01*
X13183D01*
X13193Y9972D01*
X13183Y9962D01*
X13193D01*
X13203Y9952D01*
X13803Y8552D02*
X13783Y8592D01*
X13823D01*
X13803Y8552D01*
Y8872D02*
X13783Y8912D01*
X13823D01*
X13803Y8872D01*
X11823Y8512D02*
X11803Y8552D01*
X11843D01*
X11823Y8512D01*
Y8192D02*
X11803Y8232D01*
X11843D01*
X11823Y8192D01*
X13483Y9232D02*
Y9272D01*
X13523D01*
Y9232D01*
X13483D01*
X13783D02*
Y9272D01*
X13823D01*
Y9232D01*
X13783D01*
Y9532D02*
Y9572D01*
X13823D01*
Y9532D01*
X13783D01*
X13683D02*
Y9572D01*
X13723D01*
Y9532D01*
X13683D01*
X13583D02*
Y9572D01*
X13623D01*
Y9532D01*
X13583D01*
X13483D02*
Y9572D01*
X13523D01*
Y9532D01*
X13483D01*
X10183Y8132D02*
Y8172D01*
X10223D01*
Y8132D01*
X10183D01*
X10083D02*
Y8172D01*
X10123D01*
Y8132D01*
X10083D01*
X9983D02*
Y8172D01*
X10023D01*
Y8132D01*
X9983D01*
X9883D02*
Y8172D01*
X9923D01*
Y8132D01*
X9883D01*
Y8432D02*
Y8472D01*
X9923D01*
Y8432D01*
X9883D01*
X9983D02*
Y8472D01*
X10023D01*
Y8432D01*
X9983D01*
X10083D02*
Y8472D01*
X10123D01*
Y8432D01*
X10083D01*
X10183D02*
Y8472D01*
X10223D01*
Y8432D01*
X10183D01*
Y8892D02*
Y8932D01*
X10223D01*
Y8892D01*
X10183D01*
X10083D02*
Y8932D01*
X10123D01*
Y8892D01*
X10083D01*
X9983D02*
Y8932D01*
X10023D01*
Y8892D01*
X9983D01*
X9883D02*
Y8932D01*
X9923D01*
Y8892D01*
X9883D01*
Y8592D02*
Y8632D01*
X9923D01*
Y8592D01*
X9883D01*
X9983D02*
Y8632D01*
X10023D01*
Y8592D01*
X9983D01*
X10083D02*
Y8632D01*
X10123D01*
Y8592D01*
X10083D01*
X10183D02*
Y8632D01*
X10223D01*
Y8592D01*
X10183D01*
X7383Y9612D02*
Y9652D01*
X7423D01*
Y9612D01*
X7383D01*
Y9712D02*
Y9752D01*
X7423D01*
Y9712D01*
X7383D01*
X7083D02*
Y9752D01*
X7123D01*
Y9712D01*
X7083D01*
Y9612D02*
Y9652D01*
X7123D01*
Y9612D01*
X7083D01*
X11263Y8652D02*
Y8692D01*
X11303D01*
Y8652D01*
X11263D01*
X11363D02*
Y8692D01*
X11403D01*
Y8652D01*
X11363D01*
Y8352D02*
Y8392D01*
X11403D01*
Y8352D01*
X11363D01*
X11263D02*
Y8392D01*
X11303D01*
Y8352D01*
X11263D01*
X13843Y9752D02*
Y9792D01*
X13883D01*
Y9752D01*
X13843D01*
X14243D02*
Y9792D01*
X14283D01*
Y9752D01*
X14243D01*
X11123Y8492D02*
Y8532D01*
X11163D01*
Y8492D01*
X11123D01*
X10723D02*
Y8532D01*
X10763D01*
Y8492D01*
X10723D01*
X11543Y8192D02*
Y8232D01*
X11583D01*
Y8192D01*
X11543D01*
X11143D02*
Y8232D01*
X11183D01*
Y8192D01*
X11143D01*
X11983Y8032D02*
Y8072D01*
X12023D01*
Y8032D01*
X11983D01*
Y8432D02*
Y8472D01*
X12023D01*
Y8432D01*
X11983D01*
X11143Y8692D02*
Y8732D01*
X11183D01*
Y8692D01*
X11143D01*
Y9092D02*
Y9132D01*
X11183D01*
Y9092D01*
X11143D01*
X11883Y8652D02*
Y8692D01*
X11923D01*
Y8652D01*
X11883D01*
Y9052D02*
Y9092D01*
X11923D01*
Y9052D01*
X11883D01*
X10123Y9232D02*
Y9272D01*
X10163D01*
Y9232D01*
X10123D01*
X9723D02*
Y9272D01*
X9763D01*
Y9232D01*
X9723D01*
X10203D02*
Y9272D01*
X10243D01*
Y9232D01*
X10203D01*
X10603D02*
Y9272D01*
X10643D01*
Y9232D01*
X10603D01*
X7963Y9132D02*
X7973Y9152D01*
X7963Y9172D01*
X7983Y9162D01*
X8003Y9172D01*
X7993Y9152D01*
X8003Y9132D01*
X7983Y9142D01*
X7963Y9132D01*
X7523D02*
X7533Y9152D01*
X7523Y9172D01*
X7543Y9162D01*
X7563Y9172D01*
X7553Y9152D01*
X7563Y9132D01*
X7543Y9142D01*
X7523Y9132D01*
X9703Y8392D02*
X9713Y8412D01*
X9703Y8432D01*
X9723Y8422D01*
X9743Y8432D01*
X9733Y8412D01*
X9743Y8392D01*
X9723Y8402D01*
X9703Y8392D01*
Y7952D02*
X9713Y7972D01*
X9703Y7992D01*
X9723Y7982D01*
X9743Y7992D01*
X9733Y7972D01*
X9743Y7952D01*
X9723Y7962D01*
X9703Y7952D01*
X7583Y10392D02*
Y10432D01*
X7623D01*
Y10392D01*
X7583D01*
Y10292D02*
Y10332D01*
X7623D01*
Y10292D01*
X7583D01*
X7223Y9312D02*
Y9352D01*
X7263D01*
Y9312D01*
X7223D01*
X6823D02*
Y9352D01*
X6863D01*
Y9312D01*
X6823D01*
X7383Y9872D02*
Y9912D01*
X7423D01*
Y9872D01*
X7383D01*
X7783D02*
Y9912D01*
X7823D01*
Y9872D01*
X7783D01*
X7923Y10412D02*
Y10452D01*
X7963D01*
Y10412D01*
X7923D01*
Y10012D02*
Y10052D01*
X7963D01*
Y10012D01*
X7923D01*
X9183Y8912D02*
Y8952D01*
X9223D01*
Y8912D01*
X9183D01*
X9583D02*
Y8952D01*
X9623D01*
Y8912D01*
X9583D01*
X11283Y9472D02*
Y9512D01*
X11323D01*
Y9472D01*
X11283D01*
X10883D02*
Y9512D01*
X10923D01*
Y9472D01*
X10883D01*
X11283Y9592D02*
Y9632D01*
X11323D01*
Y9592D01*
X11283D01*
X10883D02*
Y9632D01*
X10923D01*
Y9592D01*
X10883D01*
X14143Y9632D02*
Y9672D01*
X14183D01*
Y9632D01*
X14143D01*
X10963Y8292D02*
Y8332D01*
X11003D01*
Y8292D01*
X10963D01*
Y7892D02*
Y7932D01*
X11003D01*
Y7892D01*
X10963D01*
X9723Y8612D02*
Y8652D01*
X9763D01*
Y8612D01*
X9723D01*
Y9012D02*
Y9052D01*
X9763D01*
Y9012D01*
X9723D01*
X13183Y9072D02*
Y9112D01*
X13223D01*
Y9072D01*
X13183D01*
X12883Y8872D02*
Y8912D01*
X12923D01*
Y8872D01*
X12883D01*
Y9272D02*
Y9312D01*
X12923D01*
Y9272D01*
X12883D01*
X12983Y9672D02*
Y9712D01*
X13023D01*
Y9672D01*
X12983D01*
Y9272D02*
Y9312D01*
X13023D01*
Y9272D01*
X12983D01*
X8683Y10402D02*
Y10442D01*
X8723D01*
Y10402D01*
X8683D01*
X8283D02*
Y10442D01*
X8323D01*
Y10402D01*
X8283D01*
X13263Y9272D02*
Y9312D01*
X13303D01*
Y9272D01*
X13263D01*
Y9672D02*
Y9712D01*
X13303D01*
Y9672D01*
X13263D01*
X7523D02*
Y9712D01*
X7563D01*
Y9672D01*
X7523D01*
Y9272D02*
Y9312D01*
X7563D01*
Y9272D01*
X7523D01*
X11603Y10392D02*
Y10432D01*
X11643D01*
Y10392D01*
X11603D01*
Y9992D02*
Y10032D01*
X11643D01*
Y9992D01*
X11603D01*
X13463Y9812D02*
Y9852D01*
X13503D01*
Y9812D01*
X13463D01*
X13063D02*
Y9852D01*
X13103D01*
Y9812D01*
X13063D01*
X11743Y10392D02*
Y10432D01*
X11783D01*
Y10392D01*
X11743D01*
X12143Y10292D02*
Y10332D01*
X12183D01*
Y10292D01*
X12143D01*
X11743D02*
Y10332D01*
X11783D01*
Y10292D01*
X11743D01*
X11523Y9192D02*
Y9232D01*
X11563D01*
Y9192D01*
X11523D01*
X11123D02*
Y9232D01*
X11163D01*
Y9192D01*
X11123D01*
X7543Y8492D02*
X7553Y8512D01*
X7543Y8532D01*
X7563Y8522D01*
X7583Y8532D01*
X7573Y8512D01*
X7583Y8492D01*
X7563Y8502D01*
X7543Y8492D01*
Y8932D02*
X7553Y8952D01*
X7543Y8972D01*
X7563Y8962D01*
X7583Y8972D01*
X7573Y8952D01*
X7583Y8932D01*
X7563Y8942D01*
X7543Y8932D01*
X13023Y8572D02*
Y8612D01*
X13063D01*
Y8572D01*
X13023D01*
X13123D02*
Y8612D01*
X13163D01*
Y8572D01*
X13123D01*
X13223D02*
Y8612D01*
X13263D01*
Y8572D01*
X13223D01*
X13323D02*
Y8612D01*
X13363D01*
Y8572D01*
X13323D01*
X13423D02*
Y8612D01*
X13463D01*
Y8572D01*
X13423D01*
X13523D02*
Y8612D01*
X13563D01*
Y8572D01*
X13523D01*
X13623D02*
Y8612D01*
X13663D01*
Y8572D01*
X13623D01*
Y8872D02*
Y8912D01*
X13663D01*
Y8872D01*
X13623D01*
X13523D02*
Y8912D01*
X13563D01*
Y8872D01*
X13523D01*
X13423D02*
Y8912D01*
X13463D01*
Y8872D01*
X13423D01*
X13323D02*
Y8912D01*
X13363D01*
Y8872D01*
X13323D01*
X13223D02*
Y8912D01*
X13263D01*
Y8872D01*
X13223D01*
X13123D02*
Y8912D01*
X13163D01*
Y8872D01*
X13123D01*
X13023D02*
Y8912D01*
X13063D01*
Y8872D01*
X13023D01*
X12523Y9012D02*
X12503Y9052D01*
X12543D01*
X12523Y9012D01*
Y8912D02*
X12503Y8952D01*
X12543D01*
X12523Y8912D01*
X12303Y9012D02*
X12283Y9052D01*
X12323D01*
X12303Y9012D01*
Y8912D02*
X12283Y8952D01*
X12323D01*
X12303Y8912D01*
X12003Y10152D02*
X11983Y10192D01*
X12023D01*
X12003Y10152D01*
X11803D02*
X11783Y10192D01*
X11823D01*
X11803Y10152D01*
X11843Y9972D02*
X11823Y10012D01*
X11863D01*
X11843Y9972D01*
Y9772D02*
X11823Y9812D01*
X11863D01*
X11843Y9772D01*
X10403Y8392D02*
X10383Y8432D01*
X10423D01*
X10403Y8392D01*
Y8192D02*
X10383Y8232D01*
X10423D01*
X10403Y8192D01*
X10583Y8392D02*
X10563Y8432D01*
X10603D01*
X10583Y8392D01*
Y8192D02*
X10563Y8232D01*
X10603D01*
X10583Y8192D01*
X13743Y9072D02*
X13723Y9112D01*
X13763D01*
X13743Y9072D01*
X13943D02*
X13923Y9112D01*
X13963D01*
X13943Y9072D01*
X10583Y8672D02*
X10563Y8712D01*
X10603D01*
X10583Y8672D01*
X10383D02*
X10363Y8712D01*
X10403D01*
X10383Y8672D01*
X13703Y9652D02*
X13683Y9692D01*
X13723D01*
X13703Y9652D01*
X13503D02*
X13483Y9692D01*
X13523D01*
X13503Y9652D01*
X13963Y10152D02*
X13943Y10192D01*
X13983D01*
X13963Y10152D01*
Y10352D02*
X13943Y10392D01*
X13983D01*
X13963Y10352D01*
X9983Y10112D02*
X9963Y10152D01*
X10003D01*
X9983Y10112D01*
X9783D02*
X9763Y10152D01*
X9803D01*
X9783Y10112D01*
X13043Y9192D02*
X13023Y9232D01*
X13063D01*
X13043Y9192D01*
Y8992D02*
X13023Y9032D01*
X13063D01*
X13043Y8992D01*
X10703Y9452D02*
X10683Y9492D01*
X10723D01*
X10703Y9452D01*
X10503D02*
X10483Y9492D01*
X10523D01*
X10503Y9452D01*
X10343D02*
X10323Y9492D01*
X10363D01*
X10343Y9452D01*
X10143D02*
X10123Y9492D01*
X10163D01*
X10143Y9452D01*
X9803Y9912D02*
X9783Y9952D01*
X9823D01*
X9803Y9912D01*
Y9712D02*
X9783Y9752D01*
X9823D01*
X9803Y9712D01*
X9983Y9452D02*
X9963Y9492D01*
X10003D01*
X9983Y9452D01*
X9783D02*
X9763Y9492D01*
X9803D01*
X9783Y9452D01*
X12003Y9972D02*
X11983Y10012D01*
X12023D01*
X12003Y9972D01*
Y9772D02*
X11983Y9812D01*
X12023D01*
X12003Y9772D01*
X12103Y8992D02*
X12083Y9032D01*
X12123D01*
X12103Y8992D01*
Y9192D02*
X12083Y9232D01*
X12123D01*
X12103Y9192D01*
X12543Y9972D02*
X12523Y10012D01*
X12563D01*
X12543Y9972D01*
Y9772D02*
X12523Y9812D01*
X12563D01*
X12543Y9772D01*
X11703Y8972D02*
X11683Y9012D01*
X11723D01*
X11703Y8972D01*
Y9172D02*
X11683Y9212D01*
X11723D01*
X11703Y9172D01*
X9223Y9933D02*
X9203Y9973D01*
X9243D01*
X9223Y9933D01*
Y10012D02*
X9203Y10052D01*
X9243D01*
X9223Y10012D01*
X12303Y9172D02*
X12283Y9212D01*
X12323D01*
X12303Y9172D01*
X12503D02*
X12483Y9212D01*
X12523D01*
X12503Y9172D01*
X7603Y8012D02*
Y8052D01*
X7643D01*
Y8012D01*
X7603D01*
Y8112D02*
Y8152D01*
X7643D01*
Y8112D01*
X7603D01*
X12183Y9972D02*
X12163Y10012D01*
X12203D01*
X12183Y9972D01*
X13583Y9072D02*
Y9112D01*
X13623D01*
Y9072D01*
X13583D01*
X14143Y9232D02*
Y9272D01*
X14183D01*
Y9232D01*
X14143D01*
X12143Y10392D02*
Y10432D01*
X12183D01*
Y10392D01*
X12143D01*
X12183Y9772D02*
X12163Y9812D01*
X12203D01*
X12183Y9772D01*
X12363D02*
X12343Y9812D01*
X12383D01*
X12363Y9772D01*
Y9972D02*
X12343Y10012D01*
X12383D01*
X12363Y9972D01*
X10363Y8832D02*
Y8872D01*
X10403D01*
Y8832D01*
X10363D01*
X10763D02*
Y8872D01*
X10803D01*
Y8832D01*
X10763D01*
X9473Y8062D02*
Y8052D01*
X9493D01*
Y8062D01*
X9503D01*
Y8082D01*
X9493D01*
Y8092D01*
X9473D01*
Y8082D01*
X9463D01*
Y8062D01*
X9473D01*
X13253Y8082D02*
Y8072D01*
X13273D01*
Y8082D01*
X13283D01*
Y8102D01*
X13273D01*
Y8112D01*
X13253D01*
Y8102D01*
X13243D01*
Y8082D01*
X13253D01*
X8963Y9312D02*
X8943Y9352D01*
X8983D01*
X8963Y9312D01*
Y9412D02*
X8943Y9452D01*
X8983D01*
X8963Y9412D01*
X8658D02*
Y9452D01*
X8698D01*
Y9412D01*
X8658D01*
X8263Y9017D02*
Y9057D01*
X8303D01*
Y9017D01*
X8263D01*
Y9412D02*
Y9452D01*
X8303D01*
Y9412D01*
X8263D01*
X8658Y9017D02*
Y9057D01*
X8698D01*
Y9017D01*
X8658D01*
X7363Y8332D02*
X7373D01*
X7383Y8342D01*
X7393Y8332D01*
X7403D01*
Y8342D01*
X7393Y8352D01*
X7403Y8362D01*
Y8372D01*
X7393D01*
X7383Y8362D01*
X7373Y8372D01*
X7363D01*
Y8362D01*
X7373Y8352D01*
X7363Y8342D01*
Y8332D01*
Y8800D02*
X7373D01*
X7383Y8810D01*
X7393Y8800D01*
X7403D01*
Y8810D01*
X7393Y8820D01*
X7403Y8830D01*
Y8840D01*
X7393D01*
X7383Y8830D01*
X7373Y8840D01*
X7363D01*
Y8830D01*
X7373Y8820D01*
X7363Y8810D01*
Y8800D01*
Y8644D02*
X7373D01*
X7383Y8654D01*
X7393Y8644D01*
X7403D01*
Y8654D01*
X7393Y8664D01*
X7403Y8674D01*
Y8684D01*
X7393D01*
X7383Y8674D01*
X7373Y8684D01*
X7363D01*
Y8674D01*
X7373Y8664D01*
X7363Y8654D01*
Y8644D01*
Y8488D02*
X7373D01*
X7383Y8498D01*
X7393Y8488D01*
X7403D01*
Y8498D01*
X7393Y8508D01*
X7403Y8518D01*
Y8528D01*
X7393D01*
X7383Y8518D01*
X7373Y8528D01*
X7363D01*
Y8518D01*
X7373Y8508D01*
X7363Y8498D01*
Y8488D01*
Y8957D02*
X7373D01*
X7383Y8967D01*
X7393Y8957D01*
X7403D01*
Y8967D01*
X7393Y8977D01*
X7403Y8987D01*
Y8997D01*
X7393D01*
X7383Y8987D01*
X7373Y8997D01*
X7363D01*
Y8987D01*
X7373Y8977D01*
X7363Y8967D01*
Y8957D01*
X12843Y9632D02*
X12823Y9672D01*
X12863D01*
X12843Y9632D01*
X12743D02*
X12723Y9672D01*
X12763D01*
X12743Y9632D01*
X12643D02*
X12623Y9672D01*
X12663D01*
X12643Y9632D01*
X12543D02*
X12523Y9672D01*
X12563D01*
X12543Y9632D01*
X12443D02*
X12423Y9672D01*
X12463D01*
X12443Y9632D01*
X12343D02*
X12323Y9672D01*
X12363D01*
X12343Y9632D01*
X12243D02*
X12223Y9672D01*
X12263D01*
X12243Y9632D01*
X12143D02*
X12123Y9672D01*
X12163D01*
X12143Y9632D01*
X12043D02*
X12023Y9672D01*
X12063D01*
X12043Y9632D01*
X11943D02*
X11923Y9672D01*
X11963D01*
X11943Y9632D01*
X11843D02*
X11823Y9672D01*
X11863D01*
X11843Y9632D01*
X11743D02*
X11723Y9672D01*
X11763D01*
X11743Y9632D01*
X11643D02*
X11623Y9672D01*
X11663D01*
X11643Y9632D01*
X11543D02*
X11523Y9672D01*
X11563D01*
X11543Y9632D01*
X12843Y9332D02*
X12823Y9372D01*
X12863D01*
X12843Y9332D01*
X12743D02*
X12723Y9372D01*
X12763D01*
X12743Y9332D01*
X12643D02*
X12623Y9372D01*
X12663D01*
X12643Y9332D01*
X12543D02*
X12523Y9372D01*
X12563D01*
X12543Y9332D01*
X12443D02*
X12423Y9372D01*
X12463D01*
X12443Y9332D01*
X12343D02*
X12323Y9372D01*
X12363D01*
X12343Y9332D01*
X12243D02*
X12223Y9372D01*
X12263D01*
X12243Y9332D01*
X12143D02*
X12123Y9372D01*
X12163D01*
X12143Y9332D01*
X12043D02*
X12023Y9372D01*
X12063D01*
X12043Y9332D01*
X11943D02*
X11923Y9372D01*
X11963D01*
X11943Y9332D01*
X11843D02*
X11823Y9372D01*
X11863D01*
X11843Y9332D01*
X11743D02*
X11723Y9372D01*
X11763D01*
X11743Y9332D01*
X11643D02*
X11623Y9372D01*
X11663D01*
X11643Y9332D01*
X11543D02*
X11523Y9372D01*
X11563D01*
X11543Y9332D01*
X7763Y9032D02*
X7783Y9052D01*
X7803Y9032D01*
X7783Y9012D01*
X7763Y9032D01*
Y8332D02*
X7783Y8352D01*
X7803Y8332D01*
X7783Y8312D01*
X7763Y8332D01*
X8923Y9732D02*
X8933Y9752D01*
X8923Y9772D01*
X8943Y9762D01*
X8963Y9772D01*
X8953Y9752D01*
X8963Y9732D01*
X8943Y9742D01*
X8923Y9732D01*
Y9832D02*
X8933Y9852D01*
X8923Y9872D01*
X8943Y9862D01*
X8963Y9872D01*
X8953Y9852D01*
X8963Y9832D01*
X8943Y9842D01*
X8923Y9832D01*
Y9932D02*
X8933Y9952D01*
X8923Y9972D01*
X8943Y9962D01*
X8963Y9972D01*
X8953Y9952D01*
X8963Y9932D01*
X8943Y9942D01*
X8923Y9932D01*
X13583Y9232D02*
Y9272D01*
X13623D01*
Y9232D01*
X13583D01*
X13683D02*
Y9272D01*
X13723D01*
Y9232D01*
X13683D01*
X14023Y9312D02*
X14003Y9352D01*
X14043D01*
X14023Y9312D01*
Y9512D02*
X14003Y9552D01*
X14043D01*
X14023Y9512D01*
X13043Y9952D02*
Y9992D01*
X13083D01*
Y9952D01*
X13043D01*
Y10352D02*
Y10392D01*
X13083D01*
Y10352D01*
X13043D01*
X12883Y10172D02*
X12893Y10182D01*
X12903D01*
X12893Y10192D01*
X12903Y10202D01*
X12893D01*
X12883Y10212D01*
X12873Y10202D01*
X12863D01*
X12873Y10192D01*
X12863Y10182D01*
X12873D01*
X12883Y10172D01*
Y10272D02*
X12893Y10282D01*
X12903D01*
X12893Y10292D01*
X12903Y10302D01*
X12893D01*
X12883Y10312D01*
X12873Y10302D01*
X12863D01*
X12873Y10292D01*
X12863Y10282D01*
X12873D01*
X12883Y10272D01*
X12783Y10172D02*
X12793Y10182D01*
X12803D01*
X12793Y10192D01*
X12803Y10202D01*
X12793D01*
X12783Y10212D01*
X12773Y10202D01*
X12763D01*
X12773Y10192D01*
X12763Y10182D01*
X12773D01*
X12783Y10172D01*
Y10272D02*
X12793Y10282D01*
X12803D01*
X12793Y10292D01*
X12803Y10302D01*
X12793D01*
X12783Y10312D01*
X12773Y10302D01*
X12763D01*
X12773Y10292D01*
X12763Y10282D01*
X12773D01*
X12783Y10272D01*
X12683Y10172D02*
X12693Y10182D01*
X12703D01*
X12693Y10192D01*
X12703Y10202D01*
X12693D01*
X12683Y10212D01*
X12673Y10202D01*
X12663D01*
X12673Y10192D01*
X12663Y10182D01*
X12673D01*
X12683Y10172D01*
Y10272D02*
X12693Y10282D01*
X12703D01*
X12693Y10292D01*
X12703Y10302D01*
X12693D01*
X12683Y10312D01*
X12673Y10302D01*
X12663D01*
X12673Y10292D01*
X12663Y10282D01*
X12673D01*
X12683Y10272D01*
X11673Y8372D02*
X11653Y8412D01*
X11693D01*
X11673Y8372D01*
X11533D02*
X11513Y8412D01*
X11553D01*
X11533Y8372D01*
X11603D02*
X11583Y8412D01*
X11623D01*
X11603Y8372D01*
X10093Y9052D02*
X10073Y9092D01*
X10113D01*
X10093Y9052D01*
X10233D02*
X10213Y9092D01*
X10253D01*
X10233Y9052D01*
X10163D02*
X10143Y9092D01*
X10183D01*
X10163Y9052D01*
X7963Y9472D02*
Y9512D01*
X8003D01*
Y9472D01*
X7963D01*
Y9277D02*
Y9317D01*
X8003D01*
Y9277D01*
X7963D01*
X10183Y10072D02*
X10193Y10082D01*
X10203D01*
X10193Y10092D01*
X10203Y10102D01*
X10193D01*
X10183Y10112D01*
X10173Y10102D01*
X10163D01*
X10173Y10092D01*
X10163Y10082D01*
X10173D01*
X10183Y10072D01*
X10383D02*
X10393Y10082D01*
X10403D01*
X10393Y10092D01*
X10403Y10102D01*
X10393D01*
X10383Y10112D01*
X10373Y10102D01*
X10363D01*
X10373Y10092D01*
X10363Y10082D01*
X10373D01*
X10383Y10072D01*
X10283D02*
X10293Y10082D01*
X10303D01*
X10293Y10092D01*
X10303Y10102D01*
X10293D01*
X10283Y10112D01*
X10273Y10102D01*
X10263D01*
X10273Y10092D01*
X10263Y10082D01*
X10273D01*
X10283Y10072D01*
X13723Y9832D02*
X13703Y9872D01*
X13743D01*
X13723Y9832D01*
X13653D02*
X13633Y9872D01*
X13673D01*
X13653Y9832D01*
X13793D02*
X13773Y9872D01*
X13813D01*
X13793Y9832D01*
X13823Y10012D02*
X13833Y10022D01*
X13843D01*
X13833Y10032D01*
X13843Y10042D01*
X13833D01*
X13823Y10052D01*
X13813Y10042D01*
X13803D01*
X13813Y10032D01*
X13803Y10022D01*
X13813D01*
X13823Y10012D01*
X13723D02*
X13733Y10022D01*
X13743D01*
X13733Y10032D01*
X13743Y10042D01*
X13733D01*
X13723Y10052D01*
X13713Y10042D01*
X13703D01*
X13713Y10032D01*
X13703Y10022D01*
X13713D01*
X13723Y10012D01*
X13623D02*
X13633Y10022D01*
X13643D01*
X13633Y10032D01*
X13643Y10042D01*
X13633D01*
X13623Y10052D01*
X13613Y10042D01*
X13603D01*
X13613Y10032D01*
X13603Y10022D01*
X13613D01*
X13623Y10012D01*
X13523D02*
X13533Y10022D01*
X13543D01*
X13533Y10032D01*
X13543Y10042D01*
X13533D01*
X13523Y10052D01*
X13513Y10042D01*
X13503D01*
X13513Y10032D01*
X13503Y10022D01*
X13513D01*
X13523Y10012D01*
X6883Y9152D02*
X6893Y9162D01*
X6903D01*
X6893Y9172D01*
X6903Y9182D01*
X6893D01*
X6883Y9192D01*
X6873Y9182D01*
X6863D01*
X6873Y9172D01*
X6863Y9162D01*
X6873D01*
X6883Y9152D01*
X6973D02*
X6983Y9162D01*
X6993D01*
X6983Y9172D01*
X6993Y9182D01*
X6983D01*
X6973Y9192D01*
X6963Y9182D01*
X6953D01*
X6963Y9172D01*
X6953Y9162D01*
X6963D01*
X6973Y9152D01*
X7063D02*
X7073Y9162D01*
X7083D01*
X7073Y9172D01*
X7083Y9182D01*
X7073D01*
X7063Y9192D01*
X7053Y9182D01*
X7043D01*
X7053Y9172D01*
X7043Y9162D01*
X7053D01*
X7063Y9152D01*
X11903Y9442D02*
X11883Y9482D01*
X11923D01*
X11903Y9442D01*
X12003Y9452D02*
X11983Y9492D01*
X12023D01*
X12003Y9452D01*
X12063Y8862D02*
X12043Y8902D01*
X12083D01*
X12063Y8862D01*
X10753Y9002D02*
X10733Y9042D01*
X10773D01*
X10753Y9002D01*
X13523Y9432D02*
X13503Y9472D01*
X13543D01*
X13523Y9432D01*
X13153Y9392D02*
X13133Y9432D01*
X13173D01*
X13153Y9392D01*
X13493Y8962D02*
X13473Y9002D01*
X13513D01*
X13493Y8962D01*
X12743Y9472D02*
X12723Y9512D01*
X12763D01*
X12743Y9472D01*
X12843Y9042D02*
X12823Y9082D01*
X12863D01*
X12843Y9042D01*
X12973Y8672D02*
X12953Y8712D01*
X12993D01*
X12973Y8672D01*
X9393Y10452D02*
X9373Y10492D01*
X9413D01*
X9393Y10452D01*
X12343Y9462D02*
X12323Y9502D01*
X12363D01*
X12343Y9462D01*
X12093Y9572D02*
X12073Y9612D01*
X12113D01*
X12093Y9572D01*
Y9472D02*
X12073Y9512D01*
X12113D01*
X12093Y9472D01*
X15003Y8462D02*
Y8502D01*
X15043D01*
Y8462D01*
X15003D01*
X15023Y8222D02*
X15003Y8262D01*
X15043D01*
X15023Y8222D01*
Y8102D02*
X15033Y8112D01*
X15043D01*
X15033Y8122D01*
X15043Y8132D01*
X15033D01*
X15023Y8142D01*
X15013Y8132D01*
X15003D01*
X15013Y8122D01*
X15003Y8112D01*
X15013D01*
X15023Y8102D01*
X15003Y7982D02*
X15013Y8002D01*
X15003Y8022D01*
X15023Y8012D01*
X15043Y8022D01*
X15033Y8002D01*
X15043Y7982D01*
X15023Y7992D01*
X15003Y7982D01*
X15013Y7872D02*
Y7862D01*
X15033D01*
Y7872D01*
X15043D01*
Y7892D01*
X15033D01*
Y7902D01*
X15013D01*
Y7892D01*
X15003D01*
Y7872D01*
X15013D01*
X15003Y7742D02*
X15013D01*
X15023Y7752D01*
X15033Y7742D01*
X15043D01*
Y7752D01*
X15033Y7762D01*
X15043Y7772D01*
Y7782D01*
X15033D01*
X15023Y7772D01*
X15013Y7782D01*
X15003D01*
Y7772D01*
X15013Y7762D01*
X15003Y7752D01*
Y7742D01*
Y7642D02*
X15023Y7662D01*
X15043Y7642D01*
X15023Y7622D01*
X15003Y7642D01*
D55*
X8333Y9852D02*
X8331Y9861D01*
X8324Y9868D01*
X8316Y9872D01*
X8306Y9871D01*
X8298Y9865D01*
X8294Y9857D01*
Y9847D01*
X8298Y9839D01*
X8306Y9833D01*
X8316Y9832D01*
X8324Y9835D01*
X8331Y9843D01*
X8333Y9852D01*
X7023Y10272D02*
X7021Y10281D01*
X7014Y10288D01*
X7006Y10292D01*
X6996Y10291D01*
X6988Y10285D01*
X6984Y10277D01*
Y10267D01*
X6988Y10259D01*
X6996Y10253D01*
X7006Y10252D01*
X7014Y10255D01*
X7021Y10263D01*
X7023Y10272D01*
X14423D02*
X14421Y10281D01*
X14414Y10288D01*
X14406Y10292D01*
X14396Y10291D01*
X14388Y10285D01*
X14384Y10277D01*
Y10267D01*
X14388Y10259D01*
X14396Y10253D01*
X14406Y10252D01*
X14414Y10255D01*
X14421Y10263D01*
X14423Y10272D01*
X7023Y8072D02*
X7021Y8081D01*
X7014Y8088D01*
X7006Y8092D01*
X6996Y8091D01*
X6988Y8085D01*
X6984Y8077D01*
Y8067D01*
X6988Y8059D01*
X6996Y8053D01*
X7006Y8052D01*
X7014Y8055D01*
X7021Y8063D01*
X7023Y8072D01*
X14423D02*
X14421Y8081D01*
X14414Y8088D01*
X14406Y8092D01*
X14396Y8091D01*
X14388Y8085D01*
X14384Y8077D01*
Y8067D01*
X14388Y8059D01*
X14396Y8053D01*
X14406Y8052D01*
X14414Y8055D01*
X14421Y8063D01*
X14423Y8072D01*
X15043Y8362D02*
X15041Y8371D01*
X15034Y8378D01*
X15026Y8382D01*
X15016Y8381D01*
X15008Y8375D01*
X15004Y8367D01*
Y8357D01*
X15008Y8349D01*
X15016Y8343D01*
X15026Y8342D01*
X15034Y8345D01*
X15041Y8353D01*
X15043Y8362D01*
M02*
