%FSLAX23Y23*%
%MOIN*%
G70*
G01*
G75*
%ADD10C,0.021*%
%ADD11C,0.012*%
%ADD12C,0.035*%
%ADD13C,0.025*%
%ADD14C,0.045*%
%ADD15C,0.055*%
%ADD16C,0.009*%
%ADD17C,0.008*%
%ADD18C,0.010*%
%ADD19C,0.006*%
%ADD20C,0.005*%
%ADD21C,0.060*%
%ADD22C,0.200*%
%ADD23C,0.062*%
%ADD24R,0.062X0.062*%
%ADD25R,0.052X0.052*%
%ADD26C,0.052*%
%ADD27C,0.080*%
%ADD28C,0.055*%
%ADD29R,0.050X0.050*%
%ADD30C,0.050*%
%ADD31C,0.120*%
%ADD32R,0.060X0.060*%
%ADD33R,0.100X0.100*%
%ADD34C,0.100*%
%ADD35R,0.080X0.080*%
%ADD36P,0.065X8X0*%
%ADD37C,0.065*%
%ADD38R,0.065X0.065*%
D10*
X10134Y8092D02*
X10136Y8080D01*
X10143Y8071D01*
X10134Y8092D02*
X10136Y8080D01*
X10143Y8071D01*
X14173Y7872D02*
Y7982D01*
X14163Y7652D02*
Y7982D01*
X14143Y7652D02*
Y7982D01*
X14123Y7652D02*
Y7982D01*
X14103Y7652D02*
Y7982D01*
X14083Y7652D02*
Y7982D01*
X14063Y7652D02*
Y7982D01*
X14043Y7652D02*
Y7982D01*
X14023Y7652D02*
Y7982D01*
X14003Y7652D02*
Y7982D01*
X13983Y7652D02*
Y7982D01*
X13963Y7652D02*
Y7982D01*
X13943Y7652D02*
Y7982D01*
X13923Y7652D02*
Y7982D01*
X13903Y7652D02*
Y7982D01*
X13883Y7652D02*
Y7982D01*
X13863Y7652D02*
Y7982D01*
X13843Y7652D02*
Y7982D01*
X13823Y7652D02*
Y7982D01*
X13803Y7652D02*
Y7982D01*
X13783Y7652D02*
Y7982D01*
X13763Y7652D02*
Y7982D01*
X13743Y7652D02*
Y7982D01*
X13723Y7652D02*
Y7982D01*
X13703Y7652D02*
Y7982D01*
X13683Y7652D02*
Y7982D01*
X13663Y7652D02*
Y7982D01*
X13643Y7652D02*
Y7982D01*
X14630Y7652D02*
Y7872D01*
X14623Y7652D02*
Y7872D01*
X14603Y7652D02*
Y7872D01*
X14583Y7652D02*
Y7872D01*
X14563Y7652D02*
Y7872D01*
X14543Y7652D02*
Y7872D01*
X14523Y7652D02*
Y7872D01*
X14503Y7652D02*
Y7872D01*
X14483Y7652D02*
Y7872D01*
X14463Y7652D02*
Y7872D01*
X14443Y7652D02*
Y7872D01*
X14423Y7652D02*
Y7872D01*
X14403Y7652D02*
Y7872D01*
X14383Y7652D02*
Y7872D01*
X14173D02*
X14630D01*
X14173D02*
X14630D01*
X14363Y7652D02*
Y7872D01*
X14343Y7652D02*
Y7872D01*
X14323Y7652D02*
Y7872D01*
X14303Y7652D02*
Y7872D01*
X14283Y7652D02*
Y7872D01*
X14263Y7652D02*
Y7872D01*
X14243Y7652D02*
Y7872D01*
X14223Y7652D02*
Y7872D01*
X14203Y7652D02*
Y7872D01*
X13623Y7652D02*
Y7982D01*
X14183Y7652D02*
Y7872D01*
X13603Y7652D02*
Y7982D01*
X13583Y7652D02*
Y7982D01*
X13563Y7652D02*
Y7982D01*
X13543Y7652D02*
Y7982D01*
X13523Y7652D02*
Y7982D01*
X13503Y7652D02*
Y7982D01*
X13483Y7652D02*
Y7982D01*
X13463Y7652D02*
Y7982D01*
X13443Y7652D02*
Y7982D01*
X13423Y7652D02*
Y7982D01*
X13403Y7652D02*
Y7982D01*
X13383Y7652D02*
Y7982D01*
X13363Y7652D02*
Y7982D01*
X13343Y7652D02*
Y7982D01*
X13323Y7652D02*
Y7982D01*
X13303Y7652D02*
Y7982D01*
X13283Y7652D02*
Y7982D01*
X13263Y7652D02*
Y7982D01*
X13243Y7652D02*
Y7982D01*
X13223Y7652D02*
Y7982D01*
X13203Y7652D02*
Y7982D01*
X13183Y7652D02*
Y7982D01*
X13163Y7652D02*
Y7982D01*
X13143Y7652D02*
Y7982D01*
X13123Y7652D02*
Y7982D01*
X13103Y7652D02*
Y7982D01*
X13083Y7652D02*
Y7982D01*
X13063Y7652D02*
Y7982D01*
X13043Y7652D02*
Y7982D01*
X13023Y7652D02*
Y7982D01*
X13003Y7652D02*
Y7982D01*
X12983Y7652D02*
Y7982D01*
X12963Y7652D02*
Y7982D01*
X12943Y7652D02*
Y7982D01*
X12923Y7652D02*
Y7982D01*
X12903Y7652D02*
Y7982D01*
X12883Y7652D02*
Y7982D01*
X12863Y7652D02*
Y7982D01*
X12843Y7652D02*
Y7982D01*
X12823Y7652D02*
Y7982D01*
X12803Y7652D02*
Y7982D01*
X12783Y7652D02*
Y7982D01*
X12763Y7652D02*
Y7982D01*
X12743Y7652D02*
Y7982D01*
X12723Y7652D02*
Y7982D01*
X12703Y7652D02*
Y7982D01*
X12683Y7652D02*
Y7982D01*
X12663Y7652D02*
Y7982D01*
X12643Y7652D02*
Y7982D01*
X12623Y7652D02*
Y7982D01*
X12603Y7652D02*
Y7982D01*
X12583Y7652D02*
Y7982D01*
X12563Y7652D02*
Y7982D01*
X12543Y7652D02*
Y7982D01*
X12523Y7652D02*
Y7982D01*
X12503Y7652D02*
Y7982D01*
X12483Y7652D02*
Y7982D01*
X12463Y7652D02*
Y7982D01*
X12443Y7652D02*
Y7982D01*
X12423Y7652D02*
Y7982D01*
X12403Y7652D02*
Y7982D01*
X12383Y7652D02*
Y7982D01*
X12363Y7652D02*
Y7982D01*
X12343Y7652D02*
Y7982D01*
X12323Y7652D02*
Y7982D01*
X12303Y7652D02*
Y7982D01*
X12283Y7652D02*
Y7982D01*
X12263Y7652D02*
Y7982D01*
X12243Y7652D02*
Y7982D01*
X12223Y7652D02*
Y7982D01*
X12203Y7652D02*
Y7982D01*
X12183Y7652D02*
Y7982D01*
X12163Y7652D02*
Y7982D01*
X12143Y7652D02*
Y7982D01*
X12123Y7652D02*
Y7982D01*
X12103Y7652D02*
Y7982D01*
X12083Y7652D02*
Y7982D01*
X12063Y7652D02*
Y7982D01*
X12043Y7652D02*
Y7982D01*
X12023Y7652D02*
Y7982D01*
X12003Y7652D02*
Y7982D01*
X11983Y7652D02*
Y7982D01*
X11963Y7652D02*
Y7982D01*
X11943Y7652D02*
Y7982D01*
X11923Y7652D02*
Y7982D01*
X11903Y7652D02*
Y7982D01*
X11883Y7652D02*
Y7982D01*
X11863Y7652D02*
Y7982D01*
X11843Y7652D02*
Y7982D01*
X11823Y7652D02*
Y7982D01*
X11803Y7652D02*
Y7982D01*
X11783Y7652D02*
Y7982D01*
X11763Y7652D02*
Y7982D01*
X11743Y7652D02*
Y7982D01*
X11723Y7652D02*
Y7982D01*
X11703Y7652D02*
Y7982D01*
X11683Y7652D02*
Y7982D01*
X11663Y7652D02*
Y7982D01*
X11643Y7652D02*
Y7982D01*
X11623Y7652D02*
Y7982D01*
X11603Y7652D02*
Y7982D01*
X11583Y7652D02*
Y7982D01*
X11563Y7652D02*
Y7982D01*
X11543Y7652D02*
Y7982D01*
X11523Y7652D02*
Y7982D01*
X11503Y7652D02*
Y7982D01*
X11483Y7652D02*
Y7982D01*
X11463Y7652D02*
Y7982D01*
X11443Y7652D02*
Y7982D01*
X11423Y7652D02*
Y7982D01*
X11403Y7652D02*
Y7982D01*
X11383Y7652D02*
Y7982D01*
X11363Y7652D02*
Y7982D01*
X11343Y7652D02*
Y7982D01*
X11323Y7652D02*
Y7982D01*
X11303Y7652D02*
Y7982D01*
X11283Y7652D02*
Y7982D01*
X11263Y7652D02*
Y7982D01*
X11243Y7652D02*
Y7982D01*
X11223Y7652D02*
Y7982D01*
X11203Y7652D02*
Y7982D01*
X11183Y7652D02*
Y7982D01*
X11163Y7652D02*
Y7982D01*
X11143Y7652D02*
Y7982D01*
X11123Y7652D02*
Y7982D01*
X11103Y7652D02*
Y7982D01*
X11083Y7652D02*
Y7982D01*
X11063Y7652D02*
Y7982D01*
X11043Y7652D02*
Y7982D01*
X11023Y7652D02*
Y7982D01*
X11003Y7652D02*
Y7982D01*
X10983Y7652D02*
Y7982D01*
X10963Y7652D02*
Y7982D01*
X10943Y7652D02*
Y7982D01*
X10923Y7652D02*
Y7982D01*
X10903Y7652D02*
Y7982D01*
X10883Y7652D02*
Y7982D01*
X10863Y7652D02*
Y7982D01*
X10843Y7652D02*
Y7982D01*
X10823Y7652D02*
Y7982D01*
X10803Y7652D02*
Y7982D01*
X10783Y7652D02*
Y7982D01*
X10763Y7652D02*
Y7982D01*
X10743Y7652D02*
Y7982D01*
X10723Y7652D02*
Y7982D01*
X10703Y7652D02*
Y7982D01*
X10683Y7652D02*
Y7982D01*
X10663Y7652D02*
Y7982D01*
X10643Y7652D02*
Y7982D01*
X10623Y7652D02*
Y7982D01*
X10603Y7652D02*
Y7982D01*
X10583Y7652D02*
Y7982D01*
X10563Y7652D02*
Y7982D01*
X10543Y7652D02*
Y7982D01*
X10523Y7652D02*
Y7982D01*
X10503Y7652D02*
Y7982D01*
X10483Y7652D02*
Y7982D01*
X10463Y7652D02*
Y7982D01*
X10443Y7652D02*
Y7982D01*
X10423Y7652D02*
Y7982D01*
X10403Y7652D02*
Y7982D01*
X10383Y7652D02*
Y7982D01*
X10363Y7652D02*
Y7982D01*
X10343Y7652D02*
Y7982D01*
X9963Y8183D02*
X10134D01*
X10143Y7982D02*
Y8071D01*
X10134Y8092D02*
Y8183D01*
X10123Y7652D02*
Y8183D01*
X9963Y8082D02*
Y8183D01*
X10103Y7652D02*
Y8183D01*
X10083Y7652D02*
Y8183D01*
X10063Y7652D02*
Y8183D01*
X10043Y7652D02*
Y8183D01*
X10023Y7652D02*
Y8183D01*
X10003Y7652D02*
Y8183D01*
X9983Y7652D02*
Y8183D01*
X9963Y8172D02*
X10134D01*
X9963Y8152D02*
X10134D01*
X9963Y8132D02*
X10134D01*
X9963Y8112D02*
X10134D01*
X9963Y8082D02*
Y8183D01*
Y8092D02*
X10134D01*
X9623Y8082D02*
X9963D01*
X9623Y8072D02*
X10142D01*
X9623Y8052D02*
X10143D01*
X9623Y8032D02*
X10143D01*
X9623Y8012D02*
X10143D01*
X9963Y7652D02*
Y8082D01*
X9943Y7652D02*
Y8082D01*
X9623Y7992D02*
X10143D01*
Y7982D02*
X14173D01*
X9623Y7972D02*
X14173D01*
X9623Y7952D02*
X14173D01*
X9623Y7932D02*
X14173D01*
X10323Y7652D02*
Y7982D01*
X10303Y7652D02*
Y7982D01*
X10283Y7652D02*
Y7982D01*
X10263Y7652D02*
Y7982D01*
X10243Y7652D02*
Y7982D01*
X10223Y7652D02*
Y7982D01*
X10203Y7652D02*
Y7982D01*
X10183Y7652D02*
Y7982D01*
X10163Y7652D02*
Y7982D01*
X10143Y7652D02*
Y7982D01*
X6783Y7852D02*
X14630D01*
X6783Y7832D02*
X14630D01*
X6783Y7812D02*
X14630D01*
X6783Y7792D02*
X14630D01*
X9623Y7912D02*
X14173D01*
X6783Y7892D02*
X14173D01*
X6783Y7872D02*
X14173D01*
X6783Y7772D02*
X14630D01*
X6783Y7752D02*
X14630D01*
X6783Y7732D02*
X14630D01*
X6783Y7712D02*
X14630D01*
X6783Y7692D02*
X14630D01*
X6783Y7672D02*
X14630D01*
X9923Y7652D02*
Y8082D01*
X9903Y7652D02*
Y8082D01*
X9883Y7652D02*
Y8082D01*
X9863Y7652D02*
Y8082D01*
X9843Y7652D02*
Y8082D01*
X9823Y7652D02*
Y8082D01*
X9803Y7652D02*
Y8082D01*
X9783Y7652D02*
Y8082D01*
X9763Y7652D02*
Y8082D01*
X9743Y7652D02*
Y8082D01*
X9723Y7652D02*
Y8082D01*
X9703Y7652D02*
Y8082D01*
X9683Y7652D02*
Y8082D01*
X9663Y7652D02*
Y8082D01*
X9643Y7652D02*
Y8082D01*
X9623Y7902D02*
Y8082D01*
Y7902D02*
Y8082D01*
X6783Y7902D02*
X9623D01*
Y7652D02*
Y7902D01*
X9603Y7652D02*
Y7902D01*
X9583Y7652D02*
Y7902D01*
X9563Y7652D02*
Y7902D01*
X9543Y7652D02*
Y7902D01*
X9523Y7652D02*
Y7902D01*
X9503Y7652D02*
Y7902D01*
X9483Y7652D02*
Y7902D01*
X9463Y7652D02*
Y7902D01*
X9443Y7652D02*
Y7902D01*
X9423Y7652D02*
Y7902D01*
X9403Y7652D02*
Y7902D01*
X9383Y7652D02*
Y7902D01*
X9363Y7652D02*
Y7902D01*
X9343Y7652D02*
Y7902D01*
X9323Y7652D02*
Y7902D01*
X9303Y7652D02*
Y7902D01*
X9283Y7652D02*
Y7902D01*
X9263Y7652D02*
Y7902D01*
X9243Y7652D02*
Y7902D01*
X9223Y7652D02*
Y7902D01*
X9203Y7652D02*
Y7902D01*
X9183Y7652D02*
Y7902D01*
X9163Y7652D02*
Y7902D01*
X9143Y7652D02*
Y7902D01*
X9123Y7652D02*
Y7902D01*
X9103Y7652D02*
Y7902D01*
X9083Y7652D02*
Y7902D01*
X9063Y7652D02*
Y7902D01*
X9043Y7652D02*
Y7902D01*
X9023Y7652D02*
Y7902D01*
X9003Y7652D02*
Y7902D01*
X8983Y7652D02*
Y7902D01*
X8963Y7652D02*
Y7902D01*
X8943Y7652D02*
Y7902D01*
X8923Y7652D02*
Y7902D01*
X8903Y7652D02*
Y7902D01*
X8883Y7652D02*
Y7902D01*
X8863Y7652D02*
Y7902D01*
X8843Y7652D02*
Y7902D01*
X8823Y7652D02*
Y7902D01*
X8803Y7652D02*
Y7902D01*
X8783Y7652D02*
Y7902D01*
X8763Y7652D02*
Y7902D01*
X8743Y7652D02*
Y7902D01*
X8723Y7652D02*
Y7902D01*
X8703Y7652D02*
Y7902D01*
X8683Y7652D02*
Y7902D01*
X8663Y7652D02*
Y7902D01*
X8643Y7652D02*
Y7902D01*
X8623Y7652D02*
Y7902D01*
X8603Y7652D02*
Y7902D01*
X8583Y7652D02*
Y7902D01*
X8563Y7652D02*
Y7902D01*
X8543Y7652D02*
Y7902D01*
X8523Y7652D02*
Y7902D01*
X8503Y7652D02*
Y7902D01*
X8483Y7652D02*
Y7902D01*
X8463Y7652D02*
Y7902D01*
X8443Y7652D02*
Y7902D01*
X8423Y7652D02*
Y7902D01*
X8403Y7652D02*
Y7902D01*
X8383Y7652D02*
Y7902D01*
X8363Y7652D02*
Y7902D01*
X8343Y7652D02*
Y7902D01*
X8323Y7652D02*
Y7902D01*
X8303Y7652D02*
Y7902D01*
X8283Y7652D02*
Y7902D01*
X8263Y7652D02*
Y7902D01*
X8243Y7652D02*
Y7902D01*
X8223Y7652D02*
Y7902D01*
X8203Y7652D02*
Y7902D01*
X8183Y7652D02*
Y7902D01*
X8163Y7652D02*
Y7902D01*
X8143Y7652D02*
Y7902D01*
X8123Y7652D02*
Y7902D01*
X8103Y7652D02*
Y7902D01*
X8083Y7652D02*
Y7902D01*
X8063Y7652D02*
Y7902D01*
X8043Y7652D02*
Y7902D01*
X8023Y7652D02*
Y7902D01*
X8003Y7652D02*
Y7902D01*
X7983Y7652D02*
Y7902D01*
X7963Y7652D02*
Y7902D01*
X7943Y7652D02*
Y7902D01*
X7923Y7652D02*
Y7902D01*
X7903Y7652D02*
Y7902D01*
X6783Y7652D02*
X14630D01*
X7883D02*
Y7902D01*
X7863Y7652D02*
Y7902D01*
X7843Y7652D02*
Y7902D01*
X7823Y7652D02*
Y7902D01*
X7803Y7652D02*
Y7902D01*
X7783Y7652D02*
Y7902D01*
X7763Y7652D02*
Y7902D01*
X7743Y7652D02*
Y7902D01*
X7723Y7652D02*
Y7902D01*
X7703Y7652D02*
Y7902D01*
X7683Y7652D02*
Y7902D01*
X7663Y7652D02*
Y7902D01*
X7643Y7652D02*
Y7902D01*
X7623Y7652D02*
Y7902D01*
X7603Y7652D02*
Y7902D01*
X7583Y7652D02*
Y7902D01*
X7563Y7652D02*
Y7902D01*
X7543Y7652D02*
Y7902D01*
X7523Y7652D02*
Y7902D01*
X7503Y7652D02*
Y7902D01*
X7483Y7652D02*
Y7902D01*
X7463Y7652D02*
Y7902D01*
X7443Y7652D02*
Y7902D01*
X7423Y7652D02*
Y7902D01*
X7403Y7652D02*
Y7902D01*
X7383Y7652D02*
Y7902D01*
X7363Y7652D02*
Y7902D01*
X7343Y7652D02*
Y7902D01*
X7323Y7652D02*
Y7902D01*
X7303Y7652D02*
Y7902D01*
X7283Y7652D02*
Y7902D01*
X7263Y7652D02*
Y7902D01*
X7243Y7652D02*
Y7902D01*
X7223Y7652D02*
Y7902D01*
X7203Y7652D02*
Y7902D01*
X7183Y7652D02*
Y7902D01*
X7163Y7652D02*
Y7902D01*
X7143Y7652D02*
Y7902D01*
X7123Y7652D02*
Y7902D01*
X7103Y7652D02*
Y7902D01*
X7083Y7652D02*
Y7902D01*
X7063Y7652D02*
Y7902D01*
X7043Y7652D02*
Y7902D01*
X7023Y7652D02*
Y7902D01*
X7003Y7652D02*
Y7902D01*
X6983Y7652D02*
Y7902D01*
X6963Y7652D02*
Y7902D01*
X6943Y7652D02*
Y7902D01*
X6923Y7652D02*
Y7902D01*
X6903Y7652D02*
Y7902D01*
X6883Y7652D02*
Y7902D01*
X6863Y7652D02*
Y7902D01*
X6843Y7652D02*
Y7902D01*
X6823Y7652D02*
Y7902D01*
X6803Y7652D02*
Y7902D01*
X6783Y7652D02*
Y7902D01*
Y7652D02*
Y7902D01*
X7863Y8262D02*
Y8392D01*
X7843Y8262D02*
Y8392D01*
X7823Y8262D02*
Y8392D01*
X7803Y8262D02*
Y8392D01*
X7623D02*
X7863D01*
X7783Y8262D02*
Y8392D01*
X7763Y8262D02*
Y8392D01*
X7073Y8312D02*
X7863D01*
X7093Y8292D02*
X7863D01*
X7113Y8272D02*
X7863D01*
X7743Y8262D02*
Y8392D01*
X7013Y8372D02*
X7863D01*
X7033Y8352D02*
X7863D01*
X7053Y8332D02*
X7863D01*
X7583Y8432D02*
X7623Y8392D01*
X7223Y8432D02*
X7583D01*
X7103Y8282D02*
Y8548D01*
X7083Y8302D02*
Y8567D01*
X7043Y8342D02*
Y8606D01*
X7023Y8362D02*
Y8626D01*
X7063Y8322D02*
Y8587D01*
X7723Y8262D02*
Y8392D01*
X7703Y8262D02*
Y8392D01*
X7683Y8262D02*
Y8392D01*
X7663Y8262D02*
Y8392D01*
X7643Y8262D02*
Y8392D01*
X7623Y8262D02*
Y8392D01*
X7583Y8262D02*
Y8432D01*
X7563Y8262D02*
Y8432D01*
X7543Y8262D02*
Y8432D01*
X7523Y8262D02*
Y8432D01*
X7503Y8262D02*
Y8432D01*
X7483Y8262D02*
Y8432D01*
X7463Y8262D02*
Y8432D01*
X7603Y8262D02*
Y8412D01*
X7443Y8262D02*
Y8432D01*
X7423Y8262D02*
Y8432D01*
X7403Y8262D02*
Y8432D01*
X7383Y8262D02*
Y8432D01*
X7123Y8262D02*
X7863D01*
X7363D02*
Y8432D01*
X7343Y8262D02*
Y8432D01*
X7203Y8262D02*
Y8451D01*
X7183Y8262D02*
Y8471D01*
X7163Y8262D02*
Y8490D01*
X7143Y8262D02*
Y8509D01*
X7123Y8262D02*
Y8529D01*
X7323Y8262D02*
Y8432D01*
X7303Y8262D02*
Y8432D01*
X7283Y8262D02*
Y8432D01*
X7263Y8262D02*
Y8432D01*
X7243Y8262D02*
Y8432D01*
X7223Y8262D02*
Y8432D01*
X6843Y9122D02*
X6903D01*
X6843Y9112D02*
X6903D01*
X6843Y9092D02*
X6903D01*
X6843Y9072D02*
X6903D01*
X6843Y9052D02*
X6903D01*
X6843Y9032D02*
X6903D01*
X6843Y9012D02*
X6903D01*
X6843Y8992D02*
X6903D01*
X6843Y8972D02*
X6903D01*
X6843Y8732D02*
X6913D01*
X6843Y8952D02*
X6903D01*
X6843Y8692D02*
X6955D01*
X6843Y8712D02*
X6934D01*
X6843Y8672D02*
X6975D01*
X6843Y9062D02*
Y9122D01*
Y9062D02*
Y9122D01*
Y8932D02*
X6903D01*
Y8742D02*
Y9122D01*
X6843Y8912D02*
X6903D01*
X6843Y8892D02*
X6903D01*
X6843Y8872D02*
X6903D01*
X6843Y8852D02*
X6903D01*
X6843Y8832D02*
X6903D01*
X6843Y8812D02*
X6903D01*
X6843Y8792D02*
X6903D01*
X6843Y8772D02*
X6903D01*
X6843Y8752D02*
X6903D01*
X6853Y8532D02*
X7120D01*
X6843Y8592D02*
X7058D01*
X6903Y8742D02*
X7223Y8432D01*
X6873Y8512D02*
X7141D01*
X6843Y8552D02*
X7099D01*
X6843Y8572D02*
X7079D01*
X6843Y8542D02*
X7123Y8262D01*
X6973Y8412D02*
X7603D01*
X6953Y8432D02*
X7223D01*
X6993Y8392D02*
X7623D01*
X6913Y8472D02*
X7182D01*
X6893Y8492D02*
X7161D01*
X6933Y8452D02*
X7202D01*
X6903Y8482D02*
Y8742D01*
X6883Y8502D02*
Y9122D01*
X6943Y8442D02*
Y8703D01*
X6923Y8462D02*
Y8722D01*
X6843Y8542D02*
Y9122D01*
Y8542D02*
Y9122D01*
X6863Y8522D02*
Y9122D01*
X6983Y8402D02*
Y8664D01*
X6963Y8422D02*
Y8684D01*
X7003Y8382D02*
Y8645D01*
X6843Y8632D02*
X7017D01*
X6843Y8652D02*
X6996D01*
X6843Y8612D02*
X7037D01*
X7453Y8602D02*
Y8712D01*
X7443Y8602D02*
Y8712D01*
X7173D02*
X7453D01*
X7024Y8692D02*
X7453D01*
X7084Y8632D02*
X7453D01*
X7104Y8612D02*
X7453D01*
X7044Y8672D02*
X7453D01*
X7064Y8652D02*
X7453D01*
X7043Y8673D02*
Y8842D01*
X7063Y8653D02*
Y8822D01*
X7023Y8862D02*
X7033Y8852D01*
X7173Y8712D01*
X7423Y8602D02*
Y8712D01*
X7403Y8602D02*
Y8712D01*
X7083Y8633D02*
Y8802D01*
X7103Y8613D02*
Y8782D01*
X7383Y8602D02*
Y8712D01*
X7363Y8602D02*
Y8712D01*
X7343Y8602D02*
Y8712D01*
X7323Y8602D02*
Y8712D01*
X7303Y8602D02*
Y8712D01*
X7283Y8602D02*
Y8712D01*
X7263Y8602D02*
Y8712D01*
X7114Y8602D02*
X7453D01*
X7243D02*
Y8712D01*
X7163Y8602D02*
Y8722D01*
X7143Y8602D02*
Y8742D01*
X7123Y8602D02*
Y8762D01*
X7223Y8602D02*
Y8712D01*
X7203Y8602D02*
Y8712D01*
X7183Y8602D02*
Y8712D01*
X6942Y9121D02*
X7013Y9112D01*
X6942D02*
X7013D01*
X6942Y9092D02*
X7013D01*
X6942Y9072D02*
X7013D01*
X6942Y9052D02*
X7013D01*
Y8872D02*
X7023Y8862D01*
X6942Y9032D02*
X7013D01*
X6942Y9012D02*
X7013D01*
X6942Y8992D02*
X7013D01*
Y8872D02*
Y9112D01*
X6942Y8972D02*
X7013D01*
X6942Y8952D02*
X7013D01*
X6942Y8932D02*
X7013D01*
X6942Y8912D02*
X7013D01*
X6942Y8892D02*
X7013D01*
X6942Y8872D02*
X7013D01*
X6942Y8832D02*
X7053D01*
X6942Y8812D02*
X7073D01*
X6942Y8792D02*
X7093D01*
X6942Y8774D02*
X7114Y8602D01*
X6984Y8732D02*
X7153D01*
X7004Y8712D02*
X7173D01*
X6944Y8772D02*
X7113D01*
X6964Y8752D02*
X7133D01*
X6963Y8753D02*
Y9118D01*
X6983Y8733D02*
Y9116D01*
X6942Y8774D02*
Y9121D01*
X6943Y8773D02*
Y9121D01*
X7003Y8713D02*
Y9113D01*
X7023Y8693D02*
Y8862D01*
X6942Y8852D02*
X7033D01*
X10163Y8092D02*
X10743D01*
X10163D02*
Y8522D01*
Y8112D02*
X10743D01*
X10163Y8092D02*
Y8522D01*
X10183Y8092D02*
Y8522D01*
X10203Y8092D02*
Y8522D01*
X10223Y8092D02*
Y8522D01*
X10163Y8132D02*
X10743D01*
X10163Y8152D02*
X10743D01*
X10163Y8172D02*
X10743D01*
X10163Y8192D02*
X10743D01*
X10163Y8212D02*
X10743D01*
X10163Y8232D02*
X10743D01*
X10163Y8252D02*
X10743D01*
X10163Y8312D02*
X10303D01*
X10163Y8332D02*
X10303D01*
X10163Y8352D02*
X10303D01*
X10163Y8372D02*
X10303D01*
X10163Y8392D02*
X10303D01*
X10163Y8412D02*
X10303D01*
X10163Y8432D02*
X10303D01*
X10163Y8272D02*
X10743D01*
X10163Y8292D02*
X10743D01*
X10163Y8452D02*
X10303D01*
X10163Y8472D02*
X10303D01*
X10163Y8492D02*
X10303D01*
X10163Y8512D02*
X10303D01*
X10163Y8522D02*
X10303D01*
Y8092D02*
Y8302D01*
X10323Y8092D02*
Y8302D01*
X10343Y8092D02*
Y8302D01*
X10243Y8092D02*
Y8522D01*
X10263Y8092D02*
Y8522D01*
X10283Y8092D02*
Y8522D01*
X10363Y8092D02*
Y8302D01*
X10383Y8092D02*
Y8302D01*
X10403Y8092D02*
Y8302D01*
X10423Y8092D02*
Y8302D01*
X10443Y8092D02*
Y8302D01*
X10463Y8092D02*
Y8302D01*
X10483Y8092D02*
Y8302D01*
X10503Y8092D02*
Y8302D01*
X10523Y8092D02*
Y8302D01*
X10543Y8092D02*
Y8302D01*
X10563Y8092D02*
Y8302D01*
X10583Y8092D02*
Y8302D01*
X10303D02*
Y8522D01*
X10603Y8092D02*
Y8302D01*
X10623Y8092D02*
Y8302D01*
X10643Y8092D02*
Y8302D01*
X10663Y8092D02*
Y8302D01*
X10683Y8092D02*
Y8302D01*
X10703Y8092D02*
Y8302D01*
X10303D02*
X10743D01*
X10723Y8092D02*
Y8302D01*
X10743Y8092D02*
Y8302D01*
X9223Y8212D02*
Y8652D01*
X9243Y8212D02*
Y8652D01*
X9263Y8212D02*
Y8652D01*
X9283Y8212D02*
Y8652D01*
X9303Y8212D02*
Y8652D01*
X9143Y8212D02*
Y8782D01*
Y8212D02*
Y8782D01*
X9163Y8212D02*
Y8782D01*
X9183Y8212D02*
Y8782D01*
X9203Y8212D02*
Y8782D01*
X9323Y8212D02*
Y8652D01*
X9143Y8212D02*
X10163D01*
X9143Y8232D02*
X10163D01*
X9143Y8252D02*
X10163D01*
X9143Y8272D02*
X10163D01*
X9143Y8292D02*
X10163D01*
X9143Y8312D02*
X10163D01*
X9143Y8332D02*
X9543D01*
X9143Y8352D02*
X9543D01*
X9343Y8212D02*
Y8652D01*
X9143Y8372D02*
X9543D01*
X9143Y8392D02*
X9543D01*
X9143Y8412D02*
X9543D01*
X9143Y8652D02*
X9223D01*
X9373D01*
X9143Y8672D02*
X9223D01*
X9143Y8692D02*
X9223D01*
X9143Y8712D02*
X9223D01*
X9143Y8732D02*
X9223D01*
X9143Y8752D02*
X9223D01*
Y8652D02*
Y8782D01*
X9143Y8772D02*
X9223D01*
X9143Y8782D02*
X9223D01*
X9143Y8432D02*
X9543D01*
X9143Y8452D02*
X9543D01*
X9143Y8472D02*
X9543D01*
X9143Y8492D02*
X9543D01*
X9143Y8512D02*
X9543D01*
X9143Y8532D02*
X9543D01*
X9143Y8552D02*
X9543D01*
X9143Y8572D02*
X9543D01*
X9143Y8592D02*
X9543D01*
X9143Y8612D02*
X9543D01*
X9143Y8632D02*
X9543D01*
X9363Y8212D02*
Y8652D01*
X9383Y8212D02*
Y8652D01*
X9403Y8212D02*
Y8652D01*
X9543Y8212D02*
Y8322D01*
X9563Y8212D02*
Y8322D01*
X9423Y8212D02*
Y8652D01*
X9443Y8212D02*
Y8652D01*
X9463Y8212D02*
Y8652D01*
X9483Y8212D02*
Y8652D01*
X9503Y8212D02*
Y8652D01*
X9523Y8212D02*
Y8652D01*
X9583Y8212D02*
Y8322D01*
X9603Y8212D02*
Y8322D01*
X9623Y8212D02*
Y8322D01*
X9643Y8212D02*
Y8322D01*
X9663Y8212D02*
Y8322D01*
X9683Y8212D02*
Y8322D01*
X9703Y8212D02*
Y8322D01*
X9723Y8212D02*
Y8322D01*
X9743Y8212D02*
Y8322D01*
X9763Y8212D02*
Y8322D01*
X9783Y8212D02*
Y8322D01*
X9803Y8212D02*
Y8322D01*
X9823Y8212D02*
Y8322D01*
X9843Y8212D02*
Y8322D01*
X9863Y8212D02*
Y8322D01*
X9883Y8212D02*
Y8322D01*
X9903Y8212D02*
Y8322D01*
X9543D02*
Y8652D01*
X9373D02*
X9543D01*
X9923Y8212D02*
Y8322D01*
X9943Y8212D02*
Y8322D01*
X9963Y8212D02*
Y8322D01*
X9983Y8212D02*
Y8322D01*
X10003Y8212D02*
Y8322D01*
X10023Y8212D02*
Y8322D01*
X10043Y8212D02*
Y8322D01*
X10063Y8212D02*
Y8322D01*
X10083Y8212D02*
Y8322D01*
X10103Y8212D02*
Y8322D01*
X9543D02*
X10163D01*
X10123Y8212D02*
Y8322D01*
X10143Y8212D02*
Y8322D01*
X10163Y8212D02*
Y8322D01*
X7803Y8722D02*
Y8954D01*
X7783Y8742D02*
Y8958D01*
X7713Y8812D02*
X7923D01*
Y8602D02*
Y8812D01*
X7943Y8582D02*
Y8792D01*
X7823Y8702D02*
Y8962D01*
X7903Y8622D02*
Y8832D01*
X7743Y8782D02*
Y8967D01*
X7703Y8822D02*
Y8975D01*
X7723Y8802D02*
Y8971D01*
X7863Y8662D02*
Y9002D01*
X7883Y8642D02*
Y9022D01*
X7763Y8762D02*
Y8962D01*
X7843Y8682D02*
Y8982D01*
X7873Y8652D02*
X8083D01*
X7833Y8692D02*
X8043D01*
X7853Y8672D02*
X8063D01*
X7933Y8592D02*
X8143D01*
X7953Y8572D02*
X8163D01*
X7893Y8632D02*
X8103D01*
X7913Y8612D02*
X8123D01*
X7623Y8902D02*
X8203Y8322D01*
X7733Y8792D02*
X7943D01*
X7753Y8772D02*
X7963D01*
X7813Y8712D02*
X8023D01*
X7903Y8832D02*
X8333Y8402D01*
X7773Y8752D02*
X7983D01*
X7793Y8732D02*
X8003D01*
X7653Y8872D02*
X7943D01*
X7623Y8972D02*
X7718D01*
X7623Y8952D02*
X7813D01*
X7683Y8842D02*
Y8979D01*
X7693Y8832D02*
X7903D01*
X7663Y8862D02*
Y8983D01*
X7673Y8852D02*
X7923D01*
X7623Y8902D02*
Y8992D01*
Y8902D02*
Y8992D01*
X7813Y8952D01*
X7903Y8832D02*
Y9042D01*
X7923Y8852D02*
Y9062D01*
X7643Y8882D02*
Y8988D01*
X7943Y8872D02*
Y9082D01*
X7633Y8892D02*
X7963D01*
X7623Y8912D02*
X7983D01*
X7623Y8932D02*
X8003D01*
X7903Y8832D02*
X8023Y8952D01*
X7813D02*
X8023D01*
X7833Y8972D02*
X8223D01*
X7853Y8992D02*
X8223D01*
X7813Y8952D02*
X7953Y9092D01*
X7873Y9012D02*
X8223D01*
X7893Y9032D02*
X8223D01*
X7963Y8892D02*
Y9092D01*
X7913Y9052D02*
X8223D01*
X7933Y9072D02*
X8223D01*
X7953Y9092D02*
X8223D01*
X8203Y8202D02*
Y8322D01*
Y8202D02*
Y8322D01*
X8093Y8432D02*
X8303D01*
X8243Y8202D02*
Y8492D01*
X8263Y8202D02*
Y8472D01*
X8283Y8202D02*
Y8452D01*
X8303Y8202D02*
Y8432D01*
X8143Y8382D02*
Y8592D01*
X8103Y8422D02*
Y8632D01*
X8123Y8402D02*
Y8612D01*
X8203Y8322D02*
Y8532D01*
X8223Y8202D02*
Y8512D01*
X8163Y8362D02*
Y8572D01*
X8183Y8342D02*
Y8552D01*
X8203Y8202D02*
X8333D01*
X8203Y8212D02*
X8333D01*
X8203Y8232D02*
X8333D01*
X8203Y8252D02*
X8333D01*
X8203Y8272D02*
X8333D01*
X8203Y8292D02*
X8333D01*
X8203Y8312D02*
X8333D01*
X8153Y8372D02*
X8333D01*
X8113Y8412D02*
X8323D01*
X8133Y8392D02*
X8333D01*
X8323Y8202D02*
Y8412D01*
X8333Y8202D02*
Y8402D01*
X8193Y8332D02*
X8333D01*
X8173Y8352D02*
X8333D01*
X8003Y8522D02*
Y8732D01*
X7963Y8562D02*
Y8772D01*
X7983Y8542D02*
Y8752D01*
X8063Y8462D02*
Y8672D01*
X8083Y8442D02*
Y8652D01*
X8023Y8502D02*
Y8712D01*
X8043Y8482D02*
Y8692D01*
X7983Y8912D02*
Y9092D01*
X8003Y8932D02*
Y9092D01*
X8023Y8952D02*
Y9092D01*
X8043Y8952D02*
Y9092D01*
X8063Y8952D02*
Y9092D01*
X8083Y8952D02*
Y9092D01*
X8103Y8952D02*
Y9092D01*
X8013Y8512D02*
X8223D01*
X7973Y8552D02*
X8183D01*
X7993Y8532D02*
X8203D01*
X8053Y8472D02*
X8263D01*
X8073Y8452D02*
X8283D01*
X8023Y8952D02*
X8223D01*
X8033Y8492D02*
X8243D01*
X8023Y8952D02*
X8223D01*
X8123D02*
Y9092D01*
X8143Y8952D02*
Y9092D01*
X8163Y8952D02*
Y9092D01*
X8183Y8952D02*
Y9092D01*
X8203Y8952D02*
Y9092D01*
X8223Y8952D02*
Y9092D01*
X7603Y9042D02*
X7793Y9002D01*
X7603Y9042D02*
Y9212D01*
Y9042D02*
Y9212D01*
X7663Y9029D02*
Y9212D01*
X7746Y9012D02*
X7803D01*
X7623Y9038D02*
Y9212D01*
X7643Y9033D02*
Y9212D01*
X7703Y9021D02*
Y9212D01*
X7683Y9025D02*
Y9212D01*
X7603D02*
X7783D01*
X7763Y9008D02*
Y9212D01*
X7783Y9004D02*
Y9212D01*
X7723Y9017D02*
Y9212D01*
X7743Y9012D02*
Y9212D01*
X7603Y9052D02*
X7843D01*
X7603Y9072D02*
X7863D01*
X7603Y9092D02*
X7883D01*
X7651Y9032D02*
X7823D01*
X7793Y9002D02*
X7883Y9092D01*
X7603Y9112D02*
X7883D01*
X7603Y9132D02*
X7883D01*
X7803Y9012D02*
Y9522D01*
X7603Y9152D02*
X7883D01*
X7603Y9172D02*
X7883D01*
X7603Y9192D02*
X7883D01*
X7823Y9032D02*
Y9522D01*
X7843Y9052D02*
Y9522D01*
X7863Y9072D02*
Y9522D01*
X7883Y9092D02*
Y9392D01*
X7603Y9212D02*
X7613D01*
X7783D01*
X7883D01*
X7783Y9232D02*
X7883D01*
X7783Y9252D02*
X7883D01*
X7783Y9272D02*
X7883D01*
X7783Y9292D02*
X7883D01*
X7783Y9312D02*
X7883D01*
X7783Y9332D02*
X7883D01*
X7783Y9352D02*
X7883D01*
X7783Y9212D02*
Y9522D01*
Y9212D02*
Y9522D01*
Y9372D02*
X7883D01*
X7783Y9392D02*
X7883D01*
X7783Y9412D02*
X8503D01*
X7783Y9432D02*
X8503D01*
X7783Y9452D02*
X8503D01*
X7883Y9392D02*
X8353D01*
X7883D02*
X8353D01*
X7783Y9472D02*
X8503D01*
X7783Y9492D02*
X8503D01*
X7883Y9392D02*
Y9522D01*
X7903Y9392D02*
Y9522D01*
X7783Y9512D02*
X8503D01*
X7783Y9522D02*
X8503D01*
X7923Y9392D02*
Y9522D01*
X7943Y9392D02*
Y9522D01*
X7963Y9392D02*
Y9522D01*
X7983Y9392D02*
Y9522D01*
X8353Y8802D02*
X8503D01*
X8353Y8812D02*
X8503D01*
X8353Y8832D02*
X8503D01*
X8353Y8802D02*
Y9392D01*
X8363Y8802D02*
Y9522D01*
X8353Y8852D02*
X8503D01*
X8353Y8872D02*
X8503D01*
X8383Y8802D02*
Y9522D01*
X8403Y8802D02*
Y9522D01*
X8423Y8802D02*
Y9522D01*
X8443Y8802D02*
Y9522D01*
X8463Y8802D02*
Y9522D01*
X8483Y8802D02*
Y9522D01*
X8503Y8802D02*
Y9522D01*
X8353Y8892D02*
X8503D01*
X8353Y8912D02*
X8503D01*
X8353Y8932D02*
X8503D01*
X8353Y8952D02*
X8503D01*
X8353Y8972D02*
X8503D01*
X8353Y8992D02*
X8503D01*
X8353Y9012D02*
X8503D01*
X8353Y9032D02*
X8503D01*
X8353Y9052D02*
X8503D01*
X8353Y9072D02*
X8503D01*
X8353Y9092D02*
X8503D01*
X8353Y9112D02*
X8503D01*
X8353Y9132D02*
X8503D01*
X8353Y9152D02*
X8503D01*
X8353Y9172D02*
X8503D01*
X8003Y9392D02*
Y9522D01*
X8023Y9392D02*
Y9522D01*
X8043Y9392D02*
Y9522D01*
X8063Y9392D02*
Y9522D01*
X8083Y9392D02*
Y9522D01*
X8103Y9392D02*
Y9522D01*
X8123Y9392D02*
Y9522D01*
X8143Y9392D02*
Y9522D01*
X8163Y9392D02*
Y9522D01*
X8183Y9392D02*
Y9522D01*
X8203Y9392D02*
Y9522D01*
X8223Y9392D02*
Y9522D01*
X8243Y9392D02*
Y9522D01*
X8263Y9392D02*
Y9522D01*
X8353Y9192D02*
X8503D01*
X8353Y9212D02*
X8503D01*
X8353Y9232D02*
X8503D01*
X8353Y9252D02*
X8503D01*
X8353Y9272D02*
X8503D01*
X8353Y9292D02*
X8503D01*
X8353Y9312D02*
X8503D01*
X8283Y9392D02*
Y9522D01*
X8303Y9392D02*
Y9522D01*
X8323Y9392D02*
Y9522D01*
X8343Y9392D02*
Y9522D01*
X8353Y9332D02*
X8503D01*
X8353Y9352D02*
X8503D01*
X8353Y9372D02*
X8503D01*
X8353Y9392D02*
X8503D01*
X9253Y9632D02*
X9373D01*
X9253Y9612D02*
X9393D01*
X9253Y9652D02*
X9373D01*
X9253Y9672D02*
X9373D01*
X9253Y9692D02*
X9373D01*
X9383Y9482D02*
Y9622D01*
X9253Y9712D02*
X9373D01*
X9253Y9732D02*
X9373D01*
X9263Y9602D02*
Y9982D01*
X9283Y9582D02*
Y9982D01*
X9253Y9612D02*
Y9892D01*
Y9752D02*
X9373D01*
X9343Y9522D02*
Y9982D01*
X9363Y9502D02*
Y9982D01*
X9303Y9562D02*
Y9982D01*
X9373Y9632D02*
Y9892D01*
X9323Y9542D02*
Y9982D01*
X9373Y9492D02*
X9513D01*
X9393Y9472D02*
X9533D01*
X9333Y9532D02*
X9473D01*
X9353Y9512D02*
X9493D01*
X9483Y9382D02*
Y9522D01*
X9473Y9392D02*
X9613D01*
X9413Y9452D02*
X9553D01*
X9453Y9412D02*
X9593D01*
X9433Y9432D02*
X9573D01*
X9313Y9552D02*
X9453D01*
X9253Y9612D02*
X9663Y9202D01*
X9273Y9592D02*
X9413D01*
X9293Y9572D02*
X9433D01*
X9463Y9402D02*
Y9542D01*
X9373Y9632D02*
X9713Y9292D01*
X9403Y9462D02*
Y9602D01*
X9443Y9422D02*
Y9562D01*
X9423Y9442D02*
Y9582D01*
X9003Y9892D02*
Y9982D01*
Y9892D02*
X9253D01*
X9003D02*
Y9982D01*
X9023Y9892D02*
Y9982D01*
X9253Y9772D02*
X9373D01*
X9253Y9792D02*
X9373D01*
X9043Y9892D02*
Y9982D01*
X9063Y9892D02*
Y9982D01*
X9083Y9892D02*
Y9982D01*
X9103Y9892D02*
Y9982D01*
X9123Y9892D02*
Y9982D01*
X9143Y9892D02*
Y9982D01*
X9163Y9892D02*
Y9982D01*
X9183Y9892D02*
Y9982D01*
X9203Y9892D02*
Y9982D01*
X9223Y9892D02*
Y9982D01*
X9243Y9892D02*
Y9982D01*
X9253Y9812D02*
X9373D01*
X9253Y9832D02*
X9373D01*
X9003Y9912D02*
X9923D01*
X9003Y9932D02*
X9923D01*
X9253Y9852D02*
X9373D01*
X9253Y9872D02*
X9373D01*
X9253Y9892D02*
X9373D01*
X9923D01*
X9373D02*
X9923D01*
X9383D02*
Y9982D01*
X9003Y9952D02*
X9923D01*
X9003Y9972D02*
X9923D01*
X9003Y9982D02*
X9923D01*
X9403Y9892D02*
Y9982D01*
X9423Y9892D02*
Y9982D01*
X9443Y9892D02*
Y9982D01*
X9463Y9892D02*
Y9982D01*
X9483Y9892D02*
Y9982D01*
X9723Y9202D02*
Y9292D01*
X9743Y9202D02*
Y9292D01*
X9763Y9202D02*
Y9292D01*
X9783Y9202D02*
Y9292D01*
X9803Y9202D02*
Y9292D01*
X9943Y9092D02*
Y9202D01*
X9823D02*
Y9292D01*
X9843Y9202D02*
Y9292D01*
X9663Y9202D02*
Y9342D01*
X9683Y9202D02*
Y9322D01*
X9623Y9242D02*
Y9382D01*
X9643Y9222D02*
Y9362D01*
X9703Y9202D02*
Y9302D01*
X9863Y9202D02*
Y9292D01*
X9883Y9202D02*
Y9292D01*
X9903Y9202D02*
Y9292D01*
X9923Y9202D02*
Y9292D01*
X9943Y9092D02*
X10063D01*
X9943Y9112D02*
X10063D01*
X9663Y9202D02*
X9943D01*
X9653Y9212D02*
X10063D01*
X9943Y9092D02*
Y9202D01*
Y9132D02*
X10063D01*
X9943Y9152D02*
X10063D01*
X9943Y9172D02*
X10063D01*
X9943Y9192D02*
X10063D01*
X9943Y9202D02*
Y9292D01*
X9963Y9092D02*
Y9292D01*
X9633Y9232D02*
X10063D01*
X9613Y9252D02*
X10063D01*
X9983Y9092D02*
Y9292D01*
X10003Y9092D02*
Y9292D01*
X10023Y9092D02*
Y9292D01*
X10043Y9092D02*
Y9292D01*
X10063Y9092D02*
Y9292D01*
X9523Y9342D02*
Y9482D01*
X9513Y9352D02*
X9653D01*
X9503Y9362D02*
Y9502D01*
X9493Y9372D02*
X9633D01*
X9583Y9282D02*
Y9422D01*
X9603Y9262D02*
Y9402D01*
X9543Y9322D02*
Y9462D01*
X9563Y9302D02*
Y9442D01*
X9503Y9892D02*
Y9982D01*
X9523Y9892D02*
Y9982D01*
X9543Y9892D02*
Y9982D01*
X9563Y9892D02*
Y9982D01*
X9583Y9892D02*
Y9982D01*
X9603Y9892D02*
Y9982D01*
X9623Y9892D02*
Y9982D01*
X9643Y9892D02*
Y9982D01*
X9663Y9892D02*
Y9982D01*
X9573Y9292D02*
X9713D01*
X9593Y9272D02*
X10063D01*
X9533Y9332D02*
X9673D01*
X9553Y9312D02*
X9693D01*
X9683Y9892D02*
Y9982D01*
X9713Y9292D02*
X10063D01*
X9703Y9892D02*
Y9982D01*
X9723Y9892D02*
Y9982D01*
X9743Y9892D02*
Y9982D01*
X9763Y9892D02*
Y9982D01*
X9783Y9892D02*
Y9982D01*
X9803Y9892D02*
Y9982D01*
X9823Y9892D02*
Y9982D01*
X9843Y9892D02*
Y9982D01*
X9863Y9892D02*
Y9982D01*
X9883Y9892D02*
Y9982D01*
X9903Y9892D02*
Y9982D01*
X9923Y9892D02*
Y9982D01*
D11*
X8513Y10422D02*
X11503D01*
X7323Y10102D02*
X7443Y10222D01*
X7263Y9072D02*
X7393Y9202D01*
X7323Y9582D02*
Y10102D01*
Y9582D02*
X7393Y9512D01*
Y9202D02*
Y9512D01*
X12243Y9732D02*
X12303Y9792D01*
X13063Y9972D02*
X13363D01*
X10873Y10212D02*
X11553Y9532D01*
X8003Y10212D02*
X10873D01*
X11763Y9462D02*
X11903D01*
X11693Y9532D02*
X11763Y9462D01*
X11553Y9532D02*
X11693D01*
X7943Y10152D02*
X8003Y10212D01*
X7943Y10032D02*
Y10152D01*
X11843Y9612D02*
Y9792D01*
X12033Y9542D02*
X12993D01*
X11983Y9592D02*
X12033Y9542D01*
X11863Y9592D02*
X11983D01*
X11843Y9612D02*
X11863Y9592D01*
X11753Y9192D02*
X11833Y9272D01*
X11643Y9192D02*
X11753D01*
X12093Y9322D02*
Y9492D01*
X12043Y9272D02*
X12093Y9322D01*
X11833Y9272D02*
X12043D01*
X11983Y8882D02*
X12063D01*
X11813Y9052D02*
X11983Y8882D01*
X11613Y9052D02*
X11813D01*
X11583Y9022D02*
X11613Y9052D01*
X10753Y9022D02*
X11583D01*
X13603Y9462D02*
Y9552D01*
X13593Y9452D02*
X13603Y9462D01*
X13523Y9452D02*
X13593D01*
X12553Y9412D02*
X13153D01*
X12543Y9402D02*
X12553Y9412D01*
X12543Y9352D02*
Y9402D01*
X13393Y9082D02*
X13493Y8982D01*
X13393Y9082D02*
Y9342D01*
X13243Y9492D02*
X13393Y9342D01*
X12743Y9492D02*
X13243D01*
X12843Y9062D02*
Y9352D01*
X12973Y8692D02*
X13143D01*
X13243Y8592D01*
X13343D01*
X13443Y8842D02*
Y8932D01*
X12903Y9292D02*
X13183D01*
X13263Y8962D02*
X13413D01*
X13353D02*
Y9322D01*
X13313Y9362D02*
X13353Y9322D01*
X13253Y9362D02*
X13313D01*
X13183Y9292D02*
X13253Y9362D01*
X13363Y9882D02*
Y9972D01*
Y9882D02*
X13413Y9832D01*
X13483D01*
X13363Y9972D02*
X13373Y9962D01*
X13553D01*
X13623Y10032D01*
X9823Y8532D02*
X10073D01*
X10003D02*
Y8612D01*
X10103Y8452D02*
Y8502D01*
X10073Y8532D02*
X10103Y8502D01*
X9743Y8612D02*
X9823Y8532D01*
X9743Y8612D02*
Y8632D01*
X7383Y8977D02*
Y9112D01*
X7453Y9182D01*
Y9262D01*
X7483Y9292D01*
X7543D01*
X7263Y8862D02*
Y9072D01*
Y8862D02*
X7305Y8820D01*
X7383D01*
X7243Y9252D02*
Y9412D01*
X7063Y9172D02*
Y9212D01*
X7093Y9242D01*
X7233D01*
X7243Y9252D01*
X7223Y9432D02*
X7243Y9412D01*
X7143Y9432D02*
X7223D01*
X7103Y9472D02*
X7143Y9432D01*
X7103Y9472D02*
Y9632D01*
X6843Y9332D02*
X6883Y9292D01*
Y9172D02*
Y9292D01*
X11623Y10012D02*
Y10092D01*
X11723Y10192D01*
X11803D01*
X11943Y9652D02*
Y9732D01*
X12003Y9792D01*
Y9852D01*
X11923Y9932D02*
X12003Y9852D01*
X12993Y9542D02*
X13083Y9632D01*
Y9832D01*
X12913Y9692D02*
X13003D01*
X12873Y9652D02*
X12913Y9692D01*
X12843Y9652D02*
X12873D01*
X11763Y10312D02*
X11953D01*
X12003Y10262D01*
Y10172D02*
Y10262D01*
X11923Y10092D02*
X12003Y10172D01*
X11923Y9932D02*
Y10092D01*
X12133Y10412D02*
X12163D01*
X12103Y10382D02*
X12133Y10412D01*
X12093Y9792D02*
X12183D01*
X12043Y9742D02*
X12093Y9792D01*
X12043Y9652D02*
Y9742D01*
X12103Y9962D02*
Y10382D01*
X12183Y9792D02*
Y9882D01*
X12103Y9962D02*
X12183Y9882D01*
X12303Y9792D02*
X12363D01*
X12243Y9652D02*
Y9732D01*
X12343Y9652D02*
Y9702D01*
X12363Y9722D01*
X12453Y9792D02*
X12543D01*
X12433Y9772D02*
X12453Y9792D01*
X12433Y9732D02*
Y9772D01*
X12423Y9722D02*
X12433Y9732D01*
X12363Y9722D02*
X12423D01*
X12553Y9712D02*
X12603Y9762D01*
X12503Y9712D02*
X12553D01*
X12443Y9652D02*
X12503Y9712D01*
X12603Y10032D02*
X12673Y10102D01*
X12603Y9762D02*
Y10032D01*
X12543Y9652D02*
X12663Y9772D01*
Y10002D01*
X12723Y10062D01*
X12853D01*
X12883Y10092D01*
Y10192D01*
X12783Y10142D02*
Y10192D01*
X12743Y10102D02*
X12783Y10142D01*
X12673Y10102D02*
X12743D01*
X12783Y10292D02*
X12833Y10242D01*
X12923D01*
X12933Y10232D01*
Y10072D02*
Y10232D01*
X12873Y10012D02*
X12933Y10072D01*
X12753Y10012D02*
X12873D01*
X12703Y9962D02*
X12753Y10012D01*
X12703Y9712D02*
Y9962D01*
X12643Y9652D02*
X12703Y9712D01*
X11543Y9212D02*
Y9352D01*
Y9212D02*
X11623D01*
X11643Y9192D01*
X11143D02*
Y9212D01*
Y9192D02*
X11163Y9172D01*
X11143Y9132D02*
X11163Y9112D01*
Y9172D01*
X11643Y9352D02*
Y9402D01*
X11623Y9422D02*
X11643Y9402D01*
X11473Y9422D02*
X11623D01*
X11403Y9492D02*
X11473Y9422D01*
X11303Y9492D02*
X11403D01*
X11743Y9352D02*
Y9402D01*
X11673Y9472D02*
X11743Y9402D01*
X11493Y9472D02*
X11673D01*
X11413Y9552D02*
X11493Y9472D01*
X11413Y9552D02*
Y9592D01*
X11393Y9612D02*
X11413Y9592D01*
X11303Y9612D02*
X11393D01*
X10163Y9072D02*
Y9152D01*
X10143Y9172D02*
X10163Y9152D01*
X10143Y9172D02*
Y9252D01*
X10223D01*
X12343Y9292D02*
Y9352D01*
X12303Y9252D02*
X12343Y9292D01*
X12303Y9032D02*
Y9252D01*
X12443Y9292D02*
Y9352D01*
Y9292D02*
X12503Y9232D01*
Y9112D02*
X12523Y9092D01*
Y9032D02*
Y9092D01*
X12503Y9112D02*
Y9232D01*
X11163Y8712D02*
X11233D01*
X11273Y8672D01*
X11283D01*
X11603Y8392D02*
Y8482D01*
X11653Y8532D01*
X11823D01*
X11563Y8212D02*
X11823D01*
Y8362D01*
X11913Y8452D01*
X12003D01*
X11583Y10342D02*
X11643D01*
X7603Y10412D02*
X7703D01*
X7723Y10432D01*
X7943D01*
X8443Y10352D02*
X8513Y10422D01*
X7793Y10352D02*
X8443D01*
X7663Y10222D02*
X7793Y10352D01*
X7443Y10222D02*
X7663D01*
X11503Y10422D02*
X11583Y10342D01*
X11643D02*
X11713Y10412D01*
X11763D01*
X12353Y10192D02*
X12683D01*
X12253Y10092D02*
X12353Y10192D01*
X12253Y9792D02*
Y10092D01*
X12193Y9732D02*
X12253Y9792D01*
X12133Y9732D02*
X12193D01*
X12093Y9692D02*
X12133Y9732D01*
X12093Y9592D02*
Y9692D01*
X13523Y8522D02*
X13543Y8542D01*
X13143D02*
X13163Y8522D01*
X13523D01*
X13543Y8542D02*
Y8592D01*
X13143Y8542D02*
Y8592D01*
X13443Y8842D02*
X13483Y8802D01*
X13803Y8572D02*
Y8592D01*
X13743Y8652D02*
X13803Y8592D01*
X13463Y8652D02*
X13743D01*
X13443Y8632D02*
X13463Y8652D01*
X13443Y8592D02*
Y8632D01*
X13483Y8802D02*
X13553D01*
X13593Y8842D01*
Y8922D01*
X13633Y8962D01*
X13773D01*
X13803Y8932D01*
Y8892D02*
Y8932D01*
X13413Y8962D02*
X13443Y8932D01*
X13243Y8942D02*
X13263Y8962D01*
X13243Y8892D02*
Y8942D01*
X13883Y8542D02*
Y8952D01*
X13823Y8482D02*
X13883Y8542D01*
X13083Y8482D02*
X13823D01*
X13043Y8522D02*
X13083Y8482D01*
X13043Y8522D02*
Y8592D01*
X13593Y8992D02*
X13843D01*
X13883Y8952D01*
X13503Y9082D02*
X13593Y8992D01*
X13603Y9092D02*
X13653D01*
X13713Y9032D01*
X13863D01*
X13963Y8932D01*
X14173D01*
X14121Y9034D02*
X14261D01*
X14063Y9092D02*
X14121Y9034D01*
X13783Y9172D02*
X13863Y9092D01*
X13043Y9012D02*
Y9062D01*
X13073Y9092D01*
X13203D01*
Y9162D01*
X13283Y9242D01*
Y9292D01*
X13433Y9462D02*
Y9722D01*
X13483Y9772D01*
Y9832D01*
X13283Y9572D02*
Y9692D01*
Y9572D02*
X13503Y9352D01*
Y9082D02*
Y9352D01*
X13723Y9812D02*
Y9852D01*
Y9812D02*
X13763Y9772D01*
X13863D01*
Y9682D02*
Y9772D01*
X13723Y9622D02*
X13803D01*
X13703Y9602D02*
X13723Y9622D01*
X13703Y9552D02*
Y9602D01*
X13803Y9622D02*
X13863Y9682D01*
X10483Y9902D02*
Y9952D01*
Y9902D02*
X10523Y9862D01*
X10823D01*
X10903Y9782D01*
Y9612D02*
Y9782D01*
X10843Y9492D02*
X10903D01*
X10813Y9522D02*
X10843Y9492D01*
X10813Y9522D02*
Y9752D01*
X10753Y9812D02*
X10813Y9752D01*
X10433Y9812D02*
X10753D01*
X10383Y9862D02*
X10433Y9812D01*
X10383Y9862D02*
Y9952D01*
X10183D02*
Y10092D01*
X10283Y9952D02*
Y10092D01*
X12843Y8672D02*
X12903Y8612D01*
Y8522D02*
Y8612D01*
Y8522D02*
X13013Y8412D01*
X13883D01*
X14013Y8542D01*
Y8752D01*
X14103Y8842D01*
X14303D01*
X14353Y8892D01*
Y9302D01*
X14263Y9392D02*
X14353Y9302D01*
X13803Y9472D02*
X13883Y9392D01*
X13803Y9472D02*
Y9552D01*
X13603Y9252D02*
Y9292D01*
X13433Y9462D02*
X13603Y9292D01*
X14163Y9132D02*
Y9252D01*
X14023Y9332D02*
Y9392D01*
X11383Y8672D02*
X12843D01*
X13883Y9392D02*
X14263D01*
X13743Y9172D02*
X13783D01*
X13703Y9212D02*
X13743Y9172D01*
X13703Y9212D02*
Y9252D01*
X13863Y9092D02*
X14063D01*
D12*
X9397Y10472D02*
X9410Y10485D01*
X9393Y10472D02*
X9397D01*
X14030Y10485D02*
X14123Y10392D01*
X9410Y10485D02*
X14030D01*
X12893Y9012D02*
X13043D01*
X12743Y8862D02*
X12893Y9012D01*
X12243Y8862D02*
X12743D01*
X12193Y8912D02*
X12243Y8862D01*
X14123Y10082D02*
Y10392D01*
X9183Y8792D02*
X9223Y8832D01*
X9603Y8872D02*
Y9002D01*
X9633Y9032D02*
X9743D01*
X9603Y9002D02*
X9633Y9032D01*
X9563Y8832D02*
X9603Y8872D01*
X9223Y8832D02*
X9563D01*
X10203Y8522D02*
Y8612D01*
X10159Y8278D02*
X10163Y8282D01*
X7533Y9692D02*
X7953D01*
X8993Y10122D02*
X9033Y10082D01*
X8163Y10122D02*
X8993D01*
X8123Y10082D02*
X8163Y10122D01*
X8123Y9862D02*
Y10082D01*
X7953Y9692D02*
X8123Y9862D01*
X7473Y9632D02*
X7533Y9692D01*
X7403Y9632D02*
X7473D01*
X9893Y9952D02*
X9983D01*
X9873Y9932D02*
X9893Y9952D01*
X13983Y9942D02*
X14123Y10082D01*
X13643Y9942D02*
X13983D01*
X9303Y9652D02*
X9703Y9252D01*
X10343Y9002D02*
X10451Y9114D01*
X12143Y9292D02*
Y9352D01*
X12103Y9252D02*
X12143Y9292D01*
X12103Y9212D02*
Y9252D01*
X11863Y9212D02*
X12103D01*
X11761Y9114D02*
X11863Y9212D01*
X13043Y8892D02*
Y9012D01*
X12103Y9152D02*
Y9212D01*
Y9152D02*
X12193Y9062D01*
Y8912D02*
Y9062D01*
X10103Y9002D02*
X10343D01*
X10743Y8452D02*
Y8512D01*
X10683Y8392D02*
X10743Y8452D01*
X10683Y8302D02*
Y8392D01*
X10743Y8212D02*
X11163D01*
X13563Y9732D02*
Y9862D01*
X13503Y9672D02*
X13563Y9732D01*
X13503Y9552D02*
Y9672D01*
X13563Y9862D02*
X13643Y9942D01*
X9492Y9953D02*
X9513Y9932D01*
X9803D01*
X8943Y9952D02*
X8953Y9962D01*
X10103Y8912D02*
Y9002D01*
X10093Y9012D02*
X10103Y9002D01*
X10093Y9012D02*
Y9072D01*
X9993Y9172D02*
X10093Y9072D01*
X9993Y9172D02*
Y9192D01*
X9933Y9252D02*
X9993Y9192D01*
X9303Y9652D02*
Y9953D01*
X9033D02*
Y10082D01*
X9703Y9252D02*
X9933D01*
X10451Y9114D02*
X11761D01*
D13*
X7623Y8132D02*
X7993D01*
X8943Y8932D02*
X9203D01*
X8853Y8842D02*
X8943Y8932D01*
X8853Y8172D02*
Y8842D01*
X8703Y8022D02*
X8853Y8172D01*
X8103Y8022D02*
X8703D01*
X7993Y8132D02*
X8103Y8022D01*
X10083Y9652D02*
Y9692D01*
X10043Y9732D02*
X10083Y9692D01*
X9803Y9732D02*
X10043D01*
X11123Y10322D02*
X11693Y9752D01*
X8563Y10322D02*
X11123D01*
X11943Y9532D02*
X12003Y9472D01*
X11773Y9532D02*
X11943D01*
X11693Y9612D02*
X11773Y9532D01*
X11693Y9612D02*
Y9752D01*
X8533Y10292D02*
X8563Y10322D01*
X7853Y10292D02*
X8533D01*
X7803Y10242D02*
X7853Y10292D01*
X7803Y9892D02*
Y10242D01*
X14123Y10082D02*
X14263Y9942D01*
Y9772D02*
Y9942D01*
X12143Y9352D02*
Y9442D01*
X12183Y9482D01*
X12343D01*
X11143Y8432D02*
Y8512D01*
Y8432D02*
X11203Y8372D01*
X11283D01*
X11383D02*
X11433D01*
X11453Y8392D01*
X10203Y8612D02*
Y8652D01*
X10243Y8692D01*
X10383D01*
X10003Y8872D02*
Y8912D01*
Y8872D02*
X10053Y8822D01*
X10353D01*
X10383Y8852D01*
X7403Y9732D02*
Y9892D01*
X13643Y8822D02*
Y8892D01*
X13593Y8772D02*
X13643Y8822D01*
X11293Y8852D02*
X11373Y8772D01*
X10783Y8852D02*
X11293D01*
X13343Y8772D02*
Y8892D01*
X11373Y8772D02*
X13593D01*
X9783Y9472D02*
Y9582D01*
X9853Y9652D01*
X9983D01*
Y9472D02*
Y9522D01*
X10033Y9572D01*
X10163D01*
X10183Y9592D01*
Y9652D01*
X10143Y9472D02*
X10223D01*
X10283Y9532D01*
Y9652D01*
X10343Y9472D02*
Y9542D01*
X10383Y9582D01*
Y9652D01*
X10503Y9472D02*
Y9552D01*
X10483Y9572D02*
X10503Y9552D01*
X10483Y9572D02*
Y9652D01*
X11453Y8392D02*
X11533D01*
X10453Y5923D02*
X10452Y5932D01*
X10449Y5942D01*
X10445Y5950D01*
X10439Y5957D01*
X10431Y5964D01*
X10423Y5968D01*
X10414Y5971D01*
X10404Y5972D01*
X9303D02*
X9293Y5971D01*
X9284Y5968D01*
X9275Y5963D01*
X9268Y5957D01*
X9262Y5950D01*
X9257Y5941D01*
X9254Y5932D01*
X9253Y5922D01*
X10403Y6022D02*
X10413Y6023D01*
X10422Y6026D01*
X10431Y6030D01*
X10438Y6036D01*
X10445Y6044D01*
X10449Y6053D01*
X10452Y6062D01*
X10453Y6072D01*
X9253D02*
X9254Y6062D01*
X9257Y6053D01*
X9262Y6044D01*
X9268Y6036D01*
X9275Y6030D01*
X9284Y6026D01*
X9293Y6023D01*
X9303Y6022D01*
X10453Y6648D02*
X10452Y6658D01*
X10449Y6667D01*
X10445Y6676D01*
X10438Y6683D01*
X10430Y6689D01*
X10422Y6694D01*
X10412Y6696D01*
X10402Y6697D01*
X10403Y5747D02*
X10413Y5748D01*
X10422Y5751D01*
X10431Y5755D01*
X10438Y5761D01*
X10445Y5769D01*
X10449Y5778D01*
X10452Y5787D01*
X10453Y5797D01*
X10453Y5648D02*
X10452Y5657D01*
X10449Y5667D01*
X10444Y5675D01*
X10438Y5682D01*
X10431Y5689D01*
X10422Y5693D01*
X10413Y5696D01*
X10403Y5697D01*
Y5497D02*
X10413Y5498D01*
X10422Y5501D01*
X10431Y5505D01*
X10438Y5511D01*
X10445Y5519D01*
X10449Y5528D01*
X10452Y5537D01*
X10453Y5547D01*
X9153Y5747D02*
X9163Y5748D01*
X9172Y5751D01*
X9181Y5755D01*
X9188Y5761D01*
X9195Y5769D01*
X9199Y5778D01*
X9202Y5787D01*
X9203Y5797D01*
X9253Y5796D02*
X9254Y5786D01*
X9257Y5777D01*
X9262Y5768D01*
X9268Y5761D01*
X9275Y5755D01*
X9284Y5750D01*
X9293Y5748D01*
X9303Y5747D01*
X9203Y5923D02*
X9202Y5932D01*
X9199Y5942D01*
X9195Y5950D01*
X9189Y5957D01*
X9181Y5964D01*
X9173Y5968D01*
X9164Y5971D01*
X9154Y5972D01*
X6153Y5547D02*
X6154Y5537D01*
X6157Y5528D01*
X6161Y5519D01*
X6167Y5512D01*
X6175Y5506D01*
X6183Y5501D01*
X6193Y5498D01*
X6202Y5497D01*
X9154Y6022D02*
X9164Y6023D01*
X9173Y6026D01*
X9181Y6031D01*
X9189Y6037D01*
X9195Y6044D01*
X9199Y6053D01*
X9202Y6062D01*
X9203Y6072D01*
X6203Y5697D02*
X6193Y5696D01*
X6184Y5693D01*
X6175Y5688D01*
X6168Y5682D01*
X6162Y5675D01*
X6157Y5666D01*
X6154Y5657D01*
X6153Y5647D01*
X9203Y6397D02*
X9202Y6407D01*
X9199Y6416D01*
X9195Y6425D01*
X9188Y6432D01*
X9181Y6438D01*
X9172Y6443D01*
X9163Y6446D01*
X9153Y6447D01*
Y6497D02*
X9163Y6498D01*
X9172Y6501D01*
X9181Y6505D01*
X9188Y6511D01*
X9195Y6519D01*
X9199Y6528D01*
X9202Y6537D01*
X9203Y6547D01*
X9303Y6697D02*
X9293Y6696D01*
X9284Y6693D01*
X9275Y6688D01*
X9268Y6682D01*
X9262Y6675D01*
X9257Y6666D01*
X9254Y6657D01*
X9253Y6647D01*
X9203D02*
X9202Y6657D01*
X9199Y6666D01*
X9195Y6675D01*
X9188Y6682D01*
X9181Y6688D01*
X9172Y6693D01*
X9163Y6696D01*
X9153Y6697D01*
X6203D02*
X6193Y6696D01*
X6184Y6693D01*
X6175Y6688D01*
X6168Y6682D01*
X6162Y6675D01*
X6157Y6666D01*
X6154Y6657D01*
X6153Y6647D01*
Y6547D02*
X6154Y6537D01*
X6157Y6528D01*
X6162Y6519D01*
X6168Y6511D01*
X6175Y6505D01*
X6184Y6501D01*
X6193Y6498D01*
X6203Y6497D01*
Y6447D02*
X6193Y6446D01*
X6184Y6443D01*
X6175Y6438D01*
X6168Y6432D01*
X6162Y6425D01*
X6157Y6416D01*
X6154Y6407D01*
X6153Y6397D01*
Y6172D02*
X6154Y6162D01*
X6157Y6153D01*
X6162Y6144D01*
X6168Y6136D01*
X6175Y6130D01*
X6184Y6126D01*
X6193Y6123D01*
X6203Y6122D01*
Y6072D02*
X6193Y6071D01*
X6184Y6068D01*
X6175Y6063D01*
X6168Y6057D01*
X6162Y6050D01*
X6157Y6041D01*
X6154Y6032D01*
X6153Y6022D01*
Y5797D02*
X6154Y5787D01*
X6157Y5778D01*
X6161Y5769D01*
X6167Y5762D01*
X6175Y5756D01*
X6183Y5751D01*
X6193Y5748D01*
X6202Y5747D01*
X7103Y6447D02*
X7093Y6446D01*
X7084Y6443D01*
X7075Y6438D01*
X7068Y6432D01*
X7062Y6425D01*
X7057Y6416D01*
X7054Y6407D01*
X7053Y6397D01*
X7103Y5972D02*
X7093Y5971D01*
X7084Y5968D01*
X7075Y5963D01*
X7068Y5957D01*
X7062Y5950D01*
X7057Y5941D01*
X7054Y5932D01*
X7053Y5922D01*
X8851Y5972D02*
X8841Y5971D01*
X8832Y5968D01*
X8824Y5963D01*
X8816Y5957D01*
X8810Y5949D01*
X8806Y5940D01*
X8804Y5931D01*
X8803Y5921D01*
X8803Y5798D02*
X8804Y5788D01*
X8807Y5778D01*
X8812Y5770D01*
X8818Y5762D01*
X8825Y5756D01*
X8834Y5751D01*
X8843Y5748D01*
X8853Y5747D01*
X8704Y5747D02*
X8714Y5748D01*
X8723Y5751D01*
X8732Y5755D01*
X8739Y5761D01*
X8745Y5769D01*
X8750Y5778D01*
X8752Y5787D01*
X8753Y5797D01*
X8753Y5923D02*
X8752Y5932D01*
X8749Y5942D01*
X8745Y5950D01*
X8739Y5957D01*
X8731Y5964D01*
X8723Y5968D01*
X8714Y5971D01*
X8704Y5972D01*
X6954Y5747D02*
X6964Y5748D01*
X6973Y5751D01*
X6981Y5755D01*
X6989Y5761D01*
X6995Y5769D01*
X6999Y5777D01*
X7002Y5786D01*
X7003Y5796D01*
X7053D02*
X7054Y5786D01*
X7057Y5777D01*
X7061Y5769D01*
X7067Y5761D01*
X7075Y5755D01*
X7083Y5751D01*
X7093Y5748D01*
X7102Y5747D01*
X7053Y6071D02*
X7054Y6061D01*
X7057Y6052D01*
X7061Y6044D01*
X7067Y6036D01*
X7075Y6030D01*
X7083Y6026D01*
X7093Y6023D01*
X7102Y6022D01*
X7003Y6023D02*
X7002Y6033D01*
X6999Y6042D01*
X6995Y6051D01*
X6988Y6058D01*
X6980Y6064D01*
X6972Y6069D01*
X6962Y6071D01*
X6952Y6072D01*
X6955Y6122D02*
X6964Y6123D01*
X6973Y6125D01*
X6982Y6130D01*
X6989Y6136D01*
X6995Y6143D01*
X6999Y6151D01*
X7002Y6160D01*
X7003Y6170D01*
Y6398D02*
X7002Y6407D01*
X6999Y6417D01*
X6995Y6425D01*
X6989Y6432D01*
X6981Y6439D01*
X6973Y6443D01*
X6964Y6446D01*
X6954Y6447D01*
X9853Y5697D02*
X9843Y5696D01*
X9834Y5693D01*
X9825Y5688D01*
X9818Y5682D01*
X9812Y5675D01*
X9807Y5666D01*
X9804Y5657D01*
X9803Y5647D01*
Y5546D02*
X9804Y5536D01*
X9807Y5527D01*
X9812Y5518D01*
X9818Y5511D01*
X9825Y5505D01*
X9834Y5500D01*
X9843Y5498D01*
X9853Y5497D01*
X9704Y5497D02*
X9714Y5498D01*
X9723Y5500D01*
X9732Y5505D01*
X9739Y5511D01*
X9745Y5519D01*
X9750Y5527D01*
X9752Y5537D01*
X9753Y5546D01*
X9753Y5647D02*
X9752Y5657D01*
X9749Y5666D01*
X9745Y5675D01*
X9738Y5682D01*
X9731Y5688D01*
X9722Y5693D01*
X9713Y5696D01*
X9703Y5697D01*
X7978Y5547D02*
X7979Y5537D01*
X7982Y5528D01*
X7986Y5519D01*
X7992Y5512D01*
X8000Y5506D01*
X8008Y5501D01*
X8018Y5498D01*
X8027Y5497D01*
X8028Y5697D02*
X8018Y5696D01*
X8009Y5693D01*
X8000Y5688D01*
X7993Y5682D01*
X7987Y5675D01*
X7982Y5666D01*
X7979Y5657D01*
X7978Y5647D01*
X7879Y5497D02*
X7889Y5498D01*
X7898Y5500D01*
X7907Y5505D01*
X7914Y5511D01*
X7920Y5519D01*
X7925Y5527D01*
X7927Y5537D01*
X7928Y5546D01*
X7928Y5647D02*
X7927Y5657D01*
X7924Y5666D01*
X7920Y5675D01*
X7913Y5682D01*
X7906Y5688D01*
X7897Y5693D01*
X7888Y5696D01*
X7878Y5697D01*
X8028Y5497D02*
X9703D01*
X6203D02*
X7878D01*
X6203Y5697D02*
X7878D01*
X8028D02*
X9703D01*
X9853Y5497D02*
X10403D01*
X9853Y5697D02*
X10403D01*
X6203Y6697D02*
X9153D01*
X6203Y5747D02*
X6953D01*
X6203Y6072D02*
X6953D01*
X6203Y6122D02*
X6953D01*
X6203Y6447D02*
X6953D01*
X6203Y6497D02*
X9153D01*
X7103Y6447D02*
X9153D01*
X7103Y5972D02*
X8703D01*
X7103Y5747D02*
X8703D01*
X8853D02*
X9153D01*
X8853Y5972D02*
X9153D01*
X9303Y5747D02*
X10403D01*
X9303Y6697D02*
X10403D01*
X7103Y6022D02*
X9153D01*
X9303D02*
X10403D01*
X9303Y5972D02*
X10403D01*
X7928Y5547D02*
Y5647D01*
X7978Y5547D02*
Y5647D01*
X9753Y5547D02*
Y5647D01*
X9803Y5547D02*
Y5647D01*
X6153Y5797D02*
Y6022D01*
X7003Y5797D02*
Y6022D01*
X6153Y6172D02*
Y6397D01*
X7003Y6172D02*
Y6397D01*
X6153Y6547D02*
Y6647D01*
X9203Y6547D02*
Y6647D01*
Y6072D02*
Y6397D01*
X7053Y6072D02*
Y6397D01*
X8753Y5797D02*
Y5922D01*
X7053Y5797D02*
Y5922D01*
X8803Y5797D02*
Y5922D01*
X9203Y5797D02*
Y5922D01*
X10453Y5547D02*
Y5647D01*
Y5797D02*
Y5897D01*
X6153Y5547D02*
Y5647D01*
X9253Y6072D02*
Y6647D01*
X10453Y6072D02*
Y6647D01*
X9253Y5797D02*
Y5922D01*
D14*
X7193Y8352D02*
X7543D01*
X6883Y8662D02*
Y9172D01*
X9803Y9932D02*
Y10072D01*
X9783Y10092D02*
X9803Y10072D01*
X9783Y10092D02*
Y10132D01*
X8103Y9432D02*
X8383D01*
X7883Y9472D02*
X8063D01*
X8383Y9432D02*
X8443Y9372D01*
Y8792D02*
Y9372D01*
X8383Y8732D02*
X8443Y8792D01*
X8283Y8732D02*
X8383D01*
X7843Y8782D02*
Y8892D01*
Y8782D02*
X8283Y8342D01*
Y8132D02*
Y8342D01*
Y8132D02*
X8383D01*
X8063Y9472D02*
X8103Y9432D01*
X7833Y9422D02*
X7883Y9472D01*
X7833Y9082D02*
Y9422D01*
X7783Y9032D02*
X7833Y9082D01*
X7663Y9152D02*
X7783Y9032D01*
X7543Y9152D02*
X7663D01*
X7988Y9037D02*
Y9147D01*
X7983Y9152D02*
X7988Y9147D01*
X7983Y9152D02*
Y9222D01*
X7988Y9037D02*
X8283D01*
X7843Y8892D02*
X7988Y9037D01*
X7723Y8892D02*
X7843D01*
X7663Y8952D02*
X7723Y8892D01*
X7563Y8952D02*
X7663D01*
X7559Y8508D02*
X7563Y8512D01*
X6973Y8822D02*
Y9172D01*
Y8822D02*
X7131Y8664D01*
X7383D01*
X6883Y8662D02*
X7193Y8352D01*
X7543D02*
X7563Y8332D01*
X7783D01*
X8863Y9752D02*
X8943D01*
X8843Y9732D02*
X8863Y9752D01*
X8843Y9432D02*
Y9732D01*
X8678Y9432D02*
X8963D01*
X7983Y9222D02*
Y9297D01*
X8944Y9953D02*
X9492D01*
D15*
X7383Y8508D02*
X7559D01*
D16*
X10127Y5555D02*
X10123Y5551D01*
X10127Y5547D01*
X10132Y5551D01*
X10127Y5555D01*
X10216Y5615D02*
X10211Y5624D01*
X10203Y5633D01*
X10194Y5637D01*
X10177D01*
X10169Y5633D01*
X10160Y5624D01*
X10156Y5615D01*
X10151Y5603D01*
Y5581D01*
X10156Y5568D01*
X10160Y5560D01*
X10169Y5551D01*
X10177Y5547D01*
X10194D01*
X10203Y5551D01*
X10211Y5560D01*
X10216Y5568D01*
Y5581D01*
X10194D02*
X10216D01*
X10266Y5637D02*
Y5547D01*
X10236Y5637D02*
X10296D01*
X10307D02*
Y5547D01*
X10358D01*
X5130Y11499D02*
X5125Y11507D01*
X5112Y11512D01*
X5104D01*
X5091Y11507D01*
X5082Y11495D01*
X5078Y11473D01*
Y11452D01*
X5082Y11435D01*
X5091Y11426D01*
X5104Y11422D01*
X5108D01*
X5121Y11426D01*
X5130Y11435D01*
X5134Y11448D01*
Y11452D01*
X5130Y11465D01*
X5121Y11473D01*
X5108Y11478D01*
X5104D01*
X5091Y11473D01*
X5082Y11465D01*
X5078Y11452D01*
X5158Y11430D02*
X5154Y11426D01*
X5158Y11422D01*
X5162Y11426D01*
X5158Y11430D01*
X5208Y11512D02*
X5195Y11507D01*
X5186Y11495D01*
X5182Y11473D01*
Y11460D01*
X5186Y11439D01*
X5195Y11426D01*
X5208Y11422D01*
X5216D01*
X5229Y11426D01*
X5238Y11439D01*
X5242Y11460D01*
Y11473D01*
X5238Y11495D01*
X5229Y11507D01*
X5216Y11512D01*
X5208D01*
X5121Y9512D02*
X5078Y9452D01*
X5142D01*
X5121Y9512D02*
Y9422D01*
X5163Y9430D02*
X5158Y9426D01*
X5163Y9422D01*
X5167Y9426D01*
X5163Y9430D01*
X5212Y9512D02*
X5199Y9507D01*
X5191Y9495D01*
X5187Y9473D01*
Y9460D01*
X5191Y9439D01*
X5199Y9426D01*
X5212Y9422D01*
X5221D01*
X5234Y9426D01*
X5242Y9439D01*
X5247Y9460D01*
Y9473D01*
X5242Y9495D01*
X5234Y9507D01*
X5221Y9512D01*
X5212D01*
X5082Y7490D02*
Y7495D01*
X5087Y7503D01*
X5091Y7508D01*
X5100Y7512D01*
X5117D01*
X5125Y7508D01*
X5130Y7503D01*
X5134Y7495D01*
Y7486D01*
X5130Y7478D01*
X5121Y7465D01*
X5078Y7422D01*
X5138D01*
X5163Y7430D02*
X5158Y7426D01*
X5163Y7422D01*
X5167Y7426D01*
X5163Y7430D01*
X5212Y7512D02*
X5199Y7508D01*
X5191Y7495D01*
X5187Y7473D01*
Y7460D01*
X5191Y7439D01*
X5199Y7426D01*
X5212Y7422D01*
X5221D01*
X5234Y7426D01*
X5242Y7439D01*
X5247Y7460D01*
Y7473D01*
X5242Y7495D01*
X5234Y7508D01*
X5221Y7512D01*
X5212D01*
X5216Y5512D02*
X5203Y5508D01*
X5195Y5495D01*
X5191Y5473D01*
Y5460D01*
X5195Y5439D01*
X5203Y5426D01*
X5216Y5422D01*
X5225D01*
X5238Y5426D01*
X5246Y5439D01*
X5251Y5460D01*
Y5473D01*
X5246Y5495D01*
X5238Y5508D01*
X5225Y5512D01*
X5216D01*
X5103Y6495D02*
X5112Y6499D01*
X5125Y6512D01*
Y6422D01*
X5173Y6430D02*
X5169Y6426D01*
X5173Y6422D01*
X5178Y6426D01*
X5173Y6430D01*
X5223Y6512D02*
X5210Y6508D01*
X5202Y6495D01*
X5197Y6473D01*
Y6460D01*
X5202Y6439D01*
X5210Y6426D01*
X5223Y6422D01*
X5232D01*
X5245Y6426D01*
X5253Y6439D01*
X5257Y6460D01*
Y6473D01*
X5253Y6495D01*
X5245Y6508D01*
X5232Y6512D01*
X5223D01*
X5087Y8512D02*
X5134D01*
X5108Y8478D01*
X5121D01*
X5130Y8473D01*
X5134Y8469D01*
X5138Y8456D01*
Y8448D01*
X5134Y8435D01*
X5125Y8426D01*
X5112Y8422D01*
X5100D01*
X5087Y8426D01*
X5082Y8430D01*
X5078Y8439D01*
X5163Y8430D02*
X5158Y8426D01*
X5163Y8422D01*
X5167Y8426D01*
X5163Y8430D01*
X5212Y8512D02*
X5199Y8507D01*
X5191Y8495D01*
X5187Y8473D01*
Y8460D01*
X5191Y8439D01*
X5199Y8426D01*
X5212Y8422D01*
X5221D01*
X5234Y8426D01*
X5242Y8439D01*
X5247Y8460D01*
Y8473D01*
X5242Y8495D01*
X5234Y8507D01*
X5221Y8512D01*
X5212D01*
X5130Y10512D02*
X5087D01*
X5082Y10473D01*
X5087Y10478D01*
X5100Y10482D01*
X5112D01*
X5125Y10478D01*
X5134Y10469D01*
X5138Y10456D01*
Y10448D01*
X5134Y10435D01*
X5125Y10426D01*
X5112Y10422D01*
X5100D01*
X5087Y10426D01*
X5082Y10430D01*
X5078Y10439D01*
X5163Y10430D02*
X5158Y10426D01*
X5163Y10422D01*
X5167Y10426D01*
X5163Y10430D01*
X5212Y10512D02*
X5199Y10507D01*
X5191Y10495D01*
X5187Y10473D01*
Y10460D01*
X5191Y10439D01*
X5199Y10426D01*
X5212Y10422D01*
X5221D01*
X5234Y10426D01*
X5242Y10439D01*
X5247Y10460D01*
Y10473D01*
X5242Y10495D01*
X5234Y10507D01*
X5221Y10512D01*
X5212D01*
X12843Y4862D02*
X12753Y4905D01*
X12843Y4922D02*
Y4862D01*
X12762Y4837D02*
X12757Y4842D01*
X12753Y4837D01*
X12757Y4833D01*
X12762Y4837D01*
X12843Y4788D02*
X12839Y4801D01*
X12826Y4809D01*
X12805Y4813D01*
X12792D01*
X12770Y4809D01*
X12757Y4801D01*
X12753Y4788D01*
Y4779D01*
X12757Y4766D01*
X12770Y4758D01*
X12792Y4753D01*
X12805D01*
X12826Y4758D01*
X12839Y4766D01*
X12843Y4779D01*
Y4788D01*
X10843Y4870D02*
Y4913D01*
X10805Y4918D01*
X10809Y4913D01*
X10813Y4900D01*
Y4888D01*
X10809Y4875D01*
X10800Y4866D01*
X10787Y4862D01*
X10779D01*
X10766Y4866D01*
X10757Y4875D01*
X10753Y4888D01*
Y4900D01*
X10757Y4913D01*
X10762Y4918D01*
X10770Y4922D01*
X10762Y4837D02*
X10757Y4842D01*
X10753Y4837D01*
X10757Y4833D01*
X10762Y4837D01*
X10843Y4788D02*
X10839Y4801D01*
X10826Y4809D01*
X10805Y4813D01*
X10792D01*
X10770Y4809D01*
X10757Y4801D01*
X10753Y4788D01*
Y4779D01*
X10757Y4766D01*
X10770Y4758D01*
X10792Y4753D01*
X10805D01*
X10826Y4758D01*
X10839Y4766D01*
X10843Y4779D01*
Y4788D01*
X8843Y4913D02*
Y4866D01*
X8809Y4892D01*
Y4879D01*
X8805Y4870D01*
X8800Y4866D01*
X8787Y4862D01*
X8779D01*
X8766Y4866D01*
X8757Y4875D01*
X8753Y4888D01*
Y4900D01*
X8757Y4913D01*
X8762Y4918D01*
X8770Y4922D01*
X8762Y4837D02*
X8757Y4842D01*
X8753Y4837D01*
X8757Y4833D01*
X8762Y4837D01*
X8843Y4788D02*
X8839Y4801D01*
X8826Y4809D01*
X8805Y4813D01*
X8792D01*
X8770Y4809D01*
X8757Y4801D01*
X8753Y4788D01*
Y4779D01*
X8757Y4766D01*
X8770Y4758D01*
X8792Y4753D01*
X8805D01*
X8826Y4758D01*
X8839Y4766D01*
X8843Y4779D01*
Y4788D01*
X6826Y4922D02*
X6830Y4913D01*
X6843Y4900D01*
X6753D01*
X6762Y4852D02*
X6757Y4856D01*
X6753Y4852D01*
X6757Y4847D01*
X6762Y4852D01*
X6843Y4802D02*
X6839Y4815D01*
X6826Y4823D01*
X6805Y4828D01*
X6792D01*
X6770Y4823D01*
X6757Y4815D01*
X6753Y4802D01*
Y4793D01*
X6757Y4780D01*
X6770Y4772D01*
X6792Y4768D01*
X6805D01*
X6826Y4772D01*
X6839Y4780D01*
X6843Y4793D01*
Y4802D01*
X5843Y4896D02*
X5839Y4909D01*
X5826Y4918D01*
X5805Y4922D01*
X5792D01*
X5770Y4918D01*
X5757Y4909D01*
X5753Y4896D01*
Y4888D01*
X5757Y4875D01*
X5770Y4866D01*
X5792Y4862D01*
X5805D01*
X5826Y4866D01*
X5839Y4875D01*
X5843Y4888D01*
Y4896D01*
X7822Y4918D02*
X7826D01*
X7835Y4913D01*
X7839Y4909D01*
X7843Y4900D01*
Y4883D01*
X7839Y4875D01*
X7835Y4870D01*
X7826Y4866D01*
X7817D01*
X7809Y4870D01*
X7796Y4879D01*
X7753Y4922D01*
Y4862D01*
X7762Y4837D02*
X7757Y4842D01*
X7753Y4837D01*
X7757Y4833D01*
X7762Y4837D01*
X7843Y4788D02*
X7839Y4801D01*
X7826Y4809D01*
X7805Y4813D01*
X7792D01*
X7770Y4809D01*
X7757Y4801D01*
X7753Y4788D01*
Y4779D01*
X7757Y4766D01*
X7770Y4758D01*
X7792Y4753D01*
X7805D01*
X7826Y4758D01*
X7839Y4766D01*
X7843Y4779D01*
Y4788D01*
X9843Y4879D02*
X9783Y4922D01*
Y4858D01*
X9843Y4879D02*
X9753D01*
X9762Y4837D02*
X9757Y4842D01*
X9753Y4837D01*
X9757Y4833D01*
X9762Y4837D01*
X9843Y4788D02*
X9839Y4801D01*
X9826Y4809D01*
X9805Y4813D01*
X9792D01*
X9770Y4809D01*
X9757Y4801D01*
X9753Y4788D01*
Y4779D01*
X9757Y4766D01*
X9770Y4758D01*
X9792Y4753D01*
X9805D01*
X9826Y4758D01*
X9839Y4766D01*
X9843Y4779D01*
Y4788D01*
X11830Y4870D02*
X11839Y4875D01*
X11843Y4888D01*
Y4896D01*
X11839Y4909D01*
X11826Y4918D01*
X11805Y4922D01*
X11783D01*
X11766Y4918D01*
X11757Y4909D01*
X11753Y4896D01*
Y4892D01*
X11757Y4879D01*
X11766Y4870D01*
X11779Y4866D01*
X11783D01*
X11796Y4870D01*
X11805Y4879D01*
X11809Y4892D01*
Y4896D01*
X11805Y4909D01*
X11796Y4918D01*
X11783Y4922D01*
X11762Y4842D02*
X11757Y4846D01*
X11753Y4842D01*
X11757Y4838D01*
X11762Y4842D01*
X11843Y4792D02*
X11839Y4805D01*
X11826Y4814D01*
X11805Y4818D01*
X11792D01*
X11770Y4814D01*
X11757Y4805D01*
X11753Y4792D01*
Y4784D01*
X11757Y4771D01*
X11770Y4762D01*
X11792Y4758D01*
X11805D01*
X11826Y4762D01*
X11839Y4771D01*
X11843Y4784D01*
Y4792D01*
X5616Y5212D02*
X5676Y5122D01*
Y5212D02*
X5616Y5122D01*
X5543Y5334D02*
X5500Y5300D01*
X5453D01*
X5543Y5266D02*
X5500Y5300D01*
X9528Y5882D02*
X9537Y5886D01*
X9550Y5899D01*
Y5809D01*
X9620Y5899D02*
X9607Y5895D01*
X9598Y5882D01*
X9594Y5861D01*
Y5848D01*
X9598Y5826D01*
X9607Y5814D01*
X9620Y5809D01*
X9628D01*
X9641Y5814D01*
X9650Y5826D01*
X9654Y5848D01*
Y5861D01*
X9650Y5882D01*
X9641Y5895D01*
X9628Y5899D01*
X9620D01*
X9674Y5848D02*
X9751D01*
X9821Y5899D02*
Y5831D01*
X9816Y5818D01*
X9812Y5814D01*
X9804Y5809D01*
X9795D01*
X9786Y5814D01*
X9782Y5818D01*
X9778Y5831D01*
Y5839D01*
X9844Y5869D02*
Y5826D01*
X9848Y5814D01*
X9857Y5809D01*
X9870D01*
X9878Y5814D01*
X9891Y5826D01*
Y5869D02*
Y5809D01*
X9915Y5869D02*
Y5809D01*
Y5852D02*
X9927Y5865D01*
X9936Y5869D01*
X9949D01*
X9957Y5865D01*
X9962Y5852D01*
Y5809D01*
X9985Y5848D02*
X10062D01*
X10093Y5878D02*
Y5882D01*
X10098Y5891D01*
X10102Y5895D01*
X10110Y5899D01*
X10128D01*
X10136Y5895D01*
X10140Y5891D01*
X10145Y5882D01*
Y5874D01*
X10140Y5865D01*
X10132Y5852D01*
X10089Y5809D01*
X10149D01*
X10195Y5899D02*
X10182Y5895D01*
X10173Y5882D01*
X10169Y5861D01*
Y5848D01*
X10173Y5826D01*
X10182Y5814D01*
X10195Y5809D01*
X10203D01*
X10216Y5814D01*
X10225Y5826D01*
X10229Y5848D01*
Y5861D01*
X10225Y5882D01*
X10216Y5895D01*
X10203Y5899D01*
X10195D01*
X10275D02*
X10262Y5895D01*
X10254Y5882D01*
X10249Y5861D01*
Y5848D01*
X10254Y5826D01*
X10262Y5814D01*
X10275Y5809D01*
X10284D01*
X10296Y5814D01*
X10305Y5826D01*
X10309Y5848D01*
Y5861D01*
X10305Y5882D01*
X10296Y5895D01*
X10284Y5899D01*
X10275D01*
X10385Y5869D02*
X10381Y5856D01*
X10372Y5848D01*
X10359Y5844D01*
X10355D01*
X10342Y5848D01*
X10334Y5856D01*
X10329Y5869D01*
Y5874D01*
X10334Y5886D01*
X10342Y5895D01*
X10355Y5899D01*
X10359D01*
X10372Y5895D01*
X10381Y5886D01*
X10385Y5869D01*
Y5848D01*
X10381Y5826D01*
X10372Y5814D01*
X10359Y5809D01*
X10351D01*
X10338Y5814D01*
X10334Y5822D01*
X9623Y6277D02*
Y6187D01*
X9683Y6277D02*
Y6187D01*
X9623Y6234D02*
X9683D01*
X9764Y6277D02*
X9708D01*
Y6187D01*
X9764D01*
X9708Y6234D02*
X9742D01*
X9779Y6277D02*
Y6187D01*
Y6277D02*
X9817D01*
X9830Y6273D01*
X9834Y6268D01*
X9839Y6260D01*
Y6251D01*
X9834Y6243D01*
X9830Y6238D01*
X9817Y6234D01*
X9779D01*
X9809D02*
X9839Y6187D01*
X9914Y6277D02*
X9859D01*
Y6187D01*
X9914D01*
X9859Y6234D02*
X9893D01*
X9623Y6437D02*
Y6347D01*
X9675D01*
X9710Y6437D02*
X9702Y6432D01*
X9693Y6424D01*
X9689Y6415D01*
X9684Y6403D01*
Y6381D01*
X9689Y6368D01*
X9693Y6360D01*
X9702Y6351D01*
X9710Y6347D01*
X9727D01*
X9736Y6351D01*
X9744Y6360D01*
X9749Y6368D01*
X9753Y6381D01*
Y6403D01*
X9749Y6415D01*
X9744Y6424D01*
X9736Y6432D01*
X9727Y6437D01*
X9710D01*
X9838Y6415D02*
X9834Y6424D01*
X9825Y6432D01*
X9817Y6437D01*
X9800D01*
X9791Y6432D01*
X9783Y6424D01*
X9778Y6415D01*
X9774Y6403D01*
Y6381D01*
X9778Y6368D01*
X9783Y6360D01*
X9791Y6351D01*
X9800Y6347D01*
X9817D01*
X9825Y6351D01*
X9834Y6360D01*
X9838Y6368D01*
Y6381D01*
X9817D02*
X9838D01*
X9884Y6437D02*
X9876Y6432D01*
X9867Y6424D01*
X9863Y6415D01*
X9859Y6403D01*
Y6381D01*
X9863Y6368D01*
X9867Y6360D01*
X9876Y6351D01*
X9884Y6347D01*
X9902D01*
X9910Y6351D01*
X9919Y6360D01*
X9923Y6368D01*
X9927Y6381D01*
Y6403D01*
X9923Y6415D01*
X9919Y6424D01*
X9910Y6432D01*
X9902Y6437D01*
X9884D01*
X9623Y6530D02*
X9662D01*
X9675Y6534D01*
X9679Y6538D01*
X9683Y6547D01*
Y6560D01*
X9679Y6568D01*
X9675Y6573D01*
X9662Y6577D01*
X9623D01*
Y6487D01*
X9703Y6577D02*
Y6487D01*
X9755D01*
X9833D02*
X9799Y6577D01*
X9765Y6487D01*
X9777Y6517D02*
X9820D01*
X9918Y6555D02*
X9914Y6564D01*
X9905Y6573D01*
X9897Y6577D01*
X9880D01*
X9871Y6573D01*
X9863Y6564D01*
X9858Y6555D01*
X9854Y6543D01*
Y6521D01*
X9858Y6508D01*
X9863Y6500D01*
X9871Y6491D01*
X9880Y6487D01*
X9897D01*
X9905Y6491D01*
X9914Y6500D01*
X9918Y6508D01*
X9999Y6577D02*
X9944D01*
Y6487D01*
X9999D01*
X9944Y6534D02*
X9978D01*
X9041Y5899D02*
X9028Y5895D01*
X9020Y5882D01*
X9016Y5861D01*
Y5848D01*
X9020Y5826D01*
X9028Y5814D01*
X9041Y5809D01*
X9050D01*
X9063Y5814D01*
X9071Y5826D01*
X9076Y5848D01*
Y5861D01*
X9071Y5882D01*
X9063Y5895D01*
X9050Y5899D01*
X9041D01*
X9096Y5882D02*
X9104Y5886D01*
X9117Y5899D01*
Y5809D01*
X8313Y5637D02*
Y5547D01*
X8283Y5637D02*
X8343D01*
X8375Y5607D02*
X8367Y5603D01*
X8358Y5594D01*
X8354Y5581D01*
Y5573D01*
X8358Y5560D01*
X8367Y5551D01*
X8375Y5547D01*
X8388D01*
X8397Y5551D01*
X8405Y5560D01*
X8410Y5573D01*
Y5581D01*
X8405Y5594D01*
X8397Y5603D01*
X8388Y5607D01*
X8375D01*
X8429D02*
Y5517D01*
Y5594D02*
X8438Y5603D01*
X8446Y5607D01*
X8459D01*
X8468Y5603D01*
X8476Y5594D01*
X8481Y5581D01*
Y5573D01*
X8476Y5560D01*
X8468Y5551D01*
X8459Y5547D01*
X8446D01*
X8438Y5551D01*
X8429Y5560D01*
X8500Y5637D02*
Y5547D01*
X8551D01*
X8613Y5607D02*
Y5547D01*
Y5594D02*
X8604Y5603D01*
X8595Y5607D01*
X8583D01*
X8574Y5603D01*
X8565Y5594D01*
X8561Y5581D01*
Y5573D01*
X8565Y5560D01*
X8574Y5551D01*
X8583Y5547D01*
X8595D01*
X8604Y5551D01*
X8613Y5560D01*
X8641Y5607D02*
X8667Y5547D01*
X8692Y5607D02*
X8667Y5547D01*
X8658Y5530D01*
X8649Y5521D01*
X8641Y5517D01*
X8637D01*
X8707Y5581D02*
X8759D01*
Y5590D01*
X8754Y5598D01*
X8750Y5603D01*
X8742Y5607D01*
X8729D01*
X8720Y5603D01*
X8712Y5594D01*
X8707Y5581D01*
Y5573D01*
X8712Y5560D01*
X8720Y5551D01*
X8729Y5547D01*
X8742D01*
X8750Y5551D01*
X8759Y5560D01*
X8778Y5607D02*
Y5547D01*
Y5581D02*
X8782Y5594D01*
X8791Y5603D01*
X8799Y5607D01*
X8812D01*
X6667Y5615D02*
X6663Y5624D01*
X6655Y5633D01*
X6646Y5637D01*
X6629D01*
X6620Y5633D01*
X6612Y5624D01*
X6607Y5615D01*
X6603Y5603D01*
Y5581D01*
X6607Y5568D01*
X6612Y5560D01*
X6620Y5551D01*
X6629Y5547D01*
X6646D01*
X6655Y5551D01*
X6663Y5560D01*
X6667Y5568D01*
X6714Y5607D02*
X6706Y5603D01*
X6697Y5594D01*
X6693Y5581D01*
Y5573D01*
X6697Y5560D01*
X6706Y5551D01*
X6714Y5547D01*
X6727D01*
X6736Y5551D01*
X6744Y5560D01*
X6748Y5573D01*
Y5581D01*
X6744Y5594D01*
X6736Y5603D01*
X6727Y5607D01*
X6714D01*
X6768D02*
Y5564D01*
X6772Y5551D01*
X6781Y5547D01*
X6794D01*
X6802Y5551D01*
X6815Y5564D01*
Y5607D02*
Y5547D01*
X6890Y5607D02*
Y5538D01*
X6886Y5525D01*
X6882Y5521D01*
X6873Y5517D01*
X6860D01*
X6852Y5521D01*
X6890Y5594D02*
X6882Y5603D01*
X6873Y5607D01*
X6860D01*
X6852Y5603D01*
X6843Y5594D01*
X6839Y5581D01*
Y5573D01*
X6843Y5560D01*
X6852Y5551D01*
X6860Y5547D01*
X6873D01*
X6882Y5551D01*
X6890Y5560D01*
X6966Y5607D02*
Y5547D01*
Y5594D02*
X6957Y5603D01*
X6948Y5607D01*
X6936D01*
X6927Y5603D01*
X6918Y5594D01*
X6914Y5581D01*
Y5573D01*
X6918Y5560D01*
X6927Y5551D01*
X6936Y5547D01*
X6948D01*
X6957Y5551D01*
X6966Y5560D01*
X6990Y5607D02*
Y5547D01*
Y5581D02*
X6994Y5594D01*
X7002Y5603D01*
X7011Y5607D01*
X7024D01*
X7167Y5615D02*
X7163Y5624D01*
X7154Y5633D01*
X7146Y5637D01*
X7128D01*
X7120Y5633D01*
X7111Y5624D01*
X7107Y5615D01*
X7103Y5603D01*
Y5581D01*
X7107Y5568D01*
X7111Y5560D01*
X7120Y5551D01*
X7128Y5547D01*
X7146D01*
X7154Y5551D01*
X7163Y5560D01*
X7167Y5568D01*
X7214Y5607D02*
X7205Y5603D01*
X7197Y5594D01*
X7192Y5581D01*
Y5573D01*
X7197Y5560D01*
X7205Y5551D01*
X7214Y5547D01*
X7227D01*
X7235Y5551D01*
X7244Y5560D01*
X7248Y5573D01*
Y5581D01*
X7244Y5594D01*
X7235Y5603D01*
X7227Y5607D01*
X7214D01*
X7268D02*
Y5547D01*
Y5590D02*
X7281Y5603D01*
X7289Y5607D01*
X7302D01*
X7311Y5603D01*
X7315Y5590D01*
Y5547D01*
X7351Y5637D02*
Y5564D01*
X7356Y5551D01*
X7364Y5547D01*
X7373D01*
X7338Y5607D02*
X7368D01*
X7386D02*
Y5547D01*
Y5581D02*
X7390Y5594D01*
X7398Y5603D01*
X7407Y5607D01*
X7420D01*
X7449D02*
X7441Y5603D01*
X7432Y5594D01*
X7428Y5581D01*
Y5573D01*
X7432Y5560D01*
X7441Y5551D01*
X7449Y5547D01*
X7462D01*
X7471Y5551D01*
X7479Y5560D01*
X7484Y5573D01*
Y5581D01*
X7479Y5594D01*
X7471Y5603D01*
X7462Y5607D01*
X7449D01*
X7503Y5637D02*
Y5547D01*
X7522Y5637D02*
Y5547D01*
X7541Y5581D02*
X7592D01*
Y5590D01*
X7588Y5598D01*
X7584Y5603D01*
X7575Y5607D01*
X7562D01*
X7554Y5603D01*
X7545Y5594D01*
X7541Y5581D01*
Y5573D01*
X7545Y5560D01*
X7554Y5551D01*
X7562Y5547D01*
X7575D01*
X7584Y5551D01*
X7592Y5560D01*
X7612Y5607D02*
Y5547D01*
Y5581D02*
X7616Y5594D01*
X7625Y5603D01*
X7633Y5607D01*
X7646D01*
X7658Y5555D02*
X7654Y5551D01*
X7658Y5547D01*
X7663Y5551D01*
X7658Y5555D01*
X7682Y5590D02*
X7721D01*
X7734Y5594D01*
X7738Y5598D01*
X7742Y5607D01*
Y5620D01*
X7738Y5628D01*
X7734Y5633D01*
X7721Y5637D01*
X7682D01*
Y5547D01*
X7827Y5615D02*
X7823Y5624D01*
X7814Y5633D01*
X7805Y5637D01*
X7788D01*
X7780Y5633D01*
X7771Y5624D01*
X7767Y5615D01*
X7763Y5603D01*
Y5581D01*
X7767Y5568D01*
X7771Y5560D01*
X7780Y5551D01*
X7788Y5547D01*
X7805D01*
X7814Y5551D01*
X7823Y5560D01*
X7827Y5568D01*
X7852Y5637D02*
Y5547D01*
Y5637D02*
X7891D01*
X7904Y5633D01*
X7908Y5628D01*
X7912Y5620D01*
Y5611D01*
X7908Y5603D01*
X7904Y5598D01*
X7891Y5594D01*
X7852D02*
X7891D01*
X7904Y5590D01*
X7908Y5585D01*
X7912Y5577D01*
Y5564D01*
X7908Y5555D01*
X7904Y5551D01*
X7891Y5547D01*
X7852D01*
D17*
X12853Y5472D02*
X12852Y5482D01*
X12849Y5492D01*
X12844Y5500D01*
X12838Y5508D01*
X12830Y5514D01*
X12820Y5519D01*
X12811Y5521D01*
X12801Y5522D01*
X12791Y5520D01*
X12781Y5517D01*
X12773Y5511D01*
X12765Y5504D01*
X12759Y5496D01*
X12755Y5487D01*
X12753Y5477D01*
Y5467D01*
X12755Y5457D01*
X12759Y5448D01*
X12765Y5439D01*
X12773Y5432D01*
X12781Y5427D01*
X12791Y5423D01*
X12801Y5422D01*
X12811Y5422D01*
X12820Y5425D01*
X12830Y5429D01*
X12838Y5436D01*
X12844Y5443D01*
X12849Y5452D01*
X12852Y5462D01*
X12853Y5472D01*
X12878D02*
X12877Y5482D01*
X12875Y5492D01*
X12872Y5501D01*
X12868Y5510D01*
X12862Y5518D01*
X12855Y5526D01*
X12848Y5532D01*
X12839Y5538D01*
X12830Y5542D01*
X12821Y5545D01*
X12811Y5546D01*
X12801Y5547D01*
X12791Y5546D01*
X12781Y5543D01*
X12772Y5540D01*
X12763Y5535D01*
X12755Y5529D01*
X12748Y5522D01*
X12741Y5514D01*
X12736Y5506D01*
X12732Y5496D01*
X12730Y5487D01*
X12728Y5477D01*
Y5467D01*
X12730Y5457D01*
X12732Y5447D01*
X12736Y5438D01*
X12741Y5429D01*
X12748Y5421D01*
X12755Y5415D01*
X12763Y5409D01*
X12772Y5404D01*
X12781Y5400D01*
X12791Y5398D01*
X12801Y5397D01*
X12811Y5397D01*
X12821Y5399D01*
X12830Y5402D01*
X12839Y5406D01*
X12848Y5411D01*
X12855Y5418D01*
X12862Y5425D01*
X12868Y5434D01*
X12872Y5443D01*
X12875Y5452D01*
X12877Y5462D01*
X12878Y5472D01*
X12806D02*
X12801D01*
X12806D01*
X12808D02*
X12801Y5476D01*
Y5467D01*
X12808Y5472D01*
X12823D02*
X12821Y5481D01*
X12814Y5488D01*
X12806Y5492D01*
X12796Y5490D01*
X12788Y5485D01*
X12784Y5477D01*
Y5467D01*
X12788Y5459D01*
X12796Y5453D01*
X12806Y5452D01*
X12814Y5455D01*
X12821Y5462D01*
X12823Y5472D01*
X12818D02*
X12815Y5481D01*
X12806Y5487D01*
X12796Y5485D01*
X12789Y5477D01*
Y5467D01*
X12796Y5459D01*
X12806Y5457D01*
X12815Y5462D01*
X12818Y5472D01*
X12813D02*
X12808Y5480D01*
X12798D01*
X12793Y5472D01*
X12798Y5463D01*
X12808D01*
X12813Y5472D01*
X5878Y11472D02*
X5877Y11482D01*
X5875Y11492D01*
X5872Y11501D01*
X5868Y11510D01*
X5862Y11518D01*
X5855Y11526D01*
X5848Y11532D01*
X5839Y11538D01*
X5830Y11542D01*
X5821Y11545D01*
X5811Y11546D01*
X5801Y11547D01*
X5791Y11546D01*
X5781Y11543D01*
X5772Y11540D01*
X5763Y11535D01*
X5755Y11529D01*
X5747Y11522D01*
X5741Y11514D01*
X5736Y11506D01*
X5732Y11496D01*
X5730Y11487D01*
X5728Y11477D01*
Y11467D01*
X5730Y11457D01*
X5732Y11447D01*
X5736Y11438D01*
X5741Y11429D01*
X5747Y11421D01*
X5755Y11415D01*
X5763Y11409D01*
X5772Y11404D01*
X5781Y11400D01*
X5791Y11398D01*
X5801Y11397D01*
X5811Y11397D01*
X5821Y11399D01*
X5830Y11402D01*
X5839Y11406D01*
X5848Y11411D01*
X5855Y11418D01*
X5862Y11425D01*
X5868Y11434D01*
X5872Y11443D01*
X5875Y11452D01*
X5877Y11462D01*
X5878Y11472D01*
X5806D02*
X5801D01*
X5806D01*
X5808D02*
X5801Y11476D01*
Y11467D01*
X5808Y11472D01*
X5813D02*
X5808Y11480D01*
X5798D01*
X5793Y11472D01*
X5798Y11463D01*
X5808D01*
X5813Y11472D01*
X5818D02*
X5815Y11481D01*
X5806Y11487D01*
X5796Y11485D01*
X5789Y11477D01*
Y11467D01*
X5796Y11459D01*
X5806Y11457D01*
X5815Y11462D01*
X5818Y11472D01*
X5823D02*
X5821Y11481D01*
X5814Y11488D01*
X5806Y11492D01*
X5796Y11491D01*
X5788Y11485D01*
X5784Y11477D01*
Y11467D01*
X5788Y11459D01*
X5796Y11453D01*
X5806Y11452D01*
X5814Y11455D01*
X5821Y11463D01*
X5823Y11472D01*
X5853D02*
X5852Y11482D01*
X5849Y11492D01*
X5844Y11500D01*
X5838Y11508D01*
X5830Y11514D01*
X5820Y11519D01*
X5811Y11521D01*
X5801Y11522D01*
X5791Y11520D01*
X5781Y11517D01*
X5773Y11511D01*
X5765Y11504D01*
X5759Y11496D01*
X5755Y11487D01*
X5753Y11477D01*
Y11467D01*
X5755Y11457D01*
X5759Y11448D01*
X5765Y11439D01*
X5773Y11432D01*
X5781Y11427D01*
X5791Y11423D01*
X5801Y11422D01*
X5811Y11422D01*
X5820Y11425D01*
X5830Y11429D01*
X5838Y11436D01*
X5844Y11443D01*
X5849Y11452D01*
X5852Y11462D01*
X5853Y11472D01*
X5853Y5472D02*
X5852Y5482D01*
X5849Y5492D01*
X5844Y5500D01*
X5838Y5508D01*
X5830Y5514D01*
X5820Y5519D01*
X5811Y5521D01*
X5801Y5522D01*
X5791Y5520D01*
X5781Y5517D01*
X5773Y5511D01*
X5765Y5504D01*
X5759Y5496D01*
X5755Y5487D01*
X5753Y5477D01*
Y5467D01*
X5755Y5457D01*
X5759Y5448D01*
X5765Y5439D01*
X5773Y5432D01*
X5781Y5427D01*
X5791Y5423D01*
X5801Y5422D01*
X5811Y5422D01*
X5820Y5425D01*
X5830Y5429D01*
X5838Y5436D01*
X5844Y5443D01*
X5849Y5452D01*
X5852Y5462D01*
X5853Y5472D01*
X5878D02*
X5877Y5482D01*
X5875Y5492D01*
X5872Y5501D01*
X5868Y5510D01*
X5862Y5518D01*
X5855Y5526D01*
X5848Y5532D01*
X5839Y5538D01*
X5830Y5542D01*
X5821Y5545D01*
X5811Y5546D01*
X5801Y5547D01*
X5791Y5546D01*
X5781Y5543D01*
X5772Y5540D01*
X5763Y5535D01*
X5755Y5529D01*
X5748Y5522D01*
X5741Y5514D01*
X5736Y5506D01*
X5732Y5496D01*
X5730Y5487D01*
X5728Y5477D01*
Y5467D01*
X5730Y5457D01*
X5732Y5447D01*
X5736Y5438D01*
X5741Y5429D01*
X5748Y5421D01*
X5755Y5415D01*
X5763Y5409D01*
X5772Y5404D01*
X5781Y5400D01*
X5791Y5398D01*
X5801Y5397D01*
X5811Y5397D01*
X5821Y5399D01*
X5830Y5402D01*
X5839Y5406D01*
X5848Y5411D01*
X5855Y5418D01*
X5862Y5425D01*
X5868Y5434D01*
X5872Y5443D01*
X5875Y5452D01*
X5877Y5462D01*
X5878Y5472D01*
X5806D02*
X5801D01*
X5806D01*
X5808D02*
X5801Y5476D01*
Y5467D01*
X5808Y5472D01*
X5823D02*
X5821Y5481D01*
X5814Y5488D01*
X5806Y5492D01*
X5796Y5490D01*
X5788Y5485D01*
X5784Y5477D01*
Y5467D01*
X5788Y5459D01*
X5796Y5453D01*
X5806Y5452D01*
X5814Y5455D01*
X5821Y5462D01*
X5823Y5472D01*
X5813D02*
X5808Y5480D01*
X5798D01*
X5793Y5472D01*
X5798Y5463D01*
X5808D01*
X5813Y5472D01*
X5818D02*
X5815Y5481D01*
X5806Y5487D01*
X5796Y5485D01*
X5789Y5477D01*
Y5467D01*
X5796Y5459D01*
X5806Y5457D01*
X5815Y5462D01*
X5818Y5472D01*
X5878D02*
X5928D01*
X5578D02*
X5728D01*
X5503Y5172D02*
X5578D01*
X5478Y5397D02*
X5528D01*
X5489Y5405D02*
X5518D01*
X5494Y5408D02*
X5513D01*
X5484Y5401D02*
X5523D01*
X5499Y5412D02*
X5508D01*
X5703Y5172D02*
X5728D01*
X5303Y5472D02*
X5503D01*
X5428Y5572D02*
X5503D01*
X5428Y5672D02*
X5503D01*
X5428Y5772D02*
X5503D01*
X5428Y5872D02*
X5503D01*
X5353Y5972D02*
X5503D01*
X5428Y6072D02*
X5503D01*
X5428Y6172D02*
X5503D01*
X5428Y6272D02*
X5503D01*
X5428Y6372D02*
X5503D01*
X5303Y6472D02*
X5503D01*
X5428Y6572D02*
X5503D01*
X5428Y6672D02*
X5503D01*
X5428Y6772D02*
X5503D01*
X5428Y6872D02*
X5503D01*
X5353Y6972D02*
X5503D01*
X5428Y7072D02*
X5503D01*
X5428Y7172D02*
X5503D01*
X5428Y7272D02*
X5503D01*
X5428Y7372D02*
X5503D01*
X5303Y7472D02*
X5503D01*
X5428Y7572D02*
X5503D01*
X5428Y7672D02*
X5503D01*
X5428Y7772D02*
X5503D01*
X5428Y7872D02*
X5503D01*
X5353Y7972D02*
X5503D01*
X5428Y8072D02*
X5503D01*
X5428Y8172D02*
X5503D01*
X5428Y8272D02*
X5503D01*
X5428Y8372D02*
X5503D01*
X5303Y8472D02*
X5503D01*
X5428Y8572D02*
X5503D01*
X5428Y8672D02*
X5503D01*
X5428Y8772D02*
X5503D01*
X5428Y8872D02*
X5503D01*
X5353Y8972D02*
X5503D01*
X5428Y9072D02*
X5503D01*
X5428Y9172D02*
X5503D01*
X5428Y9272D02*
X5503D01*
X5428Y9372D02*
X5503D01*
X5303Y9472D02*
X5503D01*
X5428Y9572D02*
X5503D01*
X5428Y9672D02*
X5503D01*
X5428Y9772D02*
X5503D01*
X5428Y9872D02*
X5503D01*
X5353Y9972D02*
X5503D01*
X5428Y10072D02*
X5503D01*
X5428Y10172D02*
X5503D01*
X5428Y10272D02*
X5503D01*
X5428Y10372D02*
X5503D01*
X5303Y10472D02*
X5503D01*
X5428Y10572D02*
X5503D01*
X5428Y10672D02*
X5503D01*
X5428Y10772D02*
X5503D01*
X5428Y10872D02*
X5503D01*
X5353Y10972D02*
X5503D01*
X5428Y11072D02*
X5503D01*
X5428Y11172D02*
X5503D01*
X5428Y11272D02*
X5503D01*
X5428Y11372D02*
X5503D01*
X5303Y11472D02*
X5503D01*
X5803D02*
X5853D01*
X5753D02*
X5803D01*
X5578D02*
X5728D01*
X5878D02*
X5928D01*
X12678Y5472D02*
X12728D01*
X12878D02*
X12928D01*
X5803Y5247D02*
Y5397D01*
Y5547D02*
Y5597D01*
X5503Y5172D02*
Y5247D01*
X5728Y5147D02*
Y5197D01*
X5736Y5157D02*
Y5186D01*
X5503Y5372D02*
Y5397D01*
X5740Y5162D02*
Y5181D01*
X5733Y5152D02*
Y5191D01*
X5743Y5167D02*
Y5176D01*
X5803Y4972D02*
Y5172D01*
X5903Y5097D02*
Y5172D01*
X6003Y5097D02*
Y5172D01*
X6103Y5097D02*
Y5172D01*
X6203Y5097D02*
Y5172D01*
X6303Y5022D02*
Y5172D01*
X6403Y5097D02*
Y5172D01*
X6503Y5097D02*
Y5172D01*
X6603Y5097D02*
Y5172D01*
X6703Y5097D02*
Y5172D01*
X6803Y4972D02*
Y5172D01*
X6903Y5097D02*
Y5172D01*
X7003Y5097D02*
Y5172D01*
X7103Y5097D02*
Y5172D01*
X7203Y5097D02*
Y5172D01*
X7303Y5022D02*
Y5172D01*
X7403Y5097D02*
Y5172D01*
X7503Y5097D02*
Y5172D01*
X7603Y5097D02*
Y5172D01*
X7703Y5097D02*
Y5172D01*
X7803Y4972D02*
Y5172D01*
X7903Y5097D02*
Y5172D01*
X8003Y5097D02*
Y5172D01*
X8103Y5097D02*
Y5172D01*
X8203Y5097D02*
Y5172D01*
X8303Y5022D02*
Y5172D01*
X8403Y5097D02*
Y5172D01*
X8503Y5097D02*
Y5172D01*
X8603Y5097D02*
Y5172D01*
X8703Y5097D02*
Y5172D01*
X8803Y4972D02*
Y5172D01*
X8903Y5097D02*
Y5172D01*
X9003Y5097D02*
Y5172D01*
X9103Y5097D02*
Y5172D01*
X9203Y5097D02*
Y5172D01*
X9303Y5022D02*
Y5172D01*
X9403Y5097D02*
Y5172D01*
X9503Y5097D02*
Y5172D01*
X9603Y5097D02*
Y5172D01*
X9703Y5097D02*
Y5172D01*
X9803Y4972D02*
Y5172D01*
X9903Y5097D02*
Y5172D01*
X10003Y5097D02*
Y5172D01*
X10103Y5097D02*
Y5172D01*
X10203Y5097D02*
Y5172D01*
X10303Y5022D02*
Y5172D01*
X10403Y5097D02*
Y5172D01*
X10503Y5097D02*
Y5172D01*
X10603Y5097D02*
Y5172D01*
X10703Y5097D02*
Y5172D01*
X10803Y4972D02*
Y5172D01*
X10903Y5097D02*
Y5172D01*
X11003Y5097D02*
Y5172D01*
X11103Y5097D02*
Y5172D01*
X11203Y5097D02*
Y5172D01*
X11303Y5022D02*
Y5172D01*
X11403Y5097D02*
Y5172D01*
X11503Y5097D02*
Y5172D01*
X11603Y5097D02*
Y5172D01*
X11703Y5097D02*
Y5172D01*
X11803Y4972D02*
Y5172D01*
X11903Y5097D02*
Y5172D01*
X12003Y5097D02*
Y5172D01*
X12103Y5097D02*
Y5172D01*
X12203Y5097D02*
Y5172D01*
X12303Y5022D02*
Y5172D01*
X12403Y5097D02*
Y5172D01*
X12503Y5097D02*
Y5172D01*
X12603Y5097D02*
Y5172D01*
X12703Y5097D02*
Y5172D01*
X12803Y4972D02*
Y5172D01*
X5803Y11422D02*
Y11472D01*
Y11522D01*
Y11547D02*
Y11597D01*
Y11347D02*
Y11397D01*
X12803Y5547D02*
Y5597D01*
Y5247D02*
Y5397D01*
X5803Y5472D02*
X5838Y5507D01*
X5768Y5437D02*
X5803Y5472D01*
X12768Y5437D02*
X12803Y5472D01*
X12838Y5507D01*
X5803Y5472D02*
X5838Y5437D01*
X5768Y5507D02*
X5803Y5472D01*
X12803D02*
X12838Y5437D01*
X12768Y5507D02*
X12803Y5472D01*
X5728Y5147D02*
X5803Y5172D01*
X5728Y5197D02*
X5803Y5172D01*
X5736Y5186D02*
X5779Y5172D01*
X5736Y5157D02*
X5779Y5172D01*
X5503Y5472D02*
X5528Y5397D01*
X5478D02*
X5503Y5472D01*
X5489Y5405D02*
X5503Y5448D01*
X5518Y5405D01*
X5494Y5408D02*
X5503Y5436D01*
X5513Y5408D01*
X5484Y5401D02*
X5503Y5459D01*
X5523Y5401D01*
X5499Y5412D02*
X5503Y5425D01*
X5508Y5412D01*
X5740Y5181D02*
X5768Y5172D01*
X5740Y5162D02*
X5768Y5172D01*
X5733Y5191D02*
X5791Y5172D01*
X5733Y5152D02*
X5791Y5172D01*
X5743Y5176D02*
X5756Y5172D01*
X5743Y5167D02*
X5756Y5172D01*
D18*
X6203Y6747D02*
X6193Y6746D01*
X6184Y6745D01*
X6174Y6742D01*
X6165Y6739D01*
X6156Y6735D01*
X6148Y6730D01*
X6140Y6724D01*
X6132Y6718D01*
X6126Y6710D01*
X6120Y6702D01*
X6115Y6694D01*
X6111Y6685D01*
X6107Y6676D01*
X6105Y6666D01*
X6104Y6657D01*
X6103Y6647D01*
Y5548D02*
X6104Y5538D01*
X6105Y5528D01*
X6107Y5519D01*
X6111Y5510D01*
X6115Y5501D01*
X6120Y5492D01*
X6126Y5484D01*
X6132Y5477D01*
X6139Y5470D01*
X6147Y5464D01*
X6155Y5459D01*
X6164Y5455D01*
X6173Y5452D01*
X6183Y5449D01*
X6193Y5447D01*
X6202Y5447D01*
X10403Y5447D02*
X10413Y5447D01*
X10423Y5449D01*
X10432Y5451D01*
X10441Y5454D01*
X10450Y5459D01*
X10459Y5464D01*
X10467Y5470D01*
X10474Y5476D01*
X10480Y5483D01*
X10486Y5491D01*
X10491Y5500D01*
X10496Y5509D01*
X10499Y5518D01*
X10501Y5527D01*
X10503Y5537D01*
X10503Y5547D01*
Y6647D02*
X10503Y6657D01*
X10501Y6666D01*
X10499Y6676D01*
X10496Y6685D01*
X10491Y6694D01*
X10486Y6702D01*
X10480Y6710D01*
X10474Y6718D01*
X10467Y6724D01*
X10459Y6730D01*
X10450Y6735D01*
X10441Y6739D01*
X10432Y6742D01*
X10423Y6745D01*
X10413Y6746D01*
X10403Y6747D01*
X6353Y7572D02*
X6703D01*
X6443Y10572D02*
X6463D01*
X6443Y7572D02*
X6463D01*
X6453Y10572D02*
X6473Y10512D01*
X6433D02*
X6453Y10572D01*
Y7572D02*
X6473Y7632D01*
X6433D02*
X6453Y7572D01*
Y9353D02*
Y10572D01*
Y7572D02*
Y8791D01*
X6703Y7302D02*
Y7572D01*
X14703Y7442D02*
Y7462D01*
X6703Y7442D02*
Y7462D01*
X14643Y7432D02*
X14703Y7452D01*
X14643Y7472D02*
X14703Y7452D01*
X6703D02*
X6763Y7432D01*
X6703Y7452D02*
X6763Y7472D01*
X10984Y7452D02*
X14703D01*
X6703D02*
X10422D01*
X6703Y7572D02*
X14703D01*
X6703Y10572D02*
X14703D01*
Y7572D02*
Y10572D01*
X6703Y7572D02*
Y10572D01*
X6203Y5447D02*
X10403D01*
X6203Y6747D02*
X10403D01*
X10503Y5547D02*
Y6647D01*
X6103Y5547D02*
Y6647D01*
D19*
X6439Y8801D02*
X6429Y8811D01*
Y8831D01*
X6439Y8841D01*
X6449D01*
X6459Y8831D01*
Y8821D01*
Y8831D01*
X6469Y8841D01*
X6479D01*
X6489Y8831D01*
Y8811D01*
X6479Y8801D01*
X6439Y8861D02*
X6429Y8871D01*
Y8891D01*
X6439Y8901D01*
X6479D01*
X6489Y8891D01*
Y8871D01*
X6479Y8861D01*
X6439D01*
Y8921D02*
X6429Y8931D01*
Y8951D01*
X6439Y8961D01*
X6479D01*
X6489Y8951D01*
Y8931D01*
X6479Y8921D01*
X6439D01*
Y8981D02*
X6429Y8991D01*
Y9011D01*
X6439Y9021D01*
X6479D01*
X6489Y9011D01*
Y8991D01*
X6479Y8981D01*
X6439D01*
X6489Y9121D02*
X6469Y9101D01*
X6449D01*
X6429Y9121D01*
X6489Y9151D02*
X6449D01*
Y9161D01*
X6459Y9171D01*
X6489D01*
X6459D01*
X6449Y9181D01*
X6459Y9191D01*
X6489D01*
Y9211D02*
Y9231D01*
Y9221D01*
X6449D01*
Y9211D01*
X6489Y9261D02*
Y9281D01*
Y9271D01*
X6429D01*
Y9261D01*
X6489Y9311D02*
X6469Y9331D01*
X6449D01*
X6429Y9311D01*
X10432Y7466D02*
X10442Y7476D01*
X10462D01*
X10472Y7466D01*
Y7456D01*
X10462Y7446D01*
X10472Y7436D01*
Y7426D01*
X10462Y7416D01*
X10442D01*
X10432Y7426D01*
Y7436D01*
X10442Y7446D01*
X10432Y7456D01*
Y7466D01*
X10442Y7446D02*
X10462D01*
X10492Y7466D02*
X10502Y7476D01*
X10522D01*
X10532Y7466D01*
Y7426D01*
X10522Y7416D01*
X10502D01*
X10492Y7426D01*
Y7466D01*
X10552D02*
X10562Y7476D01*
X10582D01*
X10592Y7466D01*
Y7426D01*
X10582Y7416D01*
X10562D01*
X10552Y7426D01*
Y7466D01*
X10612D02*
X10622Y7476D01*
X10642D01*
X10652Y7466D01*
Y7426D01*
X10642Y7416D01*
X10622D01*
X10612Y7426D01*
Y7466D01*
X10752Y7416D02*
X10732Y7436D01*
Y7456D01*
X10752Y7476D01*
X10782Y7416D02*
Y7456D01*
X10792D01*
X10802Y7446D01*
Y7416D01*
Y7446D01*
X10812Y7456D01*
X10822Y7446D01*
Y7416D01*
X10842D02*
X10862D01*
X10852D01*
Y7456D01*
X10842D01*
X10892Y7416D02*
X10912D01*
X10902D01*
Y7476D01*
X10892D01*
X10942Y7416D02*
X10962Y7436D01*
Y7456D01*
X10942Y7476D01*
D20*
X9303Y5929D02*
Y5884D01*
Y5929D02*
X9318D01*
X9325Y5927D01*
X9329Y5923D01*
X9331Y5919D01*
X9333Y5912D01*
Y5901D01*
X9331Y5895D01*
X9329Y5891D01*
X9325Y5886D01*
X9318Y5884D01*
X9303D01*
X9377D02*
X9360Y5929D01*
X9343Y5884D01*
X9350Y5899D02*
X9371D01*
X9403Y5929D02*
Y5884D01*
X9388Y5929D02*
X9418D01*
X9451D02*
X9423D01*
Y5884D01*
X9451D01*
X9423Y5908D02*
X9440D01*
X9461Y5914D02*
X9459Y5912D01*
X9461Y5910D01*
X9463Y5912D01*
X9461Y5914D01*
Y5889D02*
X9459Y5886D01*
X9461Y5884D01*
X9463Y5886D01*
X9461Y5889D01*
X8841Y5929D02*
Y5884D01*
Y5929D02*
X8860D01*
X8866Y5927D01*
X8868Y5925D01*
X8871Y5921D01*
Y5916D01*
X8868Y5912D01*
X8866Y5910D01*
X8860Y5908D01*
X8841D01*
X8856D02*
X8871Y5884D01*
X8909Y5929D02*
X8881D01*
Y5884D01*
X8909D01*
X8881Y5908D02*
X8898D01*
X8916Y5929D02*
X8933Y5884D01*
X8950Y5929D02*
X8933Y5884D01*
X8958Y5914D02*
X8956Y5912D01*
X8958Y5910D01*
X8960Y5912D01*
X8958Y5914D01*
Y5889D02*
X8956Y5886D01*
X8958Y5884D01*
X8960Y5886D01*
X8958Y5889D01*
X6203Y6181D02*
X6222D01*
X6229Y6183D01*
X6231Y6185D01*
X6233Y6189D01*
Y6196D01*
X6231Y6200D01*
X6229Y6202D01*
X6222Y6204D01*
X6203D01*
Y6159D01*
X6243Y6204D02*
Y6159D01*
X6273Y6204D02*
Y6159D01*
X6243Y6183D02*
X6273D01*
X6298Y6204D02*
X6294Y6202D01*
X6290Y6198D01*
X6288Y6194D01*
X6286Y6187D01*
Y6176D01*
X6288Y6170D01*
X6290Y6166D01*
X6294Y6161D01*
X6298Y6159D01*
X6307D01*
X6311Y6161D01*
X6316Y6166D01*
X6318Y6170D01*
X6320Y6176D01*
Y6187D01*
X6318Y6194D01*
X6316Y6198D01*
X6311Y6202D01*
X6307Y6204D01*
X6298D01*
X6330D02*
Y6159D01*
Y6204D02*
X6360Y6159D01*
Y6204D02*
Y6159D01*
X6401Y6204D02*
X6373D01*
Y6159D01*
X6401D01*
X6373Y6183D02*
X6390D01*
X6410Y6189D02*
X6408Y6187D01*
X6410Y6185D01*
X6412Y6187D01*
X6410Y6189D01*
Y6164D02*
X6408Y6161D01*
X6410Y6159D01*
X6412Y6161D01*
X6410Y6164D01*
X6203Y5806D02*
X6222D01*
X6229Y5808D01*
X6231Y5810D01*
X6233Y5814D01*
Y5821D01*
X6231Y5825D01*
X6229Y5827D01*
X6222Y5829D01*
X6203D01*
Y5784D01*
X6243Y5829D02*
Y5784D01*
X6273Y5829D02*
Y5784D01*
X6243Y5808D02*
X6273D01*
X6298Y5829D02*
X6294Y5827D01*
X6290Y5823D01*
X6288Y5819D01*
X6286Y5812D01*
Y5801D01*
X6288Y5795D01*
X6290Y5791D01*
X6294Y5786D01*
X6298Y5784D01*
X6307D01*
X6311Y5786D01*
X6316Y5791D01*
X6318Y5795D01*
X6320Y5801D01*
Y5812D01*
X6318Y5819D01*
X6316Y5823D01*
X6311Y5827D01*
X6307Y5829D01*
X6298D01*
X6330D02*
Y5784D01*
Y5829D02*
X6360Y5784D01*
Y5829D02*
Y5784D01*
X6401Y5829D02*
X6373D01*
Y5784D01*
X6401D01*
X6373Y5808D02*
X6390D01*
X6410Y5814D02*
X6408Y5812D01*
X6410Y5810D01*
X6412Y5812D01*
X6410Y5814D01*
Y5789D02*
X6408Y5786D01*
X6410Y5784D01*
X6412Y5786D01*
X6410Y5789D01*
X8043Y5652D02*
Y5607D01*
X8069D01*
X8108D02*
X8091Y5652D01*
X8074Y5607D01*
X8080Y5622D02*
X8102D01*
X8119Y5652D02*
X8136Y5630D01*
Y5607D01*
X8153Y5652D02*
X8136Y5630D01*
X8186Y5652D02*
X8159D01*
Y5607D01*
X8186D01*
X8159Y5630D02*
X8176D01*
X8194Y5652D02*
Y5607D01*
Y5652D02*
X8213D01*
X8220Y5650D01*
X8222Y5648D01*
X8224Y5643D01*
Y5639D01*
X8222Y5635D01*
X8220Y5633D01*
X8213Y5630D01*
X8194D01*
X8209D02*
X8224Y5607D01*
X8236Y5637D02*
X8234Y5635D01*
X8236Y5633D01*
X8238Y5635D01*
X8236Y5637D01*
Y5611D02*
X8234Y5609D01*
X8236Y5607D01*
X8238Y5609D01*
X8236Y5611D01*
X6231Y6392D02*
X6203D01*
Y6347D01*
X6231D01*
X6203Y6370D02*
X6220D01*
X6238Y6392D02*
Y6347D01*
Y6392D02*
X6268Y6347D01*
Y6392D02*
Y6347D01*
X6313Y6381D02*
X6311Y6385D01*
X6307Y6390D01*
X6302Y6392D01*
X6294D01*
X6289Y6390D01*
X6285Y6385D01*
X6283Y6381D01*
X6281Y6375D01*
Y6364D01*
X6283Y6358D01*
X6285Y6353D01*
X6289Y6349D01*
X6294Y6347D01*
X6302D01*
X6307Y6349D01*
X6311Y6353D01*
X6313Y6358D01*
Y6364D01*
X6302D02*
X6313D01*
X6323Y6392D02*
Y6347D01*
X6333Y6392D02*
Y6347D01*
Y6392D02*
X6363Y6347D01*
Y6392D02*
Y6347D01*
X6403Y6392D02*
X6375D01*
Y6347D01*
X6403D01*
X6375Y6370D02*
X6392D01*
X6438Y6392D02*
X6411D01*
Y6347D01*
X6438D01*
X6411Y6370D02*
X6428D01*
X6446Y6392D02*
Y6347D01*
Y6392D02*
X6465D01*
X6472Y6390D01*
X6474Y6388D01*
X6476Y6383D01*
Y6379D01*
X6474Y6375D01*
X6472Y6373D01*
X6465Y6370D01*
X6446D01*
X6461D02*
X6476Y6347D01*
X6488Y6377D02*
X6486Y6375D01*
X6488Y6373D01*
X6490Y6375D01*
X6488Y6377D01*
Y6351D02*
X6486Y6349D01*
X6488Y6347D01*
X6490Y6349D01*
X6488Y6351D01*
X7103Y5906D02*
X7122D01*
X7129Y5908D01*
X7131Y5910D01*
X7133Y5914D01*
Y5921D01*
X7131Y5925D01*
X7129Y5927D01*
X7122Y5929D01*
X7103D01*
Y5884D01*
X7177D02*
X7160Y5929D01*
X7143Y5884D01*
X7150Y5899D02*
X7171D01*
X7188Y5929D02*
Y5884D01*
Y5929D02*
X7207D01*
X7214Y5927D01*
X7216Y5925D01*
X7218Y5921D01*
Y5916D01*
X7216Y5912D01*
X7214Y5910D01*
X7207Y5908D01*
X7188D01*
X7203D02*
X7218Y5884D01*
X7243Y5929D02*
Y5884D01*
X7228Y5929D02*
X7258D01*
X7299D02*
Y5884D01*
Y5929D02*
X7329Y5884D01*
Y5929D02*
Y5884D01*
X7354Y5929D02*
X7350Y5927D01*
X7345Y5923D01*
X7343Y5919D01*
X7341Y5912D01*
Y5901D01*
X7343Y5895D01*
X7345Y5891D01*
X7350Y5886D01*
X7354Y5884D01*
X7363D01*
X7367Y5886D01*
X7371Y5891D01*
X7373Y5895D01*
X7375Y5901D01*
Y5912D01*
X7373Y5919D01*
X7371Y5923D01*
X7367Y5927D01*
X7363Y5929D01*
X7354D01*
X7388Y5889D02*
X7386Y5886D01*
X7388Y5884D01*
X7390Y5886D01*
X7388Y5889D01*
X7402Y5914D02*
X7400Y5912D01*
X7402Y5910D01*
X7404Y5912D01*
X7402Y5914D01*
Y5889D02*
X7400Y5886D01*
X7402Y5884D01*
X7404Y5886D01*
X7402Y5889D01*
X7106Y6404D02*
Y6359D01*
X7091Y6404D02*
X7121D01*
X7126D02*
Y6359D01*
X7150Y6404D02*
Y6359D01*
X7135Y6404D02*
X7165D01*
X7171D02*
Y6359D01*
X7196D01*
X7229Y6404D02*
X7201D01*
Y6359D01*
X7229D01*
X7201Y6383D02*
X7219D01*
X7239Y6389D02*
X7237Y6387D01*
X7239Y6385D01*
X7241Y6387D01*
X7239Y6389D01*
Y6364D02*
X7237Y6361D01*
X7239Y6359D01*
X7241Y6361D01*
X7239Y6364D01*
X6231Y6012D02*
X6203D01*
Y5967D01*
X6231D01*
X6203Y5990D02*
X6220D01*
X6238Y6012D02*
Y5967D01*
Y6012D02*
X6268Y5967D01*
Y6012D02*
Y5967D01*
X6313Y6001D02*
X6311Y6005D01*
X6307Y6010D01*
X6302Y6012D01*
X6294D01*
X6289Y6010D01*
X6285Y6005D01*
X6283Y6001D01*
X6281Y5995D01*
Y5984D01*
X6283Y5978D01*
X6285Y5973D01*
X6289Y5969D01*
X6294Y5967D01*
X6302D01*
X6307Y5969D01*
X6311Y5973D01*
X6313Y5978D01*
Y5984D01*
X6302D02*
X6313D01*
X6323Y6012D02*
Y5967D01*
X6333Y6012D02*
Y5967D01*
Y6012D02*
X6363Y5967D01*
Y6012D02*
Y5967D01*
X6403Y6012D02*
X6375D01*
Y5967D01*
X6403D01*
X6375Y5990D02*
X6392D01*
X6438Y6012D02*
X6411D01*
Y5967D01*
X6438D01*
X6411Y5990D02*
X6428D01*
X6446Y6012D02*
Y5967D01*
Y6012D02*
X6465D01*
X6472Y6010D01*
X6474Y6008D01*
X6476Y6003D01*
Y5999D01*
X6474Y5995D01*
X6472Y5993D01*
X6465Y5990D01*
X6446D01*
X6461D02*
X6476Y5967D01*
X6488Y5997D02*
X6486Y5995D01*
X6488Y5993D01*
X6490Y5995D01*
X6488Y5997D01*
Y5971D02*
X6486Y5969D01*
X6488Y5967D01*
X6490Y5969D01*
X6488Y5971D01*
X6203Y5652D02*
Y5607D01*
Y5652D02*
X6231D01*
X6203Y5630D02*
X6220D01*
X6236Y5652D02*
Y5607D01*
X6246Y5652D02*
Y5607D01*
X6271D01*
X6304Y5652D02*
X6276D01*
Y5607D01*
X6304D01*
X6276Y5630D02*
X6293D01*
X6347Y5652D02*
Y5607D01*
Y5652D02*
X6377Y5607D01*
Y5652D02*
Y5607D01*
X6424D02*
X6406Y5652D01*
X6389Y5607D01*
X6396Y5622D02*
X6417D01*
X6434Y5652D02*
Y5607D01*
Y5652D02*
X6451Y5607D01*
X6468Y5652D02*
X6451Y5607D01*
X6468Y5652D02*
Y5607D01*
X6509Y5652D02*
X6481D01*
Y5607D01*
X6509D01*
X6481Y5630D02*
X6498D01*
X6519Y5637D02*
X6517Y5635D01*
X6519Y5633D01*
X6521Y5635D01*
X6519Y5637D01*
Y5611D02*
X6517Y5609D01*
X6519Y5607D01*
X6521Y5609D01*
X6519Y5611D01*
X9895Y5641D02*
X9893Y5645D01*
X9889Y5650D01*
X9885Y5652D01*
X9876D01*
X9872Y5650D01*
X9867Y5645D01*
X9865Y5641D01*
X9863Y5635D01*
Y5624D01*
X9865Y5618D01*
X9867Y5613D01*
X9872Y5609D01*
X9876Y5607D01*
X9885D01*
X9889Y5609D01*
X9893Y5613D01*
X9895Y5618D01*
Y5624D01*
X9885D02*
X9895D01*
X9933Y5652D02*
X9906D01*
Y5607D01*
X9933D01*
X9906Y5630D02*
X9923D01*
X9941Y5652D02*
Y5607D01*
Y5652D02*
X9960D01*
X9967Y5650D01*
X9969Y5648D01*
X9971Y5643D01*
Y5639D01*
X9969Y5635D01*
X9967Y5633D01*
X9960Y5630D01*
X9941D01*
X9956D02*
X9971Y5607D01*
X9981Y5652D02*
Y5607D01*
Y5652D02*
X10000D01*
X10007Y5650D01*
X10009Y5648D01*
X10011Y5643D01*
Y5639D01*
X10009Y5635D01*
X10007Y5633D01*
X10000Y5630D01*
X9981D02*
X10000D01*
X10007Y5628D01*
X10009Y5626D01*
X10011Y5622D01*
Y5615D01*
X10009Y5611D01*
X10007Y5609D01*
X10000Y5607D01*
X9981D01*
X10049Y5652D02*
X10021D01*
Y5607D01*
X10049D01*
X10021Y5630D02*
X10038D01*
X10056Y5652D02*
Y5607D01*
Y5652D02*
X10076D01*
X10082Y5650D01*
X10084Y5648D01*
X10086Y5643D01*
Y5639D01*
X10084Y5635D01*
X10082Y5633D01*
X10076Y5630D01*
X10056D01*
X10071D02*
X10086Y5607D01*
X10099Y5637D02*
X10096Y5635D01*
X10099Y5633D01*
X10101Y5635D01*
X10099Y5637D01*
Y5611D02*
X10096Y5609D01*
X10099Y5607D01*
X10101Y5609D01*
X10099Y5611D01*
D21*
X6843Y7772D02*
D03*
X7703D02*
D03*
X8563D02*
D03*
X9423D02*
D03*
X10283D02*
D03*
X11123D02*
D03*
X11983D02*
D03*
X12843D02*
D03*
X13703D02*
D03*
X14563D02*
D03*
X7603Y10412D02*
D03*
Y10312D02*
D03*
X7623Y8032D02*
D03*
Y8132D02*
D03*
X8678Y9432D02*
D03*
X8283D02*
D03*
X8678Y9037D02*
D03*
X7983Y9492D02*
D03*
Y9297D02*
D03*
D22*
X8313Y9852D02*
D03*
X7003Y10272D02*
D03*
X14403D02*
D03*
X7003Y8072D02*
D03*
X14403D02*
D03*
D23*
X14163Y8936D02*
D03*
X14261Y9034D02*
D03*
X14163Y9132D02*
D03*
X8283Y8132D02*
D03*
X8383D02*
D03*
X8983D02*
D03*
X9083D02*
D03*
X9183D02*
D03*
X9283D02*
D03*
X8183Y8732D02*
D03*
X8283D02*
D03*
X8383D02*
D03*
X8983D02*
D03*
X9083D02*
D03*
X9183D02*
D03*
X9283D02*
D03*
X13863Y9772D02*
D03*
X14263D02*
D03*
X11143Y8512D02*
D03*
X10743D02*
D03*
X11563Y8212D02*
D03*
X11163D02*
D03*
X12003Y8052D02*
D03*
Y8452D02*
D03*
X11163Y8712D02*
D03*
Y9112D02*
D03*
X11903Y8672D02*
D03*
Y9072D02*
D03*
X10143Y9252D02*
D03*
X9743D02*
D03*
X10223D02*
D03*
X10623D02*
D03*
X7243Y9332D02*
D03*
X6843D02*
D03*
X7403Y9892D02*
D03*
X7803D02*
D03*
X7943Y10432D02*
D03*
Y10032D02*
D03*
X9203Y8932D02*
D03*
X9603D02*
D03*
X11303Y9492D02*
D03*
X10903D02*
D03*
X11303Y9612D02*
D03*
X10903D02*
D03*
X14163Y9652D02*
D03*
X10983Y8312D02*
D03*
Y7912D02*
D03*
X9743Y8632D02*
D03*
Y9032D02*
D03*
X13203Y9092D02*
D03*
X12903Y8892D02*
D03*
Y9292D02*
D03*
X13003Y9692D02*
D03*
Y9292D02*
D03*
X8703Y10422D02*
D03*
X8303D02*
D03*
X13283Y9292D02*
D03*
Y9692D02*
D03*
X7543D02*
D03*
Y9292D02*
D03*
X11623Y10412D02*
D03*
Y10012D02*
D03*
X13483Y9832D02*
D03*
X13083D02*
D03*
X11763Y10412D02*
D03*
X12163Y10312D02*
D03*
X11763D02*
D03*
X11543Y9212D02*
D03*
X11143D02*
D03*
X12523Y9032D02*
D03*
Y8932D02*
D03*
X12303Y9032D02*
D03*
Y8932D02*
D03*
X12003Y10172D02*
D03*
X11803D02*
D03*
X11843Y9992D02*
D03*
Y9792D02*
D03*
X10403Y8412D02*
D03*
Y8212D02*
D03*
X10583Y8412D02*
D03*
Y8212D02*
D03*
X13743Y9092D02*
D03*
X13943D02*
D03*
X10583Y8692D02*
D03*
X10383D02*
D03*
X13703Y9672D02*
D03*
X13503D02*
D03*
X13963Y10172D02*
D03*
Y10372D02*
D03*
X9983Y10132D02*
D03*
X9783D02*
D03*
X13043Y9212D02*
D03*
Y9012D02*
D03*
X10703Y9472D02*
D03*
X10503D02*
D03*
X10343D02*
D03*
X10143D02*
D03*
X9803Y9932D02*
D03*
Y9732D02*
D03*
X9983Y9472D02*
D03*
X9783D02*
D03*
X12003Y9992D02*
D03*
Y9792D02*
D03*
X12103Y9012D02*
D03*
Y9212D02*
D03*
X12543Y9992D02*
D03*
Y9792D02*
D03*
X11703Y8992D02*
D03*
Y9192D02*
D03*
X12303D02*
D03*
X12503D02*
D03*
X12183Y9992D02*
D03*
X13603Y9092D02*
D03*
X14163Y9252D02*
D03*
X12163Y10412D02*
D03*
X12183Y9792D02*
D03*
X12363D02*
D03*
Y9992D02*
D03*
X10383Y8852D02*
D03*
X10783D02*
D03*
X7783Y9032D02*
D03*
Y8332D02*
D03*
X14023Y9332D02*
D03*
Y9532D02*
D03*
X13063Y9972D02*
D03*
Y10372D02*
D03*
X6883Y9172D02*
D03*
X6973D02*
D03*
X7063D02*
D03*
D24*
X8183Y8132D02*
D03*
D25*
X9983Y9652D02*
D03*
X13503Y9252D02*
D03*
X10203Y8452D02*
D03*
Y8912D02*
D03*
X7403Y9632D02*
D03*
X11283Y8372D02*
D03*
X11543Y9352D02*
D03*
D26*
X10083Y9652D02*
D03*
X10183D02*
D03*
X10283D02*
D03*
X10383D02*
D03*
X10483D02*
D03*
X10583D02*
D03*
X10683D02*
D03*
Y9952D02*
D03*
X10583D02*
D03*
X10483D02*
D03*
X10383D02*
D03*
X10283D02*
D03*
X10183D02*
D03*
X10083D02*
D03*
X9983D02*
D03*
X13803Y9252D02*
D03*
Y9552D02*
D03*
X13703D02*
D03*
X13603D02*
D03*
X13503D02*
D03*
X10203Y8152D02*
D03*
X10103D02*
D03*
X10003D02*
D03*
X9903D02*
D03*
Y8452D02*
D03*
X10003D02*
D03*
X10103D02*
D03*
Y8912D02*
D03*
X10003D02*
D03*
X9903D02*
D03*
Y8612D02*
D03*
X10003D02*
D03*
X10103D02*
D03*
X10203D02*
D03*
X7403Y9732D02*
D03*
X7103D02*
D03*
Y9632D02*
D03*
X11283Y8672D02*
D03*
X11383D02*
D03*
Y8372D02*
D03*
X12843Y9652D02*
D03*
X12743D02*
D03*
X12643D02*
D03*
X12543D02*
D03*
X12443D02*
D03*
X12343D02*
D03*
X12243D02*
D03*
X12143D02*
D03*
X12043D02*
D03*
X11943D02*
D03*
X11843D02*
D03*
X11743D02*
D03*
X11643D02*
D03*
X11543D02*
D03*
X12843Y9352D02*
D03*
X12743D02*
D03*
X12643D02*
D03*
X12543D02*
D03*
X12443D02*
D03*
X12343D02*
D03*
X12243D02*
D03*
X12143D02*
D03*
X12043D02*
D03*
X11943D02*
D03*
X11843D02*
D03*
X11743D02*
D03*
X11643D02*
D03*
X13603Y9252D02*
D03*
X13703D02*
D03*
D27*
X13363Y10372D02*
D03*
Y9972D02*
D03*
X13203Y10372D02*
D03*
Y9972D02*
D03*
X7983Y9152D02*
D03*
X7543D02*
D03*
X9723Y8412D02*
D03*
Y7972D02*
D03*
X7563Y8512D02*
D03*
Y8952D02*
D03*
X8943Y9852D02*
D03*
Y9952D02*
D03*
D28*
X13803Y8572D02*
D03*
Y8892D02*
D03*
X11823Y8532D02*
D03*
Y8212D02*
D03*
D29*
X13043Y8592D02*
D03*
D30*
X13143D02*
D03*
X13243D02*
D03*
X13343D02*
D03*
X13443D02*
D03*
X13543D02*
D03*
X13643D02*
D03*
Y8892D02*
D03*
X13543D02*
D03*
X13443D02*
D03*
X13343D02*
D03*
X13243D02*
D03*
X13143D02*
D03*
X13043D02*
D03*
X9223Y9953D02*
D03*
Y10032D02*
D03*
X8963Y9332D02*
D03*
Y9432D02*
D03*
X11673Y8392D02*
D03*
X11533D02*
D03*
X11603D02*
D03*
X10093Y9072D02*
D03*
X10233D02*
D03*
X10163D02*
D03*
X13723Y9852D02*
D03*
X13653D02*
D03*
X13793D02*
D03*
X11903Y9462D02*
D03*
X12003Y9472D02*
D03*
X12063Y8882D02*
D03*
X10753Y9022D02*
D03*
X13523Y9452D02*
D03*
X13153Y9412D02*
D03*
X13493Y8982D02*
D03*
X12743Y9492D02*
D03*
X12843Y9062D02*
D03*
X12973Y8692D02*
D03*
X9393Y10472D02*
D03*
X12343Y9482D02*
D03*
X12093Y9592D02*
D03*
Y9492D02*
D03*
D31*
X9483Y8072D02*
D03*
X13263Y8092D02*
D03*
D32*
X8283Y9037D02*
D03*
D33*
X7383Y8352D02*
D03*
D34*
Y8820D02*
D03*
Y8664D02*
D03*
Y8508D02*
D03*
Y8977D02*
D03*
D35*
X8943Y9752D02*
D03*
D36*
X12883Y10192D02*
D03*
D37*
Y10292D02*
D03*
X12783Y10192D02*
D03*
Y10292D02*
D03*
X12683Y10192D02*
D03*
Y10292D02*
D03*
X10383Y10092D02*
D03*
X10283D02*
D03*
X13823Y10032D02*
D03*
X13723D02*
D03*
X13623D02*
D03*
D38*
X10183Y10092D02*
D03*
X13523Y10032D02*
D03*
M02*
